<svg xmlns="http://www.w3.org/2000/svg" version="1.0" viewBox="0 0 142.955 398.08"><defs><clipPath id="anchor_liquid_clip"><rect id="anchor_liquid_bounds" x="6.24" y="6.24" width="131.317" height="385.943" /></clipPath></defs><path d="M 87.668 219.648 L 87.668 32.38 C 83.85 33.06 78.153 33.06 71.798 33.06 C 64.821 33.06 59.105 33.06 55.308 32.38 L 55.308 219.647 C 55.308 250.747 2 271.016 2 336.596 C 2 362.96 19.769 383.927 28.663 389.324 C 36.279 394.061 48.331 396.08 71.797 396.08 C 95.283 396.08 106.697 394.06 114.951 389.324 C 123.206 383.927 140.955 362.96 140.955 336.596 C 140.955 271.016 87.668 250.748 87.668 219.646 Z" fill="#d9f1f7" fill-rule="evenodd" fill-opacity="1" stroke="none" /><path d="M 37.018 255.446 C 37.018 252.448 52.528 250.009 71.638 250.009 C 90.766 250.009 106.256 252.448 106.256 255.446 C 106.256 258.464 90.766 260.883 71.637 260.883 C 52.529 260.883 37.018 258.464 37.018 255.446 Z" fill="#d9f1f7" fill-rule="evenodd" fill-opacity="1" stroke="none" /><path d="M 43.334 6.677 C 43.334 4.098 56.007 2 71.597 2 C 87.207 2 99.86 4.098 99.86 6.677 C 99.86 9.275 87.208 11.354 71.597 11.354 C 56.007 11.354 43.334 9.275 43.334 6.677 Z" fill="#e6f6f9" fill-rule="evenodd" fill-opacity="1" stroke="none" /><path d="M 99.86 12.893 C 99.86 14.932 87.168 16.95 71.917 16.95 C 56.047 16.95 43.334 14.932 43.334 12.893 L 43.334 6.797 C 43.334 9.515 56.047 11.554 71.917 11.554 C 87.167 11.554 99.86 9.515 99.86 6.797 L 99.86 12.893 Z M 93.544 29.743 C 93.544 31.801 84.01 33.181 71.917 33.181 C 59.844 33.181 49.651 31.801 49.651 29.743 L 49.651 25.585 C 49.651 26.985 59.844 29.043 71.917 29.043 C 84.01 29.043 93.544 26.984 93.544 25.585 L 93.544 29.743 Z" fill="#c2e8f1" fill-rule="evenodd" fill-opacity="1" stroke="none" /><path d="M 71.957 26.305 C 77.054 26.305 82.151 25.645 85.949 25.645 L 85.949 16.151 C 81.511 16.831 77.054 16.831 71.957 16.831 C 66.88 16.831 61.783 16.831 57.326 16.151 L 57.326 25.645 C 61.144 25.645 66.241 26.305 71.957 26.305 Z M 71.957 33.08 C 66.241 33.08 61.144 33.08 57.326 32.381 L 57.326 51.45 C 61.144 52.809 66.241 53.488 71.957 53.488 C 77.054 53.488 82.771 52.808 85.949 51.45 L 85.949 32.38 C 82.151 33.08 77.054 33.08 71.957 33.08 Z" fill="#edf8fb" fill-rule="evenodd" fill-opacity="1" stroke="none" /><path d="M 85.929 23.027 L 85.929 25.745 C 82.111 25.745 77.014 26.405 71.917 26.405 C 66.201 26.405 61.104 25.745 57.286 25.745 L 57.286 23.027 C 52.849 23.707 49.651 24.386 49.651 25.745 C 49.651 27.085 59.844 29.103 71.917 29.103 C 84.01 29.103 93.544 27.084 93.544 25.745 C 93.544 24.386 90.366 23.706 85.929 23.027 Z" fill="#e6f6f9" fill-rule="evenodd" fill-opacity="1" stroke="none" /><path d="M 29.903 384.688 C 29.903 380.93 48.531 377.852 71.477 377.852 C 94.444 377.852 113.052 380.93 113.052 384.688 C 113.052 388.465 94.444 391.523 71.477 391.523 C 48.531 391.523 29.903 388.465 29.903 384.688 Z" fill="#bae5f0" fill-rule="evenodd" fill-opacity="1" stroke="none" /><path d="M 59.045 34.46 L 62.843 222.346 C 62.843 267.639 5.837 271.696 5.837 337.236 C 5.837 271.696 58.425 252.088 58.425 221.006 L 59.045 34.46 Z" fill="#fff" fill-rule="evenodd" fill-opacity="1" stroke="none" /><path d="M 83.33 219.748 L 83.33 32.38 L 83.33 33.06 C 78.893 44.573 73.796 221.785 73.796 221.785 C 73.796 252.886 115.071 266.418 115.071 332.039 C 115.071 358.403 108.075 379.369 97.921 388.164 C 94.743 390.883 91.585 393.581 87.128 395.6 C 97.921 394.94 104.918 392.902 110.614 389.524 C 118.869 384.107 136.638 363.14 136.638 336.756 C 136.638 271.156 83.33 250.868 83.33 219.746 Z" fill="#b0e2ed" fill-rule="evenodd" fill-opacity="1" stroke="none" /><path d="M 82.67 220.227 C 82.67 233.779 89.666 245.272 100.46 258.804 C 115.69 277.093 132.84 297.381 135.379 336.637 C 136.019 340.035 135.379 342.733 134.739 345.451 L 136.019 346.111 C 136.638 342.733 136.638 340.035 136.638 336.637 C 136.638 298.06 117.609 274.374 102.998 256.106 C 92.205 243.253 83.31 232.42 83.31 219.548 L 82.67 220.228 Z" fill="#79cde1" fill-rule="evenodd" fill-opacity="1" stroke="none" /><path d="M 83.31 41.815 L 82.67 219.628 C 82.67 232.46 91.565 243.953 101.74 256.805 C 116.97 275.055 135.379 298.04 135.379 336.577 C 135.379 354.147 128.403 369.017 123.326 375.773 C 128.403 369.017 137.917 354.826 137.917 336.577 C 137.917 297.361 118.869 274.374 103.637 255.446 C 93.484 242.614 84.589 231.78 84.589 219.628 L 83.31 41.815 Z" fill="#fff" fill-rule="evenodd" fill-opacity="1" stroke="none" /><path d="M 30.702 377.292 C 14.232 362.422 19.949 298.18 38.298 279.912 C 30.083 292.763 17.41 348.889 30.702 377.292 Z M 6.617 333.958 C 5.357 342.773 11.654 371.875 27.344 383.368 C 23.586 377.292 9.754 353.586 6.617 333.958 Z" fill="#b0e2ed" fill-rule="evenodd" fill-opacity="1" stroke="none" /><path d="M 48.931 375.913 C 59.765 373.195 84.589 372.515 98.581 376.573 C 89.686 370.496 65.481 366.419 48.931 375.913 Z" fill="#fff" fill-rule="evenodd" fill-opacity="1" stroke="none" /><path d="M 110.654 365.62 C 118.169 342.013 115.671 310.992 110.014 296.141 C 111.274 308.973 116.29 337.976 110.654 365.619 Z" fill="#79cde1" fill-rule="evenodd" fill-opacity="1" stroke="none" /><path d="M 59.785 35.74 C 59.785 35.74 58.525 48.691 60.425 49.37 C 62.303 50.05 69.858 51.41 72.997 50.73 C 66.081 49.37 59.785 44.614 59.785 35.74 Z" fill="#fff" fill-rule="evenodd" fill-opacity="1" stroke="none" /><path d="M 60.524 24.426 C 65.601 18.13 82.771 25.106 84.669 17.43 C 78.313 18.83 71.957 18.83 65.601 18.13 C 64.321 18.13 61.144 17.43 59.884 17.43 C 58.605 18.13 57.326 20.928 58.605 23.027 Z" fill="#d1eef5" fill-rule="evenodd" fill-opacity="1" stroke="none" /><path d="M 43.334 6.677 C 43.334 4.098 56.007 2 71.597 2 C 87.207 2 99.86 4.098 99.86 6.677 C 99.86 9.275 87.208 11.354 71.597 11.354 C 56.007 11.354 43.334 9.275 43.334 6.677" fill="none" stroke="#333" stroke-width=".79951543px" stroke-linecap="round" stroke-linejoin="round" stroke-miterlimit="4" stroke-dasharray="none" stroke-opacity="1" /><path d="M 99.86 12.893 C 99.86 14.932 87.168 16.95 71.917 16.95 C 56.047 16.95 43.334 14.932 43.334 12.893 L 43.334 6.797 C 43.334 9.515 56.047 11.554 71.917 11.554 C 87.167 11.554 99.86 9.515 99.86 6.797 L 99.86 12.893 Z M 93.544 29.743 C 93.544 31.801 84.01 33.181 71.917 33.181 C 59.844 33.181 49.651 31.801 49.651 29.743 L 49.651 25.585 C 49.651 26.985 59.844 29.043 71.917 29.043 C 84.01 29.043 93.544 26.984 93.544 25.585 L 93.544 29.743 Z" fill="none" stroke="#333" stroke-width=".79951543px" stroke-linecap="round" stroke-linejoin="round" stroke-miterlimit="4" stroke-dasharray="none" stroke-opacity="1" /><path d="M 71.957 26.305 C 77.054 26.305 82.151 25.645 85.949 25.645 L 85.949 16.151 C 81.511 16.831 77.054 16.831 71.957 16.831 C 66.88 16.831 61.783 16.831 57.326 16.151 L 57.326 25.645 C 61.144 25.645 66.241 26.305 71.957 26.305" fill="none" stroke="#333" stroke-width=".79951543px" stroke-linecap="round" stroke-linejoin="round" stroke-miterlimit="4" stroke-dasharray="none" stroke-opacity="1" /><path d="M 71.957 33.08 C 66.241 33.08 61.144 33.08 57.326 32.381 L 57.326 51.45 C 61.144 52.809 66.241 53.488 71.957 53.488 C 77.054 53.488 82.771 52.808 85.949 51.45 L 85.949 32.38 C 82.151 33.08 77.054 33.08 71.957 33.08" fill="none" stroke="#333" stroke-width=".47970927px" stroke-linecap="round" stroke-linejoin="round" stroke-miterlimit="4" stroke-dasharray="none" stroke-opacity="1" /><path d="M 85.929 23.027 L 85.929 25.745 C 82.111 25.745 77.014 26.405 71.917 26.405 C 66.201 26.405 61.104 25.745 57.286 25.745 L 57.286 23.027 C 52.849 23.707 49.651 24.386 49.651 25.745 C 49.651 27.085 59.844 29.103 71.917 29.103 C 84.01 29.103 93.544 27.084 93.544 25.745 C 93.544 24.386 90.366 23.706 85.929 23.027 M 87.668 219.648 L 87.668 32.38 C 87.668 32.38 87.668 32.38 87.668 32.38 C 83.85 33.06 78.153 33.06 71.798 33.06 C 64.821 33.06 59.105 33.06 55.308 32.38 C 55.308 32.38 55.308 32.38 55.308 32.38 L 55.308 219.647 C 55.308 250.747 2 271.016 2 336.596 C 2 362.96 19.769 383.927 28.663 389.324 C 36.279 394.061 48.331 396.08 71.797 396.08 C 71.797 396.08 71.797 396.08 71.797 396.08 C 95.283 396.08 106.697 394.06 114.951 389.324 C 123.206 383.927 140.955 362.96 140.955 336.596 C 140.955 271.016 87.668 250.748 87.668 219.646" fill="none" stroke="#333" stroke-width=".79951543px" stroke-linecap="round" stroke-linejoin="round" stroke-miterlimit="4" stroke-dasharray="none" stroke-opacity="1" /><path d="M 29.903 384.688 C 29.903 380.93 48.531 377.852 71.477 377.852 C 94.444 377.852 113.052 380.93 113.052 384.688 C 113.052 388.465 94.444 391.523 71.477 391.523 C 48.531 391.523 29.903 388.465 29.903 384.688" fill="none" stroke="#fff" stroke-width=".79951543px" stroke-linecap="round" stroke-linejoin="round" stroke-miterlimit="4" stroke-dasharray="none" stroke-opacity="1" /><path d="M 53.968 256.845 C 53.968 254.187 55.967 252.008 58.405 252.008 C 60.864 252.008 62.843 254.187 62.843 256.845 C 62.843 259.523 60.863 261.682 58.405 261.682 C 55.967 261.682 53.968 259.523 53.968 256.845 Z M 63.642 250.489 C 63.642 248.829 65.062 247.451 66.8 247.451 C 68.56 247.451 69.958 248.83 69.958 250.489 C 69.958 252.168 68.559 253.527 66.8 253.527 C 65.061 253.527 63.642 252.167 63.642 250.489 Z M 47.652 264.72 C 47.652 263.061 48.972 261.682 50.57 261.682 C 52.19 261.682 53.488 263.062 53.488 264.72 C 53.488 266.4 52.189 267.758 50.57 267.758 C 48.971 267.758 47.652 266.399 47.652 264.72 Z" fill="#fff" fill-rule="evenodd" fill-opacity="1" stroke="none" /><rect id="anchor_liquid_bounds" x="6.24" y="6.24" width="131.317" height="385.943" fill="none" stroke="none" display="none" /></svg>