<svg xmlns="http://www.w3.org/2000/svg" version="1.0" viewBox="0 0 180.853 391.525"><defs><clipPath clipPathUnits="userSpaceOnUse" id="a"><path d="M 2.001 2 L 178.853 2 L 178.853 389.525 L 2 389.525 Z" /></clipPath><clipPath id="anchor_liquid_clip"><rect id="anchor_liquid_bounds" x="32.3300" y="118.4500" width="113.2300" height="213.2000" fill="none" stroke="none" display="none"/></clipPath></defs><path d="M 174.136 111.854 C 165.621 101.18 136.079 73.917 122.527 63.243 C 121.047 62.163 119.529 62.163 118.529 62.163 L 118.049 62.163 L 118.049 63.803 C 118.049 63.803 118.049 64.842 117.01 65.402 C 111.014 67.001 100.5 67.52 88.987 67.52 C 76.955 67.52 66.961 67 60.924 65.402 C 59.445 65.402 59.445 63.802 59.445 63.802 L 59.445 63.243 C 43.895 78.193 23.867 97.423 15.352 107.576 C 14.352 109.176 13.353 110.254 12.834 112.373 C 23.867 100.101 41.416 82.471 53.929 70.718 C 55.408 69.119 56.927 69.639 57.926 69.639 C 62.923 70.199 75.476 71.279 87.468 71.279 C 98.502 71.279 109.015 70.199 113.532 69.639 C 115.012 69.119 116.531 70.199 117.01 70.719 C 133.04 85.669 156.107 109.175 164.622 119.849 C 167.1 122.527 168.099 124.646 168.099 130.522 L 168.099 370.257 C 168.099 375.054 166.101 379.331 163.102 382.529 C 166.101 379.331 173.616 369.218 175.615 366.539 C 176.615 363.861 177.614 360.663 177.614 357.465 L 177.614 123.047 C 177.614 116.651 176.134 114.492 174.136 111.854 Z" fill="#90bac4" fill-rule="evenodd" fill-opacity="1" stroke="none" /><path d="M 54.888 7.437 C 54.888 4.958 69.998 2.92 88.628 2.92 C 107.296 2.92 122.368 4.958 122.368 7.437 C 122.368 9.955 107.296 11.954 88.628 11.954 C 69.998 11.954 54.888 9.955 54.888 7.437 Z" fill="#e7e0e3" fill-rule="evenodd" fill-opacity="1" stroke="none" /><path d="M 122.367 54.728 C 122.367 56.847 107.377 58.966 88.907 58.966 C 69.919 58.966 54.888 56.846 54.888 54.728 L 54.888 7.157 C 54.888 9.835 69.918 11.994 88.908 11.994 C 107.376 11.994 122.368 9.835 122.368 7.157 L 122.368 54.728 Z" fill="#c0b0ba" fill-rule="evenodd" fill-opacity="1" stroke="none" /><path d="M 119.969 13.153 L 119.969 52.69 C 119.969 54.81 104.978 56.408 86.429 56.408 C 77.434 56.408 70.919 55.888 64.882 55.368 C 73.397 54.809 100.94 51.611 109.975 43.616 C 118.969 35.621 118.969 20.63 119.969 13.154 Z" fill="#9d869a" fill-rule="evenodd" fill-opacity="1" stroke="none" /><path d="M 88.867 58.966 C 76.315 58.966 65.322 58.446 59.285 56.806 L 59.285 63.843 C 59.285 63.843 59.285 65.442 60.805 65.442 C 66.801 67.081 76.835 67.6 88.867 67.6 C 100.38 67.6 110.894 67.08 116.89 65.442 C 117.89 64.922 117.89 63.842 117.89 63.842 L 117.89 56.807 C 111.893 58.446 101.38 58.966 88.867 58.966 Z" fill="#a9cad2" fill-rule="evenodd" fill-opacity="1" stroke="none" /><path d="M 164.541 119.929 C 156.027 109.255 132.961 85.749 116.971 70.839 C 116.451 70.279 114.931 69.199 113.453 69.759 C 108.935 70.279 98.422 71.359 87.388 71.359 C 75.396 71.359 62.843 70.279 57.846 69.759 C 56.846 69.759 55.328 69.199 53.849 70.839 C 37.819 85.749 14.273 109.775 5.758 120.449 C 4.278 122.607 3.239 124.726 3.239 129.523 L 3.239 370.257 C 3.239 379.851 10.755 388.366 19.789 388.366 L 150.989 388.366 C 160.544 388.366 168.019 379.851 168.019 370.256 L 168.019 130.603 C 168.019 124.727 167.02 122.608 164.542 119.93 Z" fill="#e3eef1" fill-rule="evenodd" fill-opacity="1" stroke="none" /><path d="M 4.638 174.895 C 2.6 174.895 2.6 171.138 4.118 170.098 C 4.118 170.098 10.155 164.182 11.634 162.543 C 13.633 161.463 15.632 161.463 17.671 161.463 L 174.016 161.463 C 177.014 161.463 178.013 162.023 177.014 164.182 C 176.534 165.781 170.498 173.296 170.018 173.856 C 169.498 174.896 168.499 174.896 165.501 174.896 L 4.638 174.896 Z" fill="#f5e4ba" fill-rule="evenodd" fill-opacity="1" stroke="none" /><path d="M 125.965 91.986 C 136.958 102.699 156.426 124.566 158.425 127.244 C 161.383 130.962 160.425 134.2 160.425 141.116 L 160.425 279.392 C 159.425 252.728 155.427 149.671 154.907 138.437 C 154.427 127.244 134.96 104.817 125.965 91.986 Z" fill="#b6d2d9" fill-rule="evenodd" fill-opacity="1" stroke="none" /><path d="M 156.466 174.895 L 160.344 174.895 L 160.344 161.463 L 155.947 161.463 C 155.947 165.781 156.467 170.098 156.467 174.895 Z M 174.016 161.463 L 168.019 161.463 L 168.019 174.336 C 169.019 174.336 169.539 174.336 170.019 173.816 C 170.538 173.296 176.534 165.781 177.014 164.182 C 178.014 162.023 177.014 161.463 174.016 161.463 Z" fill="#e3af41" fill-rule="evenodd" fill-opacity="1" stroke="none" /><path d="M 177.134 162.103 C 177.614 162.663 177.614 163.183 177.134 164.262 C 176.614 165.861 170.618 173.336 170.098 173.856 C 169.618 174.376 169.098 174.376 168.099 174.376 C 168.099 174.936 167.619 174.936 167.1 174.936 L 4.638 174.936 C 3.119 174.936 2.6 172.776 3.119 171.737 L 3.119 370.257 C 3.119 379.851 10.635 388.366 19.669 388.366 L 151.069 388.366 C 155.587 388.366 159.585 386.247 162.583 383.049 C 165.101 380.93 173.616 369.697 175.615 366.499 C 176.615 363.821 177.614 360.623 177.614 357.425 L 177.614 162.103 L 177.134 162.103 Z" fill="#e5b24d" fill-rule="evenodd" fill-opacity="1" stroke="none" /><path d="M 160.344 279.392 L 160.344 174.895 L 156.347 174.895 C 157.866 210.634 159.864 261.803 160.344 279.392 Z M 177.134 164.262 C 176.614 165.861 170.578 173.336 170.058 173.856 C 169.578 174.416 169.058 174.416 168.059 174.416 L 168.059 370.256 C 168.059 375.094 166.021 379.331 162.983 382.529 C 163.503 382.529 163.503 382.529 164.022 382.009 C 164.022 382.009 164.022 381.49 164.502 381.49 L 164.502 380.93 C 164.502 380.93 165.022 380.93 165.022 380.41 L 165.541 380.41 C 165.541 379.891 165.541 379.891 166.021 379.331 L 166.021 378.811 C 166.541 378.811 166.541 378.811 166.541 378.292 C 167.021 378.292 167.021 378.292 167.021 377.732 C 167.54 377.732 167.54 377.732 167.54 377.212 C 168.06 377.212 168.06 376.693 168.06 376.693 L 168.54 376.133 C 168.54 375.613 169.059 375.613 169.059 375.613 C 169.059 375.094 169.579 375.094 169.579 375.094 C 169.579 374.534 170.059 374.534 170.059 374.014 L 170.578 373.495 L 171.058 372.935 C 171.058 372.415 171.058 372.415 171.578 372.415 C 171.578 371.855 171.578 371.855 172.097 371.336 L 172.097 370.816 C 172.577 370.816 172.577 370.816 172.577 370.256 C 173.097 370.256 173.097 370.256 173.097 369.737 L 173.617 369.217 L 173.617 368.657 C 174.096 368.657 174.096 368.138 174.096 368.138 C 174.096 368.138 174.616 368.138 174.616 367.618 L 174.616 367.058 L 175.096 367.058 C 175.096 366.539 175.096 366.539 175.615 366.539 C 176.615 363.861 177.614 360.663 177.614 357.465 L 177.614 162.103 L 177.134 162.103 C 177.614 162.663 177.614 163.183 177.134 164.262 Z" fill="#d87103" fill-rule="evenodd" fill-opacity="1" stroke="none" /><path d="M 122.327 63.243 C 120.848 62.163 119.329 62.163 118.33 62.163 L 117.85 62.163 L 117.85 63.803 C 117.85 63.803 117.85 64.842 116.85 65.402 C 110.814 67 100.341 67.56 88.827 67.56 C 76.795 67.56 66.801 67 60.804 65.402 C 59.285 65.402 59.285 63.802 59.285 63.802 L 59.285 63.243 C 53.289 69.159 46.773 75.595 40.257 81.992 L 42.296 81.992 C 46.293 77.714 50.291 73.956 53.769 70.758 C 55.288 69.159 56.807 69.679 57.806 69.679 C 62.803 70.239 75.316 71.279 87.308 71.279 C 98.342 71.279 108.815 70.239 113.333 69.679 C 114.852 69.159 116.331 70.239 116.85 70.759 C 117.85 71.838 118.85 72.357 119.849 73.437 L 125.325 65.402 C 123.846 64.842 122.847 63.802 122.327 63.243 Z" fill="#dde9ec" fill-rule="evenodd" fill-opacity="1" stroke="none" /><path d="M 116.851 70.718 C 132.921 85.709 155.987 109.215 164.501 119.928 C 166.021 121.528 167.021 123.127 167.5 125.245 C 167.5 125.245 171.537 122.607 176.015 116.171 C 175.535 114.052 175.535 113.493 174.015 111.893 C 165.501 101.22 135.919 73.956 122.367 63.243 C 121.367 62.723 120.848 62.163 120.368 62.163 C 115.851 68.6 115.331 69.679 115.331 69.679 C 115.851 69.679 116.851 70.199 116.851 70.719 Z" fill="#b9d6dd" fill-rule="evenodd" fill-opacity="1" stroke="none" /><path d="M 53.809 70.718 C 54.289 70.198 54.809 69.679 55.288 69.679 C 55.288 69.679 55.808 69.119 59.285 64.322 L 58.805 63.762 C 43.255 78.754 23.187 97.462 15.192 107.616 C 14.672 108.696 14.192 109.256 14.192 109.775 L 13.673 109.775 C 10.675 114.052 7.677 118.33 5.638 120.448 C 14.193 109.775 37.738 85.709 53.808 70.718 Z" fill="#f6fafb" fill-rule="evenodd" fill-opacity="1" stroke="none" /><path d="M 4.638 174.895 L 12.194 174.895 L 12.194 162.503 L 11.714 162.503 C 10.195 164.142 4.119 170.058 4.119 170.058 C 2.599 171.138 2.599 174.895 4.639 174.895 Z" fill="#e3af41" fill-rule="evenodd" fill-opacity="1" stroke="none" /><path d="M 5.678 120.448 C 4.158 122.607 3.119 124.726 3.119 129.523 L 3.119 175.295 L 3.639 174.255 C 2.599 173.176 2.599 171.058 4.159 169.978 C 4.159 169.978 10.275 164.142 11.834 162.543 L 12.354 162.543 L 12.354 164.142 L 12.834 164.142 L 12.354 119.409 L 12.834 112.453 C 9.795 115.651 7.717 118.33 5.678 120.448 Z" fill="#a9cad2" fill-rule="evenodd" fill-opacity="1" stroke="none" /><path d="M 29.184 375.574 C 19.669 375.574 12.154 367.579 12.154 357.424 L 12.154 174.936 L 4.638 174.936 C 3.119 174.936 2.6 172.778 3.119 171.698 L 3.119 370.258 C 3.119 379.852 10.635 388.367 19.669 388.367 L 150.989 388.367 C 155.507 388.367 159.505 386.248 162.503 383.05 C 164.022 381.97 167.02 377.693 170.018 373.976 L 170.018 372.376 C 167.54 374.496 164.022 375.575 160.504 375.575 L 29.184 375.575 Z" fill="#d98e05" fill-rule="evenodd" fill-opacity="1" stroke="none" /><path d="M 12.274 121.488 C 12.274 116.691 56.287 71.358 57.806 70.278 C 59.286 69.199 56.287 69.759 56.287 69.759 L 35.781 88.947 L 11.235 115.092 Z" fill="#a9cad2" fill-rule="evenodd" fill-opacity="1" stroke="none" /><path d="M 16.191 387.966 L 25.226 375.134 C 19.23 373.534 14.712 369.258 13.193 363.341 L 3.639 375.654 C 5.678 381.57 10.195 386.367 16.191 387.966 Z" fill="#d98004" fill-rule="evenodd" fill-opacity="1" stroke="none" /><path d="M 67.281 176.894 L 157.946 176.894 L 157.946 187.128 C 156.946 183.93 155.946 180.132 150.95 180.132 Z" fill="#d87103" fill-rule="evenodd" fill-opacity="1" stroke="none" /><path d="M 162.983 133.24 L 162.983 372.376 C 162.983 377.692 158.985 382.529 156.506 385.728 C 155.986 386.248 153.468 386.767 151.469 386.767 L 33.221 386.767 C 49.771 386.247 146.952 385.167 151.469 384.648 C 155.987 383.568 160.504 378.252 161.503 371.856 Z" fill="#d98004" fill-rule="evenodd" fill-opacity="1" stroke="none" /><path d="M 160.344 375.574 C 158.345 380.371 154.867 384.129 151.35 384.648 C 146.832 385.168 49.771 386.248 33.221 386.767 L 151.351 386.767 C 153.349 386.767 155.868 386.247 156.348 385.727 C 158.346 383.049 161.345 379.331 162.344 375.574 L 160.345 375.574 Z" fill="#b65402" fill-rule="evenodd" fill-opacity="1" stroke="none" /><path d="M 56.887 48.332 L 56.887 11.994 C 56.887 11.994 56.887 10.914 58.406 11.474 C 66.881 13.074 74.356 14.153 84.31 14.153 C 75.835 14.673 67.36 14.673 62.883 15.752 C 58.886 16.832 58.886 40.857 56.887 48.332 Z" fill="#f7f4f4" fill-rule="evenodd" fill-opacity="1" stroke="none" /><path d="M 115.891 58.406 L 115.891 62.204 C 115.891 64.922 100.901 66.001 82.391 66.001 C 73.397 66.001 66.921 64.922 60.884 64.402 C 69.399 63.842 114.892 65.482 115.891 58.406 Z" fill="#55919f" fill-rule="evenodd" fill-opacity="1" stroke="none" /><path d="M 121.967 63.243 C 121.487 62.723 120.968 62.163 120.448 62.163 C 115.451 68.6 114.932 69.679 114.932 69.679 C 115.971 69.679 116.451 70.239 116.97 70.759 C 118.45 71.838 119.969 73.437 121.488 75.036 C 121.488 72.357 121.968 66.481 125.965 66.481 C 124.485 64.882 123.486 63.803 121.967 63.243 Z" fill="#e3eef1" fill-rule="evenodd" fill-opacity="1" stroke="none" /><path clip-path="url(#a)" d="M 25.226 375.174 C 20.789 381.53 15.792 387.327 15.792 387.327 M 12.834 362.302 C 8.236 368.698 3.639 374.534 3.639 374.534" fill="none" stroke="#e2ac40" stroke-width=".79951543px" stroke-linecap="butt" stroke-linejoin="miter" stroke-miterlimit="8" stroke-dasharray="none" stroke-opacity="1" /><path d="M 172.017 370.697 C 174.056 368.617 175.575 365.98 176.574 363.341" fill="none" stroke="#333" stroke-width=".79951543px" stroke-linecap="round" stroke-linejoin="round" stroke-miterlimit="10" stroke-dasharray="none" stroke-opacity="1" /><path d="M 12.194 176.894 L 12.194 357.424 C 12.194 367.579 19.709 375.574 29.264 375.574 L 160.504 375.574 C 165.021 375.574 169.019 373.455 172.017 370.777" fill="none" stroke="#efd392" stroke-width=".79951543px" stroke-linecap="butt" stroke-linejoin="miter" stroke-miterlimit="8" stroke-dasharray="none" stroke-opacity="1" /><path d="M 12.234 122.047 L 11.794 160.904 L 12.834 160.904 L 12.234 122.047 Z" fill="#fff" fill-rule="evenodd" fill-opacity="1" stroke="none" /><path clip-path="url(#a)" d="M 4.638 174.895 C 2.6 174.895 2.6 171.138 4.118 170.098 C 4.118 170.098 10.155 164.182 11.634 162.543 C 13.633 161.463 15.632 161.463 17.671 161.463 L 174.016 161.463 C 177.014 161.463 178.013 162.023 177.014 164.182 C 176.534 165.781 170.498 173.296 170.018 173.856 C 169.498 174.896 168.499 174.896 165.501 174.896 L 4.638 174.896" fill="none" stroke="#fff" stroke-width=".79951543px" stroke-linecap="round" stroke-linejoin="round" stroke-miterlimit="10" stroke-dasharray="none" stroke-opacity="1" /><path d="M 54.888 7.437 C 54.888 4.958 69.998 2.92 88.628 2.92 C 107.296 2.92 122.368 4.958 122.368 7.437 C 122.368 9.955 107.296 11.954 88.628 11.954 C 69.998 11.954 54.888 9.955 54.888 7.437" fill="none" stroke="#333" stroke-width=".79951543px" stroke-linecap="round" stroke-linejoin="round" stroke-miterlimit="10" stroke-dasharray="none" stroke-opacity="1" /><path d="M 122.367 54.728 C 122.367 56.847 107.377 58.966 88.907 58.966 C 69.919 58.966 54.888 56.846 54.888 54.728 L 54.888 7.157 C 54.888 9.835 69.918 11.994 88.908 11.994 C 107.376 11.994 122.368 9.835 122.368 7.157 L 122.368 54.728 Z M 164.541 119.929 C 156.027 109.255 132.961 85.749 116.971 70.839 C 116.451 70.279 114.931 69.199 113.453 69.759 C 108.935 70.279 98.422 71.359 87.388 71.359 C 75.396 71.359 62.843 70.279 57.846 69.759 C 56.846 69.759 55.328 69.199 53.849 70.839 C 37.819 85.749 14.273 109.775 5.758 120.449 C 4.278 122.607 3.239 124.726 3.239 129.523 L 3.239 370.257 C 3.239 379.851 10.755 388.366 19.789 388.366 L 85.389 388.366 C 85.389 388.366 85.389 388.366 85.389 388.366 L 150.989 388.366 C 160.544 388.366 168.019 379.851 168.019 370.256 L 168.019 130.603 C 168.019 124.727 167.02 122.608 164.542 119.93 M 173.616 368.698 L 164.342 381.57" fill="none" stroke="#333" stroke-width=".79951543px" stroke-linecap="round" stroke-linejoin="round" stroke-miterlimit="10" stroke-dasharray="none" stroke-opacity="1" /><path d="M 176.614 363.341 C 177.134 361.742 177.614 359.623 177.614 357.505 L 177.614 123.047 C 177.614 116.651 176.134 114.532 174.136 111.854 C 165.581 101.18 135.999 73.917 122.487 63.243 C 120.968 62.163 119.449 62.163 118.45 62.163 L 117.97 62.163 L 117.97 63.803 C 117.97 63.803 117.97 64.842 116.97 65.402 C 110.934 67.001 100.42 67.52 88.867 67.52 C 76.835 67.52 66.801 67 60.804 65.402 C 59.285 65.402 59.285 63.802 59.285 63.802 L 59.285 63.243 C 43.735 78.193 23.667 97.423 15.152 107.576 C 15.152 107.576 14.632 108.656 14.152 109.695 C 9.116 115.571 4.599 122.007 4.599 122.007" fill="none" stroke="#333" stroke-width=".79951543px" stroke-linecap="round" stroke-linejoin="round" stroke-miterlimit="10" stroke-dasharray="none" stroke-opacity="1" /><path d="M 88.867 58.966 C 76.315 58.966 65.322 58.446 59.285 56.806 L 59.285 63.843 C 59.285 63.843 59.285 65.442 60.805 65.442 C 66.801 67.081 76.835 67.6 88.867 67.6 C 100.38 67.6 110.894 67.08 116.89 65.442 C 117.89 64.922 117.89 63.842 117.89 63.842 L 117.89 56.807 C 111.893 58.446 101.38 58.966 88.867 58.966" fill="none" stroke="#333" stroke-width=".79951543px" stroke-linecap="round" stroke-linejoin="round" stroke-miterlimit="10" stroke-dasharray="none" stroke-opacity="1" /><path d="M 128.523 201.56 C 130.523 201.56 132.001 203.198 132.001 205.317 L 132.001 264.521 C 132.001 266.64 130.522 268.239 128.523 268.239 L 41.416 268.239 C 39.417 268.239 37.898 266.639 37.898 264.521 L 37.898 205.317 C 37.898 203.198 39.418 201.559 41.416 201.559 L 128.523 201.559 Z" fill="none" stroke="#db7703" stroke-width="5.0369473px" stroke-linecap="butt" stroke-linejoin="miter" stroke-miterlimit="8" stroke-dasharray="none" stroke-opacity="1" /><path d="M 128.483 201.52 C 130.483 201.52 131.961 203.158 131.961 205.277 L 131.961 264.481 C 131.961 266.6 130.482 268.199 128.483 268.199 L 41.376 268.199 C 39.377 268.199 37.858 266.599 37.858 264.481 L 37.858 205.277 C 37.858 203.158 39.378 201.519 41.376 201.519 L 128.483 201.519 Z" fill="#ebebeb" fill-rule="evenodd" fill-opacity="1" stroke="none" /><path d="M 45.854 212.313 C 45.854 210.193 47.333 208.595 49.331 208.595 C 49.331 208.595 127.324 203.758 125.325 203.758 L 43.855 203.758 C 42.335 203.758 40.817 205.397 40.817 206.996 L 40.817 263.002 C 40.817 264.601 45.854 212.312 45.854 212.312 Z" fill="#fff" fill-rule="evenodd" fill-opacity="1" stroke="none" /><path d="M 124.446 257.685 C 124.446 259.804 122.966 261.403 121.448 261.403 C 121.448 261.403 43.215 266.2 44.734 266.2 L 126.484 266.2 C 128.484 266.2 129.963 264.6 129.963 263.002 L 129.963 206.996 C 129.963 205.356 124.446 257.686 124.446 257.686 Z" fill="#c4c4c4" fill-rule="evenodd" fill-opacity="1" stroke="none" /><path d="M 128.483 201.52 C 130.483 201.52 131.961 203.158 131.961 205.277 L 131.961 264.481 C 131.961 266.6 130.482 268.199 128.483 268.199 L 41.376 268.199 C 39.377 268.199 37.858 266.599 37.858 264.481 L 37.858 205.277 C 37.858 203.158 39.378 201.519 41.376 201.519 L 128.483 201.519 Z" fill="none" stroke="#333" stroke-width=".79951543px" stroke-linecap="round" stroke-linejoin="round" stroke-miterlimit="10" stroke-dasharray="none" stroke-opacity="1" /><path d="M 163.941 122.487 C 155.467 111.814 132.441 88.347 116.411 73.397 C 115.931 72.837 114.411 71.757 112.933 72.317 C 107.936 72.837 97.423 73.917 86.909 73.917 C 74.876 74.437 63.403 73.397 57.886 72.317 C 56.886 72.317 55.368 72.317 54.368 73.917 C 42.855 84.07 32.861 95.823 27.345 102.219 C 23.347 106.497 19.869 111.294 16.831 115.012 C 26.865 103.818 40.377 87.788 50.891 78.714 C 51.89 77.114 55.368 73.397 57.367 73.917 C 62.883 74.437 73.877 76.595 85.909 76.595 C 96.423 76.595 104.898 76.035 109.935 75.515 C 111.414 74.995 112.933 76.035 113.413 76.595 C 129.443 91.545 152.469 115.012 160.943 125.725 C 162.943 128.364 162.943 126.765 162.943 133.201 L 162.943 372.416 C 162.943 377.732 158.945 382.529 156.466 385.728 C 162.463 382.529 165.941 376.653 165.941 369.178 L 165.941 129.963 C 165.941 123.566 165.941 125.165 163.941 122.487 Z M 33.861 174.815 C 33.861 171.937 36.099 169.539 38.858 169.539 C 41.656 169.539 43.855 171.937 43.855 174.815 C 43.855 177.734 41.656 180.092 38.858 180.092 C 36.099 180.092 33.861 177.734 33.861 174.815 Z M 24.187 174.615 C 24.187 172.697 25.706 171.138 27.505 171.138 C 29.344 171.138 30.823 172.697 30.823 174.615 C 30.823 176.575 29.343 178.093 27.505 178.093 C 25.705 178.093 24.187 176.574 24.187 174.615 Z" fill="#fff" fill-rule="evenodd" fill-opacity="1" stroke="none" /><path d="M 46.253 174.615 C 46.253 172.697 47.773 171.138 49.571 171.138 C 51.411 171.138 52.889 172.697 52.889 174.615 C 52.889 176.575 51.41 178.093 49.571 178.093 C 47.772 178.093 46.253 176.574 46.253 174.615 Z M 48.811 80.792 C 37.818 91.506 18.271 117.69 16.271 120.328 C 13.233 124.086 14.273 127.284 14.273 134.24 L 14.273 272.596 C 15.272 245.892 19.27 142.795 19.749 131.562 C 20.269 120.328 39.817 93.625 48.812 80.792 Z" fill="#fff" fill-rule="evenodd" fill-opacity="1" stroke="none" /></svg>