<svg xmlns="http://www.w3.org/2000/svg" version="1.0" viewBox="0 0 180.693 391.925"><defs><clipPath clipPathUnits="userSpaceOnUse" id="a"><path d="M 2.001 2 L 178.693 2 L 178.693 389.925 L 2 389.925 Z" /></clipPath><clipPath id="anchor_liquid_clip"><rect id="anchor_liquid_bounds" x="32.3300" y="118.4500" width="113.2300" height="213.2000" fill="none" stroke="none" display="none"/></clipPath></defs><path d="M 173.976 111.933 C 165.461 101.26 135.879 73.996 122.367 63.323 C 120.848 62.243 119.329 62.243 118.33 62.243 L 117.85 62.243 L 117.85 63.883 C 117.85 63.883 117.85 64.922 116.85 65.482 C 110.814 67.081 100.3 67.6 88.787 67.6 C 76.755 67.6 66.721 67.08 60.724 65.482 C 59.205 65.482 59.205 63.882 59.205 63.882 L 59.205 63.322 C 43.695 78.274 23.627 97.502 15.112 107.656 C 14.112 109.256 13.113 110.334 12.594 112.453 C 23.627 100.181 41.176 82.551 53.689 70.798 C 55.208 69.199 56.727 69.759 57.726 69.759 C 62.723 70.279 75.236 71.359 87.268 71.359 C 98.302 71.359 108.815 70.279 113.333 69.759 C 114.852 69.199 116.331 70.279 116.85 70.799 C 132.88 85.749 155.907 109.255 164.462 119.929 C 166.94 122.607 167.94 124.766 167.94 130.642 L 167.94 370.417 C 167.94 375.214 165.94 379.491 162.943 382.689 C 165.941 379.491 173.456 369.337 175.455 366.699 C 176.455 364.021 177.454 360.823 177.454 357.625 L 177.454 123.167 C 177.454 116.731 175.974 114.612 173.976 111.933 Z" fill="#90bac4" fill-rule="evenodd" fill-opacity="1" stroke="none" /><path d="M 54.648 7.557 C 54.648 4.998 69.839 2.92 88.508 2.92 C 107.216 2.92 122.368 4.998 122.368 7.557 C 122.368 10.155 107.216 12.194 88.508 12.194 C 69.839 12.194 54.648 10.155 54.648 7.557 Z" fill="#e7e0e3" fill-rule="evenodd" fill-opacity="1" stroke="none" /><path d="M 122.367 54.808 C 122.367 56.927 107.337 59.046 88.787 59.046 C 69.719 59.046 54.648 56.926 54.648 54.808 L 54.648 7.317 C 54.648 9.995 69.719 12.154 88.788 12.154 C 107.336 12.154 122.368 9.995 122.368 7.317 L 122.368 54.808 Z" fill="#c0b0ba" fill-rule="evenodd" fill-opacity="1" stroke="none" /><path d="M 119.729 13.153 L 119.729 52.69 C 119.729 54.81 104.738 56.408 86.189 56.408 C 77.195 56.408 70.679 55.888 64.642 55.368 C 73.157 54.809 100.7 51.611 109.735 43.616 C 118.729 35.621 118.729 20.63 119.729 13.154 Z" fill="#9d869a" fill-rule="evenodd" fill-opacity="1" stroke="none" /><path d="M 88.787 59.205 C 76.275 59.205 65.282 58.645 59.285 57.047 L 59.285 63.963 C 59.285 63.963 59.285 65.562 60.805 65.562 C 66.801 67.16 76.794 67.68 88.786 67.68 C 100.26 67.68 110.773 67.16 116.73 65.562 C 117.729 65.042 117.729 63.962 117.729 63.962 L 117.729 57.047 C 111.773 58.646 101.259 59.205 88.786 59.205 Z" fill="#a9cad2" fill-rule="evenodd" fill-opacity="1" stroke="none" /><path d="M 116.371 58.646 L 116.371 62.324 C 116.371 64.962 101.34 66.001 82.231 66.001 C 73.197 66.001 66.681 64.961 60.645 64.442 C 69.199 63.922 114.892 65.482 116.371 58.646 Z" fill="#55919f" fill-rule="evenodd" fill-opacity="1" stroke="none" /><path d="M 164.301 120.049 C 155.787 109.375 132.721 85.869 116.731 70.919 C 116.211 70.359 114.691 69.279 113.213 69.839 C 108.695 70.359 98.182 71.438 87.148 71.438 C 75.156 71.438 62.603 70.358 57.606 69.839 C 56.607 69.839 55.088 69.279 53.609 70.919 C 37.579 85.869 14.033 109.895 5.518 120.569 C 4.038 122.727 2.999 124.846 2.999 129.643 L 2.999 370.537 C 2.999 380.171 10.515 388.686 19.549 388.686 L 150.749 388.686 C 160.304 388.686 167.779 380.171 167.779 370.536 L 167.779 130.723 C 167.779 124.847 166.78 122.728 164.302 120.05 Z" fill="#e3eef1" fill-rule="evenodd" fill-opacity="1" stroke="none" /><path d="M 4.638 174.975 C 2.6 174.975 2.6 171.218 4.118 170.178 C 4.118 170.178 10.115 164.262 11.634 162.623 C 13.633 161.543 15.632 161.543 17.631 161.543 L 173.856 161.543 C 176.854 161.543 177.854 162.103 176.854 164.262 C 176.374 165.861 170.378 173.376 169.858 173.936 C 169.378 174.976 168.339 174.976 165.341 174.976 L 4.638 174.976 Z" fill="#eacbe1" fill-rule="evenodd" fill-opacity="1" stroke="none" /><path d="M 125.725 92.305 C 136.798 103.019 156.387 124.925 158.385 127.564 C 161.383 131.322 160.385 134.52 160.385 141.476 L 160.385 279.792 C 159.385 253.088 155.387 150.03 154.867 138.797 C 154.387 127.564 134.8 105.137 125.725 92.305 Z" fill="#b6d2d9" fill-rule="evenodd" fill-opacity="1" stroke="none" /><path d="M 156.307 174.975 L 160.424 174.975 L 160.424 161.543 L 155.787 161.543 C 155.787 165.861 156.307 170.178 156.307 174.975 Z" fill="#c393c0" fill-rule="evenodd" fill-opacity="1" stroke="none" /><path d="M 173.856 161.543 L 167.78 161.543 L 167.78 174.416 C 168.819 174.416 169.299 174.416 169.818 173.896 C 170.298 173.376 176.374 165.861 176.854 164.262 C 177.854 162.103 176.854 161.543 173.856 161.543 Z" fill="#c09fc5" fill-rule="evenodd" fill-opacity="1" stroke="none" /><path d="M 176.974 162.183 C 177.454 162.743 177.454 163.263 176.974 164.342 C 176.454 165.941 170.458 173.416 169.938 173.936 C 169.458 174.496 168.938 174.496 167.94 174.496 C 167.94 175.016 167.46 175.016 166.94 175.016 L 4.638 175.016 C 3.119 175.016 2.6 172.896 3.119 171.817 L 3.119 370.537 C 3.119 380.171 10.635 388.686 19.669 388.686 L 150.909 388.686 C 155.427 388.686 159.425 386.567 162.423 383.369 C 164.941 381.21 173.456 370.017 175.455 366.819 C 176.455 364.141 177.454 360.943 177.454 357.705 L 177.454 162.183 L 176.974 162.183 Z" fill="#b64392" fill-rule="evenodd" fill-opacity="1" stroke="none" /><path d="M 160.424 279.792 L 160.424 174.975 L 156.426 174.975 C 157.946 210.834 159.944 262.162 160.424 279.792 Z" fill="#88016c" fill-rule="evenodd" fill-opacity="1" stroke="none" /><path d="M 176.974 164.342 C 176.454 165.941 170.418 173.416 169.898 173.936 C 169.418 174.496 168.898 174.496 167.9 174.496 L 167.9 370.416 C 167.9 375.214 165.86 379.491 162.823 382.689 C 163.343 382.689 163.343 382.689 163.862 382.169 C 163.862 382.169 163.862 381.65 164.342 381.65 L 164.342 381.09 C 164.342 381.09 164.862 381.09 164.862 380.57 L 165.382 380.57 C 165.382 380.051 165.382 380.051 165.861 379.491 L 165.861 378.971 C 166.381 378.971 166.381 378.971 166.381 378.451 C 166.861 378.451 166.861 378.451 166.861 377.892 C 167.38 377.892 167.38 377.892 167.38 377.372 C 167.9 377.372 167.9 376.852 167.9 376.852 L 168.38 376.293 C 168.38 375.773 168.899 375.773 168.899 375.773 C 168.899 375.213 169.419 375.213 169.419 375.213 C 169.419 374.694 169.899 374.694 169.899 374.175 L 170.418 373.615 L 170.898 373.095 C 170.898 372.575 170.898 372.575 171.418 372.575 C 171.418 372.015 171.418 372.015 171.938 371.496 L 171.938 370.976 C 172.417 370.976 172.417 370.976 172.417 370.416 C 172.937 370.416 172.937 370.416 172.937 369.897 L 173.457 369.377 L 173.457 368.817 C 173.936 368.817 173.936 368.298 173.936 368.298 C 173.936 368.298 174.456 368.298 174.456 367.778 L 174.456 367.218 L 174.936 367.218 C 174.936 366.699 174.936 366.699 175.455 366.699 C 176.455 364.021 177.454 360.823 177.454 357.625 L 177.454 162.183 L 176.974 162.183 C 177.454 162.743 177.454 163.263 176.974 164.342 Z" fill="#95207d" fill-rule="evenodd" fill-opacity="1" stroke="none" /><path d="M 122.327 63.323 C 120.848 62.243 119.329 62.243 118.33 62.243 L 117.85 62.243 L 117.85 63.883 C 117.85 63.883 117.85 64.922 116.85 65.482 C 110.814 67.081 100.34 67.64 88.827 67.64 C 76.795 67.64 66.801 67.08 60.804 65.482 C 59.285 65.482 59.285 63.882 59.285 63.882 L 59.285 63.322 C 53.289 69.239 46.773 75.675 40.257 82.072 L 42.296 82.072 C 46.293 77.794 50.291 74.036 53.769 70.838 C 55.288 69.239 56.807 69.759 57.806 69.759 C 62.803 70.319 75.316 71.359 87.308 71.359 C 98.342 71.359 108.815 70.319 113.333 69.759 C 114.852 69.239 116.331 70.319 116.85 70.839 C 117.85 71.918 118.85 72.437 119.849 73.517 L 125.325 65.482 C 123.846 64.922 122.847 63.882 122.327 63.322 Z" fill="#dde9ec" fill-rule="evenodd" fill-opacity="1" stroke="none" /><path d="M 116.851 70.798 C 132.841 85.789 155.867 109.295 164.381 120.008 C 165.861 121.608 166.861 123.207 167.38 125.325 C 167.38 125.325 171.377 122.687 175.855 116.251 C 175.375 114.132 175.375 113.572 173.855 111.973 C 165.381 101.3 135.839 74.036 122.367 63.323 C 121.367 62.803 120.848 62.243 120.368 62.243 C 115.851 68.68 115.331 69.759 115.331 69.759 C 115.851 69.759 116.851 70.279 116.851 70.799 Z" fill="#b9d6dd" fill-rule="evenodd" fill-opacity="1" stroke="none" /><path d="M 53.789 70.798 C 54.289 70.278 54.789 69.739 55.288 69.739 C 55.288 69.739 55.788 69.199 59.285 64.382 L 58.785 63.842 C 43.255 78.834 23.187 97.542 15.172 107.696 C 14.672 108.776 14.172 109.316 14.172 109.835 L 13.673 109.835 C 10.655 114.112 7.657 118.39 5.638 120.528 C 14.173 109.835 37.738 85.769 53.788 70.798 Z" fill="#f6fafb" fill-rule="evenodd" fill-opacity="1" stroke="none" /><path d="M 4.599 174.975 L 12.034 174.975 L 12.034 162.743 L 11.554 162.743 C 10.055 164.342 4.099 170.198 4.099 170.198 C 2.599 171.258 2.599 174.975 4.599 174.975 Z" fill="#c09fc5" fill-rule="evenodd" fill-opacity="1" stroke="none" /><path d="M 5.598 120.568 C 4.098 122.707 3.099 124.846 3.099 129.643 L 3.099 175.615 L 3.599 174.555 C 2.599 173.476 2.599 171.357 4.099 170.278 C 4.099 170.278 10.095 164.402 11.594 162.803 L 12.094 162.803 L 12.094 164.402 L 12.594 164.402 L 12.094 119.489 L 12.594 112.533 C 9.595 115.751 7.597 118.43 5.598 120.568 Z" fill="#a9cad2" fill-rule="evenodd" fill-opacity="1" stroke="none" /><path d="M 29.144 375.893 C 19.629 375.893 12.114 367.858 12.114 357.705 L 12.114 175.015 L 4.638 175.015 C 3.119 175.015 2.6 172.857 3.119 171.777 L 3.119 370.537 C 3.119 380.171 10.635 388.686 19.629 388.686 L 150.789 388.686 C 155.267 388.686 159.305 386.567 162.303 383.369 C 163.782 382.289 166.78 378.012 169.778 374.294 L 169.778 372.695 C 167.3 374.815 163.782 375.893 160.304 375.893 L 29.144 375.893 Z" fill="#95207d" fill-rule="evenodd" fill-opacity="1" stroke="none" /><path d="M 12.014 121.488 C 12.014 116.711 56.267 71.418 57.786 70.358 C 59.286 69.279 56.267 69.819 56.267 69.819 L 35.661 89.007 L 10.996 115.112 Z" fill="#a9cad2" fill-rule="evenodd" fill-opacity="1" stroke="none" /><path d="M 16.111 388.126 L 25.066 375.294 C 19.09 373.674 14.612 369.397 13.113 363.501 L 3.639 375.814 C 5.638 381.71 10.135 386.527 16.112 388.126 Z" fill="#84016a" fill-rule="evenodd" fill-opacity="1" stroke="none" /><path d="M 67.281 177.214 L 157.786 177.214 L 157.786 187.208 C 156.786 184.09 155.786 180.372 150.79 180.372 Z" fill="#88016c" fill-rule="evenodd" fill-opacity="1" stroke="none" /><path d="M 162.823 133.32 L 162.823 372.695 C 162.823 378.012 158.825 382.849 156.347 386.047 C 155.827 386.567 153.348 387.087 151.35 387.087 L 33.221 387.087 C 49.771 386.567 146.832 385.487 151.35 384.968 C 155.827 383.888 160.344 378.572 161.344 372.136 Z" fill="#88016c" fill-rule="evenodd" fill-opacity="1" stroke="none" /><path d="M 160.424 375.893 C 158.425 380.691 154.947 384.448 151.43 384.968 C 146.912 385.488 49.771 386.567 33.221 387.087 L 151.431 387.087 C 153.429 387.087 155.948 386.567 156.427 386.047 C 158.427 383.369 161.424 379.651 162.424 375.893 L 160.425 375.893 Z" fill="#5d014a" fill-rule="evenodd" fill-opacity="1" stroke="none" /><path d="M 56.647 48.412 L 56.647 12.074 C 56.647 12.074 56.647 10.994 58.166 11.534 C 66.721 13.134 74.256 14.213 84.31 14.213 C 75.775 14.753 67.22 14.753 62.683 15.812 C 58.666 16.892 58.666 40.936 56.647 48.412 Z" fill="#f7f4f4" fill-rule="evenodd" fill-opacity="1" stroke="none" /><path d="M 122.367 63.323 C 121.367 62.803 120.848 62.243 120.368 62.243 C 115.851 68.64 115.331 69.719 115.331 69.719 C 115.851 69.719 116.851 70.239 116.851 70.799 C 118.37 71.838 119.849 73.437 121.368 75.036 C 121.368 72.397 122.368 66.521 126.365 66.521 C 124.885 64.922 123.367 63.843 122.367 63.323 Z" fill="#e3eef1" fill-rule="evenodd" fill-opacity="1" stroke="none" /><path clip-path="url(#a)" d="M 25.066 375.254 C 20.609 381.65 15.632 387.486 15.632 387.486 M 12.594 362.462 C 8.116 368.858 3.639 374.694 3.639 374.694" fill="none" stroke="#bc6eac" stroke-width=".79951543px" stroke-linecap="butt" stroke-linejoin="miter" stroke-miterlimit="8" stroke-dasharray="none" stroke-opacity="1" /><path d="M 171.857 371.096 C 173.896 368.938 175.415 366.219 176.414 363.501" fill="none" stroke="#333" stroke-width=".79951543px" stroke-linecap="round" stroke-linejoin="round" stroke-miterlimit="10" stroke-dasharray="none" stroke-opacity="1" /><path d="M 12.034 177.214 L 12.034 357.744 C 12.034 367.898 19.549 375.894 29.104 375.894 L 160.344 375.894 C 164.861 375.894 168.859 373.774 171.857 371.096" fill="none" stroke="#dba6cb" stroke-width=".79951543px" stroke-linecap="butt" stroke-linejoin="miter" stroke-miterlimit="8" stroke-dasharray="none" stroke-opacity="1" /><path d="M 12.034 122.127 L 11.634 161.144 L 12.594 161.144 L 12.034 122.127 Z" fill="#fff" fill-rule="evenodd" fill-opacity="1" stroke="none" /><path clip-path="url(#a)" d="M 4.638 174.975 C 2.6 174.975 2.6 171.218 4.118 170.178 C 4.118 170.178 10.115 164.262 11.634 162.623 C 13.633 161.543 15.632 161.543 17.631 161.543 L 173.856 161.543 C 176.854 161.543 177.854 162.103 176.854 164.262 C 176.374 165.861 170.378 173.376 169.858 173.936 C 169.378 174.976 168.339 174.976 165.341 174.976 L 4.638 174.976" fill="none" stroke="#fff" stroke-width=".79951543px" stroke-linecap="round" stroke-linejoin="round" stroke-miterlimit="10" stroke-dasharray="none" stroke-opacity="1" /><path d="M 54.648 7.557 C 54.648 4.998 69.839 2.92 88.508 2.92 C 107.216 2.92 122.368 4.998 122.368 7.557 C 122.368 10.155 107.216 12.194 88.508 12.194 C 69.839 12.194 54.648 10.155 54.648 7.557" fill="none" stroke="#333" stroke-width=".79951543px" stroke-linecap="round" stroke-linejoin="round" stroke-miterlimit="10" stroke-dasharray="none" stroke-opacity="1" /><path d="M 122.367 54.808 C 122.367 56.927 107.337 59.046 88.787 59.046 C 69.719 59.046 54.648 56.926 54.648 54.808 L 54.648 7.317 C 54.648 9.995 69.719 12.154 88.788 12.154 C 107.336 12.154 122.368 9.995 122.368 7.317 L 122.368 54.808 Z M 164.301 120.049 C 155.787 109.375 132.721 85.869 116.731 70.919 C 116.211 70.359 114.691 69.279 113.213 69.839 C 108.695 70.359 98.182 71.438 87.148 71.438 C 75.156 71.438 62.603 70.358 57.606 69.839 C 56.607 69.839 55.088 69.279 53.609 70.919 C 37.579 85.869 14.033 109.895 5.518 120.569 C 4.038 122.727 2.999 124.846 2.999 129.643 L 2.999 370.537 C 2.999 380.171 10.515 388.686 19.549 388.686 L 85.149 388.686 C 85.149 388.686 85.149 388.686 85.149 388.686 L 150.749 388.686 C 160.304 388.686 167.779 380.171 167.779 370.536 L 167.779 130.723 C 167.779 124.847 166.78 122.728 164.302 120.05 M 173.456 368.858 L 164.422 381.73" fill="none" stroke="#333" stroke-width=".79951543px" stroke-linecap="round" stroke-linejoin="round" stroke-miterlimit="10" stroke-dasharray="none" stroke-opacity="1" /><path d="M 176.454 363.501 C 176.974 361.902 177.454 359.783 177.454 357.625 L 177.454 123.167 C 177.454 116.731 175.974 114.612 173.976 111.933 C 165.461 101.26 135.879 73.996 122.367 63.323 C 120.848 62.243 119.369 62.243 118.37 62.243 L 117.85 62.243 L 117.85 63.883 C 117.85 63.883 117.85 64.922 116.85 65.482 C 110.854 67.081 100.3 67.6 88.787 67.6 C 76.755 67.6 66.761 67.08 60.724 65.482 C 59.245 65.482 59.245 63.882 59.245 63.882 L 59.245 63.322 C 43.695 78.274 23.667 97.502 15.152 107.656 C 15.152 107.656 14.632 108.736 14.152 109.815 C 9.116 115.691 4.599 122.087 4.599 122.087" fill="none" stroke="#333" stroke-width=".79951543px" stroke-linecap="round" stroke-linejoin="round" stroke-miterlimit="10" stroke-dasharray="none" stroke-opacity="1" /><path d="M 88.787 59.205 C 76.275 59.205 65.282 58.645 59.285 57.047 L 59.285 63.963 C 59.285 63.963 59.285 65.562 60.805 65.562 C 66.801 67.16 76.794 67.68 88.786 67.68 C 100.26 67.68 110.773 67.16 116.73 65.562 C 117.729 65.042 117.729 63.962 117.729 63.962 L 117.729 57.047 C 111.773 58.646 101.259 59.205 88.786 59.205" fill="none" stroke="#333" stroke-width=".79951543px" stroke-linecap="round" stroke-linejoin="round" stroke-miterlimit="10" stroke-dasharray="none" stroke-opacity="1" /><path d="M 128.363 201.64 C 130.363 201.64 131.841 203.278 131.841 205.397 L 131.841 264.841 C 131.841 266.96 130.362 268.559 128.363 268.559 L 41.176 268.559 C 39.178 268.559 37.658 266.959 37.658 264.841 L 37.658 205.397 C 37.658 203.278 39.178 201.639 41.176 201.639 L 128.364 201.639 Z" fill="none" stroke="#8f0164" stroke-width="5.0369473px" stroke-linecap="butt" stroke-linejoin="miter" stroke-miterlimit="8" stroke-dasharray="none" stroke-opacity="1" /><path d="M 128.324 201.6 C 130.322 201.6 131.801 203.238 131.801 205.357 L 131.801 264.801 C 131.801 266.92 130.322 268.519 128.324 268.519 L 41.136 268.519 C 39.138 268.519 37.618 266.919 37.618 264.801 L 37.618 205.357 C 37.618 203.238 39.138 201.599 41.136 201.599 L 128.324 201.599 Z" fill="#ebebeb" fill-rule="evenodd" fill-opacity="1" stroke="none" /><path d="M 45.694 212.393 C 45.694 210.273 47.173 208.675 49.211 208.675 C 49.211 208.675 127.324 203.838 125.325 203.838 L 43.695 203.838 C 42.175 203.838 40.657 205.477 40.657 207.076 L 40.657 263.162 C 40.657 264.761 45.694 212.392 45.694 212.392 Z" fill="#fff" fill-rule="evenodd" fill-opacity="1" stroke="none" /><path d="M 124.326 257.845 C 124.326 259.964 122.806 261.563 121.328 261.563 C 121.328 261.563 43.215 266.36 44.734 266.36 L 126.324 266.36 C 128.324 266.36 129.803 264.76 129.803 263.162 L 129.803 207.076 C 129.803 205.436 124.326 257.845 124.326 257.845 Z" fill="#c4c4c4" fill-rule="evenodd" fill-opacity="1" stroke="none" /><path d="M 128.324 201.6 C 130.322 201.6 131.801 203.238 131.801 205.357 L 131.801 264.801 C 131.801 266.92 130.322 268.519 128.324 268.519 L 41.136 268.519 C 39.138 268.519 37.618 266.919 37.618 264.801 L 37.618 205.357 C 37.618 203.238 39.138 201.599 41.136 201.599 L 128.324 201.599 Z" fill="none" stroke="#333" stroke-width=".79951543px" stroke-linecap="round" stroke-linejoin="round" stroke-miterlimit="10" stroke-dasharray="none" stroke-opacity="1" /><path d="M 163.782 122.607 C 155.267 111.933 132.242 88.427 116.251 73.477 C 115.731 72.917 114.252 71.837 112.733 72.397 C 107.736 72.917 97.223 73.997 86.709 73.997 C 74.676 74.517 63.163 73.477 57.646 72.397 C 56.647 72.397 55.168 72.397 54.168 73.997 C 42.655 84.15 32.622 95.903 27.105 102.299 C 23.107 106.577 19.629 111.374 16.591 115.132 C 26.625 103.898 40.137 87.868 50.651 78.794 C 51.65 77.194 55.168 73.477 57.167 73.996 C 62.683 74.516 73.677 76.675 85.709 76.675 C 96.223 76.675 104.738 76.115 109.735 75.595 C 111.214 75.075 112.733 76.115 113.253 76.675 C 129.243 91.625 152.269 115.132 160.783 125.805 C 162.783 128.483 162.783 126.885 162.783 133.281 L 162.783 372.536 C 162.783 377.892 158.785 382.689 156.307 385.887 C 162.303 382.689 165.781 376.813 165.781 369.337 L 165.781 130.082 C 165.781 123.646 165.781 125.285 163.782 122.607 Z M 33.621 175.015 C 33.621 172.037 35.86 169.619 38.618 169.619 C 41.396 169.619 43.615 172.037 43.615 175.015 C 43.615 178.013 41.396 180.412 38.618 180.412 C 35.86 180.412 33.621 178.013 33.621 175.015 Z M 24.027 174.695 C 24.027 172.777 25.526 171.218 27.345 171.218 C 29.184 171.218 30.663 172.777 30.663 174.695 C 30.663 176.635 29.183 178.173 27.345 178.173 C 25.525 178.173 24.027 176.634 24.027 174.695 Z" fill="#fff" fill-rule="evenodd" fill-opacity="1" stroke="none" /><path d="M 46.253 174.695 C 46.253 172.777 47.693 171.218 49.451 171.218 C 51.231 171.218 52.649 172.777 52.649 174.695 C 52.649 176.635 51.23 178.173 49.451 178.173 C 47.692 178.173 46.253 176.634 46.253 174.695 Z M 48.651 81.032 C 37.618 91.726 18.031 117.89 16.011 120.568 C 12.993 124.306 14.013 127.504 14.013 134.44 L 14.013 272.756 C 15.013 246.072 19.03 142.995 19.529 131.781 C 20.029 120.568 39.617 93.864 48.652 81.032 Z" fill="#fff" fill-rule="evenodd" fill-opacity="1" stroke="none" /></svg>