<svg xmlns="http://www.w3.org/2000/svg" version="1.0" viewBox="0 0 180.853 391.605"><defs><clipPath clipPathUnits="userSpaceOnUse" id="a"><path d="M 2 2 L 178.853 2 L 178.853 389.605 L 2 389.605 Z" /></clipPath><clipPath id="anchor_liquid_clip"><rect id="anchor_liquid_bounds" x="32.3300" y="118.4500" width="113.2300" height="213.2000" fill="none" stroke="none" display="none"/></clipPath></defs><path d="M 174.116 111.914 C 165.6 101.24 136.059 73.997 122.526 63.323 C 121.028 62.243 119.529 62.243 118.529 62.243 L 118.029 62.243 L 118.029 63.863 C 118.029 63.863 118.029 64.922 117.01 65.462 C 111.014 67.061 100.5 67.6 88.967 67.6 C 76.954 67.6 66.941 67.06 60.924 65.462 C 59.425 65.462 59.425 63.862 59.425 63.862 L 59.425 63.323 C 43.895 78.273 23.867 97.503 15.352 107.636 C 14.352 109.236 13.353 110.314 12.833 112.453 C 23.867 100.161 41.396 82.551 53.908 70.798 C 55.408 69.199 56.927 69.719 57.926 69.719 C 62.923 70.259 75.456 71.339 87.468 71.339 C 98.481 71.339 109.015 70.259 113.512 69.719 C 115.012 69.199 116.511 70.259 117.01 70.799 C 133.04 85.749 156.087 109.235 164.601 119.929 C 167.1 122.587 168.099 124.726 168.099 130.602 L 168.099 370.337 C 168.099 375.134 166.1 379.411 163.102 382.609 C 166.1 379.411 173.616 369.278 175.615 366.599 C 176.615 363.941 177.613 360.723 177.613 357.525 L 177.613 123.127 C 177.613 116.711 176.114 114.572 174.116 111.914 Z" fill="#90bac4" fill-rule="evenodd" fill-opacity="1" stroke="none" /><path d="M 54.888 7.477 C 54.888 5.018 69.998 3 88.628 3 C 107.276 3 122.367 5.018 122.367 7.477 C 122.367 9.955 107.277 11.954 88.627 11.954 C 69.999 11.954 54.887 9.955 54.887 7.477 Z" fill="#e7e0e3" fill-rule="evenodd" fill-opacity="1" stroke="none" /><path d="M 122.367 54.768 C 122.367 56.907 107.376 59.046 88.887 59.046 C 69.899 59.046 54.887 56.906 54.887 54.768 L 54.887 7.157 C 54.887 9.835 69.899 11.974 88.887 11.974 C 107.376 11.974 122.367 9.835 122.367 7.157 L 122.367 54.768 Z" fill="#c0b0ba" fill-rule="evenodd" fill-opacity="1" stroke="none" /><path d="M 119.968 12.993 L 119.968 52.51 C 119.968 54.648 104.958 56.247 86.428 56.247 C 77.414 56.247 70.898 55.727 64.882 55.187 C 73.397 54.648 100.94 51.45 109.954 43.435 C 118.969 35.44 118.969 20.469 119.968 12.993 Z" fill="#9d869a" fill-rule="evenodd" fill-opacity="1" stroke="none" /><path d="M 88.887 58.946 C 76.355 58.946 65.322 58.406 59.285 56.806 L 59.285 63.723 C 59.285 63.723 59.285 65.322 60.805 65.322 C 66.82 66.92 76.854 67.44 88.886 67.44 C 100.419 67.44 110.953 66.92 116.969 65.322 C 117.969 64.782 117.969 63.722 117.969 63.722 L 117.969 56.807 C 111.952 58.406 101.419 58.946 88.886 58.946 Z" fill="#a9cad2" fill-rule="evenodd" fill-opacity="1" stroke="none" /><path d="M 164.521 119.769 C 156.007 109.095 132.961 85.609 116.951 70.659 C 116.451 70.119 114.931 69.039 113.432 69.579 C 108.935 70.119 98.402 71.179 87.388 71.179 C 75.375 71.179 62.843 70.119 57.846 69.579 C 56.846 69.579 55.328 69.039 53.828 70.659 C 37.798 85.609 14.272 109.635 5.758 120.309 C 4.258 122.447 3.239 124.586 3.239 129.383 L 3.239 370.217 C 3.239 379.831 10.755 388.366 19.769 388.366 L 151.009 388.366 C 160.524 388.366 168.019 379.831 168.019 370.217 L 168.019 130.462 C 168.019 124.586 167.019 122.447 164.521 119.769 Z" fill="#e3eef1" fill-rule="evenodd" fill-opacity="1" stroke="none" /><path d="M 4.618 174.735 C 2.6 174.735 2.6 171.058 4.118 169.998 C 4.118 169.998 10.135 164.182 11.634 162.603 C 13.633 161.543 15.632 161.543 17.65 161.543 L 174.016 161.543 C 177.014 161.543 178.013 162.083 177.014 164.182 C 176.514 165.781 170.498 173.156 169.998 173.696 C 169.498 174.736 168.499 174.736 165.501 174.736 L 4.618 174.736 Z" fill="#aecb9e" fill-rule="evenodd" fill-opacity="1" stroke="none" /><path d="M 125.965 92.066 C 136.958 102.759 156.406 124.646 158.405 127.304 C 161.383 131.042 160.404 134.26 160.404 141.196 L 160.404 279.472 C 159.404 252.788 155.407 149.731 154.907 138.517 C 154.407 127.304 134.959 104.897 125.965 92.066 Z" fill="#b6d2d9" fill-rule="evenodd" fill-opacity="1" stroke="none" /><path d="M 156.446 174.735 L 160.424 174.735 L 160.424 161.543 L 155.947 161.543 C 155.947 165.781 156.447 169.998 156.447 174.735 Z M 174.016 161.543 L 168.019 161.543 L 168.019 174.336 C 169.019 174.336 169.519 174.336 170.019 173.816 C 170.518 173.276 176.514 165.821 177.014 164.222 C 178.014 162.083 177.014 161.543 174.016 161.543 Z" fill="#77a86c" fill-rule="evenodd" fill-opacity="1" stroke="none" /><path d="M 177.114 161.943 C 177.614 162.483 177.614 163.023 177.114 164.082 C 176.614 165.681 170.598 173.176 170.098 173.696 C 169.598 174.236 169.098 174.236 168.099 174.236 C 168.099 174.776 167.599 174.776 167.099 174.776 L 4.619 174.776 C 3.12 174.776 2.601 172.636 3.12 171.557 L 3.12 370.217 C 3.12 379.831 10.636 388.366 19.65 388.366 L 151.05 388.366 C 155.568 388.366 159.565 386.247 162.584 383.029 C 165.082 380.891 173.617 369.677 175.616 366.479 C 176.616 363.801 177.614 360.603 177.614 357.405 L 177.614 161.943 L 177.114 161.943 Z" fill="#468b4d" fill-rule="evenodd" fill-opacity="1" stroke="none" /><path d="M 160.424 279.472 L 160.424 174.735 L 156.346 174.735 C 157.886 210.554 159.924 261.843 160.424 279.472 Z M 177.114 164.082 C 176.614 165.701 170.558 173.176 170.058 173.716 C 169.558 174.236 169.038 174.236 168.039 174.236 L 168.039 370.336 C 168.039 375.134 166.02 379.411 162.982 382.609 C 163.502 382.609 163.502 382.609 164.002 382.089 C 164.002 382.089 164.002 381.55 164.502 381.55 L 164.502 381.01 C 164.502 381.01 165.002 381.01 165.002 380.49 L 165.521 380.49 C 165.521 379.951 165.521 379.951 166.021 379.411 L 166.021 378.871 C 166.521 378.871 166.521 378.871 166.521 378.352 C 167.02 378.352 167.02 378.352 167.02 377.812 C 167.54 377.812 167.54 377.812 167.54 377.272 C 168.04 377.272 168.04 376.733 168.04 376.733 L 168.539 376.213 C 168.539 375.673 169.039 375.673 169.039 375.673 C 169.039 375.134 169.559 375.134 169.559 375.134 C 169.559 374.614 170.059 374.614 170.059 374.074 L 170.558 373.535 L 171.058 372.995 C 171.058 372.475 171.058 372.475 171.578 372.475 C 171.578 371.935 171.578 371.935 172.077 371.396 L 172.077 370.856 C 172.577 370.856 172.577 370.856 172.577 370.336 C 173.077 370.336 173.077 370.336 173.077 369.797 L 173.596 369.257 L 173.596 368.717 C 174.096 368.717 174.096 368.198 174.096 368.198 C 174.096 368.198 174.596 368.198 174.596 367.658 L 174.596 367.118 L 175.095 367.118 C 175.095 366.599 175.095 366.599 175.615 366.599 C 176.615 363.921 177.613 360.703 177.613 357.505 L 177.613 161.943 L 177.113 161.943 C 177.613 162.483 177.613 163.023 177.113 164.082 Z" fill="#01642a" fill-rule="evenodd" fill-opacity="1" stroke="none" /><path d="M 122.327 63.303 C 120.827 62.243 119.329 62.243 118.329 62.243 L 117.829 62.243 L 117.829 63.843 C 117.829 63.843 117.829 64.902 116.83 65.422 C 110.814 67.02 100.32 67.54 88.807 67.54 C 76.795 67.54 66.781 67.02 60.784 65.422 C 59.285 65.422 59.285 63.842 59.285 63.842 L 59.285 63.303 C 53.269 69.139 46.773 75.496 40.257 81.832 L 42.275 81.832 C 46.273 77.614 50.271 73.897 53.769 70.718 C 55.288 69.139 56.787 69.659 57.786 69.659 C 62.783 70.199 75.296 71.259 87.308 71.259 C 98.322 71.259 108.815 70.199 113.332 69.659 C 114.832 69.139 116.331 70.199 116.83 70.719 C 117.83 71.778 118.83 72.318 119.828 73.377 L 125.325 65.422 C 123.826 64.902 122.827 63.842 122.327 63.303 Z" fill="#dde9ec" fill-rule="evenodd" fill-opacity="1" stroke="none" /><path d="M 116.85 70.778 C 132.9 85.689 155.967 109.115 164.481 119.768 C 166.001 121.368 167 122.967 167.5 125.086 C 167.5 125.086 171.517 122.427 176.014 116.051 C 175.514 113.912 175.514 113.373 174.016 111.774 C 165.501 101.12 135.899 73.977 122.367 63.323 C 121.367 62.783 120.847 62.243 120.348 62.243 C 115.851 68.64 115.331 69.699 115.331 69.699 C 115.851 69.699 116.851 70.239 116.851 70.779 Z" fill="#b9d6dd" fill-rule="evenodd" fill-opacity="1" stroke="none" /><path d="M 53.779 70.768 C 54.279 70.238 54.778 69.709 55.278 69.709 C 55.278 69.709 55.778 69.169 59.285 64.382 L 58.785 63.842 C 43.245 78.754 23.187 97.392 15.172 107.516 C 14.662 108.576 14.162 109.116 14.162 109.645 L 13.662 109.645 C 10.655 113.902 7.646 118.16 5.638 120.288 C 14.163 109.645 37.728 85.679 53.778 70.768 Z" fill="#f6fafb" fill-rule="evenodd" fill-opacity="1" stroke="none" /><path d="M 4.638 174.735 L 12.194 174.735 L 12.194 162.583 L 11.694 162.583 C 10.174 164.182 4.119 169.998 4.119 169.998 C 2.599 171.038 2.599 174.735 4.639 174.735 Z" fill="#77a86c" fill-rule="evenodd" fill-opacity="1" stroke="none" /><path d="M 5.678 120.328 C 4.138 122.468 3.119 124.606 3.119 129.403 L 3.119 175.375 L 3.639 174.315 C 2.599 173.236 2.599 171.118 4.139 170.038 C 4.139 170.038 10.275 164.162 11.814 162.563 L 12.334 162.563 L 12.334 164.162 L 12.834 164.162 L 12.334 119.249 L 12.834 112.293 C 9.775 115.511 7.716 118.19 5.678 120.328 Z" fill="#a9cad2" fill-rule="evenodd" fill-opacity="1" stroke="none" /><path d="M 29.183 375.554 C 19.649 375.554 12.133 367.539 12.133 357.404 L 12.133 174.756 L 4.619 174.756 C 3.12 174.756 2.601 172.618 3.12 171.538 L 3.12 370.218 C 3.12 379.832 10.636 388.367 19.65 388.367 L 150.99 388.367 C 155.488 388.367 159.505 386.248 162.504 383.03 C 164.023 381.97 167.021 377.693 170.019 373.956 L 170.019 372.356 C 167.521 374.496 164.023 375.555 160.505 375.555 L 29.184 375.555 Z" fill="#2a7a3c" fill-rule="evenodd" fill-opacity="1" stroke="none" /><path d="M 12.244 121.488 C 12.244 116.681 56.287 71.188 57.786 70.118 C 59.286 69.04 56.287 69.579 56.287 69.579 L 35.769 88.848 L 11.234 115.072 Z" fill="#a9cad2" fill-rule="evenodd" fill-opacity="1" stroke="none" /><path d="M 16.191 387.806 L 25.226 375.054 C 19.209 373.455 14.692 369.198 13.193 363.341 L 3.64 375.574 C 5.659 381.43 10.176 386.227 16.192 387.806 Z" fill="#207535" fill-rule="evenodd" fill-opacity="1" stroke="none" /><path d="M 67.28 176.974 L 157.945 176.974 L 157.945 187.208 C 156.946 183.99 155.947 180.212 150.95 180.212 Z" fill="#01642a" fill-rule="evenodd" fill-opacity="1" stroke="none" /><path d="M 162.982 133.08 L 162.982 372.356 C 162.982 377.692 158.985 382.51 156.486 385.708 C 155.986 386.248 153.468 386.767 151.469 386.767 L 33.221 386.767 C 49.771 386.247 146.952 385.167 151.469 384.648 C 155.987 383.568 160.484 378.232 161.483 371.816 Z" fill="#01642a" fill-rule="evenodd" fill-opacity="1" stroke="none" /><path d="M 160.424 375.574 C 158.425 380.371 154.927 384.109 151.409 384.648 C 146.912 385.168 49.751 386.248 33.221 386.767 L 151.409 386.767 C 153.409 386.767 155.927 386.247 156.426 385.707 C 158.426 383.049 161.423 379.311 162.423 375.574 L 160.423 375.574 Z" fill="#004d20" fill-rule="evenodd" fill-opacity="1" stroke="none" /><path d="M 56.887 48.252 L 56.887 12.074 C 56.887 12.074 56.887 10.994 58.386 11.534 C 66.861 13.134 74.356 14.193 84.31 14.193 C 75.835 14.733 67.36 14.733 62.883 15.792 C 58.885 16.852 58.885 40.817 56.887 48.252 Z" fill="#f7f4f4" fill-rule="evenodd" fill-opacity="1" stroke="none" /><path d="M 116.93 58.406 L 116.93 62.124 C 116.93 64.782 101.92 65.841 83.39 65.841 C 74.376 65.841 67.86 64.782 61.844 64.262 C 70.358 63.722 115.931 65.322 116.93 58.406 Z" fill="#55919f" fill-rule="evenodd" fill-opacity="1" stroke="none" /><path d="M 122.947 63.323 C 122.447 62.783 121.947 62.243 121.447 62.243 C 116.471 68.64 115.971 69.719 115.971 69.719 C 116.971 69.719 117.47 70.239 117.97 70.779 C 119.469 71.838 120.968 73.437 122.447 75.036 C 122.447 72.377 122.947 66.521 126.924 66.521 C 125.445 64.922 124.446 63.843 122.947 63.323 Z" fill="#e3eef1" fill-rule="evenodd" fill-opacity="1" stroke="none" /><path d="M 25.226 375.014 C 20.769 381.49 15.792 387.407 15.792 387.407 M 12.833 362.142 C 8.236 368.658 3.64 374.614 3.64 374.614" fill="none" stroke="#659d61" stroke-width=".79951543px" stroke-linecap="round" stroke-linejoin="round" stroke-miterlimit="4" stroke-dasharray="none" stroke-opacity="1" /><path d="M 172.017 370.777 C 174.056 368.657 175.575 366 176.574 363.341" fill="none" stroke="#333" stroke-width=".79951543px" stroke-linecap="round" stroke-linejoin="round" stroke-miterlimit="4" stroke-dasharray="none" stroke-opacity="1" /><path d="M 12.194 176.974 L 12.194 357.424 C 12.194 367.579 19.709 375.574 29.244 375.574 L 160.504 375.574 C 165.021 375.574 169.019 373.455 172.017 370.777" fill="none" stroke="#84b176" stroke-width=".79951543px" stroke-linecap="round" stroke-linejoin="round" stroke-miterlimit="4" stroke-dasharray="none" stroke-opacity="1" /><path d="M 12.214 121.887 L 11.794 160.904 L 12.834 160.904 L 12.214 121.887 Z" fill="#fff" fill-rule="evenodd" fill-opacity="1" stroke="none" /><path clip-path="url(#a)" d="M 4.618 174.735 C 2.6 174.735 2.6 171.058 4.118 169.998 C 4.118 169.998 10.135 164.182 11.634 162.603 C 13.633 161.543 15.632 161.543 17.65 161.543 L 174.016 161.543 C 177.014 161.543 178.013 162.083 177.014 164.182 C 176.514 165.781 170.498 173.156 169.998 173.696 C 169.498 174.736 168.499 174.736 165.501 174.736 L 4.618 174.736" fill="none" stroke="#fff" stroke-width=".79951543px" stroke-linecap="round" stroke-linejoin="round" stroke-miterlimit="4" stroke-dasharray="none" stroke-opacity="1" /><path d="M 54.888 7.477 C 54.888 5.018 69.998 3 88.628 3 C 107.276 3 122.367 5.018 122.367 7.477 C 122.367 9.955 107.277 11.954 88.627 11.954 C 69.999 11.954 54.887 9.955 54.887 7.477" fill="none" stroke="#333" stroke-width=".79951543px" stroke-linecap="round" stroke-linejoin="round" stroke-miterlimit="4" stroke-dasharray="none" stroke-opacity="1" /><path d="M 122.367 54.768 C 122.367 56.907 107.376 59.046 88.887 59.046 C 69.899 59.046 54.887 56.906 54.887 54.768 L 54.887 7.157 C 54.887 9.835 69.899 11.974 88.887 11.974 C 107.376 11.974 122.367 9.835 122.367 7.157 L 122.367 54.768 Z M 164.521 119.769 C 156.007 109.095 132.961 85.609 116.951 70.659 C 116.451 70.119 114.931 69.039 113.432 69.579 C 108.935 70.119 98.402 71.179 87.388 71.179 C 75.375 71.179 62.843 70.119 57.846 69.579 C 56.846 69.579 55.328 69.039 53.828 70.659 C 37.798 85.609 14.272 109.635 5.758 120.309 C 4.258 122.447 3.239 124.586 3.239 129.383 L 3.239 370.217 C 3.239 379.831 10.755 388.366 19.769 388.366 L 85.389 388.366 C 85.389 388.366 85.389 388.366 85.389 388.366 L 151.009 388.366 C 160.524 388.366 168.019 379.831 168.019 370.217 L 168.019 130.462 C 168.019 124.586 167.019 122.447 164.521 119.769 M 173.616 368.538 L 164.581 381.41" fill="none" stroke="#333" stroke-width=".79951543px" stroke-linecap="round" stroke-linejoin="round" stroke-miterlimit="4" stroke-dasharray="none" stroke-opacity="1" /><path d="M 176.614 363.341 C 177.114 361.742 177.614 359.623 177.614 357.485 L 177.614 123.107 C 177.614 116.711 176.114 114.572 174.116 111.894 C 165.581 101.22 135.999 73.997 122.466 63.323 C 120.948 62.243 119.449 62.243 118.449 62.243 L 117.949 62.243 L 117.949 63.863 C 117.949 63.863 117.949 64.922 116.95 65.462 C 110.934 67.061 100.4 67.6 88.867 67.6 C 76.815 67.6 66.801 67.06 60.784 65.462 C 59.265 65.462 59.265 63.862 59.265 63.862 L 59.265 63.323 C 43.715 78.273 23.667 97.483 15.132 107.636 C 15.132 107.636 14.632 108.696 14.132 109.775 C 9.116 115.631 4.598 122.047 4.598 122.047" fill="none" stroke="#333" stroke-width=".79951543px" stroke-linecap="round" stroke-linejoin="round" stroke-miterlimit="4" stroke-dasharray="none" stroke-opacity="1" /><path d="M 88.887 58.946 C 76.355 58.946 65.322 58.406 59.285 56.806 L 59.285 63.723 C 59.285 63.723 59.285 65.322 60.805 65.322 C 66.82 66.92 76.854 67.44 88.886 67.44 C 100.419 67.44 110.953 66.92 116.969 65.322 C 117.969 64.782 117.969 63.722 117.969 63.722 L 117.969 56.807 C 111.952 58.406 101.419 58.946 88.886 58.946" fill="none" stroke="#333" stroke-width=".79951543px" stroke-linecap="round" stroke-linejoin="round" stroke-miterlimit="4" stroke-dasharray="none" stroke-opacity="1" /><path d="M 128.503 201.64 C 130.502 201.64 132.001 203.258 132.001 205.377 L 132.001 264.601 C 132.001 266.72 130.502 268.319 128.503 268.319 L 41.416 268.319 C 39.417 268.319 37.898 266.719 37.898 264.601 L 37.898 205.377 C 37.898 203.258 39.418 201.639 41.416 201.639 L 128.503 201.639 Z" fill="#01642a" fill-rule="evenodd" fill-opacity="1" stroke="none" /><path d="M 128.503 201.64 C 130.502 201.64 132.001 203.258 132.001 205.377 L 132.001 264.601 C 132.001 266.72 130.502 268.319 128.503 268.319 L 41.416 268.319 C 39.417 268.319 37.898 266.719 37.898 264.601 L 37.898 205.377 C 37.898 203.258 39.418 201.639 41.416 201.639 L 128.503 201.639 Z" fill="none" stroke="#01642a" stroke-width="5.0369473px" stroke-linecap="butt" stroke-linejoin="miter" stroke-miterlimit="8" stroke-dasharray="none" stroke-opacity="1" /><path d="M 128.463 201.6 C 130.462 201.6 131.961 203.218 131.961 205.337 L 131.961 264.561 C 131.961 266.68 130.462 268.279 128.463 268.279 L 41.376 268.279 C 39.377 268.279 37.858 266.679 37.858 264.561 L 37.858 205.337 C 37.858 203.218 39.378 201.599 41.376 201.599 L 128.463 201.599 Z" fill="#ebebeb" fill-rule="evenodd" fill-opacity="1" stroke="none" /><path d="M 45.833 212.153 C 45.833 210.014 47.333 208.415 49.331 208.415 C 49.331 208.415 127.324 203.598 125.325 203.598 L 43.835 203.598 C 42.335 203.598 40.816 205.217 40.816 206.816 L 40.816 262.842 C 40.816 264.442 45.833 212.152 45.833 212.152 Z" fill="#fff" fill-rule="evenodd" fill-opacity="1" stroke="none" /><path d="M 124.466 257.505 C 124.466 259.644 122.966 261.243 121.448 261.243 C 121.448 261.243 43.295 266.04 44.814 266.04 L 126.464 266.04 C 128.464 266.04 129.962 264.441 129.962 262.842 L 129.962 206.816 C 129.962 205.197 124.466 257.506 124.466 257.506 Z" fill="#c4c4c4" fill-rule="evenodd" fill-opacity="1" stroke="none" /><path d="M 128.463 201.6 C 130.462 201.6 131.961 203.218 131.961 205.337 L 131.961 264.561 C 131.961 266.68 130.462 268.279 128.463 268.279 L 41.376 268.279 C 39.377 268.279 37.858 266.679 37.858 264.561 L 37.858 205.337 C 37.858 203.218 39.378 201.599 41.376 201.599 L 128.463 201.599 Z" fill="none" stroke="#333" stroke-width=".79951543px" stroke-linecap="round" stroke-linejoin="round" stroke-miterlimit="10" stroke-dasharray="none" stroke-opacity="1" /><path d="M 164.022 122.567 C 155.507 111.894 132.481 88.407 116.471 73.457 C 115.971 72.917 114.471 71.837 112.953 72.377 C 107.956 72.917 97.443 73.977 86.928 73.977 C 74.916 74.517 63.403 73.457 57.886 72.377 C 56.886 72.377 55.388 72.377 54.388 73.977 C 42.875 84.13 32.861 95.883 27.345 102.279 C 23.347 106.557 19.849 111.354 16.831 115.092 C 26.845 103.878 40.377 87.868 50.891 78.794 C 51.89 77.194 55.388 73.457 57.386 73.977 C 62.903 74.517 73.916 76.655 85.929 76.655 C 96.443 76.655 104.958 76.115 109.954 75.575 C 111.454 75.055 112.953 76.115 113.472 76.655 C 129.482 91.605 152.509 115.092 161.024 125.785 C 163.022 128.444 163.022 126.845 163.022 133.261 L 163.022 372.476 C 163.022 377.812 159.025 382.609 156.526 385.808 C 162.523 382.609 166.02 376.733 166.02 369.258 L 166.02 130.043 C 166.02 123.646 166.02 125.245 164.022 122.567 Z M 33.86 174.855 C 33.86 171.937 36.1 169.539 38.858 169.539 C 41.636 169.539 43.855 171.937 43.855 174.855 C 43.855 177.794 41.635 180.172 38.858 180.172 C 36.099 180.172 33.861 177.794 33.861 174.855 Z M 24.266 174.536 C 24.266 172.676 25.746 171.138 27.544 171.138 C 29.364 171.138 30.822 172.677 30.822 174.536 C 30.822 176.414 29.363 177.934 27.544 177.934 C 25.746 177.934 24.266 176.414 24.266 174.536 Z" fill="#fff" fill-rule="evenodd" fill-opacity="1" stroke="none" /><path d="M 46.253 174.536 C 46.253 172.676 47.753 171.138 49.571 171.138 C 51.41 171.138 52.889 172.677 52.889 174.536 C 52.889 176.414 51.41 177.934 49.571 177.934 C 47.752 177.934 46.253 176.414 46.253 174.536 Z M 48.891 80.872 C 37.858 91.546 18.27 117.71 16.251 120.368 C 13.233 124.106 14.252 127.304 14.252 134.24 L 14.252 272.436 C 15.252 245.772 19.269 142.775 19.769 131.582 C 20.269 120.368 39.857 93.685 48.891 80.872 Z" fill="#fff" fill-rule="evenodd" fill-opacity="1" stroke="none" /></svg>