<svg xmlns="http://www.w3.org/2000/svg" version="1.0" viewBox="0 0 70.68 421.427"><defs><clipPath id="anchor_liquid_clip"><rect x="12.9163" y="123.878" width="44.0723" height="230.553"/></clipPath></defs><path d="M 35.64 363.561 C 16.192 363.561 9.096 357.904 7.917 355.385 C 7.917 356.645 23.847 409.393 29.743 416.289 C 31.523 418.187 32.102 419.427 35.64 419.427 C 38.598 419.427 39.178 418.187 40.956 416.289 C 46.853 409.393 62.763 356.645 62.763 355.385 C 61.584 357.904 54.508 363.561 35.64 363.561 Z" fill="#b1d4dc" fill-rule="evenodd" fill-opacity="1" stroke="none" /><path d="M 35.64 363.561 C 16.192 363.561 9.096 357.904 7.917 355.385 C 7.917 356.645 23.847 409.393 29.743 416.289 C 31.523 418.187 32.102 419.427 35.64 419.427 C 38.598 419.427 39.178 418.187 40.956 416.289 C 46.853 409.393 62.763 356.645 62.763 355.385 C 61.584 357.904 54.508 363.561 35.64 363.561 Z" fill="#c2015a" fill-rule="evenodd" fill-opacity="1" stroke="none" /><path d="M 62.044 43.894 L 8.636 43.894 L 8.636 356.725 C 10.415 358.604 18.03 363.62 35.64 363.62 C 52.67 363.62 60.285 359.223 62.044 356.725 L 62.044 43.894 Z" fill="#daebef" fill-rule="evenodd" fill-opacity="1" stroke="none" /><path d="M 62.044 187.087 C 60.284 188.347 49.132 189.606 35.64 189.606 C 20.969 189.606 9.815 188.346 8.636 187.087 L 8.636 356.725 C 10.415 358.604 18.03 363.62 35.64 363.62 C 52.67 363.62 60.285 359.223 62.044 356.725 L 62.044 187.087 Z" fill="#e67198" fill-rule="evenodd" fill-opacity="1" stroke="none" /><path d="M 35.58 189.566 C 27.944 189.566 20.869 188.926 16.152 188.926 L 16.152 345.252 C 16.152 355.925 24.407 358.424 35.58 358.424 C 46.193 358.424 55.008 355.925 55.008 345.252 L 55.008 188.926 C 49.711 188.926 43.235 189.566 35.58 189.566 Z" fill="#e04e82" fill-rule="evenodd" fill-opacity="1" stroke="none" /><path d="M 16.151 35.899 L 16.151 189.026 C 20.869 189.026 27.944 189.646 35.58 189.646 C 43.235 189.646 49.711 189.026 55.008 189.026 L 55.008 35.899 L 16.152 35.899 Z" fill="#b1d4dc" fill-rule="evenodd" fill-opacity="1" stroke="none" /><path d="M 8.636 187.207 C 9.236 189.706 20.969 191.565 35.64 191.565 C 49.132 191.565 60.884 189.705 62.044 187.847 L 62.044 187.207 C 61.464 184.729 49.731 182.85 35.06 182.85 C 21.548 182.85 9.815 184.729 8.636 187.207 Z" fill="#f0adc0" fill-rule="evenodd" fill-opacity="1" stroke="none" /><path d="M 50.911 188.926 L 50.911 343.373 C 50.911 354.666 42.695 357.804 35.66 358.423 C 46.213 358.423 55.008 355.925 55.008 345.252 L 55.008 188.926 L 50.91 188.926 Z" fill="#ae0152" fill-rule="evenodd" fill-opacity="1" stroke="none" /><path d="M 51.011 35.899 L 51.011 188.926 L 55.008 188.926 L 55.008 35.899 L 51.01 35.899 Z" fill="#88bcc9" fill-rule="evenodd" fill-opacity="1" stroke="none" /><path d="M 55.008 183.969 L 51.01 183.969 L 51.01 190.365 L 53.309 190.365 C 53.869 190.365 53.869 189.725 54.449 189.725 C 54.449 189.725 54.449 189.086 55.008 189.086 L 55.008 183.969 Z" fill="#c76a95" fill-rule="evenodd" fill-opacity="1" stroke="none" /><path d="M 56.307 34.66 L 56.307 348.51 C 56.307 356.045 43.915 361.062 35.66 361.062 C 43.335 361.062 59.245 361.062 59.245 349.149 L 59.245 32.142 Z" fill="#9fc9d4" fill-rule="evenodd" fill-opacity="1" stroke="none" /><path d="M 56.207 189.646 C 57.427 189.646 58.646 189.026 59.245 189.026 L 59.245 185.309 C 58.645 185.309 57.427 184.689 56.207 184.689 L 56.207 189.646 Z" fill="#d186a8" fill-rule="evenodd" fill-opacity="1" stroke="none" /><path d="M 59.245 188.926 C 58.665 188.926 57.486 189.566 56.307 189.566 L 56.307 348.51 C 56.307 356.045 43.915 361.062 35.66 361.062 C 43.335 361.062 59.245 361.062 59.245 349.129 L 59.245 188.926 Z" fill="#c6015a" fill-rule="evenodd" fill-opacity="1" stroke="none" /><path d="M 8.636 52.129 C 13.333 56.567 33.281 60.364 53.229 57.836 L 53.809 52.129 Z" fill="#88bcc9" fill-rule="evenodd" fill-opacity="1" stroke="none" /><path d="M 8.636 187.207 C 9.236 189.706 20.969 191.565 35.64 191.565 C 49.132 191.565 60.884 189.705 62.044 187.847 L 62.044 187.207 C 61.464 184.729 49.731 182.85 35.06 182.85 C 21.548 182.85 9.815 184.729 8.636 187.207" fill="none" stroke="#fff" stroke-width=".47970927px" stroke-linecap="round" stroke-linejoin="round" stroke-miterlimit="4" stroke-dasharray="none" stroke-opacity="1" /><path d="M 62.763 355.385 L 62.763 355.385 L 62.763 43.895 M 7.917 43.894 L 7.917 355.385 M 7.917 355.385 C 7.917 355.385 7.917 355.385 7.917 355.385 C 7.917 356.645 23.847 409.393 29.743 416.289 C 31.523 418.187 32.102 419.427 35.64 419.427 C 38.598 419.427 39.178 418.187 40.956 416.289 C 46.853 409.393 62.763 356.645 62.763 355.385 C 62.763 355.385 62.763 355.385 62.763 355.385" fill="none" stroke="#333" stroke-width=".79951543px" stroke-linecap="round" stroke-linejoin="round" stroke-miterlimit="4" stroke-dasharray="none" stroke-opacity="1" /><path d="M 35.66 363.62 C 52.67 363.62 60.285 359.143 62.044 356.585 M 39.657 78.513 C 50.92 78.513 56.847 77.953 62.763 77.394" fill="none" stroke="#333" stroke-width=".79951543px" stroke-linecap="round" stroke-linejoin="round" stroke-miterlimit="4" stroke-dasharray="none" stroke-opacity="1" /><path d="M 28.624 75.465 L 27.424 76.645 L 26.705 75.465 L 28.624 74.755 L 29.824 74.755 L 29.824 82.991 L 28.624 82.991 L 28.624 75.465 Z M 32.731 81.732 L 33.911 81.732 C 35.68 81.732 35.68 81.092 35.68 80.462 C 35.68 79.192 35.09 78.563 33.91 78.563 L 33.321 78.563 L 33.321 77.923 L 33.911 77.923 C 34.501 77.923 35.68 77.294 35.68 76.664 C 35.68 76.024 35.09 75.395 34.5 75.395 C 33.91 75.395 33.321 75.395 32.731 76.025 L 32.731 74.755 L 34.501 74.755 C 36.269 74.755 36.859 75.395 36.859 76.665 C 36.859 77.294 36.269 77.924 35.09 78.563 C 36.27 78.563 36.859 79.193 36.859 80.463 C 36.859 81.731 36.269 82.991 34.5 82.991 C 33.321 82.991 32.731 82.361 32.142 82.361 L 32.732 81.731 Z M 28.624 99.291 L 27.424 99.991 L 26.705 99.291 L 28.624 98.581 L 29.824 98.581 L 29.824 106.097 L 28.624 106.097 L 28.624 99.291 Z M 32.141 106.097 L 32.141 105.487 L 33.321 104.867 C 35.09 103.028 35.68 101.799 35.68 100.57 C 35.68 99.95 35.68 99.34 34.5 99.34 C 33.91 99.34 33.321 99.34 32.731 99.95 L 32.731 99.34 C 32.731 98.721 33.911 98.101 34.501 98.101 C 36.269 98.101 36.859 99.341 36.859 100.57 C 36.859 101.8 35.679 103.028 34.5 104.867 L 33.91 105.487 L 36.859 105.487 L 36.859 106.097 L 32.142 106.097 Z M 28.624 123.046 L 27.424 124.456 L 26.705 123.046 L 28.624 122.566 L 29.824 122.566 L 29.824 130.562 L 28.624 130.562 L 28.624 123.046 Z M 34.501 123.046 L 33.331 124.456 L 32.621 123.046 L 34.501 122.566 L 35.66 122.566 L 35.66 130.562 L 34.5 130.562 L 34.5 123.046 Z M 28.624 147.022 L 27.424 147.492 L 26.705 147.022 L 28.624 146.312 L 29.824 146.312 L 29.824 154.547 L 28.624 154.547 L 28.624 147.022 Z M 34.461 154.547 C 33.301 154.547 32.141 152.628 32.141 150.07 C 32.141 147.511 33.301 145.593 35.031 145.593 C 36.189 145.593 37.339 147.511 37.339 150.07 C 37.339 152.628 36.189 154.547 34.46 154.547 Z M 34.461 153.268 C 35.61 153.268 36.189 151.988 36.189 150.07 C 36.189 148.151 35.609 146.872 34.46 146.872 C 33.88 146.872 33.301 148.152 33.301 150.07 C 33.301 151.989 33.881 153.268 34.461 153.268 Z M 32.721 177.813 L 33.881 177.813 C 34.461 177.813 35.041 177.173 35.041 177.173 C 35.62 176.533 36.199 175.894 36.199 174.615 C 35.619 175.255 35.04 175.895 34.46 175.895 C 33.301 175.895 32.142 174.615 32.142 173.335 C 32.142 171.417 33.302 170.138 35.04 170.138 C 36.2 170.138 37.339 171.417 37.339 173.975 C 37.339 175.255 36.779 176.534 36.199 177.813 C 35.619 178.453 34.46 178.453 33.881 178.453 C 33.301 178.453 33.301 179.093 32.721 179.093 L 32.721 177.813 Z M 34.461 171.417 C 33.881 171.417 33.301 172.057 33.301 173.336 C 33.301 173.976 33.881 174.615 34.461 174.615 C 35.62 174.615 35.62 174.615 36.199 173.975 L 36.199 173.335 C 36.199 172.057 35.619 171.417 34.46 171.417 Z M 35.041 194.123 C 36.199 194.123 36.779 195.363 36.779 195.983 C 36.779 196.602 36.779 197.201 35.619 197.821 C 36.779 198.441 37.339 199.061 37.339 200.279 C 37.339 201.519 36.199 202.119 34.46 202.119 C 33.301 202.119 32.142 201.519 32.142 200.279 C 32.142 199.06 32.722 198.441 33.881 197.821 C 32.721 197.821 32.721 197.201 32.721 195.982 C 32.721 194.742 33.301 194.123 35.041 194.123 Z M 34.461 201.519 C 35.62 201.519 36.199 200.899 36.199 200.279 C 36.199 199.06 35.619 198.441 34.46 198.441 C 33.88 198.441 33.301 199.061 33.301 200.279 C 33.301 200.899 33.881 201.519 34.461 201.519 Z M 34.461 194.743 C 33.881 194.743 33.301 195.363 33.301 195.983 C 33.301 197.201 33.881 197.201 35.041 197.821 C 35.62 197.201 36.199 197.201 36.199 195.982 C 36.199 195.362 35.619 194.742 34.46 194.742 Z M 37.339 217.869 L 37.339 219.069 L 33.801 226.184 L 32.621 226.184 L 36.159 219.068 L 32.142 219.068 L 32.142 217.868 L 37.339 217.868 Z M 36.779 242.974 L 35.619 242.974 C 34.46 242.974 33.301 244.233 33.301 245.512 C 33.301 244.872 34.461 244.872 35.041 244.872 C 36.199 244.872 37.339 245.512 37.339 247.411 C 37.339 248.671 36.199 249.929 35.04 249.929 C 33.301 249.929 32.142 248.67 32.142 246.771 C 32.142 244.872 32.722 243.613 33.302 242.974 C 33.881 242.334 35.04 241.694 35.62 241.694 L 36.779 241.694 L 36.779 242.974 Z M 35.04 249.31 C 35.62 249.31 36.2 248.67 36.2 247.41 C 36.2 246.132 35.62 245.512 34.46 245.512 C 33.88 245.512 33.301 246.132 33.301 246.772 C 33.301 248.67 33.881 249.31 35.041 249.31 Z M 36.859 266.22 L 33.921 266.22 L 33.321 268.078 L 34.501 268.078 C 35.1 268.078 35.68 268.078 35.68 268.698 C 36.28 268.698 36.859 269.318 36.859 270.577 C 36.859 272.436 35.679 273.675 33.921 273.675 C 33.321 273.675 32.741 273.055 32.141 273.055 L 32.741 271.816 C 32.741 272.436 33.321 272.436 33.921 272.436 C 35.1 272.436 35.68 271.816 35.68 270.576 C 35.68 269.957 35.1 268.698 33.92 268.698 C 33.321 268.698 32.741 268.698 32.741 269.318 L 33.321 264.96 L 36.859 264.96 L 36.859 266.22 Z M 35.62 297.021 L 35.62 295.122 L 32.141 295.122 L 32.141 293.862 L 35.039 288.786 L 36.199 288.786 L 36.199 293.863 L 37.338 293.863 L 37.338 295.122 L 36.198 295.122 L 36.198 297.021 L 35.618 297.021 Z M 35.62 293.863 L 35.62 290.065 C 35.04 290.705 35.04 290.705 35.04 291.325 L 32.721 293.862 L 35.621 293.862 Z M 32.741 319.627 C 32.741 320.247 33.321 320.247 33.921 320.247 C 35.68 320.247 35.68 319.627 35.68 319.007 C 35.68 317.768 35.1 317.129 33.92 317.129 L 33.321 317.129 L 33.321 316.509 L 33.921 316.509 C 34.501 316.509 35.68 315.889 35.68 315.269 C 35.68 314.65 35.1 314.031 34.5 314.031 C 33.92 314.031 33.321 314.031 32.741 314.651 L 32.741 313.411 C 32.741 313.411 33.921 312.771 34.501 312.771 C 36.279 312.771 36.859 314.031 36.859 314.651 C 36.859 315.889 36.279 316.509 35.1 316.509 C 36.28 317.129 36.859 317.769 36.859 319.008 C 36.859 320.247 36.279 321.486 34.5 321.486 C 33.321 321.486 32.741 320.866 32.142 320.866 L 32.742 319.627 Z M 32.141 344.832 L 32.141 344.212 L 33.321 343.572 C 35.1 341.674 35.68 340.415 35.68 339.135 C 35.68 338.515 35.68 337.876 34.5 337.876 C 33.92 337.876 33.321 337.876 32.741 338.516 L 32.741 337.236 C 32.741 337.236 33.921 336.596 34.501 336.596 C 36.279 336.596 36.859 337.876 36.859 339.136 C 36.859 340.415 35.679 341.674 34.5 343.573 L 33.92 344.213 L 36.859 344.213 L 36.859 344.832 L 32.142 344.832 Z" fill="#000" fill-rule="evenodd" fill-opacity="1" stroke="none" /><path d="M 67.481 47.252 L 67.481 5.857 C 67.481 3.978 53.329 2.719 35.64 2.719 C 17.36 2.719 3.2 3.979 3.2 5.857 L 3.2 47.252 C 3.2 49.132 17.36 51.01 35.64 51.01 C 53.329 51.01 67.48 49.131 67.48 47.252 Z" fill="#4776b5" fill-rule="evenodd" fill-opacity="1" stroke="none" /><path d="M 63.243 48.372 L 63.483 3.199 M 58.046 49.571 L 58.286 2.719 M 52.609 49.571 L 52.849 2.719 M 46.773 49.571 L 47.013 2.719 M 41.576 50.29 L 41.816 2.72 M 36.139 49.571 L 36.379 2 M 30.943 2.719 L 31.183 50.29 M 25.586 2.719 L 25.826 49.571 M 20.389 2.719 L 20.629 49.571 M 14.952 2.719 L 15.192 49.571 M 9.755 3.199 L 9.995 48.372 M 4.399 5.757 L 4.639 47.652" fill="none" stroke="#fff" stroke-width=".79951543px" stroke-linecap="round" stroke-linejoin="round" stroke-miterlimit="4" stroke-dasharray="none" stroke-opacity="1" /><path d="M 63.243 48.372 L 63.483 3.199 M 58.046 49.571 L 58.286 2.719 M 52.609 49.571 L 52.849 2.719 M 46.773 49.571 L 47.013 2.719 M 41.576 50.29 L 41.816 2.72 M 36.139 49.571 L 36.379 2 M 30.943 2.719 L 31.183 50.29 M 25.586 2.719 L 25.826 49.571 M 20.389 2.719 L 20.629 49.571 M 14.952 2.719 L 15.192 49.571 M 9.755 3.199 L 9.995 48.372 M 4.399 5.757 L 4.639 47.652" fill="none" stroke="#bdcae2" stroke-width=".79951543px" stroke-linecap="butt" stroke-linejoin="miter" stroke-miterlimit="8" stroke-dasharray="none" stroke-opacity="1" /><path d="M 61.564 48.372 L 61.804 3.199 M 56.207 49.571 L 56.447 2.719 M 51.011 49.571 L 51.251 2.719 M 45.574 49.571 L 45.814 2.719 M 40.377 50.29 L 40.617 2.72 M 34.541 49.571 L 34.781 2 M 29.104 2.719 L 29.344 50.29 M 23.907 2.719 L 24.147 49.571 M 18.471 2.719 L 18.71 49.571 M 13.353 2.719 L 13.593 49.571 M 7.917 3.199 L 8.157 48.372" fill="none" stroke="#fff" stroke-width=".47970927px" stroke-linecap="round" stroke-linejoin="round" stroke-miterlimit="10" stroke-dasharray="none" stroke-opacity="1" /><path d="M 61.564 48.372 L 61.804 3.199 M 56.207 49.571 L 56.447 2.719 M 51.011 49.571 L 51.251 2.719 M 45.574 49.571 L 45.814 2.719 M 40.377 50.29 L 40.617 2.72 M 34.541 49.571 L 34.781 2 M 29.104 2.719 L 29.344 50.29 M 23.907 2.719 L 24.147 49.571 M 18.471 2.719 L 18.71 49.571 M 13.353 2.719 L 13.593 49.571 M 7.917 3.199 L 8.157 48.372" fill="none" stroke="#083f7c" stroke-width=".79951543px" stroke-linecap="butt" stroke-linejoin="miter" stroke-miterlimit="8" stroke-dasharray="none" stroke-opacity="1" /><path d="M 62.044 48.372 L 62.284 3.918 M 56.847 49.571 L 57.087 3.199 M 51.491 49.571 L 51.73 2.719 M 46.293 50.29 L 46.533 2.72 M 40.857 50.29 L 41.097 3.199 M 35.021 49.571 L 35.18 2.719 M 29.823 3.199 L 30.063 50.29 M 24.387 2.719 L 24.627 50.29 M 19.19 2.719 L 19.43 49.571 M 13.833 3.199 L 13.993 49.571 M 8.636 3.918 L 8.876 48.372" fill="none" stroke="#333" stroke-width=".47970927px" stroke-linecap="round" stroke-linejoin="round" stroke-miterlimit="10" stroke-dasharray="none" stroke-opacity="1" /><path d="M 67.481 5.797 C 67.481 3.958 53.329 2.719 35.64 2.719 C 17.36 2.719 3.2 3.959 3.2 5.797 C 3.2 7.647 17.36 8.875 35.64 8.875 C 53.329 8.875 67.48 7.646 67.48 5.797 Z" fill="#9bb0d4" fill-rule="evenodd" fill-opacity="1" stroke="none" /><path d="M 67.481 5.777 Z M 3.199 5.777 Z M 63.353 3.918 C 67.48 6.397 48.023 7.017 30.923 7.017 C 19.13 7.017 9.106 6.397 3.199 5.777 C 3.199 7.637 17.95 8.875 35.639 8.875 C 53.329 8.875 67.48 7.636 67.48 5.777 C 67.48 5.157 65.711 4.538 63.353 3.918 Z" fill="#d8dfee" fill-rule="evenodd" fill-opacity="1" stroke="none" /><path d="M 67.481 5.797 C 67.481 3.958 53.329 2.719 35.64 2.719 C 17.36 2.719 3.2 3.959 3.2 5.797 C 3.2 5.797 3.2 5.797 3.2 5.797 C 3.2 7.647 17.36 8.875 35.64 8.875 C 53.329 8.875 67.48 7.646 67.48 5.797" fill="none" stroke="#333" stroke-width=".79951543px" stroke-linecap="round" stroke-linejoin="round" stroke-miterlimit="10" stroke-dasharray="none" stroke-opacity="1" /><path d="M 67.481 47.252 L 67.481 5.857 C 67.481 3.978 53.329 2.719 35.64 2.719 C 17.36 2.719 3.2 3.979 3.2 5.857 L 3.2 47.252 C 3.2 47.252 3.2 47.252 3.2 47.252 C 3.2 49.132 17.36 51.01 35.64 51.01 C 53.329 51.01 67.48 49.131 67.48 47.252" fill="none" stroke="#333" stroke-width=".79951543px" stroke-linecap="round" stroke-linejoin="round" stroke-miterlimit="10" stroke-dasharray="none" stroke-opacity="1" /><path d="M 3.679 48.372 C 3.119 47.732 3.119 47.732 3.119 47.092 C 3.119 47.092 3.119 47.092 3.119 47.092 L 3.119 45.813 C 2.559 46.453 2 46.453 2 47.093 C 2 47.093 2.56 47.732 3.68 48.372 M 67.401 45.813 L 67.401 47.093 C 67.401 47.093 67.401 47.093 67.401 47.093 C 67.401 47.732 67.401 47.732 66.761 48.372 C 68.041 47.732 68.68 47.092 68.68 47.092 C 68.68 46.452 68.68 46.452 67.4 45.813" fill="none" stroke="#333" stroke-width=".79951543px" stroke-linecap="round" stroke-linejoin="round" stroke-miterlimit="10" stroke-dasharray="none" stroke-opacity="1" /><path d="M 2.001 49.082 C 2.001 51.51 17.351 53.329 35.64 53.329 C 53.929 53.329 68.68 51.509 68.68 49.081 L 68.68 47.252 C 68.68 49.082 53.929 50.9 35.64 50.9 C 17.35 50.9 2 49.081 2 47.252 L 2 49.082 Z" fill="#96add2" fill-rule="evenodd" fill-opacity="1" stroke="none" /><path d="M 2.001 49.082 C 2.001 51.51 17.351 53.329 35.64 53.329 C 53.929 53.329 68.68 51.509 68.68 49.081 L 68.68 47.252 C 68.68 49.082 53.929 50.9 35.64 50.9 C 17.35 50.9 2 49.081 2 47.252 L 2 49.082 Z M 39.657 339.635 C 56.167 339.635 59.705 335.338 62.044 333.479 M 39.657 315.809 C 55.567 315.809 59.705 312.092 62.044 310.213 M 39.657 292.064 C 54.988 292.064 59.105 288.926 62.044 286.387 M 39.657 268.718 C 54.388 268.718 59.105 265 62.044 263.121 M 39.657 244.972 C 54.388 244.972 58.526 241.734 62.044 239.776 M 39.657 220.987 C 53.809 220.987 58.526 218.568 62.044 216.749 M 39.657 197.162 C 53.209 197.162 57.927 195.282 62.044 193.404 M 39.657 173.416 C 52.629 173.416 57.927 171.456 62.044 170.138 M 39.657 150.07 C 52.03 150.07 57.337 148.251 62.044 147.032 M 39.657 126.324 C 51.44 126.324 57.337 125.045 62.044 123.766 M 39.657 102.339 C 51.44 102.339 56.747 101.059 62.044 100.42 M 49.091 89.866 C 54.448 89.866 59.205 89.266 62.763 88.667 M 49.091 113.612 C 54.398 112.972 59.105 112.332 62.044 111.693 M 49.091 137.597 C 54.988 136.987 59.105 136.378 62.044 135.759 M 49.091 160.703 C 54.988 160.063 59.705 159.424 62.044 158.785 M 49.091 184.689 C 54.988 184.049 59.705 182.77 62.044 182.13 M 49.091 208.514 C 55.568 207.894 59.705 206.036 62.044 205.396 M 49.091 231.78 C 55.568 231.14 59.705 229.822 62.044 228.502 M 49.091 255.606 C 55.568 254.966 60.285 253.048 62.044 251.768 M 49.091 279.352 C 56.167 278.152 60.285 276.333 62.044 275.114 M 49.091 302.697 C 56.167 302.057 60.285 299.499 62.044 298.22 M 49.091 326.443 C 56.167 325.203 60.285 323.345 62.044 321.486 M 49.091 350.428 C 56.747 349.189 60.285 346.711 62.044 344.832" fill="none" stroke="#333" stroke-width=".79951543px" stroke-linecap="round" stroke-linejoin="round" stroke-miterlimit="10" stroke-dasharray="none" stroke-opacity="1" /><path d="M 14.413 344.752 C 14.413 354.166 20.949 356.685 25.106 357.304 C 17.391 357.304 11.434 356.065 11.434 347.89 L 11.434 57.086 C 11.434 57.086 14.413 335.338 14.413 344.752 Z M 40.257 359.862 C 46.213 359.862 55.727 353.587 55.727 347.95 L 55.727 54.048 L 54.548 54.048 L 54.548 343.553 C 54.548 352.327 47.992 359.863 39.658 359.863 Z M 32.181 366.679 C 26.845 366.039 20.349 365.419 15.611 363.541 C 13.833 362.901 12.634 363.541 13.233 365.419 C 15.612 372.955 27.445 411.232 31.003 415.009 C 32.781 416.889 34.54 417.508 34.54 417.508 C 32.781 416.888 31.003 413.75 30.403 409.992 C 29.223 406.215 22.108 385.507 23.887 374.214 C 25.087 369.817 29.224 367.938 32.781 366.679 L 32.181 366.679 Z" fill="#fff" fill-rule="evenodd" fill-opacity="1" stroke="none" /><path d="M 48.631 365.419 C 50.991 364.799 53.349 364.16 55.108 363.541 C 56.887 362.901 58.046 363.541 57.466 365.419 C 55.108 372.955 42.736 411.232 39.797 415.009 C 38.018 416.889 35.66 417.508 35.66 417.508 C 38.018 416.888 39.198 413.75 40.377 409.992 C 41.557 406.215 48.632 391.164 49.211 379.231 C 49.811 369.177 45.094 366.039 48.631 365.419 Z" fill="#990147" fill-rule="evenodd" fill-opacity="1" stroke="none" /><path d="M 7.917 259.244 C 11.474 259.864 15.632 259.864 20.949 260.483 C 22.148 260.483 23.907 260.483 23.907 257.985 L 23.907 124.465 C 23.907 124.465 23.907 120.708 21.548 120.068 C 16.211 119.448 11.474 119.448 7.917 118.808 L 7.917 259.244 Z" fill="#f5f5f5" fill-rule="evenodd" fill-opacity="1" stroke="none" /><path d="M 7.917 259.244 C 11.474 259.864 15.632 259.864 20.949 260.483 C 22.148 260.483 23.907 260.483 23.907 257.985 L 23.907 124.465 C 23.907 124.465 23.907 120.708 21.548 120.068 C 16.211 119.448 11.474 119.448 7.917 118.808 L 7.917 259.244 Z" fill="none" stroke="#333" stroke-width=".79951543px" stroke-linecap="round" stroke-linejoin="round" stroke-miterlimit="10" stroke-dasharray="none" stroke-opacity="1" /><path d="M 39.817 412.471 C 45.694 399.279 53.949 373.534 54.528 364.101 C 53.948 364.101 53.369 364.101 52.769 364.74 C 52.189 367.258 51.59 372.275 50.411 378.551 C 49.231 382.949 48.052 387.986 46.293 393.003 C 43.935 400.538 40.996 407.453 40.397 409.973 C 39.817 412.471 38.637 415.629 36.859 416.868 C 37.459 416.868 38.638 415.629 39.817 412.471 Z M 33.821 191.205 C 33.821 189.346 35.3 187.807 37.099 187.807 C 38.918 187.807 40.377 189.347 40.377 191.205 C 40.377 193.084 38.917 194.603 37.099 194.603 C 35.299 194.603 33.821 193.083 33.821 191.205 Z M 41.576 190.805 C 41.576 189.785 42.376 188.926 43.336 188.926 C 44.314 188.926 45.094 189.786 45.094 190.806 C 45.094 191.845 44.314 192.684 43.335 192.684 C 42.375 192.684 41.576 191.844 41.576 190.805 Z M 29.104 190.565 C 29.104 189.665 29.624 188.926 30.263 188.926 C 30.923 188.926 31.423 189.666 31.423 190.566 C 31.423 191.485 30.923 192.204 30.263 192.204 C 29.623 192.204 29.103 191.484 29.103 190.565 Z" fill="#fff" fill-rule="evenodd" fill-opacity="1" stroke="none" /><rect id="anchor_liquid_bounds" x="12.9163" y="123.878" width="44.0723" height="230.553" fill="none" stroke="none" display="none" /><rect id="anchor_label" x="21.1799" y="165.797" width="27.5452" height="83.8374" fill="none" stroke="none" display="none" /><rect id="anchor_error" x="59.0545" y="14.8895" width="6.8863" height="25.1512" fill="none" stroke="none" display="none" /><g id="overlay_root" /></svg>