<svg xmlns="http://www.w3.org/2000/svg" xmlns:xlink="http://www.w3.org/1999/xlink" viewBox="0 0 609.76 629.8"><defs><linearGradient id="linear-gradient" x1="268.34" y1="277.89" x2="329.58" y2="187.09" gradientUnits="userSpaceOnUse"><stop offset="0" stop-color="#454545" /><stop offset="1" /></linearGradient><linearGradient id="linear-gradient-2" x1="174.53" y1="647" x2="134.34" y2="393.27" gradientUnits="userSpaceOnUse"><stop offset="0" stop-color="#fff" /><stop offset="1" /></linearGradient><linearGradient id="linear-gradient-3" x1="312.64" y1="343.25" x2="604.27" y2="343.25" xlink:href="#linear-gradient-2" /><linearGradient id="linear-gradient-4" x1="445.91" y1="110.01" x2="442.44" y2="10.71" gradientUnits="userSpaceOnUse"><stop offset="0" stop-color="#7d7d7d" /><stop offset="1" /></linearGradient><linearGradient id="linear-gradient-5" x1="488.55" y1="204.36" x2="511.26" y2="233.43" xlink:href="#linear-gradient-2" /><linearGradient id="linear-gradient-6" x1="278.25" y1="80.04" x2="342.76" y2="13.24" gradientUnits="userSpaceOnUse"><stop offset="0" stop-color="#c4c4c4" /><stop offset=".15" stop-color="silver" /><stop offset=".29" stop-color="#b5b5b5" /><stop offset=".44" stop-color="#a2a2a2" /><stop offset=".57" stop-color="#878787" /><stop offset=".71" stop-color="#646464" /><stop offset=".85" stop-color="#393939" /><stop offset=".98" stop-color="#080808" /><stop offset="1" /></linearGradient><linearGradient id="linear-gradient-7" x1="368.21" y1="201.48" x2="415.01" y2="201.48" gradientUnits="userSpaceOnUse"><stop offset="0" stop-color="#828282" /><stop offset=".18" stop-color="#7e7e7e" /><stop offset=".36" stop-color="#737373" /><stop offset=".53" stop-color="#606060" /><stop offset=".7" stop-color="#454545" /><stop offset=".86" stop-color="#222" /><stop offset="1" /></linearGradient><linearGradient id="linear-gradient-8" x1="277.75" y1="263.81" x2="281.81" y2="249.65" gradientTransform="rotate(2.72 283.864 346.858)" gradientUnits="userSpaceOnUse"><stop offset="0" stop-color="#242424" /><stop offset=".34" stop-color="#202020" /><stop offset=".66" stop-color="#151515" /><stop offset=".98" stop-color="#020202" /><stop offset="1" /></linearGradient><linearGradient id="linear-gradient-9" x1="422.72" y1="203.23" x2="448.39" y2="203.23" xlink:href="#linear-gradient-8" /><linearGradient id="linear-gradient-10" x1="230.49" y1="71.56" x2="255.89" y2="71.56" xlink:href="#linear-gradient-8" /><style>.cls-15{stroke-miterlimit:10;stroke-width:1.35px;fill:none}.cls-14{fill:#a09f9c}.cls-15{stroke:#fff}</style></defs><g style="isolation:isolate"><g id="layer_2" data-name="layer 2"><path d="M 30.36 430.15 L 282.93 565.22 C 282.93 565.22 303.19 581.43 324.8 555.76 C 346.41 530.09 550.36 335.64 550.36 335.64 L 559.82 335.64 L 581.43 311.33 L 582.78 299.17 L 586.83 205.97 L 594.93 193.81 L 603.03 130.33 C 603.03 130.33 607.76 115.47 590.87 110.07 L 584.44 108.01 C 584.44 108.01 585.44 89.81 559.81 80.35 C 534.18 70.89 336.96 2 336.96 2 L 317.25 11.45 L 311.25 10.1 L 151.92 115.45 C 151.92 115.45 137.06 126.26 127.61 142.45 C 118.16 158.64 11.45 338.31 11.45 338.31 C 11.45 338.31 2 345.06 11.45 400.44 C 11.45 400.44 14.46 421.64 30.36 430.15 Z" stroke-miterlimit="10" stroke-width="1.35" stroke="#000" fill="#e3e3d6" /><path d="M 177.47 207.27 L 175.57 215.27 L 389.76 303.27 L 408.95 240.61 C 408.95 240.61 353.39 291.58 177.47 207.27 Z" transform="translate(.68 -57.63)" fill="url(#linear-gradient)" opacity=".34" /><path d="M 6.64 413.5 C 6.64 413.5 256.57 555.27 295.76 566.12 L 295.76 627.8 L 29.68 487.8 C 29.68 487.8 10.39 472.8 8.51 443.17 Z" transform="translate(.68 -57.63)" fill="url(#linear-gradient-2)" opacity=".34" /><path d="M 449.07 150.57 L 438.25 130.31 L 254.57 61.42 L 180.28 111.42 C 180.28 111.42 168.12 120.87 166.77 124.93 C 165.42 128.99 139.77 141.14 243.77 178.93 C 347.77 216.72 362.63 226.2 377.49 219.45 L 403.38 202.1 C 403.38 202.1 405.12 197.67 416.38 180.28 C 422.23 171.28 449.08 149.22 449.08 149.22" stroke="#444" stroke-miterlimit="10" stroke-width="1.35" fill="#e3e3d6" /><path d="M 124.9 182.99 L 24.95 345.07 L 295.95 484.18 L 397.74 305.9 L 124.9 182.99 Z" fill="#9c9b90" /><path d="M 128.96 253.27 A 4.55 4.55 0 0 1 134.49 251.57 L 381.41 360.57 A 3.37 3.37 0 0 1 383 365.43 L 340.9 438.48 A 4.22 4.22 0 0 1 335.53 440.15 L 89.87 323.27 A 3.35 3.35 0 0 1 88.44 318.37 Z" transform="translate(.68 -57.63)" fill="#2c2e30" /><path d="M 173.53 239.71 L 312.64 300.5 L 285.63 345.07 L 149.17 281.59 L 173.53 239.71 Z" fill="#3aa5ff" /><path d="M 604.27 120.18 L 449.06 259.97 L 312.64 504.44 L 312.64 566.32 L 550.36 335.61 L 559.82 335.61 L 581.43 311.3 L 588.18 203.25 L 594.93 193.79 L 604.27 120.18 Z" fill="url(#linear-gradient-3)" opacity=".34" /><path d="M 439.61 135.71 L 386.93 174.88 C 365.32 154.62 327.5 138.41 292.38 124.88 C 257.26 111.35 209.99 103.27 209.99 103.27 L 255.91 70.85 L 254.56 61.4" fill="none" stroke="#444" stroke-miterlimit="10" stroke-width="1.35" /><path d="M 343.71 14.15 L 261.77 64.13 L 343.71 14.15 L 544.96 84.39 L 458.46 157.33 L 449.06 150.57" stroke="#4c4c4c" fill="none" stroke-miterlimit="10" stroke-width="1.35" /><path style="mix-blend-mode:darken" d="M 518.06 107.49 L 343.71 45.22 L 343.71 14.15 L 544.96 84.39 L 518.06 107.49 Z" fill="url(#linear-gradient-4)" opacity=".34" /><path d="M 448.36 335.16 C 448.36 335.16 451.12 332.46 451.12 347.32 L 451.12 401.32 M 453.82 330.21 C 453.82 330.21 456.58 327.51 456.58 342.37 L 456.58 396.37 M 459.13 323.47 C 459.13 323.47 461.89 320.77 461.89 335.63 L 461.89 389.63 M 465.83 318.81 C 465.83 318.81 468.59 316.11 468.59 330.97 L 468.59 384.97 M 471.29 313.86 C 471.29 313.86 474.05 311.16 474.05 326.02 L 474.05 380.02 M 476.57 307.12 C 476.57 307.12 479.33 304.42 479.33 319.28 L 479.33 373.28 M 481.95 302.47 C 481.95 302.47 484.71 299.77 484.71 314.63 L 484.71 368.63 M 488.76 297.52 C 488.76 297.52 491.52 294.82 491.52 309.68 L 491.52 363.68 M 494.08 290.78 C 494.08 290.78 496.84 288.08 496.84 302.94 L 496.84 356.94 M 500.78 286.12 C 500.78 286.12 503.57 283.42 503.57 298.27 L 503.57 352.27 M 506.23 281.17 C 506.23 281.17 508.99 278.47 508.99 293.33 L 508.99 347.33 M 511.57 274.43 C 511.57 274.43 514.33 271.73 514.33 286.59 L 514.33 340.59 M 516.9 269.78 C 516.9 269.78 519.66 267.08 519.66 281.94 L 519.66 335.94 M 523.71 264.83 C 523.71 264.83 526.47 262.13 526.47 276.99 L 526.47 330.99 M 529.03 258.09 C 529.03 258.09 531.79 255.39 531.79 270.25 L 531.79 324.25 M 534.37 253.43 C 534.37 253.43 537.13 250.73 537.13 265.59 L 537.13 319.59 M 541.18 248.48 C 541.18 248.48 543.94 245.78 543.94 260.64 L 543.94 314.64 M 546.5 241.74 C 546.5 241.74 549.26 239.04 549.26 253.9 L 549.26 307.9 M 551.84 237.09 C 551.84 237.09 554.57 234.39 554.57 249.27 L 554.57 303.27 M 558.65 232.14 C 558.65 232.14 561.41 229.44 561.41 244.3 L 561.41 298.3 M 563.97 225.4 C 563.97 225.4 566.73 222.7 566.73 237.56 L 566.73 291.56" transform="translate(.68 -57.63)" stroke="#424242" stroke-linecap="round" stroke-linejoin="round" stroke-width="2.7px" opacity=".7" fill="none" /><path class="cls-14" d="M 75 345.42 A 4.4 4.4 0 0 0 69.51 347.01 L 35.77 400.8 A 3.44 3.44 0 0 0 37.15 405.8 L 282.89 530.62 A 4 4 0 0 0 288.17 529.01 L 322.25 468.16 A 3.56 3.56 0 0 0 320.67 463.16 Z" transform="translate(.68 -57.63)" /><path class="cls-15" d="M 75 345.42 A 4.4 4.4 0 0 0 69.51 347.01 L 35.77 400.8 A 3.44 3.44 0 0 0 37.15 405.8 L 282.89 530.62 A 4 4 0 0 0 288.17 529.01 L 322.25 468.16 A 3.56 3.56 0 0 0 320.67 463.16 Z" transform="translate(.68 -57.63)" /><path d="M 583.45 166.33 L 429.45 297.33 C 429.45 297.33 434.85 272.48 419.99 257.9 L 566.73 143.37 C 566.73 143.37 578.79 140.9 583.45 166.33 Z" transform="translate(.68 -57.63)" style="mix-blend-mode:darken" fill="url(#linear-gradient-5)" opacity=".34" /><path class="cls-14" d="M 87.16 327.72 A 4.36 4.36 0 0 0 81.7 329.34 L 76.5 337.83 A 3.38 3.38 0 0 0 77.96 342.74 L 323.57 459.66 A 4 4 0 0 0 328.76 457.89 L 333.16 449.21 A 3.73 3.73 0 0 0 331.43 444.15 Z" transform="translate(.68 -57.63)" /><path class="cls-15" d="M 87.16 327.72 A 4.36 4.36 0 0 0 81.7 329.34 L 76.5 337.83 A 3.38 3.38 0 0 0 77.96 342.74 L 323.57 459.66 A 4 4 0 0 0 328.76 457.89 L 333.16 449.21 A 3.73 3.73 0 0 0 331.43 444.15 Z" transform="translate(.68 -57.63)" /><path d="M 12.14 461.27 L 295.76 616.1 C 295.76 616.1 305.12 616.85 311.97 612.05 L 582.1 351.41" transform="translate(.68 -57.63)" style="mix-blend-mode:darken" stroke="#9e9e9e" fill="none" stroke-miterlimit="10" stroke-width="1.35" /><path d="M 114.32 166.74 L 425.75 303.39" stroke="#9e9e9e" fill="none" stroke-miterlimit="10" stroke-width="1.35" /><path d="M 296.44 77.13 L 343.71 45.22 L 343.71 14.15 L 261.77 64.13 L 296.44 77.13 Z" opacity=".49" fill="url(#linear-gradient-6)" /><path style="mix-blend-mode:darken" d="M 368.21 222.67 L 415.01 180.29 L 403.36 203.45 L 368.21 222.67 Z" fill="url(#linear-gradient-7)" opacity=".34" /></g><g id="layer_3" data-name="layer 3"><path d="M 155.45 373.14 A 3.92 3.92 0 0 1 150.25 374.8 L 139.09 369.17 A 3.76 3.76 0 0 1 137.45 364.06 L 139.03 361.06 A 3.92 3.92 0 0 1 144.23 359.4 L 155.39 365.03 A 3.76 3.76 0 0 1 157.03 370.14 Z M 181.77 385.96 A 3.92 3.92 0 0 1 176.57 387.62 L 165.41 381.99 A 3.76 3.76 0 0 1 163.77 376.88 L 165.35 373.88 A 3.92 3.92 0 0 1 170.55 372.22 L 181.71 377.85 A 3.76 3.76 0 0 1 183.35 382.96 Z M 209.44 398.78 A 3.92 3.92 0 0 1 204.24 400.44 L 193.08 394.81 A 3.76 3.76 0 0 1 191.44 389.7 L 193.02 386.7 A 3.92 3.92 0 0 1 198.22 385.04 L 209.38 390.67 A 3.76 3.76 0 0 1 211.02 395.78 Z M 235.75 411.6 A 3.92 3.92 0 0 1 230.57 413.27 L 219.41 407.64 A 3.76 3.76 0 0 1 217.77 402.53 L 219.35 399.53 A 3.92 3.92 0 0 1 224.55 397.87 L 235.71 403.5 A 3.76 3.76 0 0 1 237.35 408.61 Z M 263.42 424.43 A 3.92 3.92 0 0 1 258.22 426.1 L 247.06 420.47 A 3.76 3.76 0 0 1 245.42 415.36 L 247 412.36 A 3.92 3.92 0 0 1 252.2 410.7 L 263.37 416.27 A 3.76 3.76 0 0 1 265.01 421.38 Z" transform="translate(.68 -57.63)" fill="#595959" /><path d="M 286.33 487.61 C 281.59 501.36 267.45 508.96 254.76 504.61 C 242.07 500.26 236.97 485.54 241.76 471.78 C 246.55 458.02 259.29 450.43 271.98 454.78 C 284.67 459.13 291.07 473.86 286.33 487.61 Z M 170.99 403.68 A 4.06 4.06 0 0 1 165.71 405.35 L 150.25 397.77 A 3.63 3.63 0 0 1 148.65 392.77 L 150.29 389.77 A 4.06 4.06 0 0 1 155.57 388.07 L 171.03 395.65 A 3.63 3.63 0 0 1 172.63 400.65 Z M 100.31 379.78 A 3.92 3.92 0 0 1 95.11 381.44 L 83.95 375.81 A 3.76 3.76 0 0 1 82.31 370.7 L 83.89 367.7 A 3.92 3.92 0 0 1 89.09 366.04 L 100.25 371.67 A 3.76 3.76 0 0 1 101.89 376.78 Z M 198.65 417.53 A 4.06 4.06 0 0 1 193.37 419.2 L 177.91 411.62 A 3.63 3.63 0 0 1 176.31 406.62 L 177.95 403.62 A 4.06 4.06 0 0 1 183.23 401.95 L 198.69 409.53 A 3.63 3.63 0 0 1 200.29 414.53 Z M 226.32 431.37 A 4.06 4.06 0 0 1 221.04 433.04 L 205.57 425.47 A 3.63 3.63 0 0 1 203.97 420.47 L 205.62 417.47 A 4.06 4.06 0 0 1 210.9 415.8 L 226.36 423.38 A 3.63 3.63 0 0 1 227.96 428.38 Z M 162.09 418.88 A 4.06 4.06 0 0 1 156.81 420.55 L 141.35 412.97 A 3.63 3.63 0 0 1 139.75 407.97 L 141.39 404.97 A 4.06 4.06 0 0 1 146.67 403.3 L 162.13 410.88 A 3.63 3.63 0 0 1 163.73 415.88 Z M 189.76 432.73 A 4.06 4.06 0 0 1 184.48 434.4 L 169.02 426.82 A 3.63 3.63 0 0 1 167.42 421.82 L 169.06 418.82 A 4.06 4.06 0 0 1 174.34 417.15 L 189.8 424.73 A 3.63 3.63 0 0 1 191.4 429.73 Z M 217.43 446.57 A 4.06 4.06 0 0 1 212.15 448.24 L 196.69 440.66 A 3.63 3.63 0 0 1 195.09 435.66 L 196.73 432.66 A 4.06 4.06 0 0 1 202.01 430.99 L 217.47 438.57 A 3.63 3.63 0 0 1 219.07 443.57 Z M 153.34 434.13 A 4.06 4.06 0 0 1 148.06 435.8 L 132.57 428.27 A 3.63 3.63 0 0 1 130.97 423.27 L 132.62 420.27 A 4.06 4.06 0 0 1 137.9 418.6 L 153.36 426.18 A 3.63 3.63 0 0 1 154.96 431.18 Z M 181.01 447.98 A 4.06 4.06 0 0 1 175.73 449.65 L 160.27 442.07 A 3.63 3.63 0 0 1 158.67 437.07 L 160.31 434.07 A 4.06 4.06 0 0 1 165.59 432.4 L 181.05 439.98 A 3.63 3.63 0 0 1 182.65 444.98 Z M 208.67 461.82 A 4.06 4.06 0 0 1 203.39 463.49 L 187.93 455.91 A 3.63 3.63 0 0 1 186.33 450.91 L 187.98 447.91 A 4.06 4.06 0 0 1 193.26 446.24 L 208.72 453.82 A 3.63 3.63 0 0 1 210.32 458.82 Z M 144.67 450.68 A 4.06 4.06 0 0 1 139.39 452.35 L 123.93 444.77 A 3.63 3.63 0 0 1 122.33 439.77 L 123.98 436.77 A 4.06 4.06 0 0 1 129.26 435.1 L 144.72 442.68 A 3.63 3.63 0 0 1 146.32 447.68 Z M 172.34 464.52 A 4.06 4.06 0 0 1 167.06 466.19 L 151.57 458.62 A 3.63 3.63 0 0 1 149.97 453.62 L 151.61 450.62 A 4.06 4.06 0 0 1 156.89 448.95 L 172.35 456.53 A 3.63 3.63 0 0 1 173.95 461.53 Z M 200 478.37 A 4.06 4.06 0 0 1 194.72 480.04 L 179.26 472.46 A 3.63 3.63 0 0 1 177.66 467.46 L 179.3 464.46 A 4.06 4.06 0 0 1 184.58 462.79 L 200.04 470.37 A 3.63 3.63 0 0 1 201.64 475.37 Z" transform="translate(.68 -57.63)" fill="#717271" /><path d="M 285.26 484.58 C 280.52 498.33 266.38 505.93 253.69 501.58 C 241 497.23 235.9 482.51 240.69 468.75 C 245.48 454.99 258.22 447.4 270.91 451.75 C 283.6 456.1 290 470.82 285.26 484.58 Z M 169.92 400.65 A 4.06 4.06 0 0 1 164.64 402.32 L 149.18 394.74 A 3.63 3.63 0 0 1 147.58 389.74 L 149.22 386.74 A 4.06 4.06 0 0 1 154.5 385.07 L 169.96 392.65 A 3.63 3.63 0 0 1 171.56 397.65 Z M 99.24 376.75 A 3.92 3.92 0 0 1 94.04 378.41 L 82.88 372.78 A 3.76 3.76 0 0 1 81.24 367.67 L 82.82 364.67 A 3.92 3.92 0 0 1 88.02 363.01 L 99.18 368.64 A 3.76 3.76 0 0 1 100.82 373.75 Z M 197.57 414.5 A 4.06 4.06 0 0 1 192.29 416.17 L 176.83 408.59 A 3.63 3.63 0 0 1 175.23 403.59 L 176.87 400.59 A 4.06 4.06 0 0 1 182.15 398.92 L 197.61 406.5 A 3.63 3.63 0 0 1 199.21 411.5 Z M 225.26 428.34 A 4.06 4.06 0 0 1 219.98 430.01 L 204.52 422.43 A 3.63 3.63 0 0 1 202.92 417.43 L 204.56 414.43 A 4.06 4.06 0 0 1 209.84 412.76 L 225.31 420.27 A 3.63 3.63 0 0 1 226.91 425.27 Z M 161.03 415.85 A 4.06 4.06 0 0 1 155.75 417.52 L 140.29 409.94 A 3.63 3.63 0 0 1 138.69 404.94 L 140.33 401.94 A 4.06 4.06 0 0 1 145.57 400.27 L 161.03 407.85 A 3.63 3.63 0 0 1 162.63 412.85 Z M 188.69 429.69 A 4.06 4.06 0 0 1 183.41 431.36 L 167.95 423.78 A 3.63 3.63 0 0 1 166.35 418.78 L 167.99 415.78 A 4.06 4.06 0 0 1 173.27 414.11 L 188.73 421.69 A 3.63 3.63 0 0 1 190.33 426.69 Z M 216.36 443.54 A 4.06 4.06 0 0 1 211.08 445.21 L 195.62 437.63 A 3.63 3.63 0 0 1 194.02 432.63 L 195.66 429.63 A 4.06 4.06 0 0 1 200.94 427.96 L 216.4 435.54 A 3.63 3.63 0 0 1 218 440.54 Z M 152.27 431.1 A 4.06 4.06 0 0 1 146.99 432.77 L 131.57 425.19 A 3.63 3.63 0 0 1 129.97 420.19 L 131.61 417.19 A 4.06 4.06 0 0 1 136.89 415.52 L 152.35 423.1 A 3.63 3.63 0 0 1 153.95 428.1 Z M 179.94 444.94 A 4.06 4.06 0 0 1 174.66 446.61 L 159.2 439.03 A 3.63 3.63 0 0 1 157.6 434.03 L 159.24 431.03 A 4.06 4.06 0 0 1 164.52 429.36 L 179.98 436.94 A 3.63 3.63 0 0 1 181.58 441.94 Z M 207.57 458.79 A 4.06 4.06 0 0 1 202.29 460.46 L 186.83 452.88 A 3.63 3.63 0 0 1 185.23 447.88 L 186.87 444.88 A 4.06 4.06 0 0 1 192.15 443.21 L 207.61 450.79 A 3.63 3.63 0 0 1 209.21 455.79 Z M 143.57 447.65 A 4.06 4.06 0 0 1 138.29 449.32 L 122.83 441.74 A 3.63 3.63 0 0 1 121.23 436.74 L 122.87 433.74 A 4.06 4.06 0 0 1 128.15 432.07 L 143.61 439.65 A 3.63 3.63 0 0 1 145.21 444.65 Z M 171.27 461.49 A 4.06 4.06 0 0 1 165.99 463.16 L 150.57 455.59 A 3.63 3.63 0 0 1 148.97 450.59 L 150.61 447.59 A 4.06 4.06 0 0 1 155.89 445.92 L 171.35 453.5 A 3.63 3.63 0 0 1 172.95 458.5 Z M 198.94 475.34 A 4.06 4.06 0 0 1 193.66 477.01 L 178.2 469.43 A 3.63 3.63 0 0 1 176.6 464.43 L 178.24 461.43 A 4.06 4.06 0 0 1 183.52 459.76 L 198.99 467.27 A 3.63 3.63 0 0 1 200.59 472.27 Z" transform="translate(.68 -57.63)" fill="#e1e2d0" /><path d="M 153.95 371.1 A 3.92 3.92 0 0 1 148.75 372.76 L 137.57 367.13 A 3.76 3.76 0 0 1 135.93 362.02 L 137.51 359.02 A 3.92 3.92 0 0 1 142.71 357.36 L 153.87 362.99 A 3.76 3.76 0 0 1 155.51 368.1 Z M 180.26 383.92 A 3.92 3.92 0 0 1 175.06 385.58 L 163.9 379.95 A 3.76 3.76 0 0 1 162.26 374.84 L 163.84 371.84 A 3.92 3.92 0 0 1 169.04 370.18 L 180.2 375.81 A 3.76 3.76 0 0 1 181.84 380.92 Z M 207.93 396.75 A 3.92 3.92 0 0 1 202.73 398.41 L 191.57 392.78 A 3.76 3.76 0 0 1 189.93 387.67 L 191.51 384.67 A 3.92 3.92 0 0 1 196.71 383.01 L 207.87 388.64 A 3.76 3.76 0 0 1 209.51 393.75 Z M 234.25 409.57 A 3.92 3.92 0 0 1 229.05 411.23 L 217.89 405.6 A 3.76 3.76 0 0 1 216.25 400.49 L 217.83 397.49 A 3.92 3.92 0 0 1 223.03 395.83 L 234.19 401.46 A 3.76 3.76 0 0 1 235.83 406.57 Z M 261.92 422.39 A 3.92 3.92 0 0 1 256.72 424.05 L 245.57 418.42 A 3.76 3.76 0 0 1 243.93 413.31 L 245.51 410.31 A 3.92 3.92 0 0 1 250.71 408.65 L 261.86 414.27 A 3.76 3.76 0 0 1 263.5 419.38 Z" transform="translate(.68 -57.63)" fill="#757575" /><path d="M 219.73 226.73 C 219.73 226.73 334.09 273.02 348.88 274.89 L 348.55 285.89 L 220.47 233.77 Z" transform="translate(.68 -57.63)" opacity=".62" fill="url(#linear-gradient-8)" /><path d="M 422.72 205.5 C 422.72 205.5 432.18 204.15 437.58 210.9 C 442.98 217.65 448.39 206.85 448.39 206.85 L 438.26 193.34 Z" transform="translate(.68 -57.63)" fill="url(#linear-gradient-9)" opacity=".32" /><path d="M 255.89 72.23 L 244.32 80.34 L 230.48 77.64 L 254.39 62.78 L 255.89 72.23 Z" fill="url(#linear-gradient-10)" opacity=".32" /></g></g></svg>