<svg xmlns="http://www.w3.org/2000/svg" version="1.0" viewBox="0 0 330.482 435.779"><path d="M 320.367 76.835 L 10.095 76.835 C 5.378 76.835 2 80.892 2 86.269 L 2 134.719 L 328.442 134.719 L 328.442 86.269 C 328.442 80.892 325.084 76.835 320.367 76.835 Z" fill="#062451" fill-rule="evenodd" fill-opacity="1" stroke="none" /><path d="M 13.433 422.945 L 13.433 427.682 C 13.433 431.04 19.51 433.739 26.226 433.739 C 33.641 433.739 39.018 431.04 39.018 427.682 L 39.018 422.945 L 13.433 422.945 Z M 291.425 422.945 L 291.425 427.682 C 291.425 431.04 296.842 433.739 304.257 433.739 C 311.013 433.739 317.089 431.04 317.089 427.682 L 317.089 422.945 L 291.425 422.945 Z" fill="#092c68" fill-rule="evenodd" fill-opacity="1" stroke="none" /><path d="M 2.001 134.72 L 2.001 422.945 L 328.441 422.945 L 328.441 134.721 L 2.001 134.721 Z" fill="#dee9ec" fill-rule="evenodd" fill-opacity="1" stroke="none" /><path d="M 39.657 181.851 C 39.657 176.455 43.715 171.737 49.092 171.737 L 281.451 171.737 C 286.828 171.737 290.865 176.455 290.865 181.851 L 290.865 375.754 C 290.865 381.151 286.828 385.848 281.451 385.848 L 49.091 385.848 C 43.715 385.848 39.657 381.151 39.657 375.754 L 39.657 181.851 Z" fill="#616768" fill-rule="evenodd" fill-opacity="1" stroke="none" /><path d="M 294.823 209.315 L 294.823 378.451 C 294.823 383.828 290.785 388.545 285.389 388.545 L 102.259 388.545 C 102.259 388.545 275.974 395.281 285.389 393.942 C 294.823 392.602 300.879 389.225 301.559 377.772 C 302.219 366.318 294.823 209.314 294.823 209.314 Z" fill="#fff" fill-rule="evenodd" fill-opacity="1" stroke="none" /><path d="M 35.52 346.831 L 35.52 177.794 C 35.52 172.397 40.237 168.359 45.634 168.359 L 228.823 168.359 C 228.823 168.359 55.068 160.944 45.633 162.303 C 36.2 163.643 30.143 167.02 29.463 178.473 C 28.784 189.906 35.52 346.831 35.52 346.831 Z" fill="#afc9d0" fill-rule="evenodd" fill-opacity="1" stroke="none" /><path d="M 5.998 90.147 C 5.998 86.089 9.376 82.032 13.413 82.032 L 317.049 82.032 C 321.087 82.032 324.445 86.089 324.445 90.147 L 324.445 121.188 C 324.445 125.925 321.087 129.283 317.049 129.283 L 13.413 129.283 C 9.376 129.283 5.998 125.925 5.998 121.188 L 5.998 90.147 Z" fill="#4a5d8c" fill-rule="evenodd" fill-opacity="1" stroke="none" /><path d="M 224.186 104.338 C 224.186 96.883 230.362 90.826 237.977 90.826 C 245.613 90.826 251.769 96.883 251.769 104.338 C 251.769 111.814 245.613 117.85 237.977 117.85 C 230.362 117.85 224.186 111.814 224.186 104.338" fill="none" stroke="#1d3a72" stroke-width="4.4772863px" stroke-linecap="butt" stroke-linejoin="miter" stroke-miterlimit="8" stroke-dasharray="none" stroke-opacity="1" /><path d="M 224.186 101.6 C 224.186 94.264 230.242 88.268 238.317 88.268 C 245.733 88.268 251.769 94.264 251.769 101.6 L 251.769 104.258 C 251.769 96.943 245.733 90.946 238.317 90.946 C 230.242 90.946 224.186 96.943 224.186 104.258 L 224.186 101.6 Z M 206.596 94.944 A 4.683 4.683 0 0 1 211.273 90.267 A 4.67 4.67 0 0 1 215.951 94.944 A 4.658 4.658 0 0 1 211.273 99.621 A 4.67 4.67 0 0 1 206.596 94.944" fill="none" stroke="#1d3a72" stroke-width="4.4772863px" stroke-linecap="butt" stroke-linejoin="miter" stroke-miterlimit="8" stroke-dasharray="none" stroke-opacity="1" /><path d="M 215.951 92.166 C 215.951 89.507 213.951 86.829 211.273 86.829 C 208.615 86.829 206.596 89.507 206.596 92.166 L 206.596 94.824 C 206.596 92.166 208.616 90.167 211.273 90.167 C 213.952 90.167 215.951 92.166 215.951 94.824 L 215.951 92.166 Z M 71.238 104.658 C 71.238 100.041 75.016 96.263 79.673 96.263 C 84.35 96.263 88.108 100.041 88.108 104.658 C 88.108 109.295 84.35 113.053 79.673 113.053 C 75.016 113.053 71.238 109.295 71.238 104.658" fill="none" stroke="#1d3a72" stroke-width="4.4772863px" stroke-linecap="butt" stroke-linejoin="miter" stroke-miterlimit="8" stroke-dasharray="none" stroke-opacity="1" /><path d="M 88.108 101.6 C 88.108 96.963 84.071 93.625 79.353 93.625 C 74.616 93.625 71.238 96.963 71.238 101.6 L 71.238 104.258 C 71.238 99.621 74.616 96.283 79.353 96.283 C 84.071 96.283 88.108 99.621 88.108 104.258 L 88.108 101.6 Z" fill="none" stroke="#1d3a72" stroke-width="4.4772863px" stroke-linecap="butt" stroke-linejoin="miter" stroke-miterlimit="8" stroke-dasharray="none" stroke-opacity="1" /><path d="M 224.186 104.338 C 224.186 96.883 230.362 90.826 237.977 90.826 C 245.613 90.826 251.769 96.883 251.769 104.338 C 251.769 111.814 245.613 117.85 237.977 117.85 C 230.362 117.85 224.186 111.814 224.186 104.338 Z" fill="#b1e2ee" fill-rule="evenodd" fill-opacity="1" stroke="none" /><path d="M 224.186 101.6 C 224.186 94.264 230.242 88.268 238.317 88.268 C 245.733 88.268 251.769 94.264 251.769 101.6 L 251.769 104.258 C 251.769 96.943 245.733 90.946 238.317 90.946 C 230.242 90.946 224.186 96.943 224.186 104.258 L 224.186 101.6 Z" fill="#dcf2f7" fill-rule="evenodd" fill-opacity="1" stroke="none" /><path d="M 71.238 104.658 C 71.238 100.041 75.016 96.263 79.673 96.263 C 84.35 96.263 88.108 100.041 88.108 104.658 C 88.108 109.295 84.35 113.053 79.673 113.053 C 75.016 113.053 71.238 109.295 71.238 104.658 Z" fill="#202323" fill-rule="evenodd" fill-opacity="1" stroke="none" /><path d="M 88.108 101.6 C 88.108 96.963 84.071 93.625 79.353 93.625 C 74.616 93.625 71.238 96.963 71.238 101.6 L 71.238 104.258 C 71.238 99.621 74.616 96.283 79.353 96.283 C 84.071 96.283 88.108 99.621 88.108 104.258 L 88.108 101.6 Z" fill="#717678" fill-rule="evenodd" fill-opacity="1" stroke="none" /><path d="M 47.013 278.393 C 47.013 272.976 51.43 268.559 56.847 268.559 C 62.284 268.559 66.681 272.976 66.681 278.393 A 9.827 9.827 0 0 1 56.847 288.227 C 51.43 288.227 47.013 283.829 47.013 278.393 Z" fill="#26292a" fill-rule="evenodd" fill-opacity="1" stroke="none" /><path d="M 66.681 275.435 C 66.681 270.078 62.624 265.361 56.527 265.361 C 51.091 265.361 47.013 270.078 47.013 275.435 L 47.013 278.793 C 47.013 273.436 51.091 268.719 56.527 268.719 C 62.624 268.719 66.681 273.436 66.681 278.793 L 66.681 275.435 Z" fill="#4a4f50" fill-rule="evenodd" fill-opacity="1" stroke="none" /><path d="M 206.596 94.944 A 4.683 4.683 0 0 1 211.273 90.267 A 4.67 4.67 0 0 1 215.951 94.944 A 4.658 4.658 0 0 1 211.273 99.621 A 4.67 4.67 0 0 1 206.596 94.944 Z" fill="#202323" fill-rule="evenodd" fill-opacity="1" stroke="none" /><path d="M 215.951 92.166 C 215.951 89.507 213.951 86.829 211.273 86.829 C 208.615 86.829 206.596 89.507 206.596 92.166 L 206.596 94.824 C 206.596 92.166 208.616 90.167 211.273 90.167 C 213.952 90.167 215.951 92.166 215.951 94.824 L 215.951 92.166 Z" fill="#717678" fill-rule="evenodd" fill-opacity="1" stroke="none" /><path d="M 206.596 115.171 A 4.683 4.683 0 0 1 211.273 110.495 A 4.67 4.67 0 0 1 215.951 115.172 A 4.658 4.658 0 0 1 211.273 119.849 A 4.67 4.67 0 0 1 206.596 115.172 Z" fill="#202323" fill-rule="evenodd" fill-opacity="1" stroke="none" /><path d="M 215.951 112.393 C 215.951 109.715 213.951 107.696 211.273 107.696 C 208.615 107.696 206.596 109.715 206.596 112.393 L 206.596 115.052 C 206.596 112.393 208.616 110.375 211.273 110.375 C 213.952 110.375 215.951 112.393 215.951 115.052 L 215.951 112.393 Z" fill="#717678" fill-rule="evenodd" fill-opacity="1" stroke="none" /><path d="M 125.126 97.722 C 125.126 98.402 124.466 99.062 123.806 99.062 L 117.83 99.062 C 117.17 99.062 116.49 98.402 116.49 97.722 L 116.49 91.626 C 116.49 90.946 117.17 90.266 117.83 90.266 L 123.806 90.266 C 124.466 90.266 125.126 90.946 125.126 91.626 L 125.126 97.722 Z M 125.126 118.47 C 125.126 119.829 124.466 120.488 123.806 120.488 L 117.83 120.488 C 117.17 120.488 116.49 119.828 116.49 118.47 L 116.49 113.093 C 116.49 112.413 117.17 111.054 117.83 111.054 L 123.806 111.054 C 124.466 111.054 125.126 112.414 125.126 113.093 L 125.126 118.47 Z M 125.126 108.376 C 125.126 109.036 124.466 109.695 123.806 109.695 L 117.83 109.695 C 117.17 109.695 116.49 109.035 116.49 108.375 L 116.49 102.399 C 116.49 101.739 117.17 101.06 117.83 101.06 L 123.806 101.06 C 124.466 101.06 125.126 101.74 125.126 102.4 L 125.126 108.376 Z" fill="#dee9ec" fill-rule="evenodd" fill-opacity="1" stroke="none" /><path d="M 3.999 80.813 C 5.359 78.114 7.377 76.775 10.075 76.775 L 320.367 76.775 C 323.046 76.775 325.744 78.794 327.083 81.472 L 287.387 6.058 C 286.028 3.359 284.009 2 281.331 2 L 49.111 2 C 46.413 2 43.715 3.36 43.055 6.058 L 3.999 80.813 Z" fill="#a6abc4" fill-rule="evenodd" fill-opacity="1" stroke="none" /><path d="M 185.729 72.058 L 298.94 72.058 C 309.714 72.058 314.43 71.378 316.45 73.397 C 315.11 70.039 284.789 10.075 284.789 10.075 C 283.449 6.038 282.091 5.358 264.581 5.358 C 274.015 6.038 277.373 9.416 282.771 20.868 C 288.167 31.642 297.601 50.511 272.656 57.906 C 247.731 64.642 209.994 72.737 185.729 72.058 Z" fill="#7d87aa" fill-rule="evenodd" fill-opacity="1" stroke="none" /><path d="M 78.034 5.478 L 53.149 5.478 C 47.093 5.478 47.773 6.158 43.055 14.892 C 38.358 23.647 11.435 73.397 11.435 73.397 C 11.435 73.397 45.754 21.628 53.149 14.892 C 60.545 8.177 74.676 4.799 78.034 5.478 Z M 7.437 234.339 L 7.437 148.172 C 7.437 143.455 10.135 140.077 15.532 140.077 L 92.905 140.077 C 66.661 142.115 29.664 144.134 22.928 148.172 C 16.192 152.209 14.173 153.548 12.834 164.322 C 11.474 175.095 7.437 234.339 7.437 234.339 Z" fill="#fff" fill-rule="evenodd" fill-opacity="1" stroke="none" /><path d="M 44.455 260.004 L 44.455 185.189 C 44.455 180.472 47.153 177.094 52.55 177.094 L 129.923 177.094 C 103.679 179.133 66.681 181.152 59.945 185.189 C 53.209 189.227 51.19 190.586 49.851 201.379 C 48.492 212.153 44.455 260.004 44.455 260.004 Z" fill="#989d9e" fill-rule="evenodd" fill-opacity="1" stroke="none" /><path d="M 286.068 286.788 L 286.068 372.975 C 286.068 377.693 283.39 381.051 277.993 381.051 L 200.6 381.051 C 226.864 379.031 263.862 377.013 270.598 372.975 C 277.333 368.938 279.352 367.599 280.691 356.825 C 282.031 346.052 286.068 286.788 286.068 286.788 Z" fill="#3d4142" fill-rule="evenodd" fill-opacity="1" stroke="none" /><path d="M 325.084 177.734 L 325.084 410.793 C 325.084 415.51 322.406 418.868 317.009 418.868 L 119.129 418.868 C 145.393 416.848 300.859 412.132 307.595 408.094 C 314.331 404.057 316.35 402.717 317.689 391.944 C 319.029 381.151 325.084 177.734 325.084 177.734 Z" fill="#afc9d0" fill-rule="evenodd" fill-opacity="1" stroke="none" /><path d="M 79.473 115.791 C 86.869 115.791 90.906 111.714 90.906 104.258 C 92.906 109.695 90.226 118.49 79.473 115.791 Z M 75.276 105.058 C 75.276 101.66 77.954 98.942 81.332 98.942 L 82.672 98.942 C 82.012 98.262 80.652 98.262 79.313 98.262 C 75.935 98.262 73.237 100.98 73.237 104.378 C 73.237 107.097 75.276 109.815 77.954 110.495 C 76.615 109.135 75.276 107.097 75.276 105.058 Z" fill="#fff" fill-rule="evenodd" fill-opacity="1" stroke="none" /><path d="M 265.201 104.658 C 265.201 100.041 268.978 96.263 273.636 96.263 C 278.313 96.263 282.071 100.041 282.071 104.658 C 282.071 109.295 278.313 113.053 273.636 113.053 C 268.978 113.053 265.201 109.295 265.201 104.658" fill="none" stroke="#1d3a72" stroke-width="4.4772863px" stroke-linecap="butt" stroke-linejoin="miter" stroke-miterlimit="8" stroke-dasharray="none" stroke-opacity="1" /><path d="M 282.071 101.6 C 282.071 96.963 278.713 93.625 273.975 93.625 C 269.258 93.625 265.201 96.963 265.201 101.6 L 265.201 104.258 C 265.201 99.621 269.258 96.283 273.975 96.283 C 278.713 96.283 282.071 99.621 282.071 104.258 L 282.071 101.6 Z" fill="none" stroke="#1d3a72" stroke-width="4.4772863px" stroke-linecap="butt" stroke-linejoin="miter" stroke-miterlimit="8" stroke-dasharray="none" stroke-opacity="1" /><path d="M 265.201 104.658 C 265.201 100.041 268.978 96.263 273.636 96.263 C 278.313 96.263 282.071 100.041 282.071 104.658 C 282.071 109.295 278.313 113.053 273.636 113.053 C 268.978 113.053 265.201 109.295 265.201 104.658 Z" fill="#202323" fill-rule="evenodd" fill-opacity="1" stroke="none" /><path d="M 273.995 115.791 C 280.771 115.791 284.849 111.714 284.849 104.258 C 286.868 109.695 284.169 118.49 273.995 115.791 Z M 269.898 105.058 C 269.898 101.66 272.636 98.942 276.074 98.942 L 277.434 98.942 C 276.074 98.262 275.394 98.262 274.015 98.262 C 270.598 98.262 267.839 100.98 267.839 104.378 C 267.839 107.097 269.898 109.815 272.636 110.495 C 270.598 109.135 269.898 107.097 269.898 105.058 Z M 55.808 290.106 C 63.943 290.106 68.02 285.409 68.02 275.994 C 70.04 282.71 67.34 292.784 55.808 290.106 Z M 51.131 280.071 C 51.131 275.375 54.449 272.017 59.126 272.017 L 60.445 272.017 C 59.125 270.677 57.786 269.997 56.447 269.997 C 51.79 269.997 48.452 274.035 48.452 278.733 C 48.452 282.77 51.131 286.128 54.449 286.788 C 52.449 285.448 51.131 282.77 51.131 280.072 Z M 235.619 122.467 C 248.431 122.467 255.846 115.072 255.846 101.62 C 259.204 111.034 254.487 126.485 235.619 122.467 Z M 230.222 105.697 C 230.222 99.601 234.919 94.864 240.975 94.864 L 242.975 94.864 C 241.635 93.504 238.957 92.825 236.938 92.825 C 230.902 92.825 226.184 97.582 226.184 103.659 C 226.184 109.075 229.542 113.153 234.919 114.492 C 231.561 112.473 230.222 109.075 230.222 105.697 Z" fill="#fff" fill-rule="evenodd" fill-opacity="1" stroke="none" /><path d="M 290.865 104.658 C 290.865 100.041 294.643 96.263 299.26 96.263 C 303.897 96.263 307.655 100.041 307.655 104.658 A 8.394 8.394 0 0 1 299.26 113.053 C 294.643 113.053 290.865 109.295 290.865 104.658" fill="none" stroke="#1d3a72" stroke-width="4.4772863px" stroke-linecap="butt" stroke-linejoin="miter" stroke-miterlimit="8" stroke-dasharray="none" stroke-opacity="1" /><path d="M 307.655 101.6 C 307.655 96.963 304.297 93.625 299.6 93.625 C 294.903 93.625 290.865 96.963 290.865 101.6 L 290.865 104.258 C 290.865 99.621 294.903 96.283 299.6 96.283 C 304.297 96.283 307.655 99.621 307.655 104.258 L 307.655 101.6 Z" fill="none" stroke="#1d3a72" stroke-width="4.4772863px" stroke-linecap="butt" stroke-linejoin="miter" stroke-miterlimit="8" stroke-dasharray="none" stroke-opacity="1" /><path d="M 290.865 104.658 C 290.865 100.041 294.643 96.263 299.26 96.263 C 303.897 96.263 307.655 100.041 307.655 104.658 A 8.394 8.394 0 0 1 299.26 113.053 C 294.643 113.053 290.865 109.295 290.865 104.658 Z" fill="#202323" fill-rule="evenodd" fill-opacity="1" stroke="none" /><path d="M 307.655 101.6 C 307.655 96.963 304.297 93.625 299.6 93.625 C 294.903 93.625 290.865 96.963 290.865 101.6 L 290.865 104.258 C 290.865 99.621 294.903 96.283 299.6 96.283 C 304.297 96.283 307.655 99.621 307.655 104.258 L 307.655 101.6 Z" fill="#717678" fill-rule="evenodd" fill-opacity="1" stroke="none" /><path d="M 299.66 115.791 C 306.316 115.791 310.313 111.714 310.313 104.258 C 312.293 109.695 309.633 118.49 299.66 115.791 Z M 295.462 105.058 C 295.462 101.66 298.141 98.942 301.519 98.942 L 302.858 98.942 C 301.518 98.262 300.839 98.262 299.5 98.262 C 296.122 98.262 293.424 100.98 293.424 104.378 C 293.424 107.097 295.462 109.815 298.141 110.495 C 296.122 109.135 295.462 107.097 295.462 105.058 Z" fill="#fff" fill-rule="evenodd" fill-opacity="1" stroke="none" /><path d="M 282.071 101.6 C 282.071 96.963 278.713 93.625 273.975 93.625 C 269.258 93.625 265.201 96.963 265.201 101.6 L 265.201 104.258 C 265.201 99.621 269.258 96.283 273.975 96.283 C 278.713 96.283 282.071 99.621 282.071 104.258 L 282.071 101.6 Z" fill="#717678" fill-rule="evenodd" fill-opacity="1" stroke="none" /><path d="M 13.473 422.985 L 13.473 427.722 C 13.473 431.08 19.55 433.779 26.266 433.779 C 33.681 433.779 39.058 431.08 39.058 427.722 L 39.058 422.985 L 13.473 422.985 Z M 291.465 422.985 L 291.465 427.722 C 291.465 431.08 296.882 433.779 304.297 433.779 C 311.053 433.779 317.129 431.08 317.129 427.722 L 317.129 422.985 L 291.465 422.985 Z M 2.041 134.76 L 328.481 134.76 L 328.481 422.985 L 2.041 422.985 Z" fill="none" stroke="#333" stroke-width="1.1992731px" stroke-linecap="round" stroke-linejoin="round" stroke-miterlimit="10" stroke-dasharray="none" stroke-opacity="1" /><path d="M 39.697 181.891 C 39.697 176.495 43.755 171.777 49.132 171.777 L 281.491 171.777 C 286.868 171.777 290.905 176.495 290.905 181.891 L 290.905 375.794 C 290.905 381.19 286.868 385.888 281.491 385.888 L 49.131 385.888 C 43.755 385.888 39.697 381.19 39.697 375.794 L 39.697 181.891 Z M 6.038 90.187 C 6.038 86.129 9.416 82.072 13.453 82.072 L 317.089 82.072 C 321.127 82.072 324.485 86.129 324.485 90.187 L 324.485 121.228 C 324.485 125.965 321.127 129.323 317.089 129.323 L 13.453 129.323 C 9.416 129.323 6.038 125.965 6.038 121.228 L 6.038 90.187 Z" fill="none" stroke="#333" stroke-width="1.1992731px" stroke-linecap="round" stroke-linejoin="round" stroke-miterlimit="10" stroke-dasharray="none" stroke-opacity="1" /><path d="M 320.407 76.875 L 10.135 76.875 C 5.418 76.875 2.04 80.932 2.04 86.309 L 2.04 134.759 L 328.482 134.759 L 328.482 86.309 C 328.482 80.932 325.124 76.875 320.407 76.875" fill="none" stroke="#333" stroke-width="1.1992731px" stroke-linecap="round" stroke-linejoin="round" stroke-miterlimit="10" stroke-dasharray="none" stroke-opacity="1" /><path d="M 224.226 104.378 C 224.226 96.923 230.402 90.866 238.017 90.866 C 245.653 90.866 251.809 96.923 251.809 104.378 C 251.809 111.854 245.653 117.89 238.017 117.89 C 230.402 117.89 224.226 111.854 224.226 104.378 M 71.278 104.698 C 71.278 100.081 75.056 96.303 79.713 96.303 C 84.39 96.303 88.148 100.081 88.148 104.698 C 88.148 109.335 84.39 113.093 79.713 113.093 C 75.056 113.093 71.278 109.335 71.278 104.698 M 265.241 104.698 C 265.241 100.081 269.018 96.303 273.676 96.303 C 278.353 96.303 282.111 100.081 282.111 104.698 C 282.111 109.335 278.353 113.093 273.676 113.093 C 269.018 113.093 265.241 109.335 265.241 104.698 M 290.905 104.698 C 290.905 100.081 294.683 96.303 299.3 96.303 C 303.937 96.303 307.695 100.081 307.695 104.698 A 8.394 8.394 0 0 1 299.3 113.093 C 294.683 113.093 290.905 109.335 290.905 104.698 M 47.053 278.433 C 47.053 273.016 51.47 268.599 56.887 268.599 C 62.324 268.599 66.721 273.016 66.721 278.433 A 9.827 9.827 0 0 1 56.887 288.267 C 51.47 288.267 47.053 283.869 47.053 278.433 M 206.636 94.984 A 4.683 4.683 0 0 1 211.313 90.307 A 4.67 4.67 0 0 1 215.991 94.984 A 4.658 4.658 0 0 1 211.313 99.661 A 4.67 4.67 0 0 1 206.636 94.984 M 206.636 115.211 A 4.683 4.683 0 0 1 211.313 110.535 A 4.67 4.67 0 0 1 215.991 115.212 A 4.658 4.658 0 0 1 211.313 119.889 A 4.67 4.67 0 0 1 206.636 115.212 M 125.166 97.762 C 125.166 98.442 124.506 99.102 123.846 99.102 L 117.87 99.102 C 117.21 99.102 116.53 98.442 116.53 97.762 L 116.53 91.666 C 116.53 90.986 117.21 90.306 117.87 90.306 L 123.846 90.306 C 124.506 90.306 125.166 90.986 125.166 91.666 L 125.166 97.762 Z M 125.166 118.51 C 125.166 119.869 124.506 120.528 123.846 120.528 L 117.87 120.528 C 117.21 120.528 116.53 119.868 116.53 118.51 L 116.53 113.133 C 116.53 112.453 117.21 111.094 117.87 111.094 L 123.846 111.094 C 124.506 111.094 125.166 112.454 125.166 113.133 L 125.166 118.51 Z M 125.166 108.416 C 125.166 109.076 124.506 109.735 123.846 109.735 L 117.87 109.735 C 117.21 109.735 116.53 109.075 116.53 108.415 L 116.53 102.439 C 116.53 101.779 117.21 101.1 117.87 101.1 L 123.846 101.1 C 124.506 101.1 125.166 101.78 125.166 102.44 L 125.166 108.416 Z M 4.039 80.853 C 5.399 78.154 7.417 76.815 10.115 76.815 L 320.407 76.815 C 323.086 76.815 325.784 78.834 327.123 81.512 C 327.123 81.512 327.123 81.512 327.123 81.512 L 287.427 6.098 C 287.427 6.098 287.427 6.098 287.427 6.098 C 286.068 3.399 284.049 2.04 281.371 2.04 L 49.151 2.04 C 46.453 2.04 43.755 3.4 43.095 6.098 C 43.095 6.098 43.095 6.098 43.095 6.098 L 4.039 80.853 Z" fill="none" stroke="#333" stroke-width="1.1992731px" stroke-linecap="round" stroke-linejoin="round" stroke-miterlimit="10" stroke-dasharray="none" stroke-opacity="1" /></svg>