<svg xmlns="http://www.w3.org/2000/svg" version="1.0" viewBox="0 0 104.097 272.637"><defs><clipPath id="anchor_liquid_clip"><rect id="anchor_liquid_bounds" x="36.2200" y="62.4400" width="53.8100" height="191.6000" fill="none" stroke="none" display="none"/></clipPath></defs><path d="M 38.217 64.443 L 38.217 256.046 C 38.217 266.72 50.369 270.637 65.12 270.637 C 79.911 270.637 92.024 266.72 92.024 256.047 L 92.024 64.441 Z" fill="#daebef" fill-rule="evenodd" fill-opacity="1" stroke="none" /><path d="M 65.12 270.637 C 79.911 270.637 92.024 266.72 92.024 256.047 L 92.024 157.586 C 90.464 158.746 78.872 159.305 65.12 159.305 C 50.889 159.305 39.296 158.745 38.217 157.585 L 38.217 256.046 C 38.217 266.72 50.369 270.637 65.12 270.637 Z" fill="#966a70" fill-rule="evenodd" fill-opacity="1" stroke="none" /><path d="M 65.12 159.465 C 57.765 159.465 50.929 159.465 45.652 158.865 L 45.652 254.407 C 45.652 262.242 54.607 263.921 65.12 263.921 C 75.674 263.921 84.588 262.242 84.588 254.407 L 84.588 158.865 C 79.352 159.465 72.516 159.465 65.12 159.465 Z" fill="#74414f" fill-rule="evenodd" fill-opacity="1" stroke="none" /><path d="M 45.652 64.443 L 45.652 158.785 C 50.929 159.345 57.765 159.345 65.12 159.345 C 72.516 159.345 79.352 159.345 84.588 158.785 L 84.588 64.443 L 45.652 64.443 Z" fill="#b1d4dc" fill-rule="evenodd" fill-opacity="1" stroke="none" /><path d="M 38.217 157.626 C 38.777 158.786 50.889 159.345 65.12 159.345 C 78.872 159.345 90.465 158.785 92.024 157.625 C 90.984 156.507 79.392 155.907 65.12 155.907 C 50.889 155.907 39.816 156.507 38.217 157.626 Z" fill="#b69594" fill-rule="evenodd" fill-opacity="1" stroke="none" /><path d="M 80.951 159.465 L 80.951 252.688 C 80.951 261.123 72.596 263.362 65.241 263.921 C 75.714 263.921 84.588 262.242 84.588 254.407 L 84.588 158.865 C 83.029 158.865 81.99 159.465 80.951 159.465 Z" fill="#521e33" fill-rule="evenodd" fill-opacity="1" stroke="none" /><path d="M 80.991 64.443 L 80.991 159.345 C 82.03 159.345 83.069 158.785 84.588 158.785 L 84.588 64.443 L 80.991 64.443 Z" fill="#88bcc9" fill-rule="evenodd" fill-opacity="1" stroke="none" /><path d="M 84.589 156.547 L 80.991 156.547 L 80.991 159.345 L 82.55 159.345 C 82.55 159.345 82.55 158.785 83.07 158.785 L 84.589 158.785 L 84.589 156.547 Z" fill="#966a70" fill-rule="evenodd" fill-opacity="1" stroke="none" /><path d="M 86.227 64.283 L 86.227 257.885 C 86.227 263.522 73.555 268.559 65.64 268.559 C 73.035 268.559 88.826 267.439 88.826 258.445 L 88.826 64.282 Z" fill="#9fc9d4" fill-rule="evenodd" fill-opacity="1" stroke="none" /><path d="M 86.267 158.865 L 88.826 158.865 L 88.826 157.146 C 88.346 157.146 87.306 156.546 86.267 156.546 L 86.267 158.866 Z" fill="#a57f82" fill-rule="evenodd" fill-opacity="1" stroke="none" /><path d="M 88.826 158.865 L 86.227 158.865 L 86.227 257.885 C 86.227 263.522 73.555 268.559 65.64 268.559 C 73.035 268.559 88.826 267.439 88.826 258.445 L 88.826 158.865 Z" fill="#643042" fill-rule="evenodd" fill-opacity="1" stroke="none" /><path d="M 92.584 6.398 C 92.584 5.238 80.471 4.079 65.2 4.079 C 49.93 4.079 37.817 5.239 37.817 6.398 C 37.817 7.557 49.929 8.716 65.2 8.716 C 80.471 8.716 92.584 7.556 92.584 6.398 Z" fill="#daebef" fill-rule="evenodd" fill-opacity="1" stroke="none" /><path d="M 46.691 6.198 C 46.691 5.758 54.966 5.358 65.121 5.358 C 75.314 5.358 83.549 5.758 83.549 6.198 C 83.549 6.678 75.314 7.038 65.12 7.038 C 54.966 7.038 46.691 6.678 46.691 6.198 Z" fill="#2e869b" fill-rule="evenodd" fill-opacity="1" stroke="none" /><path d="M 49.809 7.037 L 80.99 7.037 C 77.833 6.397 70.437 6.397 65.16 6.397 C 60.403 6.397 53.527 6.397 49.81 7.037 Z" fill="#005b70" fill-rule="evenodd" fill-opacity="1" stroke="none" /><path d="M 65.2 60.445 C 52.008 60.445 40.415 59.885 34.06 59.325 C 34.06 59.325 36.178 64.362 36.698 64.362 C 43.573 64.922 53.608 65.482 65.2 65.482 C 76.793 65.482 87.347 64.922 93.703 64.362 C 94.743 64.362 95.782 59.325 95.782 59.325 C 89.466 59.885 78.392 60.445 65.2 60.445 Z" fill="#2e869b" fill-rule="evenodd" fill-opacity="1" stroke="none" /><path d="M 32.54 10.875 C 32.54 12.035 47.291 13.153 65.2 13.153 C 83.15 13.153 97.86 12.034 97.86 10.875 L 97.86 15.992 C 97.86 17.112 83.15 18.23 65.2 18.23 C 47.291 18.23 32.54 17.111 32.54 15.992 L 32.54 10.875 Z" fill="#b1d4dc" fill-rule="evenodd" fill-opacity="1" stroke="none" /><path d="M 87.787 12.633 L 87.787 17.591 C 91.464 17.071 94.622 17.071 96.181 16.511 L 96.181 11.514 C 94.622 12.074 91.464 12.634 87.787 12.634 Z" fill="#2e869b" fill-rule="evenodd" fill-opacity="1" stroke="none" /><path d="M 65.2 8.676 C 49.93 8.676 37.817 7.556 37.817 6.398 L 37.817 12.074 C 43.613 12.634 53.647 13.194 65.2 13.194 C 76.793 13.194 86.827 12.634 92.584 12.074 L 92.584 6.398 C 92.584 7.557 80.471 8.676 65.2 8.676 Z M 92.584 9.756 L 92.584 12.074 C 95.782 12.074 97.341 11.514 97.86 10.914 C 97.86 10.355 95.782 10.355 92.584 9.756 Z" fill="#88bcc9" fill-rule="evenodd" fill-opacity="1" stroke="none" /><path d="M 32.54 20.549 C 32.54 21.669 47.291 22.788 65.2 22.788 C 83.15 22.788 97.86 21.668 97.86 20.549 L 97.86 24.986 C 97.86 26.666 83.15 27.745 65.2 27.745 C 47.291 27.745 32.54 26.665 32.54 24.986 L 32.54 20.549 Z" fill="#b1d4dc" fill-rule="evenodd" fill-opacity="1" stroke="none" /><path d="M 67.839 18.31 L 62.602 18.31 C 52.048 18.31 43.094 17.75 37.817 17.191 L 37.817 21.548 C 43.613 22.108 53.647 22.628 65.2 22.628 C 76.793 22.628 86.827 22.108 92.584 21.548 L 92.584 17.191 C 87.347 17.751 78.392 18.311 67.839 18.311 Z M 92.584 19.27 L 92.584 21.588 C 95.782 21.028 97.341 21.028 97.86 20.429 C 97.86 19.869 95.782 19.269 92.584 19.269 Z" fill="#88bcc9" fill-rule="evenodd" fill-opacity="1" stroke="none" /><path d="M 32.54 29.423 C 32.54 31.143 47.291 32.262 65.2 32.262 C 83.15 32.262 97.86 31.142 97.86 29.424 L 97.86 34.54 C 97.86 35.66 83.15 36.78 65.2 36.78 C 47.291 36.78 32.54 35.66 32.54 34.54 L 32.54 29.424 Z" fill="#b1d4dc" fill-rule="evenodd" fill-opacity="1" stroke="none" /><path d="M 67.839 27.785 L 62.602 27.785 C 52.048 27.225 43.094 27.225 37.817 26.625 L 37.817 31.262 C 43.613 31.822 53.647 32.382 65.2 32.382 C 76.793 32.382 86.827 31.822 92.584 31.262 L 92.584 26.625 C 87.347 27.225 78.392 27.225 67.839 27.785 Z M 92.584 28.384 L 92.584 31.103 C 95.782 30.583 97.341 30.023 97.86 29.503 C 97.86 29.503 95.782 28.943 92.584 28.384 Z" fill="#88bcc9" fill-rule="evenodd" fill-opacity="1" stroke="none" /><path d="M 32.54 39.098 C 32.54 40.218 47.291 41.336 65.2 41.336 C 83.15 41.336 97.86 40.217 97.86 39.098 L 97.86 44.095 C 97.86 45.214 83.15 46.293 65.2 46.293 C 47.291 46.293 32.54 45.214 32.54 44.095 L 32.54 39.098 Z" fill="#b1d4dc" fill-rule="evenodd" fill-opacity="1" stroke="none" /><path d="M 67.839 36.859 L 62.602 36.859 C 52.048 36.859 43.094 36.299 37.817 35.739 L 37.817 40.097 C 43.613 40.657 53.647 41.177 65.2 41.177 C 76.793 41.177 86.827 40.657 92.584 40.097 L 92.584 35.74 C 87.347 36.3 78.392 36.86 67.839 36.86 Z M 67.839 46.413 L 62.602 46.413 C 52.048 46.413 43.094 45.853 37.817 45.254 L 37.817 49.811 C 43.613 50.371 53.647 50.931 65.2 50.931 C 76.793 50.931 86.827 50.371 92.584 49.811 L 92.584 45.254 C 87.347 45.854 78.392 46.414 67.839 46.414 Z" fill="#88bcc9" fill-rule="evenodd" fill-opacity="1" stroke="none" /><path d="M 92.664 47.973 L 92.664 49.731 C 86.867 50.291 76.834 50.891 65.24 50.891 C 53.687 50.891 43.653 50.291 37.857 49.731 L 37.857 47.973 C 32.62 48.573 29.422 49.133 29.422 49.733 C 29.422 51.451 45.252 52.611 65.24 52.611 C 85.268 52.611 101.059 51.451 101.059 49.732 C 101.059 49.132 97.9 48.573 92.664 47.973 Z" fill="#daebef" fill-rule="evenodd" fill-opacity="1" stroke="none" /><path d="M 92.584 37.819 L 92.584 40.137 C 95.782 40.137 97.341 39.577 97.86 38.977 C 97.86 38.418 95.782 38.418 92.584 37.819 Z" fill="#88bcc9" fill-rule="evenodd" fill-opacity="1" stroke="none" /><path d="M 28.782 49.651 C 28.782 51.371 45.132 52.49 65.12 52.49 C 85.148 52.49 101.458 51.37 101.458 49.651 L 101.458 57.567 C 101.458 59.246 85.148 60.365 65.12 60.365 C 45.132 60.365 28.782 59.245 28.782 57.567 L 28.782 49.651 Z" fill="#b1d4dc" fill-rule="evenodd" fill-opacity="1" stroke="none" /><path d="M 32.54 10.915 C 32.54 11.515 34.659 12.075 37.817 12.075 L 37.817 9.755 C 34.659 10.355 33.1 10.355 32.54 10.915 Z M 32.54 20.429 C 32.54 21.029 34.659 21.029 37.817 21.589 L 37.817 19.269 C 34.659 19.269 33.1 19.869 32.54 20.429 Z M 32.54 29.503 C 32.54 30.023 34.659 30.583 37.817 31.103 L 37.817 28.383 C 34.659 28.943 33.1 29.503 32.54 29.503 Z M 32.54 38.978 C 32.54 39.578 34.659 40.138 37.817 40.138 L 37.817 37.818 C 34.659 38.418 33.1 38.418 32.54 38.978 Z" fill="#daebef" fill-rule="evenodd" fill-opacity="1" stroke="none" /><path d="M 35.739 17.111 C 41.015 17.671 52.089 18.231 65.24 18.231 L 65.24 13.193 C 52.088 13.193 41.015 12.633 35.738 12.074 L 35.738 17.111 Z" fill="#d6e9ed" fill-rule="evenodd" fill-opacity="1" stroke="none" /><path d="M 42.454 12.553 L 42.454 17.591 L 49.81 17.591 L 49.81 13.113 C 47.211 13.113 44.573 12.553 42.454 12.553 Z" fill="#fff" fill-rule="evenodd" fill-opacity="1" stroke="none" /><path d="M 86.267 17.591 L 89.466 17.591 L 89.466 12.553 L 86.267 12.553 L 86.267 17.59 Z" fill="#d6e9ed" fill-rule="evenodd" fill-opacity="1" stroke="none" /><path d="M 36.777 17.191 L 38.857 17.191 L 38.857 12.074 L 36.777 12.074 L 36.777 17.191 Z" fill="#4f9bad" fill-rule="evenodd" fill-opacity="1" stroke="none" /><path d="M 92.024 17.191 C 93.663 17.191 94.742 17.191 95.782 16.631 L 95.782 12.074 L 92.024 12.074 L 92.024 17.191 Z" fill="#006279" fill-rule="evenodd" fill-opacity="1" stroke="none" /><path d="M 35.739 26.625 C 41.015 27.185 52.089 27.745 65.24 27.745 L 65.24 22.708 C 52.088 22.708 41.015 22.148 35.738 21.588 L 35.738 26.625 Z" fill="#d6e9ed" fill-rule="evenodd" fill-opacity="1" stroke="none" /><path d="M 83.149 27.265 C 89.426 27.265 94.103 26.705 96.181 26.145 L 96.181 20.949 C 94.103 21.549 89.426 22.108 83.149 22.708 L 83.149 27.265 Z" fill="#006279" fill-rule="evenodd" fill-opacity="1" stroke="none" /><path d="M 86.267 27.265 L 89.466 27.265 L 89.466 22.228 L 86.267 22.228 L 86.267 27.265 Z" fill="#d6e9ed" fill-rule="evenodd" fill-opacity="1" stroke="none" /><path d="M 36.777 26.625 L 38.857 26.625 L 38.857 21.588 L 36.777 21.588 L 36.777 26.625 Z" fill="#9bc8d2" fill-rule="evenodd" fill-opacity="1" stroke="none" /><path d="M 92.024 26.625 C 93.663 26.625 94.742 26.625 95.782 26.065 L 95.782 21.588 L 92.024 21.588 L 92.024 26.625 Z" fill="#2e869b" fill-rule="evenodd" fill-opacity="1" stroke="none" /><path d="M 35.739 35.7 C 41.015 36.26 52.089 36.78 65.24 36.78 L 65.24 31.822 C 52.088 31.822 41.015 31.262 35.738 30.702 L 35.738 35.7 Z" fill="#d6e9ed" fill-rule="evenodd" fill-opacity="1" stroke="none" /><path d="M 36.777 35.74 L 38.857 35.74 L 38.857 31.262 C 37.817 30.702 37.297 30.702 36.777 30.702 L 36.777 35.74 Z" fill="#9bc8d2" fill-rule="evenodd" fill-opacity="1" stroke="none" /><path d="M 92.024 35.74 C 93.663 35.74 94.742 35.74 95.782 35.18 L 95.782 30.703 C 94.742 30.703 93.663 30.703 92.024 31.263 L 92.024 35.74 Z" fill="#006279" fill-rule="evenodd" fill-opacity="1" stroke="none" /><path d="M 35.739 45.174 C 41.015 45.734 52.089 46.294 65.24 46.294 L 65.24 41.256 C 52.088 41.256 41.015 40.696 35.738 40.137 L 35.738 45.174 Z" fill="#d6e9ed" fill-rule="evenodd" fill-opacity="1" stroke="none" /><path d="M 83.149 45.813 C 89.426 45.813 94.103 45.254 96.181 44.694 L 96.181 39.497 C 94.103 40.097 89.426 40.657 83.149 41.257 L 83.149 45.814 Z" fill="#006279" fill-rule="evenodd" fill-opacity="1" stroke="none" /><path d="M 36.777 45.254 L 38.857 45.254 L 38.857 40.737 C 37.817 40.137 37.297 40.137 36.777 40.137 L 36.777 45.254 Z" fill="#4f9bad" fill-rule="evenodd" fill-opacity="1" stroke="none" /><path d="M 92.024 45.254 C 93.663 45.254 94.742 45.254 95.782 44.694 L 95.782 40.137 C 94.742 40.137 93.663 40.137 92.024 40.737 L 92.024 45.254 Z" fill="#2e869b" fill-rule="evenodd" fill-opacity="1" stroke="none" /><path d="M 46.691 22.788 C 45.132 22.228 43.533 22.228 42.454 22.228 L 42.454 27.265 L 46.692 27.265 L 46.692 22.788 Z M 44.533 31.103 L 42.454 31.103 L 42.454 36.14 L 44.533 36.14 L 44.533 31.103 Z M 39.336 45.254 C 40.456 45.814 40.975 45.814 42.054 45.814 L 42.054 40.777 L 39.336 40.777 L 39.336 45.254 Z M 46.691 41.336 C 45.132 41.336 43.533 40.776 42.454 40.776 L 42.454 45.814 L 46.692 45.814 L 46.692 41.336 Z M 63.082 36.779 L 65.639 36.779 L 65.639 32.383 L 63.081 32.383 L 63.081 36.78 Z M 66.279 46.293 L 69.478 46.293 L 69.478 41.176 L 66.279 41.176 L 66.279 46.293 Z" fill="#fff" fill-rule="evenodd" fill-opacity="1" stroke="none" /><path d="M 35.739 56.527 C 41.015 57.087 52.089 57.647 65.24 57.647 L 65.24 53.089 C 52.088 53.089 41.015 52.489 35.738 51.33 L 35.738 56.527 Z" fill="#d6e9ed" fill-rule="evenodd" fill-opacity="1" stroke="none" /><path d="M 76.194 57.646 C 83.109 57.086 96.341 56.527 98.98 55.928 L 98.98 51.33 C 96.341 51.93 83.11 52.49 76.194 52.49 L 76.194 57.646 Z" fill="#7bb4c2" fill-rule="evenodd" fill-opacity="1" stroke="none" /><path d="M 92.024 57.007 C 93.663 56.447 94.742 56.447 95.782 56.447 L 95.782 51.33 C 94.742 51.33 93.663 51.93 92.024 51.93 L 92.024 57.007 Z" fill="#2e869b" fill-rule="evenodd" fill-opacity="1" stroke="none" /><path d="M 77.873 57.646 L 80.431 57.646 L 80.431 53.009 L 77.873 53.009 L 77.873 57.646 Z" fill="#fff" fill-rule="evenodd" fill-opacity="1" stroke="none" /><path d="M 86.747 31.183 L 86.747 36.14 C 91.464 36.14 94.622 35.62 96.181 35.06 L 96.181 30.063 C 94.622 30.623 91.464 31.183 86.747 31.183 Z M 37.817 17.751 C 40.455 19.949 89.426 21.588 92.024 21.588 L 92.024 17.191 C 92.024 17.191 50.449 19.39 37.817 17.751 Z M 37.817 7.597 C 38.897 8.717 49.929 10.395 62.042 10.955 C 75.714 12.075 90.465 12.075 92.024 12.075 L 92.024 7.036 C 92.024 7.036 78.872 8.716 65.2 8.716 C 54.167 8.716 43.094 8.156 37.817 7.596 Z" fill="#2e869b" fill-rule="evenodd" fill-opacity="1" stroke="none" /><path d="M 37.817 27.185 C 40.455 29.424 89.426 31.103 92.024 30.543 L 92.024 26.625 C 92.024 26.625 50.449 28.864 37.817 26.625 Z M 37.817 36.14 C 40.455 38.458 89.426 40.777 92.024 40.217 L 92.024 36.14 C 92.024 36.14 50.449 37.898 37.817 36.14 Z M 37.817 45.813 C 40.455 48.013 89.426 49.651 92.024 49.651 L 92.024 45.254 C 92.024 45.254 50.449 47.453 37.817 45.814 Z" fill="#2e869b" fill-rule="evenodd" fill-opacity="1" stroke="none" /><path d="M 31.9 50.931 L 31.9 57.646 L 35.098 57.646 L 35.098 51.49 C 34.059 50.93 32.98 50.93 31.9 50.93 Z" fill="#fff" fill-rule="evenodd" fill-opacity="1" stroke="none" /><path d="M 39.336 64.883 C 39.336 64.883 34.059 61.484 39.336 64.883 C 44.093 67.68 69.358 68.24 75.154 68.24 C 81.47 68.8 80.951 72.198 80.951 74.996 C 80.951 78.354 82.51 67.68 82.51 67.68 L 82.51 65.443 Z" fill="#88bcc9" fill-rule="evenodd" fill-opacity="1" stroke="none" /><path d="M 89.466 158.226 C 90.505 158.226 91.544 158.226 92.024 157.586 C 92.024 157.586 92.024 157.586 92.024 157.586 M 80.431 159.345 C 84.189 158.785 87.347 158.785 89.466 158.225 M 38.217 157.586 C 38.777 158.786 50.889 159.345 65.16 159.345 L 80.431 159.345 M 80.431 156.467 C 76.234 155.907 70.957 155.907 65.161 155.907 C 50.889 155.907 39.816 156.467 38.217 157.586 M 88.826 157.186 C 86.747 156.546 84.109 156.546 80.431 156.546 M 92.024 157.586 C 91.504 157.586 90.424 157.186 88.826 157.186" fill="none" stroke="#fff" stroke-width=".31980619px" stroke-linecap="round" stroke-linejoin="round" stroke-miterlimit="4" stroke-dasharray="none" stroke-opacity="1" /><path d="M 38.217 64.443 L 38.217 256.046 C 38.217 266.72 50.369 270.637 65.12 270.637 C 79.911 270.637 92.024 266.72 92.024 256.047 L 92.024 64.441 M 92.584 6.398 C 92.584 5.238 80.471 4.079 65.2 4.079 C 49.93 4.079 37.817 5.239 37.817 6.398 C 37.817 6.398 37.817 6.398 37.817 6.398 C 37.817 7.557 49.929 8.716 65.2 8.716 C 80.471 8.716 92.584 7.556 92.584 6.398" fill="none" stroke="#333" stroke-width=".79951543px" stroke-linecap="round" stroke-linejoin="round" stroke-miterlimit="4" stroke-dasharray="none" stroke-opacity="1" /><path d="M 65.2 60.445 C 52.008 60.445 40.415 59.885 34.06 59.325 C 34.06 59.325 36.178 64.362 36.698 64.362 C 43.573 64.922 53.608 65.482 65.2 65.482 C 76.793 65.482 87.347 64.922 93.703 64.362 C 94.743 64.362 95.782 59.325 95.782 59.325 C 89.466 59.885 78.392 60.445 65.2 60.445 M 32.54 10.875 C 32.54 12.035 47.291 13.153 65.2 13.153 C 83.15 13.153 97.86 12.034 97.86 10.875 L 97.86 15.992 C 97.86 17.112 83.15 18.23 65.2 18.23 C 47.291 18.23 32.54 17.111 32.54 15.992 L 32.54 10.875 Z" fill="none" stroke="#333" stroke-width=".79951543px" stroke-linecap="round" stroke-linejoin="round" stroke-miterlimit="4" stroke-dasharray="none" stroke-opacity="1" /><path d="M 65.2 8.676 C 49.93 8.676 37.817 7.556 37.817 6.398 L 37.817 12.074 C 43.613 12.634 53.647 13.194 65.2 13.194 C 76.793 13.194 86.827 12.634 92.584 12.074 L 92.584 6.398 C 92.584 7.557 80.471 8.676 65.2 8.676 M 32.54 10.915 C 32.54 11.515 34.659 12.075 37.817 12.075 L 37.817 9.755 C 34.659 10.355 33.1 10.355 32.54 10.915 Z M 92.624 9.755 L 92.624 12.075 C 95.782 12.075 97.341 11.515 97.86 10.915 C 97.86 10.355 95.782 10.355 92.624 9.755 Z M 32.54 20.549 C 32.54 21.669 47.291 22.788 65.2 22.788 C 83.15 22.788 97.86 21.668 97.86 20.549 L 97.86 24.986 C 97.86 26.666 83.15 27.745 65.2 27.745 C 47.291 27.745 32.54 26.665 32.54 24.986 L 32.54 20.549 Z" fill="none" stroke="#333" stroke-width=".79951543px" stroke-linecap="round" stroke-linejoin="round" stroke-miterlimit="4" stroke-dasharray="none" stroke-opacity="1" /><path d="M 67.839 18.31 L 62.602 18.31 C 52.048 18.31 43.094 17.75 37.817 17.191 L 37.817 21.548 C 43.613 22.108 53.647 22.628 65.2 22.628 C 76.793 22.628 86.827 22.108 92.584 21.548 L 92.584 17.191 C 87.347 17.751 78.392 18.311 67.839 18.311" fill="none" stroke="#333" stroke-width=".79951543px" stroke-linecap="round" stroke-linejoin="round" stroke-miterlimit="4" stroke-dasharray="none" stroke-opacity="1" /><path d="M 32.54 20.429 C 32.54 21.029 34.659 21.029 37.817 21.589 L 37.817 19.269 C 34.659 19.269 33.1 19.869 32.54 20.429 Z M 92.624 19.269 L 92.624 21.589 C 95.782 21.029 97.341 21.029 97.86 20.429 C 97.86 19.869 95.782 19.269 92.624 19.269 Z M 32.54 29.423 C 32.54 31.143 47.291 32.262 65.2 32.262 C 83.15 32.262 97.86 31.142 97.86 29.424 L 97.86 34.54 C 97.86 35.66 83.15 36.78 65.2 36.78 C 47.291 36.78 32.54 35.66 32.54 34.54 L 32.54 29.424 Z" fill="none" stroke="#333" stroke-width=".79951543px" stroke-linecap="round" stroke-linejoin="round" stroke-miterlimit="4" stroke-dasharray="none" stroke-opacity="1" /><path d="M 67.839 27.785 L 62.602 27.785 C 52.048 27.225 43.094 27.225 37.817 26.625 L 37.817 31.262 C 43.613 31.822 53.647 32.382 65.2 32.382 C 76.793 32.382 86.827 31.822 92.584 31.262 L 92.584 26.625 C 87.347 27.225 78.392 27.225 67.839 27.785" fill="none" stroke="#333" stroke-width=".79951543px" stroke-linecap="round" stroke-linejoin="round" stroke-miterlimit="4" stroke-dasharray="none" stroke-opacity="1" /><path d="M 32.54 29.503 C 32.54 30.023 34.659 30.583 37.817 31.103 L 37.817 28.383 C 34.659 28.943 33.1 29.503 32.54 29.503 Z M 92.624 28.384 L 92.624 31.103 C 95.782 30.583 97.341 30.023 97.86 29.503 C 97.86 29.503 95.782 28.943 92.624 28.384 Z M 32.54 39.098 C 32.54 40.218 47.291 41.336 65.2 41.336 C 83.15 41.336 97.86 40.217 97.86 39.098 L 97.86 44.095 C 97.86 45.214 83.15 46.293 65.2 46.293 C 47.291 46.293 32.54 45.214 32.54 44.095 L 32.54 39.098 Z" fill="none" stroke="#333" stroke-width=".79951543px" stroke-linecap="round" stroke-linejoin="round" stroke-miterlimit="4" stroke-dasharray="none" stroke-opacity="1" /><path d="M 67.839 36.859 L 62.602 36.859 C 52.048 36.859 43.094 36.299 37.817 35.739 L 37.817 40.097 C 43.613 40.657 53.647 41.177 65.2 41.177 C 76.793 41.177 86.827 40.657 92.584 40.097 L 92.584 35.74 C 87.347 36.3 78.392 36.86 67.839 36.86 M 67.839 46.413 L 62.602 46.413 C 52.048 46.413 43.094 45.853 37.817 45.254 L 37.817 49.811 C 43.613 50.371 53.647 50.931 65.2 50.931 C 76.793 50.931 86.827 50.371 92.584 49.811 L 92.584 45.254 C 87.347 45.854 78.392 46.414 67.839 46.414" fill="none" stroke="#333" stroke-width=".79951543px" stroke-linecap="round" stroke-linejoin="round" stroke-miterlimit="4" stroke-dasharray="none" stroke-opacity="1" /><path d="M 28.782 49.731 L 29.342 49.731 L 28.782 49.731 Z M 100.939 49.731 C 100.939 49.731 100.939 49.731 100.939 49.731 L 101.459 49.731 L 100.939 49.731 Z M 92.544 47.972 L 92.544 49.732 C 86.747 50.291 76.714 50.891 65.12 50.891 C 53.567 50.891 43.533 50.291 37.737 49.731 L 37.737 47.973 C 32.5 48.573 29.342 49.133 29.342 49.733 C 29.342 51.451 45.132 52.611 65.12 52.611 C 85.148 52.611 100.939 51.451 100.939 49.732 C 100.939 49.132 97.78 48.573 92.544 47.973 Z M 32.54 38.978 C 32.54 39.578 34.659 40.138 37.817 40.138 L 37.817 37.818 C 34.659 38.418 33.1 38.418 32.54 38.978 Z M 92.624 37.818 L 92.624 40.138 C 95.782 40.138 97.341 39.578 97.86 38.978 C 97.86 38.418 95.782 38.418 92.624 37.818 Z" fill="none" stroke="#333" stroke-width=".79951543px" stroke-linecap="round" stroke-linejoin="round" stroke-miterlimit="4" stroke-dasharray="none" stroke-opacity="1" /><path d="M 28.782 49.651 C 28.782 51.371 45.132 52.49 65.12 52.49 C 85.148 52.49 101.458 51.37 101.458 49.651 L 101.458 57.567 C 101.458 59.246 85.148 60.365 65.12 60.365 C 45.132 60.365 28.782 59.245 28.782 57.567 C 28.782 57.567 28.782 57.567 28.782 57.567 L 28.782 49.651 Z" fill="none" stroke="#333" stroke-width=".79951543px" stroke-linecap="round" stroke-linejoin="round" stroke-miterlimit="4" stroke-dasharray="none" stroke-opacity="1" /><path d="M 27.303 55.928 L 6.755 55.928 C 6.755 55.368 6.755 54.808 7.795 54.808 L 29.422 54.808 C 30.981 54.808 31.501 54.248 31.501 52.57 C 31.501 51.45 30.981 50.29 29.421 50.29 L 7.796 50.29 C 4.118 50.29 2 53.13 2 55.928 C 2 57.087 2.56 58.766 3.599 59.325 C 5.198 60.445 6.237 60.445 7.796 60.445 L 24.666 60.445 C 27.824 61.005 30.462 61.005 33.101 61.005 C 39.936 62.123 52.048 62.683 65.239 62.683 C 87.905 62.683 96.86 61.564 100.538 60.445 C 102.097 59.885 101.578 55.928 101.578 55.368 C 101.058 55.368 100.538 55.928 98.938 56.488 C 95.261 57.087 83.668 58.206 65.239 58.206 C 52.047 58.206 39.935 57.646 33.619 56.487 C 32.059 56.487 30.46 55.927 27.302 55.927 Z" fill="#e8610d" fill-rule="evenodd" fill-opacity="1" stroke="none" /><path d="M 27.303 55.928 L 6.755 55.928 C 6.755 55.368 6.755 54.808 7.795 54.808 L 29.422 54.808 C 30.981 54.808 31.501 54.248 31.501 52.57 C 31.501 51.45 30.981 50.29 29.421 50.29 L 7.796 50.29 C 4.118 50.29 2 53.13 2 55.928 C 2 57.087 2.56 58.766 3.599 59.325 C 5.198 60.445 6.237 60.445 7.796 60.445 L 24.666 60.445 C 27.824 61.005 30.462 61.005 33.101 61.005 C 39.936 62.123 52.048 62.683 65.239 62.683 C 87.905 62.683 96.86 61.564 100.538 60.445 C 102.097 59.885 101.578 55.928 101.578 55.368 C 101.058 55.368 100.538 55.928 98.938 56.488 C 95.261 57.087 83.668 58.206 65.239 58.206 C 52.047 58.206 39.935 57.646 33.619 56.487 C 32.059 56.487 30.46 55.927 27.302 55.927" fill="none" stroke="#333" stroke-width=".79951543px" stroke-linecap="round" stroke-linejoin="round" stroke-miterlimit="4" stroke-dasharray="none" stroke-opacity="1" /><path d="M 25.184 58.766 C 23.066 58.206 11.513 58.206 8.314 57.646 L 33.619 57.646 C 39.936 58.766 52.049 59.286 65.24 59.286 C 82.07 59.286 93.143 58.206 97.86 57.646 C 93.143 58.206 82.07 60.365 65.24 60.365 C 52.048 60.365 40.975 60.365 34.659 59.285 C 33.099 59.285 27.823 58.765 25.184 58.765 Z M 27.743 51.33 L 7.795 51.33 C 5.676 51.33 3.038 53.649 3.038 55.328 C 3.038 54.208 6.196 53.049 8.315 53.049 C 9.874 53.049 27.743 51.33 27.743 51.33 Z" fill="#fbead6" fill-rule="evenodd" fill-opacity="1" stroke="none" /><path d="M 45.652 252.688 C 45.652 261.123 53.567 263.362 59.324 263.921 C 49.33 263.921 41.414 262.802 41.414 255.527 L 43.014 68.84 C 43.014 68.84 45.652 244.253 45.652 252.688 Z M 65.799 268.559 C 73.675 268.559 86.267 263.522 86.267 257.885 L 86.267 66.121 L 84.709 66.121 L 84.709 254.527 C 84.709 262.402 75.755 268.559 65.241 268.559 Z" fill="#fff" fill-rule="evenodd" fill-opacity="1" stroke="none" /><path d="M 100.939 54.209 L 100.939 4.279 C 100.939 3.159 85.149 2 65.12 2 C 45.132 2 28.782 3.16 28.782 4.279 L 28.782 54.209 C 28.782 55.888 45.132 57.007 65.12 57.007 C 85.148 57.007 101.458 55.887 101.458 54.209 Z" fill="#ee9342" fill-rule="evenodd" fill-opacity="1" stroke="none" /><path d="M 96.181 55.328 L 96.421 5.358 M 90.505 55.968 L 90.745 5.358 M 84.189 56.367 L 84.429 4.719 M 78.272 56.367 L 78.512 4.719 M 71.956 56.367 L 72.196 4.719 M 66.279 56.367 L 66.519 4.719 M 60.363 4.719 L 60.603 56.367 M 54.047 4.719 L 54.287 56.367 M 48.37 4.719 L 48.61 56.367 M 42.054 5.358 L 42.214 55.968 M 36.138 5.358 L 36.378 55.328 M 30.461 4.079 L 30.621 54.689" fill="none" stroke="#fff" stroke-width=".79951543px" stroke-linecap="round" stroke-linejoin="round" stroke-miterlimit="4" stroke-dasharray="none" stroke-opacity="1" /><path d="M 96.221 55.368 L 96.461 5.398 M 90.545 56.007 L 90.785 5.398 M 84.229 56.407 L 84.469 4.759 M 78.312 56.407 L 78.552 4.759 M 71.996 56.407 L 72.236 4.759 M 66.319 56.407 L 66.559 4.759 M 60.403 4.759 L 60.643 56.407 M 54.087 4.759 L 54.327 56.407 M 48.41 4.759 L 48.65 56.407 M 42.094 5.398 L 42.254 56.008 M 36.178 5.398 L 36.418 55.368 M 30.501 4.119 L 30.661 54.729" fill="none" stroke="#f9dbb9" stroke-width="1.1992731px" stroke-linecap="round" stroke-linejoin="round" stroke-miterlimit="4" stroke-dasharray="none" stroke-opacity="1" /><path d="M 94.742 55.328 L 94.902 5.358 M 100.419 55.328 L 100.659 5.358 M 88.426 55.968 L 88.586 5.358 M 82.509 56.367 L 82.749 4.719 M 76.194 56.367 L 76.354 4.719 M 70.517 56.367 L 70.677 4.719 M 64.601 56.367 L 64.841 4.719 M 58.284 4.719 L 58.444 56.367 M 52.608 4.719 L 52.768 56.367 M 46.292 4.719 L 46.452 56.367 M 40.375 5.358 L 40.535 55.968 M 34.699 5.358 L 34.859 55.328" fill="none" stroke="#fff" stroke-width=".31980619px" stroke-linecap="round" stroke-linejoin="round" stroke-miterlimit="4" stroke-dasharray="none" stroke-opacity="1" /><path d="M 94.782 55.368 L 94.942 5.398 M 100.459 55.368 L 100.699 5.398 M 88.466 56.007 L 88.626 5.398 M 82.549 56.407 L 82.789 4.759 M 76.234 56.407 L 76.394 4.759 M 70.557 56.407 L 70.717 4.759 M 64.641 56.407 L 64.881 4.759 M 58.324 4.759 L 58.484 56.407 M 52.648 4.759 L 52.808 56.407 M 46.332 4.759 L 46.492 56.407 M 40.415 5.398 L 40.575 56.008 M 34.739 5.398 L 34.899 55.368" fill="none" stroke="#994000" stroke-width="1.6789824px" stroke-linecap="butt" stroke-linejoin="miter" stroke-miterlimit="8" stroke-dasharray="none" stroke-opacity="1" /><path d="M 95.142 55.328 L 95.382 5.358 M 89.466 55.968 L 89.706 5.358 M 83.149 56.367 L 83.309 4.719 M 77.233 56.367 L 77.473 4.719 M 70.917 57.007 L 71.157 5.358 M 65.24 56.367 L 65.4 4.719 M 59.324 5.358 L 59.564 57.007 M 53.008 4.719 L 53.248 56.367 M 47.331 4.719 L 47.491 56.367 M 41.015 5.358 L 41.175 55.968 M 35.099 5.358 L 35.259 55.328" fill="none" stroke="#333" stroke-width=".79951543px" stroke-linecap="round" stroke-linejoin="round" stroke-miterlimit="10" stroke-dasharray="none" stroke-opacity="1" /><path d="M 100.939 4.239 C 100.939 3.119 85.149 2 65.12 2 C 45.132 2 28.782 3.12 28.782 4.239 C 28.782 5.918 45.132 7.037 65.12 7.037 C 85.148 7.037 101.458 5.917 101.458 4.239 Z" fill="#f4bf86" fill-rule="evenodd" fill-opacity="1" stroke="none" /><path d="M 28.782 4.159 L 29.342 4.159 L 28.782 4.159 Z M 100.939 4.159 L 101.459 4.159 L 100.939 4.159 Z M 92.544 2.4 C 98.86 5.318 76.194 5.318 60.404 5.318 C 49.33 5.318 37.737 4.158 30.901 3.559 C 29.861 3.559 29.342 4.159 29.342 4.159 C 29.342 5.878 45.132 7.037 65.12 7.037 C 85.148 7.037 100.939 5.877 100.939 4.159 C 100.939 3.559 97.78 2.999 92.544 2.4 Z" fill="#fae4c9" fill-rule="evenodd" fill-opacity="1" stroke="none" /><path d="M 28.782 8.117 C 28.782 9.276 45.132 10.395 65.12 10.395 C 85.148 10.395 101.458 9.275 101.458 8.117 L 101.458 4.079 C 101.458 5.838 85.148 6.957 65.12 6.957 C 45.132 6.957 28.782 5.837 28.782 4.079 Z" fill="#e8610d" fill-rule="evenodd" fill-opacity="1" stroke="none" /><path d="M 28.782 8.077 C 28.782 9.236 45.132 10.395 65.12 10.395 C 85.148 10.395 101.458 9.235 101.458 8.077" fill="none" stroke="#f6cfa4" stroke-width=".79951543px" stroke-linecap="round" stroke-linejoin="round" stroke-miterlimit="10" stroke-dasharray="none" stroke-opacity="1" /><path d="M 28.782 54.808 C 28.782 55.928 45.132 57.007 65.12 57.007 C 85.148 57.007 101.458 55.927 101.458 54.808 L 101.458 50.931 C 101.458 52.05 85.148 53.169 65.12 53.169 C 45.132 53.169 28.782 52.049 28.782 50.931 Z" fill="#e8610d" fill-rule="evenodd" fill-opacity="1" stroke="none" /><path d="M 101.459 50.931 C 101.459 51.97 85.149 53.009 65.12 53.009 C 45.132 53.009 28.782 51.969 28.782 50.931" fill="none" stroke="#f6cfa4" stroke-width=".79951543px" stroke-linecap="round" stroke-linejoin="round" stroke-miterlimit="10" stroke-dasharray="none" stroke-opacity="1" /><path d="M 100.939 54.209 L 100.939 4.279 C 100.939 3.159 85.149 2 65.12 2 C 45.132 2 28.782 3.16 28.782 4.279 L 28.782 54.209 C 28.782 54.209 28.782 54.209 28.782 54.209 C 28.782 55.888 45.132 57.007 65.12 57.007 C 85.148 57.007 101.458 55.887 101.458 54.209" fill="none" stroke="#333" stroke-width=".79951543px" stroke-linecap="round" stroke-linejoin="round" stroke-miterlimit="10" stroke-dasharray="none" stroke-opacity="1" /><path d="M 100.939 4.239 C 100.939 3.119 85.149 2 65.12 2 C 45.132 2 28.782 3.12 28.782 4.239 C 28.782 4.239 28.782 4.239 28.782 4.239 C 28.782 5.918 45.132 7.037 65.12 7.037 C 85.148 7.037 101.458 5.917 101.458 4.239" fill="none" stroke="#333" stroke-width=".79951543px" stroke-linecap="round" stroke-linejoin="round" stroke-miterlimit="10" stroke-dasharray="none" stroke-opacity="1" /><path d="M 55.726 159.705 C 55.726 158.345 56.686 157.186 57.845 157.186 C 59.044 157.186 59.963 158.346 59.963 159.705 C 59.963 161.104 59.044 162.223 57.845 162.223 C 56.685 162.223 55.726 161.103 55.726 159.705 Z M 63.082 159.944 C 63.082 159.384 63.602 158.865 64.161 158.865 C 64.761 158.865 65.241 159.385 65.241 159.945 C 65.241 160.545 64.761 161.024 64.161 161.024 C 63.601 161.024 63.081 160.544 63.081 159.944 Z M 51.489 159.625 C 51.489 158.865 52.209 158.225 53.088 158.225 C 54.007 158.225 54.687 158.865 54.687 159.625 C 54.687 160.425 54.007 161.024 53.087 161.024 C 52.208 161.024 51.489 160.424 51.489 159.624 Z" fill="#fff" fill-rule="evenodd" fill-opacity="1" stroke="none" /></svg>