<svg xmlns="http://www.w3.org/2000/svg" version="1.0" viewBox="0 0 162.784 484.989"><defs><clipPath id="anchor_liquid_clip"><rect x="56.4" y="260.243" width="55" height="120" rx="1" /></clipPath></defs><path d="M 57.186 261.043 L 112.093 261.043 L 108.255 380.271 L 74.315 382.729 L 55.167 379.192 L 57.187 261.043 Z" fill="#7b8ec2" fill-rule="evenodd" fill-opacity="1" stroke="none" /><path d="M 60.324 53.129 L 60.324 234.099 L 99.94 234.099 L 99.94 37.139 C 99.94 34.361 97.162 33.661 97.162 33.661 C 97.162 33.661 57.546 26.026 49.211 24.986 C 45.733 24.626 44.334 24.626 44.334 24.626 C 28.004 24.626 18.27 34.361 16.871 49.651 C 16.871 51.031 18.61 52.07 20.708 52.07 C 22.787 52.07 24.186 51.03 24.526 49.651 C 26.265 41.316 33.221 35.4 42.955 35.4 C 52.689 35.4 60.325 41.996 60.325 53.13 Z" fill="#e4e6f1" fill-rule="evenodd" fill-opacity="1" stroke="none" /><path d="M 48.771 35 C 46.713 33.94 44.294 33.601 41.855 33.601 C 32.181 33.601 25.265 40.217 23.187 48.571 C 23.187 49.971 22.147 51.011 20.069 51.011 C 21.468 50.671 21.808 50.331 22.507 48.232 C 22.847 46.133 24.566 32.542 39.797 32.542 C 46.013 32.542 48.771 35 48.771 35 Z" fill="#c4cae2" fill-rule="evenodd" fill-opacity="1" stroke="none" /><path d="M 62.423 197.961 L 62.423 53.049 C 62.423 46.093 59.325 40.877 54.848 37.739 C 62.423 40.877 64.482 48.532 64.822 56.507 C 65.162 64.502 63.802 144.094 63.802 164.262 C 63.802 169.479 62.423 197.962 62.423 197.962 Z" fill="#fff" fill-rule="evenodd" fill-opacity="1" stroke="none" /><path d="M 73.796 213.552 L 73.796 220.508 L 86.35 220.508 L 86.35 213.552 L 73.796 213.552 Z" fill="#8293c5" fill-rule="evenodd" fill-opacity="1" stroke="none" /><path d="M 71.797 126.005 L 71.797 187.808 L 99.94 187.808 L 99.94 126.005 L 71.797 126.005 Z" fill="#858894" fill-rule="evenodd" fill-opacity="1" stroke="none" /><path d="M 71.797 126.005 L 71.797 187.808 L 86.03 187.808 L 86.03 126.005 L 71.797 126.005 Z" fill="#434652" fill-rule="evenodd" fill-opacity="1" stroke="none" /><path d="M 98.501 3.779 C 98.501 3.099 91.545 2.399 82.851 2.399 C 74.156 2.399 66.841 3.099 66.841 3.779 L 66.841 15.832 C 66.841 15.152 74.156 14.472 82.851 14.472 C 91.545 14.472 98.501 15.152 98.501 15.832 L 98.501 3.779 Z" fill="#8abc83" fill-rule="evenodd" fill-opacity="1" stroke="none" /><path d="M 96.502 14.953 L 96.662 2.72 M 93.704 14.953 L 93.864 2.4 M 91.306 14.473 L 91.386 2 M 88.507 14.473 L 88.667 2 M 85.709 14.953 L 85.869 2.4 M 83.23 14.473 L 83.39 2 M 80.432 2.4 L 80.592 14.952 M 77.954 2 L 78.114 14.473 M 75.235 2 L 75.395 14.473 M 72.917 2.4 L 73.077 14.952 M 70.118 2.72 L 70.278 14.952 M 67.64 3.839 L 67.8 15.832" fill="none" stroke="#fff" stroke-width=".63961238px" stroke-linecap="round" stroke-linejoin="round" stroke-miterlimit="4" stroke-dasharray="none" stroke-opacity="1" /><path d="M 95.463 14.953 L 95.623 2.72 M 92.984 14.953 L 93.144 2.4 M 90.186 14.473 L 90.346 2 M 87.708 14.473 L 87.868 2 M 84.91 14.953 L 85.07 2.4 M 82.59 14.473 L 82.75 2 M 79.872 2.4 L 80.032 14.952 M 77.394 2 L 77.554 14.473 M 74.596 2 L 74.756 14.473 M 71.797 2.4 L 71.957 14.952 M 69.319 2.72 L 69.479 14.952" fill="none" stroke="#fff" stroke-width=".31980619px" stroke-linecap="round" stroke-linejoin="round" stroke-miterlimit="4" stroke-dasharray="none" stroke-opacity="1" /><path d="M 95.503 14.993 L 95.663 2.76 M 93.024 14.993 L 93.184 2.44 M 90.226 14.513 L 90.386 2.04 M 87.748 14.513 L 87.908 2.04 M 84.95 14.993 L 85.11 2.44 M 82.63 14.513 L 82.79 2.04 M 79.912 2.44 L 80.072 14.992 M 77.434 2.04 L 77.594 14.513 M 74.636 2.04 L 74.796 14.513 M 71.837 2.44 L 71.997 14.992 M 69.359 2.76 L 69.519 14.992" fill="none" stroke="#4c9856" stroke-width="1.0393701px" stroke-linecap="butt" stroke-linejoin="miter" stroke-miterlimit="8" stroke-dasharray="none" stroke-opacity="1" /><path d="M 92.984 33.021 L 92.984 15.871 C 90.206 15.871 86.728 15.511 82.891 15.511 C 78.713 15.511 75.235 15.871 72.437 15.871 L 72.437 29.184 C 80.452 30.583 88.127 31.982 92.984 33.021 Z" fill="#d8dbec" fill-rule="evenodd" fill-opacity="1" stroke="none" /><path d="M 82.85 14.473 C 74.156 14.473 66.84 15.173 66.84 15.872 C 66.84 16.572 68.94 16.932 72.417 17.271 L 72.417 15.871 C 75.195 15.871 78.673 15.531 82.851 15.531 C 86.688 15.531 90.166 15.871 92.945 15.871 L 92.945 17.271 C 96.422 16.931 98.501 16.571 98.501 15.871 C 98.501 15.172 91.545 14.473 82.851 14.473 Z" fill="#127635" fill-rule="evenodd" fill-opacity="1" stroke="none" /><path d="M 101.62 379.931 C 101.62 384.089 97.802 384.089 93.284 384.089 L 69.32 384.089 C 64.803 384.089 61.325 384.089 61.325 379.931 L 61.325 254.787 C 61.325 250.609 64.803 250.25 69.32 250.25 L 93.285 250.25 C 97.803 250.25 101.62 250.61 101.62 254.787 L 101.62 379.931 Z M 21.748 390.245 C 14.172 390.245 7.596 390.245 7.596 386.087 Z" fill="#d8dbec" fill-rule="evenodd" fill-opacity="1" stroke="none" /><path d="M 123.246 40.257 C 123.246 40.257 111.773 38.178 99.62 35.74 C 99.98 36.1 99.98 36.799 99.98 37.139 L 99.98 234.019 L 63.163 234.019 L 63.163 251.369 C 64.562 250.329 67 250.329 69.419 250.329 L 93.384 250.329 C 96.163 250.329 98.241 250.329 99.98 251.369 L 99.98 240.276 C 99.98 238.876 100.32 238.536 101.36 238.536 L 109.355 238.536 C 111.094 238.536 112.133 237.837 112.133 236.438 L 112.133 226.384 C 112.813 226.384 113.512 226.724 113.512 224.985 L 113.512 95.823 L 115.951 95.823 C 117.33 95.823 118.029 95.123 118.029 93.385 L 118.029 62.823 C 118.029 59.365 126.004 52.07 126.004 49.631 L 126.004 43.735 C 126.004 40.957 123.246 40.257 123.246 40.257 Z" fill="#d8dbec" fill-rule="evenodd" fill-opacity="1" stroke="none" /><path d="M 112.133 94.424 L 114.232 94.424 C 115.611 94.424 116.67 93.744 116.67 92.006 L 116.67 61.803 C 116.67 58.325 124.326 51.029 124.326 48.611 L 124.326 42.694 C 123.646 45.833 122.246 48.611 120.848 49.65 C 119.448 50.69 113.172 57.985 112.473 61.103 C 111.773 63.882 112.133 67.36 112.133 72.916 L 112.133 90.966 Z" fill="#c4cae2" fill-rule="evenodd" fill-opacity="1" stroke="none" /><path d="M 116.65 91.946 L 116.65 61.743 C 116.65 58.265 124.325 50.969 124.325 48.531 C 124.325 49.931 118.389 56.526 116.65 58.265 C 114.891 59.665 115.251 60.704 115.251 67.999 C 115.251 75.275 116.651 91.945 116.651 91.945 Z" fill="#7e90c3" fill-rule="evenodd" fill-opacity="1" stroke="none" /><path d="M 67.68 248.651 L 91.705 248.651 C 94.124 248.651 96.562 249.011 97.961 249.69 L 97.961 238.577 C 97.961 237.197 98.661 236.837 99.701 236.837 L 107.356 236.837 C 109.115 236.837 110.154 236.498 110.154 234.759 L 110.154 225.025 C 110.854 225.025 111.534 225.025 111.534 223.645 L 111.534 96.103 L 100.74 96.103 L 100.74 225.385 L 103.538 225.385 L 108.415 102.02 L 108.055 227.104 L 100.74 227.104 L 100.74 234.059 L 63.482 234.059 C 63.482 234.059 88.207 237.877 90.646 238.577 C 93.444 239.617 93.084 244.833 89.266 245.533 C 85.769 245.873 67.68 248.651 67.68 248.651 Z" fill="#bdc4df" fill-rule="evenodd" fill-opacity="1" stroke="none" /><path d="M 160.783 377.893 C 160.783 382.07 156.966 382.41 152.448 382.41 L 110.674 382.41 C 106.157 382.41 102.659 382.07 102.659 377.892 L 102.659 262.503 C 102.659 258.686 106.157 258.326 110.674 258.326 L 152.448 258.326 C 156.966 258.326 160.783 261.464 160.783 266.681 L 160.783 377.893 Z M 60.364 377.893 C 60.364 382.07 56.547 382.41 52.029 382.41 L 10.355 382.41 C 5.837 382.41 2 382.07 2 377.892 L 2 266.68 C 2 261.123 5.837 258.325 10.355 258.325 L 52.029 258.325 C 56.547 258.325 60.364 258.685 60.364 262.502 L 60.364 377.892 Z" fill="#d8dbec" fill-rule="evenodd" fill-opacity="1" stroke="none" /><path d="M 4.438 377.433 L 5.478 269.098 C 5.478 263.542 9.295 260.763 13.792 260.763 L 55.387 260.763 C 57.127 260.763 58.505 260.763 59.885 261.103 C 58.845 258.325 55.727 258.325 51.929 258.325 L 10.335 258.325 C 5.817 258.325 2 261.103 2 266.66 L 2 377.772 C 2 380.551 3.739 381.59 5.817 381.93 C 5.817 381.59 4.438 378.112 4.438 377.433 Z" fill="#f5f5fa" fill-rule="evenodd" fill-opacity="1" stroke="none" /><path d="M 4.318 377.433 L 5.378 269.138 C 5.378 263.582 9.195 260.803 13.713 260.803 L 55.407 260.803 C 33.521 261.863 14.052 262.203 12.673 262.902 C 10.934 263.242 7.456 264.981 7.117 269.138 C 6.417 272.276 4.318 377.772 4.318 377.772 Z" fill="#fff" fill-rule="evenodd" fill-opacity="1" stroke="none" /><path d="M 104.418 377.433 L 106.157 269.098 C 106.157 263.542 109.974 260.763 114.491 260.763 L 153.468 260.763 C 155.207 260.763 156.946 260.763 157.985 261.103 C 157.305 258.325 156.605 258.325 152.768 258.325 L 111.014 258.325 C 103.018 258.325 102.659 261.103 102.659 266.66 L 102.659 377.772 C 102.659 380.551 104.418 381.59 106.496 381.93 C 106.496 381.59 104.418 378.112 104.418 377.433 Z M 63.362 380.631 L 64.762 261.043 C 64.762 255.466 65.801 252.688 70.318 252.688 L 97.102 252.688 C 98.502 252.688 100.24 252.688 101.619 253.048 C 100.579 250.609 99.88 250.25 96.063 250.25 L 68.239 250.25 C 59.885 250.25 61.284 253.048 61.284 258.605 L 61.284 379.931 C 61.284 382.37 63.023 383.409 65.101 384.089 C 65.101 383.409 63.362 380.97 63.362 380.631 Z" fill="#f5f5fa" fill-rule="evenodd" fill-opacity="1" stroke="none" /><path d="M 21.768 390.245 L 16.23 390.245 L 16.23 401.738 C 16.23 403.457 17.63 405.196 19.688 405.196 L 24.545 405.196 C 26.604 405.196 27.983 403.456 27.983 401.738 L 27.983 390.245 L 21.767 390.245 Z M 33.18 390.245 L 33.18 401.738 C 33.18 403.457 34.6 405.196 36.339 405.196 L 41.596 405.196 C 43.355 405.196 45.094 403.456 45.094 401.738 L 45.094 390.245 L 33.18 390.245 Z M 50.21 390.245 L 50.21 401.738 C 50.21 403.457 51.63 405.196 53.388 405.196 L 58.645 405.196 C 60.405 405.196 61.803 403.456 61.803 401.738 L 61.803 390.245 L 50.21 390.245 Z M 66.84 390.245 L 66.84 401.738 C 66.84 403.457 68.6 405.196 70.358 405.196 L 75.615 405.196 C 77.354 405.196 78.753 403.456 78.753 401.738 L 78.753 390.245 L 66.84 390.245 Z M 84.03 390.245 L 84.03 401.738 C 84.03 403.457 85.43 405.196 87.488 405.196 L 92.685 405.196 C 94.404 405.196 95.783 403.456 95.783 401.738 L 95.783 390.245 L 84.03 390.245 Z M 100.98 390.245 L 100.98 401.738 C 100.98 403.457 102.399 405.196 104.138 405.196 L 109.395 405.196 C 111.493 405.196 112.892 403.456 112.892 401.738 L 112.892 390.245 L 100.98 390.245 Z M 118.01 390.245 L 118.01 401.738 C 118.01 403.457 119.408 405.196 121.167 405.196 L 126.384 405.196 C 128.144 405.196 129.522 403.456 129.522 401.738 L 129.522 390.245 L 118.01 390.245 Z M 140.256 390.245 L 134.639 390.245 L 134.639 401.738 C 134.639 403.457 136.399 405.196 138.157 405.196 L 143.414 405.196 C 145.153 405.196 146.552 403.456 146.552 401.738 L 146.552 390.245 L 140.256 390.245 Z" fill="#d8dbec" fill-rule="evenodd" fill-opacity="1" stroke="none" /><path d="M 15.112 394.882 L 15.112 406.955 L 29.023 406.955 L 29.023 394.882 L 15.112 394.882 Z M 32.141 394.882 L 32.141 406.955 L 46.053 406.955 L 46.053 394.882 L 32.14 394.882 Z M 49.251 394.882 L 49.251 406.955 L 63.163 406.955 L 63.163 394.882 L 49.25 394.882 Z M 65.96 394.882 L 65.96 406.955 L 79.872 406.955 L 79.872 394.882 L 65.961 394.882 Z M 82.91 394.882 L 82.91 406.955 L 96.822 406.955 L 96.822 394.882 L 82.911 394.882 Z M 99.94 394.882 L 99.94 406.955 L 113.772 406.955 L 113.772 394.882 L 99.94 394.882 Z M 117.05 394.882 L 117.05 406.955 L 130.961 406.955 L 130.961 394.882 L 117.05 394.882 Z M 133.76 394.882 L 133.76 406.955 L 147.591 406.955 L 147.591 394.882 L 133.76 394.882 Z" fill="#a8c6e0" fill-rule="evenodd" fill-opacity="1" stroke="none" /><path d="M 17.27 453.846 L 20.988 482.989 L 23.167 482.989 L 27.024 453.846 L 27.024 406.955 L 17.27 406.955 L 17.27 453.846 Z M 38.178 482.989 L 40.196 482.989 L 44.054 453.846 L 44.054 406.955 L 33.98 406.955 L 33.98 453.846 L 38.178 482.989 Z M 55.127 482.989 L 57.147 482.989 L 61.004 453.846 L 61.004 406.955 L 50.93 406.955 L 50.93 453.846 L 55.127 482.989 Z M 71.817 482.989 L 73.817 482.989 L 77.954 453.846 L 77.954 406.955 L 67.96 406.955 L 67.96 453.846 L 71.817 482.989 Z M 88.787 482.989 L 90.966 482.989 L 94.663 453.846 L 94.663 406.955 L 84.91 406.955 L 84.91 453.846 L 88.788 482.989 Z M 105.777 482.989 L 107.935 482.989 L 111.773 453.846 L 111.773 406.955 L 101.62 406.955 L 101.62 453.846 L 105.778 482.989 Z M 122.926 482.989 L 124.946 482.989 L 128.803 453.846 L 128.803 406.955 L 118.729 406.955 L 118.729 453.846 L 122.926 482.989 Z M 135.759 453.846 L 139.616 482.989 L 141.615 482.989 L 145.753 453.846 L 145.753 406.955 L 135.759 406.955 L 135.759 453.846 Z" fill="#d9f1f7" fill-rule="evenodd" fill-opacity="1" stroke="none" /><path d="M 152.408 382.29 L 110.754 382.29 C 106.576 382.29 103.458 381.93 102.759 378.812 L 101.719 378.812 L 101.719 379.852 C 101.719 384.009 97.902 384.009 93.384 384.009 L 69.42 384.009 C 64.903 384.009 61.425 384.009 61.425 379.851 L 61.425 378.811 L 60.045 378.811 C 59.705 381.93 56.228 382.29 52.05 382.29 L 7.596 382.29 L 7.596 386.087 C 7.596 390.245 14.212 390.245 21.848 390.245 L 140.955 390.245 C 148.951 390.245 155.187 390.245 155.187 386.087 L 155.187 382.29 L 152.408 382.29 Z" fill="#c3c9e2" fill-rule="evenodd" fill-opacity="1" stroke="none" /><path d="M 110.754 382.29 C 106.576 382.29 103.458 381.93 102.759 378.812 L 101.719 378.812 L 101.719 379.852 C 101.719 384.009 97.902 384.009 93.384 384.009 L 69.42 384.009 C 64.903 384.009 61.425 384.009 61.425 379.851 L 61.425 378.811 L 60.045 378.811 C 59.705 381.93 56.228 382.29 52.05 382.29 L 7.596 382.29 L 7.596 386.087 C 7.596 390.245 14.212 390.245 21.848 390.245 L 140.955 390.245 C 148.951 390.245 155.187 390.245 155.187 386.087 L 155.187 382.29 L 110.754 382.29 Z M 153.808 386.087 C 153.808 388.866 147.911 388.866 140.955 388.866 L 21.848 388.866 C 15.252 388.866 8.995 388.866 8.995 386.087 L 8.995 383.669 L 52.05 383.669 C 54.489 383.669 58.307 383.669 60.045 381.929 C 61.425 385.408 66.302 385.408 69.42 385.408 L 93.385 385.408 C 96.863 385.408 101.36 385.408 102.76 381.93 C 104.838 383.669 108.316 383.669 110.755 383.669 L 153.809 383.669 L 153.809 386.087 Z" fill="#7b8ec2" fill-rule="evenodd" fill-opacity="1" stroke="none" /><path d="M 59.885 262.842 L 57.126 370.597 C 57.126 376.153 53.309 378.952 48.811 378.952 L 9.975 382.41 C 8.255 382.41 6.157 382.07 9.975 382.07 L 54.688 382.07 C 59.205 382.07 59.885 379.291 59.885 373.735 L 59.885 261.103 C 59.205 259.364 59.885 262.163 59.885 262.842 Z M 160.444 270.437 L 157.665 370.597 C 157.665 376.153 154.187 378.932 149.67 378.932 L 110.374 382.41 C 108.635 382.41 106.896 382.07 110.734 382.07 L 155.227 382.07 C 157.665 382.07 159.404 381.37 160.104 379.991 C 160.784 378.591 160.444 376.513 160.444 373.735 L 160.444 268.698 C 160.104 266.96 160.444 269.758 160.444 270.438 Z M 101.28 264.881 L 98.5 372.635 C 98.5 377.832 95.022 380.97 90.525 380.97 L 68.638 384.089 L 96.082 384.089 C 98.5 384.089 100.239 383.049 100.939 381.67 C 101.619 380.27 101.279 378.192 101.279 375.754 L 101.279 262.782 C 100.939 261.043 101.279 264.182 101.279 264.881 Z" fill="#b0b9d9" fill-rule="evenodd" fill-opacity="1" stroke="none" /><path d="M 62.683 369.018 L 64.082 260.743 C 64.082 255.546 66.521 252.408 71.398 252.408 L 95.783 252.768 C 73.836 253.808 72.097 253.808 70.698 254.148 C 68.959 254.847 65.821 256.586 65.481 261.083 C 65.121 264.221 62.683 369.697 62.683 369.697 Z M 104.817 377.433 L 105.877 269.138 C 105.877 263.582 109.694 260.803 114.232 260.803 L 155.986 260.803 C 134.06 261.863 114.571 262.203 113.172 262.902 C 111.433 263.242 107.955 264.981 107.616 269.138 C 106.916 272.276 104.817 377.772 104.817 377.772 Z M 37.658 379.931 C 44.994 379.591 50.93 379.251 54.088 377.513 C 57.226 376.113 56.886 372.635 57.226 369.857 C 57.226 367.419 57.566 355.226 57.566 355.226 C 57.566 360.463 57.226 372.636 53.029 375.774 C 48.851 379.251 37.658 379.931 37.658 379.931 Z M 138.477 379.931 C 145.792 379.591 151.709 379.251 154.827 377.513 C 157.965 376.113 157.625 372.635 157.965 369.857 C 157.965 367.419 158.305 355.226 158.305 355.226 C 158.305 360.463 157.965 372.636 153.788 375.774 C 149.61 379.251 138.477 379.931 138.477 379.931 Z M 79.073 382.41 C 86.009 382.41 92.245 381.73 95.363 379.991 C 98.481 378.252 98.141 374.754 98.481 372.336 C 98.481 369.897 98.821 357.705 98.821 357.705 C 98.821 362.941 98.481 375.114 94.324 378.252 C 90.166 381.37 79.073 382.41 79.073 382.41 Z M 140.955 388.886 L 21.808 388.886 C 15.212 388.886 8.955 388.886 8.955 386.167 L 8.955 383.769 C 9.655 385.827 14.172 387.187 21.468 387.526 C 28.763 387.866 140.955 388.886 140.955 388.886 Z M 69.659 173.256 L 69.659 189.646 L 93.304 189.646 L 67.64 191.646 L 69.659 173.256 Z M 77.714 221.127 L 87.128 221.127 L 87.128 216.03 L 88.188 222.187 L 77.714 221.127 Z" fill="#fff" fill-rule="evenodd" fill-opacity="1" stroke="none" /><path d="M 82.59 212.813 L 73.196 212.813 L 73.196 217.709 L 72.117 211.873 L 82.591 212.813 Z" fill="#bec4df" fill-rule="evenodd" fill-opacity="1" stroke="none" /><path d="M 86.349 213.552 L 73.796 213.552 L 73.796 220.508 L 74.156 220.168 L 75.895 215.291 L 86.009 215.291 L 86.349 214.951 L 86.349 213.551 Z" fill="#4f6db1" fill-rule="evenodd" fill-opacity="1" stroke="none" /><path d="M 99.94 126.005 L 71.797 126.005 L 71.797 183.57 L 75.975 129.723 L 99.94 129.723 L 99.94 126.005 Z" fill="#585b68" fill-rule="evenodd" fill-opacity="1" stroke="none" /><path d="M 75.975 129.723 L 86.029 129.723 L 86.029 126.005 L 71.797 126.005 L 71.797 183.57 L 75.975 129.723 Z" fill="#22252d" fill-rule="evenodd" fill-opacity="1" stroke="none" /><path d="M 83.55 129.423 L 86.029 187.808 L 86.029 128.323 L 83.55 129.422 Z" fill="#22252d" fill-rule="evenodd" fill-opacity="1" stroke="none" /><path d="M 88.187 132.241 L 88.187 186.049 L 90.187 132.241 L 88.187 132.241 Z" fill="#c3c4cc" fill-rule="evenodd" fill-opacity="1" stroke="none" /><path d="M 20.009 47.853 C 19.309 50.611 17.91 50.271 18.269 47.853 C 20.689 34.021 29.723 26.066 45.014 26.066 C 45.014 26.066 46.753 26.066 49.871 26.766 C 52.649 27.105 58.206 27.804 64.461 29.184 C 67.94 29.524 94.663 35.4 94.663 35.4 C 82.871 34.38 51.61 28.504 46.393 28.504 C 40.836 28.504 30.423 29.184 25.206 36.799 C 22.087 41.276 21.048 45.434 20.009 47.852 Z" fill="#fff" fill-rule="evenodd" fill-opacity="1" stroke="none" /><path d="M 97.462 39.897 L 97.462 123.287 C 97.462 123.287 92.665 70.838 97.462 39.897 Z M 86.349 124.186 L 70.439 124.186 L 70.439 155.187 L 67.959 122.487 L 86.349 124.187 Z M 63.482 200.76 L 99.62 200.76 L 99.62 188.527 L 96.083 197.202 L 63.483 200.76 Z M 98.821 202.758 L 98.821 232.66 L 61.324 232.66 L 96.063 230.202 L 98.821 202.758 Z" fill="#c4cae2" fill-rule="evenodd" fill-opacity="1" stroke="none" /><path d="M 61.803 220.508 L 61.803 202.438 L 93.704 202.438 L 64.122 204.918 L 61.803 220.508 Z M 102.099 39.178 L 102.099 91.946 C 102.099 91.946 104.518 49.611 104.518 46.473 C 104.518 43.355 115.211 41.276 115.211 41.276 Z" fill="#fff" fill-rule="evenodd" fill-opacity="1" stroke="none" /><path d="M 66.52 234.419 L 101.28 236.419 L 101.28 228.523 L 110.394 226.664 L 112.093 226.344 L 99.9 226.344 L 99.9 234.099 L 66.52 234.419 Z M 99.94 226.344 L 99.94 96.104 L 112.093 96.104 L 102.419 98.282 L 101.019 226.344 L 99.94 226.344 Z" fill="#7e90c3" fill-rule="evenodd" fill-opacity="1" stroke="none" /><path d="M 18.71 410.153 L 18.71 453.826 L 21.748 478.192 L 20.088 452.747 L 20.088 410.153 L 18.71 410.153 Z" fill="#fff" fill-rule="evenodd" fill-opacity="1" stroke="none" /><path d="M 24.266 410.133 L 24.266 452.727 L 22.407 478.192 L 25.665 453.826 L 25.665 407.354 L 17.27 407.354 L 24.266 410.133 Z" fill="#78cce1" fill-rule="evenodd" fill-opacity="1" stroke="none" /><path d="M 27.344 397.201 L 27.344 402.158 C 27.344 402.878 26.304 404.636 24.926 404.636 L 19.029 404.636 C 21.808 404.296 25.266 403.576 25.965 401.818 C 26.665 400.398 27.345 397.201 27.345 397.201 Z" fill="#669fca" fill-rule="evenodd" fill-opacity="1" stroke="none" /><path d="M 16.87 391.044 L 27.984 391.044 L 27.984 394.882 L 24.866 394.882 C 24.166 393.502 19.309 391.404 16.871 391.044 Z" fill="#9ca7d0" fill-rule="evenodd" fill-opacity="1" stroke="none" /><path d="M 35.66 410.153 L 35.66 453.826 L 38.458 478.192 L 37.058 452.747 L 37.058 410.153 L 35.66 410.153 Z" fill="#fff" fill-rule="evenodd" fill-opacity="1" stroke="none" /><path d="M 40.916 410.133 L 40.916 452.727 L 39.536 478.192 L 42.296 453.826 L 42.296 407.354 L 34.3 407.354 L 40.916 410.133 Z" fill="#78cce1" fill-rule="evenodd" fill-opacity="1" stroke="none" /><path d="M 44.054 397.201 L 44.054 402.158 C 44.054 402.878 43.014 404.636 41.616 404.636 L 35.659 404.636 C 38.458 404.296 41.955 403.576 42.655 401.818 C 43.355 400.398 44.055 397.201 44.055 397.201 Z" fill="#669fca" fill-rule="evenodd" fill-opacity="1" stroke="none" /><path d="M 33.98 391.044 L 44.614 391.044 L 44.614 394.882 L 41.536 394.882 C 41.196 393.502 36.039 391.404 33.98 391.044 Z" fill="#9ca7d0" fill-rule="evenodd" fill-opacity="1" stroke="none" /><path d="M 52.689 410.153 L 52.689 453.826 L 55.407 478.192 L 54.048 452.747 L 54.048 410.153 L 52.688 410.153 Z" fill="#fff" fill-rule="evenodd" fill-opacity="1" stroke="none" /><path d="M 57.946 410.133 L 57.946 452.727 L 56.546 478.192 L 59.325 453.826 L 59.325 407.354 L 51.25 407.354 L 57.946 410.133 Z" fill="#78cce1" fill-rule="evenodd" fill-opacity="1" stroke="none" /><path d="M 61.004 397.201 L 61.004 402.158 C 61.004 402.878 59.964 404.636 58.585 404.636 L 52.69 404.636 C 55.468 404.296 58.926 403.576 59.626 401.818 C 60.326 400.398 61.005 397.201 61.005 397.201 Z" fill="#669fca" fill-rule="evenodd" fill-opacity="1" stroke="none" /><path d="M 50.93 391.044 L 61.803 391.044 L 61.803 394.882 L 58.665 394.882 C 58.305 393.502 53.049 391.404 50.93 391.044 Z" fill="#9ca7d0" fill-rule="evenodd" fill-opacity="1" stroke="none" /><path d="M 69.319 410.153 L 69.319 453.826 L 72.437 478.192 L 70.738 452.747 L 70.738 410.153 L 69.318 410.153 Z" fill="#fff" fill-rule="evenodd" fill-opacity="1" stroke="none" /><path d="M 74.596 410.133 L 74.596 452.727 L 73.196 478.192 L 76.275 453.826 L 76.275 407.354 L 67.96 407.354 L 74.596 410.133 Z" fill="#78cce1" fill-rule="evenodd" fill-opacity="1" stroke="none" /><path d="M 77.954 397.201 L 77.954 402.158 C 77.954 402.878 76.914 404.636 75.195 404.636 L 69.64 404.636 C 72.078 404.296 75.876 403.576 76.236 401.818 C 76.916 400.398 77.955 397.201 77.955 397.201 Z" fill="#669fca" fill-rule="evenodd" fill-opacity="1" stroke="none" /><path d="M 67.64 391.044 L 78.753 391.044 L 78.753 394.882 L 75.635 394.882 C 74.935 393.502 69.739 391.404 67.64 391.044 Z" fill="#9ca7d0" fill-rule="evenodd" fill-opacity="1" stroke="none" /><path d="M 86.349 410.153 L 86.349 453.826 L 89.547 478.192 L 87.727 452.747 L 87.727 410.153 L 86.35 410.153 Z" fill="#fff" fill-rule="evenodd" fill-opacity="1" stroke="none" /><path d="M 91.905 410.133 L 91.905 452.727 L 90.206 478.192 L 93.304 453.826 L 93.304 407.354 L 84.91 407.354 L 91.906 410.133 Z" fill="#78cce1" fill-rule="evenodd" fill-opacity="1" stroke="none" /><path d="M 95.143 397.201 L 95.143 402.158 C 95.143 402.878 94.103 404.636 92.705 404.636 L 86.748 404.636 C 89.547 404.296 93.044 403.576 93.744 401.818 C 94.444 400.398 95.144 397.201 95.144 397.201 Z" fill="#669fca" fill-rule="evenodd" fill-opacity="1" stroke="none" /><path d="M 84.59 391.044 L 95.783 391.044 L 95.783 394.882 L 92.645 394.882 C 91.945 393.502 87.048 391.404 84.59 391.044 Z" fill="#9ca7d0" fill-rule="evenodd" fill-opacity="1" stroke="none" /><path d="M 103.458 410.153 L 103.458 453.826 L 106.256 478.192 L 104.857 452.747 L 104.857 410.153 L 103.458 410.153 Z" fill="#fff" fill-rule="evenodd" fill-opacity="1" stroke="none" /><path d="M 108.715 410.133 L 108.715 452.727 L 107.175 478.192 L 110.095 453.826 L 110.095 407.354 L 102.099 407.354 L 108.715 410.133 Z" fill="#78cce1" fill-rule="evenodd" fill-opacity="1" stroke="none" /><path d="M 111.773 397.201 L 111.773 402.158 C 111.773 402.878 110.733 404.636 109.355 404.636 L 103.458 404.636 C 106.236 404.296 109.694 403.576 110.394 401.818 C 111.094 400.398 111.774 397.201 111.774 397.201 Z" fill="#669fca" fill-rule="evenodd" fill-opacity="1" stroke="none" /><path d="M 101.62 391.044 L 112.413 391.044 L 112.413 394.882 L 109.295 394.882 C 108.935 393.502 103.718 391.404 101.619 391.044 Z" fill="#9ca7d0" fill-rule="evenodd" fill-opacity="1" stroke="none" /><path d="M 120.488 410.153 L 120.488 453.826 L 123.206 478.192 L 121.847 452.747 L 121.847 410.153 L 120.487 410.153 Z" fill="#fff" fill-rule="evenodd" fill-opacity="1" stroke="none" /><path d="M 125.745 410.133 L 125.745 452.727 L 124.345 478.192 L 127.124 453.826 L 127.124 407.354 L 119.049 407.354 L 125.745 410.133 Z" fill="#78cce1" fill-rule="evenodd" fill-opacity="1" stroke="none" /><path d="M 128.803 397.201 L 128.803 402.158 C 128.803 402.878 127.763 404.636 126.384 404.636 L 120.488 404.636 C 123.266 404.296 126.724 403.576 127.424 401.818 C 128.124 400.398 128.803 397.201 128.803 397.201 Z" fill="#669fca" fill-rule="evenodd" fill-opacity="1" stroke="none" /><path d="M 118.729 391.044 L 129.522 391.044 L 129.522 394.882 L 126.404 394.882 C 126.044 393.502 120.828 391.404 118.729 391.044 Z" fill="#9ca7d0" fill-rule="evenodd" fill-opacity="1" stroke="none" /><path d="M 137.118 410.153 L 137.118 453.826 L 140.236 478.192 L 138.536 452.747 L 138.536 410.153 L 137.118 410.153 Z" fill="#fff" fill-rule="evenodd" fill-opacity="1" stroke="none" /><path d="M 142.395 410.133 L 142.395 452.727 L 140.995 478.192 L 144.074 453.826 L 144.074 407.354 L 135.759 407.354 L 142.395 410.133 Z" fill="#78cce1" fill-rule="evenodd" fill-opacity="1" stroke="none" /><path d="M 145.753 397.201 L 145.753 402.158 C 145.753 402.878 144.713 404.636 142.994 404.636 L 137.438 404.636 C 139.876 404.296 143.674 403.576 144.034 401.818 C 144.714 400.398 145.753 397.201 145.753 397.201 Z" fill="#669fca" fill-rule="evenodd" fill-opacity="1" stroke="none" /><path d="M 135.439 391.044 L 146.552 391.044 L 146.552 394.882 L 143.434 394.882 C 142.734 393.502 137.537 391.404 135.439 391.044 Z" fill="#9ca7d0" fill-rule="evenodd" fill-opacity="1" stroke="none" /><path d="M 82.95 15.512 C 79.133 15.512 75.675 15.872 73.236 15.872 C 73.936 15.872 84.33 18.33 86.748 20.429 C 88.827 22.168 88.488 25.326 85.369 27.425 C 83.29 28.824 74.975 29.523 74.975 29.523 C 81.911 30.923 88.827 32.322 92.985 33.021 L 92.985 15.871 C 90.226 15.871 86.748 15.511 82.951 15.511 Z" fill="#b4bddb" fill-rule="evenodd" fill-opacity="1" stroke="none" /><path d="M 73.796 18.63 C 74.556 19.35 74.916 24.626 74.176 27.425 Z" fill="#fff" fill-rule="evenodd" fill-opacity="1" stroke="none" /><path d="M 92.984 15.872 C 90.206 15.872 86.708 15.512 82.891 15.512 L 80.432 15.512 L 80.432 15.872 C 87.408 16.572 90.546 19.37 90.546 23.567 C 90.546 27.784 89.166 29.523 82.891 30.923 C 86.708 31.982 90.206 32.682 92.984 33.021 L 92.984 15.871 Z M 97.941 240.616 C 97.941 240.256 97.601 240.256 97.601 240.256 C 97.601 240.256 97.601 246.552 95.143 247.251 C 92.685 247.951 77.953 248.651 77.953 248.651 L 91.645 248.651 C 94.084 248.651 96.542 249.011 97.941 249.69 L 97.941 240.615 Z" fill="#7e90c3" fill-rule="evenodd" fill-opacity="1" stroke="none" /><path d="M 60.324 53.129 L 60.324 234.099 L 99.94 234.099 L 99.94 37.139 C 99.94 34.361 97.162 33.661 97.162 33.661 C 97.162 33.661 57.546 26.026 49.211 24.986 C 45.733 24.626 44.334 24.626 44.334 24.626 C 28.004 24.626 18.27 34.361 16.871 49.651 C 16.871 51.031 18.61 52.07 20.708 52.07 C 22.787 52.07 24.186 51.03 24.526 49.651 C 26.265 41.316 33.221 35.4 42.955 35.4 C 52.689 35.4 60.325 41.996 60.325 53.13 M 86.349 59.645 L 86.509 59.805 M 60.364 200.76 L 99.94 200.92" fill="none" stroke="#333" stroke-width=".63961238px" stroke-linecap="round" stroke-linejoin="round" stroke-miterlimit="10" stroke-dasharray="none" stroke-opacity="1" /><path d="M 73.796 213.552 L 86.35 213.552 L 86.35 220.508 L 73.796 220.508 Z M 71.797 126.005 L 99.94 126.005 L 99.94 187.808 L 71.797 187.808 Z" fill="none" stroke="#333" stroke-width=".63961238px" stroke-linecap="round" stroke-linejoin="round" stroke-miterlimit="10" stroke-dasharray="none" stroke-opacity="1" /><path d="M 71.797 126.005 L 86.03 126.005 L 86.03 187.808 L 71.797 187.808 Z M 98.501 3.779 C 98.501 3.099 91.545 2.399 82.851 2.399 C 74.156 2.399 66.841 3.099 66.841 3.779 L 66.841 15.832 C 66.841 15.152 74.156 14.472 82.851 14.472 C 91.545 14.472 98.501 15.152 98.501 15.832 L 98.501 3.779 Z M 98.501 15.832 L 98.661 3.839" fill="none" stroke="#333" stroke-width=".63961238px" stroke-linecap="round" stroke-linejoin="round" stroke-miterlimit="10" stroke-dasharray="none" stroke-opacity="1" /><path d="M 95.783 15.273 L 95.863 2.72 M 93.304 14.953 L 93.464 2.4 M 90.506 14.473 L 90.666 2.4 M 88.187 14.473 L 88.347 2.4 M 85.39 14.953 L 85.549 2.4 M 82.59 14.473 L 82.75 2.4 M 80.112 2.4 L 80.272 14.952 M 77.394 2.4 L 77.554 14.473 M 74.915 2.4 L 75.075 14.473 M 72.117 2.4 L 72.277 14.952 M 69.639 2.72 L 69.799 15.272 M 66.84 3.839 L 67 15.832" fill="none" stroke="#333" stroke-width=".31980619px" stroke-linecap="round" stroke-linejoin="round" stroke-miterlimit="10" stroke-dasharray="none" stroke-opacity="1" /><path d="M 92.984 33.021 L 92.984 15.871 C 92.984 15.871 92.984 15.871 92.984 15.871 C 90.206 15.871 86.728 15.511 82.891 15.511 C 78.713 15.511 75.235 15.871 72.437 15.871 C 72.437 15.871 72.437 15.871 72.437 15.871 L 72.437 29.184 C 80.452 30.583 88.127 31.982 92.984 33.021" fill="none" stroke="#333" stroke-width=".63961238px" stroke-linecap="round" stroke-linejoin="round" stroke-miterlimit="10" stroke-dasharray="none" stroke-opacity="1" /><path d="M 82.85 14.473 C 74.156 14.473 66.84 15.173 66.84 15.872 C 66.84 16.572 68.94 16.932 72.417 17.271 L 72.417 15.871 C 72.417 15.871 72.417 15.871 72.417 15.871 C 75.195 15.871 78.673 15.531 82.851 15.531 C 86.688 15.531 90.166 15.871 92.945 15.871 C 92.945 15.871 92.945 15.871 92.945 15.871 L 92.945 17.271 C 96.422 16.931 98.501 16.571 98.501 15.871 C 98.501 15.172 91.545 14.473 82.851 14.473 M 101.62 379.931 C 101.62 384.089 97.802 384.089 93.284 384.089 L 69.32 384.089 C 64.803 384.089 61.325 384.089 61.325 379.931 L 61.325 254.787 C 61.325 250.609 64.803 250.25 69.32 250.25 L 93.285 250.25 C 97.803 250.25 101.62 250.61 101.62 254.787 L 101.62 379.931 Z M 21.748 390.245 C 14.172 390.245 7.596 390.245 7.596 386.087" fill="none" stroke="#333" stroke-width=".63961238px" stroke-linecap="round" stroke-linejoin="round" stroke-miterlimit="10" stroke-dasharray="none" stroke-opacity="1" /><path d="M 123.246 40.257 C 123.246 40.257 111.773 38.178 99.62 35.74 C 99.98 36.1 99.98 36.799 99.98 37.139 L 99.98 234.019 L 63.163 234.019 L 63.163 251.369 C 64.562 250.329 67 250.329 69.419 250.329 L 93.384 250.329 C 96.163 250.329 98.241 250.329 99.98 251.369 L 99.98 240.276 C 99.98 238.876 100.32 238.536 101.36 238.536 L 109.355 238.536 C 111.094 238.536 112.133 237.837 112.133 236.438 L 112.133 226.384 C 112.813 226.384 113.512 226.724 113.512 224.985 L 113.512 95.823 L 115.951 95.823 C 117.33 95.823 118.029 95.123 118.029 93.385 L 118.029 62.823 C 118.029 59.365 126.004 52.07 126.004 49.631 L 126.004 43.735 C 126.004 40.957 123.246 40.257 123.246 40.257 M 160.783 377.893 C 160.783 382.07 156.966 382.41 152.448 382.41 L 110.674 382.41 C 106.157 382.41 102.659 382.07 102.659 377.892 L 102.659 262.503 C 102.659 258.686 106.157 258.326 110.674 258.326 L 152.448 258.326 C 156.966 258.326 160.783 261.464 160.783 266.681 L 160.783 377.893 Z M 60.364 377.893 C 60.364 382.07 56.547 382.41 52.029 382.41 L 10.355 382.41 C 5.837 382.41 2 382.07 2 377.892 L 2 266.68 C 2 261.123 5.837 258.325 10.355 258.325 L 52.029 258.325 C 56.547 258.325 60.364 258.685 60.364 262.502 L 60.364 377.892 Z M 112.093 226.344 L 100.26 226.504 M 113.532 95.783 L 99.94 95.943 M 27.984 394.882 L 27.984 390.245 L 16.23 390.245 L 16.23 394.882" fill="none" stroke="#333" stroke-width=".63961238px" stroke-linecap="round" stroke-linejoin="round" stroke-miterlimit="10" stroke-dasharray="none" stroke-opacity="1" /><path d="M 16.231 394.882 L 16.231 401.758 C 16.231 403.477 17.631 405.196 19.689 405.196 L 24.546 405.196 C 26.605 405.196 27.984 403.476 27.984 401.758 L 27.984 394.882" fill="none" stroke="#333" stroke-width=".31980619px" stroke-linecap="round" stroke-linejoin="round" stroke-miterlimit="10" stroke-dasharray="none" stroke-opacity="1" /><path d="M 45.094 395.202 L 45.094 390.245 L 33.18 390.245 L 33.18 394.902" fill="none" stroke="#333" stroke-width=".63961238px" stroke-linecap="round" stroke-linejoin="round" stroke-miterlimit="10" stroke-dasharray="none" stroke-opacity="1" /><path d="M 33.18 394.882 L 33.18 401.758 C 33.18 403.477 34.6 405.196 36.339 405.196 L 41.596 405.196 C 43.355 405.196 45.094 403.476 45.094 401.758 L 45.094 395.242" fill="none" stroke="#333" stroke-width=".31980619px" stroke-linecap="round" stroke-linejoin="round" stroke-miterlimit="10" stroke-dasharray="none" stroke-opacity="1" /><path d="M 61.803 394.423 L 61.803 390.245 L 50.21 390.245 L 50.21 394.882" fill="none" stroke="#333" stroke-width=".63961238px" stroke-linecap="round" stroke-linejoin="round" stroke-miterlimit="10" stroke-dasharray="none" stroke-opacity="1" /><path d="M 50.21 394.763 L 50.21 401.718 C 50.21 403.457 51.63 405.196 53.388 405.196 L 58.645 405.196 C 60.405 405.196 61.803 403.456 61.803 401.718 L 61.803 394.402" fill="none" stroke="#333" stroke-width=".31980619px" stroke-linecap="round" stroke-linejoin="round" stroke-miterlimit="10" stroke-dasharray="none" stroke-opacity="1" /><path d="M 78.753 394.882 L 78.753 390.245 L 66.84 390.245 L 66.84 394.882" fill="none" stroke="#333" stroke-width=".63961238px" stroke-linecap="round" stroke-linejoin="round" stroke-miterlimit="10" stroke-dasharray="none" stroke-opacity="1" /><path d="M 66.84 394.882 L 66.84 401.758 C 66.84 403.477 68.6 405.196 70.358 405.196 L 75.615 405.196 C 77.354 405.196 78.753 403.476 78.753 401.758 L 78.753 394.882" fill="none" stroke="#333" stroke-width=".31980619px" stroke-linecap="round" stroke-linejoin="round" stroke-miterlimit="10" stroke-dasharray="none" stroke-opacity="1" /><path d="M 95.783 394.882 L 95.783 390.245 L 84.03 390.245 L 84.03 394.882" fill="none" stroke="#333" stroke-width=".63961238px" stroke-linecap="round" stroke-linejoin="round" stroke-miterlimit="10" stroke-dasharray="none" stroke-opacity="1" /><path d="M 84.03 394.882 L 84.03 401.758 C 84.03 403.477 85.43 405.196 87.488 405.196 L 92.685 405.196 C 94.404 405.196 95.783 403.476 95.783 401.758 L 95.783 394.882" fill="none" stroke="#333" stroke-width=".31980619px" stroke-linecap="round" stroke-linejoin="round" stroke-miterlimit="10" stroke-dasharray="none" stroke-opacity="1" /><path d="M 112.892 394.423 L 112.892 390.245 L 100.98 390.245 L 100.98 394.882" fill="none" stroke="#333" stroke-width=".63961238px" stroke-linecap="round" stroke-linejoin="round" stroke-miterlimit="10" stroke-dasharray="none" stroke-opacity="1" /><path d="M 100.98 394.763 L 100.98 401.718 C 100.98 403.457 102.399 405.196 104.138 405.196 L 109.395 405.196 C 111.493 405.196 112.892 403.456 112.892 401.718 L 112.892 394.402" fill="none" stroke="#333" stroke-width=".31980619px" stroke-linecap="round" stroke-linejoin="round" stroke-miterlimit="10" stroke-dasharray="none" stroke-opacity="1" /><path d="M 129.522 394.882 L 129.522 390.245 L 118.01 390.245 L 118.01 394.882" fill="none" stroke="#333" stroke-width=".63961238px" stroke-linecap="round" stroke-linejoin="round" stroke-miterlimit="10" stroke-dasharray="none" stroke-opacity="1" /><path d="M 118.01 394.882 L 118.01 401.758 C 118.01 403.477 119.408 405.196 121.167 405.196 L 126.384 405.196 C 128.144 405.196 129.522 403.476 129.522 401.758 L 129.522 394.882" fill="none" stroke="#333" stroke-width=".31980619px" stroke-linecap="round" stroke-linejoin="round" stroke-miterlimit="10" stroke-dasharray="none" stroke-opacity="1" /><path d="M 146.552 394.862 L 146.552 390.245 L 134.639 390.245 L 134.639 395.202" fill="none" stroke="#333" stroke-width=".63961238px" stroke-linecap="round" stroke-linejoin="round" stroke-miterlimit="10" stroke-dasharray="none" stroke-opacity="1" /><path d="M 134.64 395.242 L 134.64 401.758 C 134.64 403.477 136.398 405.196 138.157 405.196 L 143.414 405.196 C 145.153 405.196 146.552 403.476 146.552 401.758 L 146.552 394.882" fill="none" stroke="#333" stroke-width=".31980619px" stroke-linecap="round" stroke-linejoin="round" stroke-miterlimit="10" stroke-dasharray="none" stroke-opacity="1" /><path d="M 17.27 453.846 L 20.988 482.989 L 23.167 482.989 L 27.024 453.846 L 27.024 406.955 L 17.27 406.955 L 17.27 453.846 Z M 38.178 482.989 L 40.196 482.989 L 44.054 453.846 L 44.054 406.955 L 33.98 406.955 L 33.98 453.846 L 38.178 482.989 Z M 55.127 482.989 L 57.147 482.989 L 61.004 453.846 L 61.004 406.955 L 50.93 406.955 L 50.93 453.846 L 55.127 482.989 Z M 71.817 482.989 L 73.817 482.989 L 77.954 453.846 L 77.954 406.955 L 67.96 406.955 L 67.96 453.846 L 71.817 482.989 Z M 88.787 482.989 L 90.966 482.989 L 94.663 453.846 L 94.663 406.955 L 84.91 406.955 L 84.91 453.846 L 88.788 482.989 Z M 105.777 482.989 L 107.935 482.989 L 111.773 453.846 L 111.773 406.955 L 101.62 406.955 L 101.62 453.846 L 105.778 482.989 Z M 122.926 482.989 L 124.946 482.989 L 128.803 453.846 L 128.803 406.955 L 118.729 406.955 L 118.729 453.846 L 122.926 482.989 Z M 135.759 453.846 L 139.616 482.989 L 141.615 482.989 L 145.753 453.846 L 145.753 406.955 L 135.759 406.955 L 135.759 453.846 Z M 60.044 378.812 C 59.704 381.93 56.227 382.29 52.049 382.29 L 7.596 382.29 L 7.596 386.087 C 7.596 390.245 14.212 390.245 21.848 390.245 L 140.955 390.245 C 148.951 390.245 155.187 390.245 155.187 386.087 L 155.187 382.29 L 110.754 382.29 C 106.576 382.29 103.458 381.93 102.759 378.812" fill="none" stroke="#333" stroke-width=".63961238px" stroke-linecap="round" stroke-linejoin="round" stroke-miterlimit="10" stroke-dasharray="none" stroke-opacity="1" /><path d="M 101.62 378.812 L 101.62 379.872 C 101.62 384.089 97.802 384.089 93.284 384.089 L 69.32 384.089 C 64.803 384.089 61.325 384.089 61.325 379.871 L 61.325 378.811" fill="none" stroke="#333" stroke-width=".63961238px" stroke-linecap="round" stroke-linejoin="round" stroke-miterlimit="10" stroke-dasharray="none" stroke-opacity="1" /><path d="M 29.063 395.881 L 15.152 396.041 M 46.093 395.881 L 32.181 396.041 M 63.203 395.881 L 49.291 396.041 M 79.912 395.881 L 66.001 396.041 M 96.862 395.881 L 82.951 396.041 M 113.812 395.881 L 99.98 396.041 M 131.001 395.881 L 117.09 396.041 M 147.631 395.881 L 133.8 396.041" fill="none" stroke="#eef4f9" stroke-width="1.5190793px" stroke-linecap="butt" stroke-linejoin="miter" stroke-miterlimit="8" stroke-dasharray="none" stroke-opacity="1" /><path d="M 99.94 394.882 L 113.772 394.882 L 113.772 406.955 L 99.94 406.955 Z M 117.05 394.882 L 130.961 394.882 L 130.961 406.955 L 117.05 406.955 Z M 15.112 394.882 L 29.023 394.882 L 29.023 406.955 L 15.112 406.955 Z M 32.141 394.882 L 46.053 394.882 L 46.053 406.955 L 32.14 406.955 Z M 49.251 394.882 L 63.163 394.882 L 63.163 406.955 L 49.25 406.955 Z M 65.96 394.882 L 79.872 394.882 L 79.872 406.955 L 65.961 406.955 Z M 82.91 394.882 L 96.822 394.882 L 96.822 406.955 L 82.911 406.955 Z M 133.76 394.882 L 147.591 394.882 L 147.591 406.955 L 133.76 406.955 Z" fill="none" stroke="#333" stroke-width=".63961238px" stroke-linecap="round" stroke-linejoin="round" stroke-miterlimit="10" stroke-dasharray="none" stroke-opacity="1" /><path d="M 84.03 138.797 C 84.03 137.657 84.87 136.718 85.869 136.718 C 86.889 136.718 87.708 137.658 87.708 138.798 C 87.708 139.957 86.888 140.876 85.868 140.876 C 84.869 140.876 84.03 139.956 84.03 138.797 Z M 84.59 143.474 C 84.59 142.794 85.15 142.235 85.829 142.235 C 86.529 142.235 87.069 142.795 87.069 143.475 C 87.069 144.174 86.529 144.714 85.829 144.714 C 85.149 144.714 84.589 144.174 84.589 143.474 Z M 84.91 134.84 C 84.91 134.34 85.33 133.92 85.829 133.92 C 86.349 133.92 86.749 134.34 86.749 134.84 C 86.749 135.36 86.349 135.759 85.829 135.759 C 85.329 135.759 84.909 135.359 84.909 134.839 Z" fill="#fff" fill-rule="evenodd" fill-opacity="1" stroke="none" />
  <g id="overlay_root" />

  <!-- ANCHORS: invisible positioning elements -->
  <rect id="anchor_liquid_bounds" x="56.4" y="260.243" width="55" height="120" fill="none" stroke="none" display="none" />
  <rect id="anchor_label" x="17.5008" y="335.2275" width="128.80640000000002" height="72.42524999999999" fill="none" stroke="none" display="none" />
  <rect id="anchor_error" x="126.3072" y="315.2275" width="16" height="16" fill="none" stroke="none" display="none" />
</svg>