<svg xmlns="http://www.w3.org/2000/svg" viewBox="0 0 792.6 398">
  <defs>
    <linearGradient id="lid" x1="0" y1="0" x2="1" y2="1">
      <stop offset="0" stop-color="#2c3d33" />
      <stop offset="1" stop-color="#13201a" />
    </linearGradient>
    <linearGradient id="frontF" x1="0" y1="0" x2="0" y2="1">
      <stop offset="0" stop-color="#f4f2ea" />
      <stop offset="1" stop-color="#dedbcc" />
    </linearGradient>
    <linearGradient id="sideF" x1="0" y1="0" x2="1" y2="0">
      <stop offset="0" stop-color="#cbc8b9" />
      <stop offset="1" stop-color="#a9a698" />
    </linearGradient>
    <linearGradient id="baseF" x1="0" y1="0" x2="0" y2="1">
      <stop offset="0" stop-color="#2ba055" />
      <stop offset="1" stop-color="#1c7a3f" />
    </linearGradient>
    <radialGradient id="led" cx="0.5" cy="0.5" r="0.8">
      <stop offset="0" stop-color="#3a0d0d" />
      <stop offset="1" stop-color="#170303" />
    </radialGradient>
    <radialGradient id="jR" cx="0.35" cy="0.32" r="0.85">
      <stop offset="0" stop-color="#e85d4e" /><stop offset="0.5" stop-color="#c0392b" /><stop offset="1" stop-color="#7d2018" />
    </radialGradient>
    <radialGradient id="jB" cx="0.35" cy="0.32" r="0.85">
      <stop offset="0" stop-color="#454545" /><stop offset="0.5" stop-color="#1c1c1c" /><stop offset="1" stop-color="#000" />
    </radialGradient>
  </defs>


  <polygon points="232,252 692,252 790.6,197.6 487,197.6" fill="url(#lid)" />
  <polygon points="289.3,247.1 666.5,247.1 747.4,202.5 498.4,202.5" fill="#ffffff" opacity="0.06" />


  <polygon points="692,252 790.6,197.6 790.6,276.8 692,372" fill="url(#sideF)" />


  <rect x="232" y="372" width="460" height="24" fill="url(#baseF)" />
  <polygon points="692,372 692,396 790.6,300.8 790.6,276.8" fill="#176835" />


  <g transform="translate(230,250)">
    <rect x="2" y="2" width="460" height="120" rx="10" fill="url(#frontF)" />
    <rect x="2" y="2" width="460" height="3" fill="#fff" opacity="0.5" />


    <circle cx="64" cy="42" r="15" fill="url(#jB)" stroke="#0a0a0a" stroke-width="1.5" />
    <circle cx="64" cy="42" r="4.5" fill="#000" />
    <circle cx="64" cy="88" r="15" fill="url(#jR)" stroke="#5e1810" stroke-width="1.5" />
    <circle cx="64" cy="88" r="4.5" fill="#7d2018" />


    <circle cx="400" cy="42" r="15" fill="url(#jB)" stroke="#0a0a0a" stroke-width="1.5" />
    <circle cx="400" cy="42" r="4.5" fill="#000" />
    <circle cx="400" cy="88" r="15" fill="url(#jR)" stroke="#5e1810" stroke-width="1.5" />
    <circle cx="400" cy="88" r="4.5" fill="#7d2018" />


    <rect x="147" y="32" width="160" height="60" rx="7" fill="url(#led)" stroke="#0a0a0a" stroke-width="2" />
    <g fill="#ff3030">
      <rect x="189" y="42" width="16" height="4" rx="2" />
      <rect x="204" y="45" width="4" height="16" rx="2" />
      <rect x="204" y="65" width="4" height="16" rx="2" />
      <rect x="189" y="82" width="16" height="4" rx="2" />
      <rect x="189" y="62" width="16" height="4" rx="2" />
      <rect x="219" y="42" width="16" height="4" rx="2" />
      <rect x="234" y="45" width="4" height="16" rx="2" />
      <rect x="234" y="65" width="4" height="16" rx="2" />
      <rect x="219" y="82" width="16" height="4" rx="2" />
      <rect x="216" y="45" width="4" height="16" rx="2" />
      <rect x="216" y="65" width="4" height="16" rx="2" />
      <rect x="249" y="42" width="16" height="4" rx="2" />
      <rect x="264" y="45" width="4" height="16" rx="2" />
      <rect x="264" y="65" width="4" height="16" rx="2" />
      <rect x="249" y="82" width="16" height="4" rx="2" />
      <rect x="246" y="45" width="4" height="16" rx="2" />
      <rect x="246" y="65" width="4" height="16" rx="2" />
    </g>


    <rect x="322" y="32" width="38" height="27" rx="5" fill="#ebe9de" stroke="#c7c4b4" />
    <path d="M 341 39 L 349 48 L 333 48 Z" fill="#3a3a36" />
    <rect x="322" y="65" width="38" height="27" rx="5" fill="#ebe9de" stroke="#c7c4b4" />
    <path d="M 341 85 L 349 76 L 333 76 Z" fill="#3a3a36" />
  </g>
</svg>