<svg xmlns="http://www.w3.org/2000/svg" version="1.0" viewBox="0 0 161.423 267.52"><defs><clipPath clipPathUnits="userSpaceOnUse" id="a"><path d="M 3.078 2 L 159.383 2 L 159.383 265.52 L 3.079 265.52 Z" /></clipPath><clipPath id="anchor_liquid_clip"><rect id="anchor_liquid_bounds" x="6.239" y="7.16" width="146.51" height="253.35700000000003" /></clipPath></defs><path d="M 32.54 22.548 C 32.54 16.891 53.407 12.274 79.112 12.274 C 104.836 12.274 125.684 16.891 125.684 22.548 C 125.684 28.224 104.836 32.821 79.112 32.821 C 53.407 32.821 32.54 28.224 32.54 22.548 Z" fill="#b7d3e6" fill-rule="evenodd" fill-opacity="1" stroke="none" /><path d="M 32.54 30.223 C 32.54 35.36 53.427 40.497 79.112 40.497 C 104.816 40.497 125.684 35.36 125.684 30.223 L 125.684 22.508 C 125.684 28.504 104.816 32.801 79.112 32.801 C 53.427 32.801 32.54 28.504 32.54 22.508 L 32.54 30.223 Z" fill="#6ba8cf" fill-rule="evenodd" fill-opacity="1" stroke="none" /><path d="M 43.733 23.027 C 43.733 19.929 59.563 17.391 79.072 17.391 C 98.6 17.391 114.41 19.929 114.41 23.027 C 114.41 26.145 98.6 28.664 79.072 28.664 C 59.564 28.664 43.733 26.145 43.733 23.027 Z" fill="#4f9ac7" fill-rule="evenodd" fill-opacity="1" stroke="none" /><path d="M 46.372 25.266 C 51.988 26.965 64.8 28.664 79.192 28.664 C 93.603 28.664 105.616 26.965 111.212 25.266 C 105.616 23.567 93.603 21.868 79.192 21.868 C 64.8 21.868 51.988 23.567 46.372 25.266 Z" fill="#1873a7" fill-rule="evenodd" fill-opacity="1" stroke="none" /><path d="M 79.212 40.637 C 63.102 40.637 49.41 38.917 40.535 36.339 L 42.155 146.033 C 42.155 146.033 61.482 254.867 63.102 256.586 C 65.52 260.863 71.956 264.281 79.212 264.281 C 85.648 264.281 92.084 260.863 95.322 256.586 C 96.122 254.866 115.45 146.033 115.45 146.033 L 117.049 36.339 C 109.014 38.918 95.322 40.637 79.212 40.637 Z" fill="#f5aed6" fill-rule="evenodd" fill-opacity="1" stroke="none" /><path d="M 79.192 31.162 C 67.199 31.162 55.986 30.302 47.971 28.584 L 47.971 53.609 C 47.971 56.207 61.582 57.926 79.191 57.926 C 96.821 57.926 111.212 56.207 111.212 53.609 L 111.212 27.705 C 103.217 29.443 91.204 31.162 79.192 31.162 Z" fill="#f188c2" fill-rule="evenodd" fill-opacity="1" stroke="none" /><path d="M 47.971 41.456 L 47.971 53.61 C 47.971 56.208 61.642 57.927 79.311 57.927 C 87.347 57.927 93.763 57.927 99.38 57.067" fill="none" stroke="#fff" stroke-width=".47970927px" stroke-linecap="round" stroke-linejoin="round" stroke-miterlimit="4" stroke-dasharray="none" stroke-opacity="1" /><path d="M 43.094 111.414 C 43.094 108.336 59.064 105.817 78.752 105.817 C 98.46 105.817 114.41 108.336 114.41 111.414 C 114.41 114.512 98.46 117.01 78.752 117.01 C 59.064 117.01 43.094 114.512 43.094 111.414 Z" fill="#d4c8e2" fill-rule="evenodd" fill-opacity="1" stroke="none" /><path d="M 43.094 111.414 C 43.094 108.336 59.064 105.817 78.752 105.817 C 98.46 105.817 114.41 108.336 114.41 111.414 C 114.41 114.512 98.46 117.01 78.752 117.01 C 59.064 117.01 43.094 114.512 43.094 111.414 Z" fill="#d5e6e2" fill-rule="evenodd" fill-opacity="1" stroke="none" /><path d="M 114.49 110.934 C 114.49 114.372 98.46 116.93 79.212 116.93 C 59.144 116.93 43.114 114.372 43.114 110.934 L 41.494 110.934 L 42.314 146.073 C 42.314 146.073 61.562 254.867 63.161 256.586 C 65.56 260.863 71.976 264.281 79.211 264.281 C 85.628 264.281 92.044 260.863 95.242 256.586 C 96.042 254.866 115.29 146.073 115.29 146.073 L 116.09 110.934 L 114.49 110.934 Z" fill="#8dbbb9" fill-rule="evenodd" fill-opacity="1" stroke="none" /><path d="M 81.71 256.526 C 76.893 255.686 72.076 253.108 69.678 248.83 C 68.078 247.112 51.208 144.354 51.208 144.354 L 44.774 39.857 L 46.393 140.057 L 46.393 146.912 C 49.611 165.761 63.243 247.971 64.062 248.83 C 65.661 252.248 68.879 256.526 76.095 256.526 Z" fill="#dae8f2" fill-rule="evenodd" fill-opacity="1" stroke="none" /><path d="M 69.478 248.85 C 67.878 247.152 51.028 144.314 51.028 144.314 L 45.412 56.887 C 47.831 77.454 51.848 132.301 53.447 142.595 C 55.047 152.869 69.477 248.85 69.477 248.85 Z" fill="#ed69b2" fill-rule="evenodd" fill-opacity="1" stroke="none" /><path d="M 44.773 70.718 L 44.773 147.772 L 47.971 164.882 L 60.763 228.223 L 51.169 164.042 L 47.971 146.912 L 47.971 140.056 L 44.773 70.718 Z" fill="#fff" fill-rule="evenodd" fill-opacity="1" stroke="none" /><path d="M 81.71 256.526 C 76.893 255.686 72.076 253.108 69.678 248.83 C 68.078 247.112 51.208 144.354 51.208 144.354 L 44.774 39.857 L 46.393 140.057 L 46.393 146.912 C 49.611 165.761 63.243 247.971 64.062 248.83 C 65.661 252.248 68.879 256.526 76.095 256.526 Z" fill="#fad7ea" fill-rule="evenodd" fill-opacity="1" stroke="none" /><path d="M 69.618 248.83 C 67.998 247.112 51.068 144.334 51.068 144.334 L 49.45 114.352 C 47.85 113.492 46.232 113.492 45.412 113.492 L 46.232 140.056 L 46.232 146.912 C 49.45 165.741 63.162 247.971 63.981 248.83 C 65.58 252.248 68.818 256.526 76.074 256.526 L 81.71 256.526 C 76.873 255.686 72.036 253.108 69.618 248.83 Z" fill="#6c9aa2" fill-rule="evenodd" fill-opacity="1" stroke="none" /><path d="M 51.169 114.452 C 50.329 112.693 50.329 110.055 50.329 107.416 C 49.469 107.416 49.469 108.296 48.61 108.296 L 49.47 114.452 L 51.169 114.452 Z" fill="#63949d" fill-rule="evenodd" fill-opacity="1" stroke="none" /><path d="M 51.169 144.414 C 51.169 144.414 67.899 247.152 69.478 248.85 C 69.478 248.85 55.146 152.989 53.568 142.715 C 52.768 138.437 51.968 127.305 51.168 114.452 L 49.57 114.452 L 51.169 144.414 Z" fill="#378" fill-rule="evenodd" fill-opacity="1" stroke="none" /><path d="M 112.971 45.054 C 112.971 48.492 110.553 139.277 110.553 140.136 L 109.753 146.992 C 100.899 197.522 92.044 248.91 90.425 252.348 C 89.625 254.907 86.407 260.044 80.751 260.044 C 88.006 260.044 92.044 257.485 93.643 253.208 C 94.443 252.348 96.062 242.914 112.971 147.852 L 112.971 140.136 C 113.771 136.718 112.971 48.492 112.971 45.054 Z M 93.643 253.208 Z M 93.643 254.068 L 93.643 253.208 L 93.643 254.068 Z" fill="#fff" fill-rule="evenodd" fill-opacity="1" stroke="none" /><path d="M 111.212 41.356 C 103.217 43.076 91.204 43.935 79.192 43.935 C 72.776 43.935 66.38 43.935 60.762 43.075 C 68.778 45.654 79.992 47.373 86.387 47.373 C 92.804 48.233 102.417 49.092 103.217 64.523 C 104.017 76.535 104.017 116.831 104.017 135.699 L 103.217 144.274 C 103.217 144.274 88.007 250.629 87.187 252.328 C 84.788 256.626 79.991 259.204 74.395 260.044 L 80.791 260.044 C 87.187 260.044 91.204 255.766 92.004 252.328 C 93.603 251.468 108.014 165.721 111.212 146.852 C 111.212 145.133 112.012 139.996 112.012 139.996 C 112.012 139.996 112.812 48.232 112.812 44.794 C 112.812 42.216 112.812 40.497 111.212 41.356 Z" fill="#ed69b2" fill-rule="evenodd" fill-opacity="1" stroke="none" /><path d="M 111.212 53.469 L 111.212 41.456 C 103.217 43.176 91.204 44.035 79.192 44.035 C 72.776 44.035 66.38 44.035 60.762 43.175 C 68.778 45.754 79.992 47.473 86.407 47.473 C 92.004 48.332 98.4 49.172 101.618 56.887 C 107.215 56.047 111.212 54.328 111.212 53.469 Z" fill="#e73598" fill-rule="evenodd" fill-opacity="1" stroke="none" /><path d="M 112.172 109.135 C 110.572 108.275 107.375 107.416 104.177 107.416 L 104.177 115.092 C 107.375 114.252 110.573 114.252 112.172 113.392 L 112.172 109.135 Z" fill="#79a2a9" fill-rule="evenodd" fill-opacity="1" stroke="none" /><path d="M 112.172 140.076 L 112.172 113.493 C 110.572 114.352 107.335 114.352 104.117 115.211 L 104.117 135.779 L 103.317 144.354 C 103.317 144.354 87.987 250.629 87.187 252.348 C 84.768 256.626 79.931 259.204 74.275 260.044 L 80.731 260.044 C 87.187 260.044 91.224 255.766 92.024 252.348 C 93.643 251.488 108.154 165.781 111.372 146.932 C 111.372 145.213 112.172 140.076 112.172 140.076 Z" fill="#378" fill-rule="evenodd" fill-opacity="1" stroke="none" /><path d="M 100.139 145.233 C 101.759 132.361 102.558 79.233 103.377 64.643 C 104.177 76.655 104.177 116.95 104.177 135.799 L 103.377 144.374 C 103.377 144.374 87.967 250.669 87.147 252.368 C 87.147 252.368 98.5 158.086 100.139 145.233 Z" fill="#fad7ea" fill-rule="evenodd" fill-opacity="1" stroke="none" /><path d="M 101.619 115.092 L 104.177 115.092 L 104.177 107.616 C 103.337 106.776 102.477 106.776 101.618 106.776 L 101.618 115.092 Z" fill="#dae9e6" fill-rule="evenodd" fill-opacity="1" stroke="none" /><path d="M 104.177 135.7 L 104.177 115.092 L 101.758 115.092 C 101.758 128.823 100.938 139.976 100.139 145.133 C 98.5 158.006 87.147 252.368 87.147 252.368 C 87.967 250.669 103.377 144.274 103.377 144.274 L 104.177 135.699 Z" fill="#6c9aa2" fill-rule="evenodd" fill-opacity="1" stroke="none" /><path d="M 91.944 39.857 C 111.232 38.997 125.684 34.66 125.684 30.323 L 125.684 22.508 C 125.684 27.725 111.232 31.182 91.944 32.921 C 92.764 35.52 91.944 38.138 91.944 39.857 Z" fill="#2f89bd" fill-rule="evenodd" fill-opacity="1" stroke="none" /><path d="M 38.936 35.5 C 43.813 37.199 50.289 38.058 57.565 38.898 L 57.565 32.082 C 50.289 31.222 43.813 29.523 38.936 28.664 L 38.936 35.5 Z" fill="#a8cbe2" fill-rule="evenodd" fill-opacity="1" stroke="none" /><path d="M 51.169 38.058 C 52.708 38.898 53.487 38.898 55.006 38.898 L 55.006 32.082 C 53.487 31.222 52.708 31.222 51.169 31.222 L 51.169 38.058 Z" fill="#e3edf5" fill-rule="evenodd" fill-opacity="1" stroke="none" /><path d="M 122.486 26.026 C 120.886 27.744 118.488 28.604 116.089 29.463 L 116.089 36.339 C 118.488 35.479 120.886 34.62 122.486 33.761 L 122.486 26.026 Z" fill="#056498" fill-rule="evenodd" fill-opacity="1" stroke="none" /><path d="M 49.569 114.452 L 48.75 108.376 C 47.091 108.376 46.252 108.376 45.412 109.256 L 45.412 113.592 C 46.252 113.592 47.911 113.592 49.57 114.452 Z" fill="#9fbbbe" fill-rule="evenodd" fill-opacity="1" stroke="none" /><path d="M 112.811 112.533 C 108.814 115.231 95.202 117.01 79.191 117.01 C 63.201 117.01 49.59 115.231 44.773 112.533" fill="none" stroke="#fff" stroke-width=".47970927px" stroke-linecap="round" stroke-linejoin="round" stroke-miterlimit="4" stroke-dasharray="none" stroke-opacity="1" /><path d="M 54.367 106.777 C 60.803 105.817 69.657 105.817 79.292 105.817 C 86.527 105.817 92.963 104.857 99.38 105.817 C 92.963 104.857 86.527 104.857 79.292 104.857 C 69.658 104.857 60.802 105.817 54.367 106.777 Z" fill="#fff" fill-rule="evenodd" fill-opacity="1" stroke="none" /><path d="M 54.367 107.416 C 60.803 106.616 69.657 106.616 79.292 106.616 C 86.527 106.616 92.963 105.817 99.38 106.616 C 92.963 105.817 86.527 105.817 79.292 105.817 C 69.658 105.817 60.802 106.617 54.367 107.417 Z" fill="#378" fill-rule="evenodd" fill-opacity="1" stroke="none" /><path d="M 54.367 115.571 C 54.367 114.432 55.447 113.493 56.765 113.493 C 58.105 113.493 59.164 114.432 59.164 115.571 C 59.164 116.731 58.104 117.65 56.765 117.65 C 55.446 117.65 54.367 116.73 54.367 115.571 Z M 69.478 117.01 C 69.478 115.611 70.557 114.452 71.876 114.452 C 73.216 114.452 74.275 115.612 74.275 117.01 C 74.275 118.43 73.215 119.569 71.876 119.569 C 70.557 119.569 69.478 118.429 69.478 117.01 Z M 60.763 116.09 C 60.763 113.772 62.582 111.893 64.8 111.893 C 67.04 111.893 68.838 113.773 68.838 116.091 C 68.838 118.41 67.039 120.288 64.8 120.288 C 62.582 120.288 60.763 118.41 60.763 116.091 Z M 49.569 55.128 C 49.569 54.168 50.289 53.369 51.169 53.369 C 52.069 53.369 52.768 54.169 52.768 55.128 C 52.768 56.108 52.068 56.887 51.168 56.887 C 50.289 56.887 49.57 56.107 49.57 55.127 Z M 61.403 56.927 C 61.403 56.027 62.003 55.287 62.722 55.287 C 63.462 55.287 64.041 56.027 64.041 56.927 C 64.041 57.847 63.461 58.566 62.721 58.566 C 62.002 58.566 61.403 57.846 61.403 56.926 Z M 54.367 55.967 C 54.367 54.548 55.447 53.369 56.765 53.369 C 58.105 53.369 59.164 54.549 59.164 55.967 C 59.164 57.407 58.104 58.566 56.765 58.566 C 55.446 58.566 54.367 57.406 54.367 55.967 Z" fill="#fff" fill-rule="evenodd" fill-opacity="1" stroke="none" /><path d="M 32.54 22.548 C 32.54 16.891 53.407 12.274 79.112 12.274 C 104.836 12.274 125.684 16.891 125.684 22.548 C 125.684 28.224 104.836 32.821 79.112 32.821 C 53.407 32.821 32.54 28.224 32.54 22.548" fill="none" stroke="#333" stroke-width=".79951543px" stroke-linecap="round" stroke-linejoin="round" stroke-miterlimit="4" stroke-dasharray="none" stroke-opacity="1" /><path d="M 32.54 30.223 C 32.54 35.36 53.427 40.497 79.112 40.497 C 104.816 40.497 125.684 35.36 125.684 30.223 L 125.684 22.508 C 125.684 28.504 104.816 32.801 79.112 32.801 C 53.427 32.801 32.54 28.504 32.54 22.508 L 32.54 30.223 Z" fill="none" stroke="#333" stroke-width=".79951543px" stroke-linecap="round" stroke-linejoin="round" stroke-miterlimit="4" stroke-dasharray="none" stroke-opacity="1" /><path d="M 43.733 23.027 C 43.733 19.929 59.563 17.391 79.072 17.391 C 98.6 17.391 114.41 19.929 114.41 23.027 C 114.41 26.145 98.6 28.664 79.072 28.664 C 59.564 28.664 43.733 26.145 43.733 23.027 M 79.212 40.637 C 63.102 40.637 49.41 38.917 40.535 36.339 L 42.155 146.033 C 42.155 146.033 61.482 254.867 63.102 256.586 C 66.32 260.863 71.956 264.281 79.212 264.281 C 85.648 264.281 92.084 260.863 95.322 256.586 C 96.122 254.866 115.45 146.033 115.45 146.033 L 117.049 36.339 C 109.014 38.918 95.322 40.637 79.212 40.637" fill="none" stroke="#333" stroke-width=".79951543px" stroke-linecap="round" stroke-linejoin="round" stroke-miterlimit="4" stroke-dasharray="none" stroke-opacity="1" /><path clip-path="url(#a)" d="M 10.094 32.182 L 33.499 32.182 L 33.499 28.724 C 32.699 28.724 32.699 27.864 32.699 27.864 L 10.095 27.864 C 6.857 27.864 7.656 22.688 10.095 22.688 L 33.499 22.688 L 33.499 19.23 C 32.699 19.23 32.699 18.35 32.699 18.35 L 10.095 18.35 C 2 18.35 2 32.182 10.095 32.182 Z" fill="#ed66b1" fill-rule="evenodd" fill-opacity="1" stroke="none" /><path clip-path="url(#a)" d="M 10.094 32.182 L 33.499 32.182 L 33.499 28.724 C 32.699 28.724 32.699 27.864 32.699 27.864 L 10.095 27.864 C 6.857 27.864 7.656 22.688 10.095 22.688 L 33.499 22.688 L 33.499 19.23 C 32.699 19.23 32.699 18.35 32.699 18.35 L 10.095 18.35 C 2 18.35 2 32.182 10.095 32.182" fill="none" stroke="#333" stroke-width=".79951543px" stroke-linecap="round" stroke-linejoin="round" stroke-miterlimit="4" stroke-dasharray="none" stroke-opacity="1" /><path d="M 10.154 18.47 L 32.539 18.47 L 32.539 16.751 L 10.953 16.751 C 7.755 16.751 6.156 17.611 5.357 19.31 C 4.557 21.029 4.557 24.427 4.557 24.427 C 4.557 21.029 6.956 18.47 10.154 18.47 Z" fill="#f9cfe6" fill-rule="evenodd" fill-opacity="1" stroke="none" /><path d="M 10.014 22.508 C 7.615 22.508 6.796 27.705 10.014 27.705 L 32.539 27.705 L 32.539 25.985 L 10.833 25.985 C 9.214 25.985 9.214 25.106 9.214 24.247 C 9.214 23.387 9.214 22.507 10.014 22.507 Z" fill="#f9cfe6" fill-rule="evenodd" fill-opacity="1" stroke="none" /><path d="M 10.154 18.47 L 32.539 18.47 C 32.539 18.47 32.539 18.47 32.539 18.47 L 32.539 16.751 C 32.539 16.751 32.539 16.751 32.539 16.751 L 10.953 16.751 C 10.953 16.751 10.953 16.751 10.953 16.751 C 7.755 16.751 6.156 17.611 5.357 19.31 C 4.557 21.029 4.557 24.427 4.557 24.427 C 4.557 21.029 6.956 18.47 10.154 18.47" fill="none" stroke="#333" stroke-width=".47970927px" stroke-linecap="round" stroke-linejoin="round" stroke-miterlimit="4" stroke-dasharray="none" stroke-opacity="1" /><path d="M 10.014 22.508 C 10.014 22.508 10.014 22.508 10.014 22.508 C 10.014 22.508 10.014 22.508 10.014 22.508 C 7.615 22.508 6.796 27.705 10.014 27.705 L 32.539 27.705 C 32.539 27.705 32.539 27.705 32.539 27.705 L 32.539 25.985 C 32.539 25.985 32.539 25.985 32.539 25.985 L 10.833 25.985 C 9.214 25.985 9.214 25.106 9.214 24.247 C 9.214 23.387 9.214 22.507 10.014 22.507" fill="none" stroke="#333" stroke-width=".47970927px" stroke-linecap="round" stroke-linejoin="round" stroke-miterlimit="4" stroke-dasharray="none" stroke-opacity="1" /><path d="M 32.54 13.193 C 32.54 7.537 53.407 2.92 79.112 2.92 C 104.836 2.92 125.684 7.537 125.684 13.193 C 125.684 18.87 104.836 23.467 79.112 23.467 C 53.407 23.467 32.54 18.87 32.54 13.193 Z" fill="#f9cfe6" fill-rule="evenodd" fill-opacity="1" stroke="none" /><path d="M 79.192 8.036 C 61.582 8.036 47.971 10.615 47.971 13.193 L 47.971 20.909 C 55.986 22.628 67.199 23.467 79.191 23.467 C 91.204 23.467 103.217 22.627 111.212 20.909 L 111.212 13.193 C 111.212 10.615 96.822 8.036 79.192 8.036 Z" fill="#f6b0d7" fill-rule="evenodd" fill-opacity="1" stroke="none" /><path d="M 32.54 20.949 C 32.54 26.085 53.427 31.222 79.112 31.222 C 104.816 31.222 125.684 26.085 125.684 20.949 L 125.684 13.233 C 125.684 19.23 104.816 23.527 79.112 23.527 C 53.427 23.527 32.54 19.23 32.54 13.233 L 32.54 20.949 Z" fill="#ed66b1" fill-rule="evenodd" fill-opacity="1" stroke="none" /><path d="M 38.297 26.165 C 43.074 27.905 49.45 28.764 56.605 29.623 L 56.605 22.688 C 49.45 21.828 43.074 20.089 38.297 18.35 L 38.297 26.165 Z" fill="#f293c8" fill-rule="evenodd" fill-opacity="1" stroke="none" /><path d="M 50.209 28.764 C 51.049 28.764 52.708 29.624 54.367 29.624 L 54.367 21.868 L 50.209 21.868 L 50.209 28.764 Z" fill="#fff" fill-rule="evenodd" fill-opacity="1" stroke="none" /><path d="M 121.846 16.751 C 120.226 17.611 117.808 18.471 115.37 19.33 L 115.37 27.065 C 117.808 26.205 120.227 25.345 121.846 24.486 L 121.846 16.751 Z" fill="#056498" fill-rule="evenodd" fill-opacity="1" stroke="none" /><path d="M 59.024 13.233 C 63.841 12.433 70.277 11.634 79.112 11.634 C 87.966 11.634 94.402 12.434 99.22 12.434 C 100.02 13.234 100.02 13.234 99.22 14.033 C 94.403 14.033 87.966 14.833 79.112 14.833 C 71.077 14.833 63.842 14.033 59.024 13.233 C 58.204 13.233 58.204 13.233 59.024 13.233 Z" fill="#ed66b1" fill-rule="evenodd" fill-opacity="1" stroke="none" /><path d="M 67.239 30.263 L 67.239 23.387 C 64.82 23.387 63.201 22.507 60.763 22.507 L 60.763 30.263 L 67.239 30.263 Z" fill="#f8c8e3" fill-rule="evenodd" fill-opacity="1" stroke="none" /><path d="M 41.495 19.31 L 41.495 27.065 L 43.733 27.065 L 43.733 20.929 L 41.495 19.309 Z" fill="#fff" fill-rule="evenodd" fill-opacity="1" stroke="none" /><path d="M 100.979 21.868 L 100.979 29.623 C 115.429 27.904 125.044 24.466 125.044 21.009 L 125.044 13.233 C 125.044 17.551 115.43 20.149 100.979 21.868 Z" fill="#e6268f" fill-rule="evenodd" fill-opacity="1" stroke="none" /><path d="M 110.573 21.888 L 110.573 27.705 L 116.089 27.065 L 116.089 19.949 L 110.573 21.888 Z" fill="#a0015a" fill-rule="evenodd" fill-opacity="1" stroke="none" /><path d="M 111.212 13.233 C 111.212 10.635 96.822 8.036 79.192 8.036 C 61.582 8.036 47.971 10.635 47.971 13.233" fill="none" stroke="#fff" stroke-width=".47970927px" stroke-linecap="round" stroke-linejoin="round" stroke-miterlimit="4" stroke-dasharray="none" stroke-opacity="1" /><path d="M 47.971 12.274 C 47.971 15.692 61.582 17.391 79.191 17.391 C 96.821 17.391 111.212 15.691 111.212 12.274" fill="none" stroke="#fff" stroke-width=".47970927px" stroke-linecap="round" stroke-linejoin="round" stroke-miterlimit="4" stroke-dasharray="none" stroke-opacity="1" /><path d="M 32.54 13.193 C 32.54 7.537 53.407 2.92 79.112 2.92 C 104.836 2.92 125.684 7.537 125.684 13.193 C 125.684 18.87 104.836 23.467 79.112 23.467 C 53.407 23.467 32.54 18.87 32.54 13.193" fill="none" stroke="#333" stroke-width=".79951543px" stroke-linecap="round" stroke-linejoin="round" stroke-miterlimit="4" stroke-dasharray="none" stroke-opacity="1" /><path d="M 115.409 15.832 C 112.212 21.049 92.963 21.908 79.312 21.908 C 65.68 21.908 50.429 21.048 44.812 17.571" fill="none" stroke="#f9cfe6" stroke-width="1.6789824px" stroke-linecap="butt" stroke-linejoin="miter" stroke-miterlimit="8" stroke-dasharray="none" stroke-opacity="1" /><path d="M 32.54 20.949 C 32.54 26.085 53.427 31.222 79.112 31.222 C 104.816 31.222 125.684 26.085 125.684 20.949 L 125.684 13.233 C 125.684 19.23 104.816 23.527 79.112 23.527 C 53.427 23.527 32.54 19.23 32.54 13.233 L 32.54 20.949 Z" fill="none" stroke="#333" stroke-width=".79951543px" stroke-linecap="round" stroke-linejoin="round" stroke-miterlimit="10" stroke-dasharray="none" stroke-opacity="1" /><path clip-path="url(#a)" d="M 153.807 15.792 L 124.085 15.792 L 124.085 23.467 L 153.807 23.467 C 159.423 23.467 159.423 15.792 153.807 15.792 Z" fill="#ed66b1" fill-rule="evenodd" fill-opacity="1" stroke="none" /><path d="M 157.824 14.013 C 157.824 12.313 156.225 10.595 153.827 10.595 L 124.085 10.595 C 124.904 11.455 125.704 12.314 125.704 13.153 C 125.704 14.013 124.904 14.853 124.084 15.712 L 153.827 15.712 C 156.225 15.712 157.824 17.411 157.824 19.949 L 157.824 14.013 Z" fill="#f4a5d1" fill-rule="evenodd" fill-opacity="1" stroke="none" /><path clip-path="url(#a)" d="M 153.807 15.792 L 124.085 15.792 L 124.085 23.467 L 153.807 23.467 C 159.423 23.467 159.423 15.792 153.807 15.792" fill="none" stroke="#333" stroke-width=".79951543px" stroke-linecap="round" stroke-linejoin="round" stroke-miterlimit="10" stroke-dasharray="none" stroke-opacity="1" /><path d="M 157.824 14.013 C 157.824 12.313 156.225 10.595 153.827 10.595 C 153.827 10.595 153.827 10.595 153.827 10.595 L 124.085 10.595 C 124.904 11.455 125.704 12.314 125.704 13.153 C 125.704 14.013 124.904 14.853 124.084 15.712 L 153.827 15.712 C 156.225 15.712 157.824 17.411 157.824 19.949 L 157.824 14.013 Z" fill="none" stroke="#333" stroke-width=".79951543px" stroke-linecap="round" stroke-linejoin="round" stroke-miterlimit="10" stroke-dasharray="none" stroke-opacity="1" /><path d="M 31.9 30.223 C 31.9 35.36 52.788 40.497 78.472 40.497 C 104.177 40.497 125.044 35.36 125.044 30.223 L 125.044 22.508 C 125.044 28.504 104.177 32.801 78.472 32.801 C 52.788 32.801 31.9 28.504 31.9 22.508 L 31.9 30.223 Z" fill="#ed66b1" fill-rule="evenodd" fill-opacity="1" stroke="none" /><path d="M 90.345 39.857 C 110.533 38.997 125.044 34.66 125.044 30.323 L 125.044 22.508 C 125.044 27.725 110.533 31.182 90.345 32.921 C 91.165 35.52 91.165 38.138 90.345 39.857 Z" fill="#e6268f" fill-rule="evenodd" fill-opacity="1" stroke="none" /><path d="M 38.297 35.5 C 43.074 37.199 49.45 38.058 56.605 38.898 L 56.605 32.082 C 49.45 31.222 43.074 29.523 38.297 28.664 L 38.297 35.5 Z" fill="#f293c8" fill-rule="evenodd" fill-opacity="1" stroke="none" /><path d="M 50.209 38.058 C 51.049 38.898 52.708 38.898 54.367 38.898 L 54.367 32.082 C 52.707 31.222 51.049 31.222 50.209 31.222 L 50.209 38.058 Z" fill="#f8c8e3" fill-rule="evenodd" fill-opacity="1" stroke="none" /><path d="M 121.846 26.026 C 120.226 27.744 117.808 28.604 115.37 29.463 L 115.37 36.339 C 117.808 35.479 120.227 34.62 121.846 33.761 L 121.846 26.026 Z" fill="#a0015a" fill-rule="evenodd" fill-opacity="1" stroke="none" /><path d="M 31.9 30.223 C 31.9 35.36 52.788 40.497 78.472 40.497 C 104.177 40.497 125.044 35.36 125.044 30.223 L 125.044 22.508 C 125.044 28.504 104.177 32.801 78.472 32.801 C 52.788 32.801 31.9 28.504 31.9 22.508 L 31.9 30.223 Z" fill="none" stroke="#333" stroke-width=".79951543px" stroke-linecap="round" stroke-linejoin="round" stroke-miterlimit="10" stroke-dasharray="none" stroke-opacity="1" /><path d="M 104.836 8.036 C 110.473 9.756 112.891 11.474 112.891 13.193 C 112.891 15.772 104.836 18.35 101.618 18.35 C 110.473 17.49 116.089 15.772 116.089 13.193 C 115.289 9.755 109.673 8.896 104.836 8.036 Z M 129.841 12.274 L 153.027 12.274 C 155.426 12.274 156.225 14.193 156.225 14.193 Z" fill="#fff" fill-rule="evenodd" fill-opacity="1" stroke="none" /><rect id="anchor_liquid_bounds" x="6.239" y="7.16" width="146.51" height="253.35700000000003" fill="none" stroke="none" display="none" /></svg>