<svg xmlns="http://www.w3.org/2000/svg" width="463.8" height="532.969" viewBox="0 0 463.8 532.969" xml:space="preserve"><linearGradient id="a" gradientUnits="userSpaceOnUse" x1="87.465" y1="616.613" x2="534.102" y2="454.05" gradientTransform="translate(-73.617 -254.014)"><stop offset="0" stop-color="#7f97ff" /><stop offset="1" stop-color="#00008b" /></linearGradient><path fill="url(#a)" stroke="#000" stroke-width=".891" d="M 13.584 315.273 C 13.584 315.273 17.148 309.925 22.495 304.579 C 22.495 304.579 56.356 233.292 68.831 226.164 C 68.831 226.164 77.742 223.49 82.197 216.361 L 231.009 137.946 L 442.197 175.371 C 442.197 175.371 446.652 181.609 447.543 185.174 L 451.107 185.174 C 455.563 186.065 457.345 191.411 457.345 191.411 C 457.345 191.411 460.018 229.727 460.909 252.896 C 461.8 276.064 456.453 273.391 456.453 273.391 C 456.453 273.391 298.732 393.687 282.692 407.944 C 266.652 422.201 248.832 412.399 248.832 412.399 L 13.584 350.024 C 2 346.46 9.128 334.876 9.128 334.876 C 9.128 334.876 14.475 310.816 13.584 315.272" /><path fill="#5e5e5e" stroke="#000" stroke-width=".904" d="M 447.346 157.313 L 302.296 252.896 L 40.259 191.997 L 199.283 111.278 Z" /><linearGradient id="b" gradientUnits="userSpaceOnUse" x1="80.576" y1="554.339" x2="534.626" y2="554.339" gradientTransform="translate(-73.617 -254.014)"><stop offset="0" stop-color="#7f97ff" /><stop offset="1" stop-color="#00008b" /></linearGradient><path fill="url(#b)" stroke="#000" stroke-width=".891" d="M 13.584 350.024 L 248.831 412.4 C 248.831 412.4 266.651 422.202 282.691 407.945 C 298.731 393.687 456.453 273.391 456.453 273.391 C 456.453 273.391 461.8 276.064 460.909 252.896 C 460.017 229.727 457.345 191.411 457.345 191.411 C 457.345 191.411 455.563 186.064 451.107 185.174 C 446.652 184.282 456.454 186.065 451.107 194.976 L 445.761 203.887 L 365.563 286.758 L 278.237 387.449 C 278.237 387.449 272 396.36 240.811 384.776 C 209.623 373.191 20.713 324.181 20.713 324.181 C 20.713 324.181 12.693 319.726 13.585 315.271 C 14.476 310.815 9.129 334.875 9.129 334.875 C 9.129 334.875 2 346.459 13.584 350.024 Z" /><linearGradient id="c" gradientUnits="userSpaceOnUse" x1="274.111" y1="381.486" x2="521.506" y2="381.486" gradientTransform="translate(-73.617 -254.014)"><stop offset="0" stop-color="#fff" /><stop offset="1" stop-color="#6e6e6e" /></linearGradient><path fill="url(#c)" stroke="#000" stroke-width=".814" d="M 201.064 113.951 L 447.346 157.312 L 447.889 146.998 C 447.889 146.998 446.851 139.898 441 140.063 C 435.15 140.23 231.653 102.436 231.653 102.436 L 205.586 97.631 C 205.586 97.631 201.473 98.887 200.749 102.869 C 200.027 106.851 201.064 113.951 201.064 113.951 Z" /><linearGradient id="d" gradientUnits="userSpaceOnUse" x1="375.913" y1="453.714" x2="521.061" y2="453.714" gradientTransform="translate(-73.617 -254.014)"><stop offset="0" stop-color="#fff" /><stop offset="1" stop-color="#6e6e6e" /></linearGradient><path fill="url(#d)" stroke="#000" stroke-width=".891" d="M 446.652 160.223 L 302.296 252.896 L 302.296 241.313 C 302.296 241.313 304.078 234.184 308.533 231.51 C 312.988 228.837 441.304 146.857 441.304 146.857 C 441.304 146.857 444.868 145.075 446.651 149.53 C 448.434 153.985 446.652 160.223 446.652 160.223 Z" /><linearGradient id="e" gradientUnits="userSpaceOnUse" x1="113.876" y1="399.599" x2="274.385" y2="399.599" gradientTransform="translate(-73.617 -254.014)"><stop offset="0" stop-color="#fff" /><stop offset="1" stop-color="#6e6e6e" /></linearGradient><path fill="url(#e)" stroke="#000" stroke-width=".913" d="M 199.169 114.357 L 40.259 191.107 L 41.577 179.421 C 41.577 179.421 44.22 172.437 49.103 170.256 C 53.986 168.075 195.194 100.255 195.194 100.255 C 195.194 100.255 199.061 98.87 200.385 103.571 C 201.71 108.272 199.169 114.357 199.169 114.357 Z" /><linearGradient id="f" gradientUnits="userSpaceOnUse" x1="113.15" y1="560.39" x2="350.383" y2="560.39" gradientTransform="translate(-73.617 -254.014)"><stop offset="0" stop-color="#fff" /><stop offset="1" stop-color="#e0e0e0" /></linearGradient><path fill="url(#f)" stroke="#000" stroke-width=".891" d="M 254.533 360.488 C 253.476 364.538 249.536 367.016 245.731 366.024 L 44.771 312.055 C 40.966 311.062 38.739 306.975 39.795 302.927 L 63.548 252.263 C 64.604 248.214 68.545 245.735 72.349 246.728 L 271.527 294.458 C 275.332 295.45 277.56 299.538 276.504 303.586 Z" /><g transform="translate(-73.617 -254.014)"><path opacity=".61" fill="#d2d2d3" d="M 372.492 427.355 C 372.492 427.355 364.951 417.803 326.742 417.3 C 288.533 416.798 278.982 425.847 278.982 425.847 C 278.982 425.847 299.091 419.31 326.239 419.31 C 353.387 419.31 372.492 427.355 372.492 427.355 Z" /><path opacity=".85" fill="#fff" d="M 300.096 417.803 C 300.096 417.803 326.239 415.792 341.824 417.803 C 357.41 419.814 362.939 422.328 362.939 422.328 C 362.939 422.328 353.387 413.781 326.239 414.284 C 299.091 414.787 300.096 417.803 300.096 417.803 Z" /><path fill="#fff" d="M 288.031 425.847 C 288.031 425.847 284.009 427.355 286.02 429.366 C 288.031 431.377 294.064 436.405 297.081 436.405 C 300.098 436.405 289.036 433.388 288.534 428.864 C 288.031 424.339 288.031 425.847 288.031 425.847 Z" /><path opacity=".76" fill="#fff" d="M 308.894 427.607 L 320.96 426.098 C 320.96 426.098 334.534 425.343 345.091 427.607 C 345.091 427.607 338.304 423.081 326.993 423.081 C 315.681 423.081 308.894 427.607 308.894 427.607 Z" /><path fill="#ecf5ec" d="M 366.67 385.266 C 366.855 384.931 366.96 384.591 366.96 384.245 C 366.96 379.454 348.729 375.573 326.238 375.573 C 303.747 375.573 285.516 379.455 285.516 384.245 L 284.762 384.245 C 284.762 384.245 267.156 416.049 279.724 430.585 C 286.251 438.133 295.823 442.649 326.994 442.649 C 361.181 442.649 369.727 433.594 369.727 433.594 C 369.727 433.594 386.298 428.435 366.67 385.266 Z" opacity=".6" /><ellipse opacity=".67" fill="#f9fbf8" stroke="#e5e4d7" stroke-width=".754" cx="325.484" cy="384.245" rx="40.722" ry="8.671" /><path fill="#b6ccd9" d="M 374.754 406.497 L 344.087 306.201 L 344.087 268.243 C 344.087 268.243 340.013 272.014 329.513 272.014 C 319.013 272.014 311.91 267.238 311.91 267.238 L 311.91 306.954 L 276.216 405.994 C 276.216 405.994 271.691 424.094 279.232 430.629 C 286.773 437.164 297.332 442.695 328.502 442.695 C 362.689 442.695 371.235 432.639 371.235 432.639 C 371.235 432.639 380.284 427.613 374.754 406.497 Z" opacity=".19" /><path opacity=".85" fill="#fff" d="M 312.664 270.75 L 314.172 307.2 C 314.172 307.2 277.473 407.246 277.473 412.776 C 277.473 418.305 280.489 422.83 280.489 422.83 C 280.489 422.83 278.981 420.316 280.489 411.769 C 281.997 403.223 316.686 308.205 316.686 308.205 L 316.434 270.75 Z" /><path opacity=".31" fill="#d2d2d3" d="M 339.813 272.51 L 339.785 273.515 L 338.808 309.21 L 366.96 416.797 C 366.96 416.797 369.475 421.321 365.955 423.332 C 362.435 425.343 358.917 431.376 358.917 431.376 C 358.917 431.376 367.965 432.382 369.978 428.36 C 371.989 424.339 381.54 430.37 354.895 350.937 L 341.824 306.696 L 342.327 270.498 L 339.311 271 Z" /><path fill="none" stroke="#231815" stroke-width=".754" d="M 343.835 268.488 L 343.835 306.446 L 374.501 406.743 C 380.032 427.858 370.983 432.884 370.983 432.884 C 370.983 432.884 362.435 442.94 328.249 442.94 C 297.08 442.94 285.843 438.12 278.981 430.875 C 269.932 421.323 275.964 406.241 275.964 406.241 L 311.659 307.201 L 311.659 268.483" /><path opacity=".19" fill="#b6ccd9" d="M 346.398 264.534 C 346.398 268.963 341.481 272.554 328.685 272.554 C 315.89 272.554 308.081 268.964 308.081 264.534 C 308.081 260.104 314.89 256.514 327.685 256.514 C 340.481 256.514 346.398 260.105 346.398 264.534 Z" /><ellipse fill="none" stroke="#000" stroke-width=".904" cx="327.685" cy="262.307" rx="14.257" ry="3.119" /></g><linearGradient id="g" gradientUnits="userSpaceOnUse" x1="154.924" y1="502.455" x2="378.586" y2="502.455"><stop offset="0" stop-color="#fff" /><stop offset="1" stop-color="#6e6e6e" /></linearGradient><path opacity=".23" fill="url(#g)" stroke="#000" stroke-width=".891" transform="translate(-73.617 -254.014)" d="M 377.696 524.731 L 159.379 473.939 L 154.924 479.286 L 378.586 530.969 Z" /><path opacity=".42" fill="#5e5e5e" d="M 304.079 275.173 L 81.307 224.381 L 73.287 227.054 L 301.405 279.628 Z" /><linearGradient id="h" gradientUnits="userSpaceOnUse" x1="350.962" y1="565.286" x2="457.893" y2="565.286" gradientTransform="translate(-73.617 -254.014)"><stop offset="0" stop-color="#fff" /><stop offset="1" stop-color="#6e6e6e" /></linearGradient><path opacity=".12" fill="url(#h)" stroke="#000" stroke-width=".891" d="M 277.345 371.41 C 277.345 371.41 291.603 319.726 304.078 292.103 L 384.275 251.113 C 384.276 251.113 280.019 373.192 277.345 371.41 Z" /><linearGradient id="i" gradientUnits="userSpaceOnUse" x1="393.735" y1="479.731" x2="513.14" y2="479.731" gradientTransform="translate(-73.617 -254.014)"><stop offset="0" stop-color="#fff" /><stop offset="1" stop-color="#6e6e6e" /></linearGradient><path opacity=".23" fill="url(#i)" stroke="#000" stroke-width=".891" d="M 320.118 267.153 L 322.941 265.193 L 439.523 184.281 C 439.523 184.281 408.335 214.578 399.424 224.381 Z" /><path fill="#474747" stroke="#000" stroke-width=".904" d="M 167.723 292.21 L 219.444 305.426 L 209.951 327.269 L 158.23 313.162 Z" /><path fill="none" stroke="#000" stroke-width=".884" d="M 165.56 287.883 L 223.91 302.793 L 212.308 330.999 L 153.959 315.084 Z" /><ellipse fill="#727272" stroke="#000" stroke-width=".884" cx="170.861" cy="334.875" rx="5.792" ry="4.455" /><ellipse fill="none" stroke="#000" stroke-width=".884" cx="153.039" cy="330.42" rx="5.792" ry="4.455" /><ellipse fill="#727272" stroke="#000" stroke-width=".884" cx="186.455" cy="339.33" rx="5.792" ry="4.456" /><ellipse fill="#727272" stroke="#000" stroke-width=".884" cx="201.603" cy="342.895" rx="5.792" ry="4.456" /><linearGradient id="j" gradientUnits="userSpaceOnUse" x1="111.756" y1="468.416" x2="375.913" y2="468.416" gradientTransform="translate(-73.617 -254.014)"><stop offset="0" stop-color="#fff" /><stop offset="1" stop-color="#6e6e6e" /></linearGradient><path fill="url(#j)" stroke="#000" stroke-width=".891" d="M 38.535 192.302 L 301.405 252.004 L 302.297 240.42 C 302.297 240.42 301.405 232.4 295.168 232.4 C 288.931 232.4 73.288 183.39 73.288 183.39 L 45.664 177.153 C 45.664 177.153 39.426 175.37 38.535 179.826 C 37.644 184.281 38.535 192.302 38.535 192.302 Z" /><path opacity=".42" fill="#5e5e5e" d="M 272 412.4 C 272 412.4 265.762 413.292 262.197 412.4 L 263.98 394.579 L 276.455 392.797 L 437.741 218.144 L 278.237 399.034 Z" /><path opacity=".42" fill="#5e5e5e" d="M 275.563 382.994 C 275.563 382.994 272.89 386.558 266.652 386.558 L 262.197 380.32 C 262.197 380.32 290.712 300.123 298.732 289.43 C 298.732 289.43 303.187 283.192 312.098 280.518 C 321.009 277.845 366.454 253.786 366.454 253.786 L 304.078 290.321 C 304.079 290.321 263.98 378.538 275.563 382.994 Z M 401.207 227.054 L 389.623 228.836 L 443.087 181.609 Z" /><linearGradient id="k" gradientUnits="userSpaceOnUse" x1="336.003" y1="586.568" x2="368.974" y2="586.568" gradientTransform="matrix(1 .0092 -.0092 1 -68.423 -257.07)"><stop offset="0" stop-color="#fff" /><stop offset="1" stop-color="#6e6e6e" /></linearGradient><path opacity=".23" fill="url(#k)" stroke="#000" stroke-width=".891" d="M 261.809 374.821 C 261.809 374.821 278.413 313.485 295.555 290.473 C 295.555 290.473 285.558 311.769 281.87 325.101 C 278.183 338.436 261.809 374.821 261.809 374.821 Z" /><path opacity=".42" fill="#5e5e5e" d="M 33.853 302.671 C 33.853 302.671 35.061 299.908 36.95 295.615 A 3792.013 3792.013 0 0 1 44.907 277.637 C 50.938 264.103 57.465 249.705 58.895 247.515 L 61.689 243.237 C 61.689 243.237 66.388 241.851 68.761 241.752 C 71.136 241.652 63.395 241.382 56.893 256.518 Z" /><path fill="none" stroke="#231815" stroke-width=".754" d="M 273.281 10.02 C 273.281 14.45 267.364 18.04 254.568 18.04 C 241.773 18.04 234.964 14.45 234.964 10.02 C 234.964 5.59 241.773 2 254.568 2 C 267.364 2 273.281 5.591 273.281 10.02 Z" /></svg>