<svg xmlns="http://www.w3.org/2000/svg" version="1.0" viewBox="0 0 119.931 415.75"><defs><clipPath id="anchor_liquid_clip"><rect id="anchor_liquid_bounds" x="6.24" y="6.24" width="107.921" height="403.594" /></clipPath></defs><path d="M 22.467 4.598 C 22.467 3.178 36.778 2 54.407 2 C 72.057 2 86.348 3.179 86.348 4.598 C 86.348 6.038 72.058 7.196 54.408 7.196 C 36.778 7.196 22.468 6.037 22.468 4.598 Z" fill="#a1dcea" fill-rule="evenodd" fill-opacity="1" stroke="none" /><path d="M 25.345 5.557 C 30.142 6.377 41.455 7.197 54.088 7.197 C 67.14 7.197 78.453 6.377 83.23 5.557 C 78.453 4.737 67.14 4.318 54.088 4.318 C 41.456 4.318 30.142 4.738 25.345 5.558 Z" fill="#50bdd8" fill-rule="evenodd" fill-opacity="1" stroke="none" /><path d="M 86.348 388.545 L 86.348 4.718 C 86.348 6.038 72.018 7.336 54.188 7.336 C 38.098 7.336 24.606 6.037 22.867 5.158 C 25.046 9.935 31.582 21.668 34.62 27.744 L 34.62 388.545 C 34.62 390.285 46.353 392.003 60.264 392.003 C 74.616 392.003 86.348 390.284 86.348 388.545 Z" fill="#d9f1f7" fill-rule="evenodd" fill-opacity="1" stroke="none" /><path d="M 34.62 388.525 C 34.62 386.606 46.213 385.047 60.484 385.047 C 74.775 385.047 86.348 386.607 86.348 388.525 C 86.348 390.465 74.775 392.003 60.484 392.003 C 46.213 392.003 34.62 390.464 34.62 388.525 Z" fill="#bae5f0" fill-rule="evenodd" fill-opacity="1" stroke="none" /><path d="M 117.51 397.26 C 117.51 397.26 106.216 389.445 103.618 388.146 C 101.439 386.846 91.885 383.808 86.248 382.929 L 86.248 388.585 C 86.248 390.305 74.516 392.043 60.184 392.043 C 46.293 392.043 34.58 390.304 34.58 388.585 L 34.58 382.489 C 28.923 383.809 18.07 386.846 15.911 388.146 C 13.732 389.445 2 397.26 2 397.26 L 2 402.897 C 2 402.897 2 403.776 2.44 404.216 C 5.917 405.515 22.407 411.591 28.064 413.33 C 28.924 413.75 30.662 413.75 30.662 413.75 L 88.847 413.75 C 88.847 413.75 90.586 413.75 91.445 413.33 C 97.102 411.591 113.592 405.515 117.07 404.216 C 117.93 403.776 117.93 402.896 117.93 402.896 L 117.51 397.26 Z" fill="#e6f6f9" fill-rule="evenodd" fill-opacity="1" stroke="none" /><path d="M 117.93 402.877 L 117.51 397.2 C 117.51 397.2 107.516 397.2 103.618 398.959 C 99.7 400.698 93.624 402.877 90.146 406.354 C 87.108 404.616 65.841 403.316 59.765 403.316 C 53.668 403.316 32.401 404.616 29.363 406.354 C 25.885 402.877 19.809 400.698 15.911 398.959 C 11.993 397.2 2.44 397.2 2.44 397.2 L 2 397.2 L 2 402.877 C 2 402.877 2 403.737 2.44 404.176 C 5.918 405.475 22.408 411.591 28.065 413.33 C 28.925 413.75 30.663 413.75 30.663 413.75 L 88.848 413.75 C 88.848 413.75 90.587 413.75 91.446 413.33 C 97.103 411.591 113.593 405.475 117.071 404.176 C 117.931 403.736 117.931 402.876 117.931 402.876 Z" fill="#a2dcea" fill-rule="evenodd" fill-opacity="1" stroke="none" /><path d="M 90.186 413.75 C 90.626 413.75 91.066 413.75 91.506 413.33 C 97.122 411.591 113.612 405.475 117.07 404.176 C 117.93 403.736 117.93 402.876 117.93 402.876 L 117.51 397.2 C 117.51 397.2 107.536 397.2 103.638 398.959 C 99.74 400.698 93.664 402.437 90.186 406.354 L 90.186 413.75 Z" fill="#77cce0" fill-rule="evenodd" fill-opacity="1" stroke="none" /><path d="M 29.823 406.354 L 29.403 406.354 C 25.925 402.877 19.829 400.698 15.911 398.959 C 12.013 397.2 2.44 397.2 2.44 397.2 L 2 397.2 L 2 402.877 C 2 402.877 2 403.737 2.44 404.176 C 5.918 405.475 22.448 411.591 28.085 413.33 C 28.525 413.75 29.404 413.75 29.824 413.75 L 29.824 406.354 Z" fill="#bde6f0" fill-rule="evenodd" fill-opacity="1" stroke="none" /><path d="M 83.63 8.556 L 83.63 382.409 C 83.63 388.066 75.415 388.485 58.525 388.485 C 69.798 386.327 72.377 372.855 74.115 351.148 C 75.416 329 83.63 8.556 83.63 8.556 Z" fill="#b0e2ed" fill-rule="evenodd" fill-opacity="1" stroke="none" /><path d="M 80.552 276.053 C 81.412 215.27 82.271 147.112 82.271 147.112 L 82.271 382.409 C 82.271 385.887 71.477 390.644 53.328 388.046 C 61.983 388.925 78.393 385.447 79.253 375.453 C 79.693 370.676 79.693 326.403 80.552 276.053 Z" fill="#79cde1" fill-rule="evenodd" fill-opacity="1" stroke="none" /><path d="M 26.305 8.156 L 33.261 21.108 L 33.261 8.556 L 26.305 8.156 Z M 51.01 9.135 C 63.642 9.135 78.013 10.015 83.23 7.836 L 83.23 36.778 C 82.81 22.967 77.574 14.332 69.299 13.033 C 61.024 11.293 53.629 10.015 51.009 9.135 Z" fill="#b0e2ed" fill-rule="evenodd" fill-opacity="1" stroke="none" /><path d="M 87.468 390.644 C 83.13 394.122 68.379 395.001 57.966 394.562 C 67.08 397.6 84.45 395.442 87.468 390.644 Z M 10.315 394.082 C 12.493 392.363 16.851 389.365 19.009 388.505 C 21.188 387.645 31.182 385.047 31.182 385.047 Z" fill="#fff" fill-rule="evenodd" fill-opacity="1" stroke="none" /><path d="M 31.901 407.194 C 37.558 405.914 68.439 403.756 81.471 407.194 Z" fill="#e6f6f9" fill-rule="evenodd" fill-opacity="1" stroke="none" /><path d="M 6.877 399.339 C 11.614 398.879 18.51 400.219 24.946 405.115 Z" fill="#f2fafc" fill-rule="evenodd" fill-opacity="1" stroke="none" /><path d="M 92.665 406.235 C 95.723 403.236 107.055 397.2 114.891 398.939 Z" fill="#b3e3ee" fill-rule="evenodd" fill-opacity="1" stroke="none" /><path d="M 87.108 384.248 C 89.726 384.688 100.6 387.286 103.218 389.005 C 105.837 390.724 114.092 396.341 114.092 396.341 C 110.614 395.481 105.397 396.341 104.098 397.2 C 104.518 395.041 98.001 390.304 97.562 389.864 C 97.122 389.444 86.668 387.706 86.668 387.706 Z" fill="#c4e9f2" fill-rule="evenodd" fill-opacity="1" stroke="none" /><path d="M 112.233 402.917 C 108.775 405.075 102.699 408.113 96.183 410.712 L 116.57 402.917 L 116.57 398.559 C 116.57 398.559 116.15 400.299 112.233 402.917 Z" fill="#55bfd9" fill-rule="evenodd" fill-opacity="1" stroke="none" /><path d="M 34.62 388.525 C 34.62 386.606 46.213 385.047 60.484 385.047 C 74.775 385.047 86.348 386.607 86.348 388.525 C 86.348 390.465 74.775 392.003 60.484 392.003 C 46.213 392.003 34.62 390.464 34.62 388.525" fill="none" stroke="#fff" stroke-width=".79951543px" stroke-linecap="round" stroke-linejoin="round" stroke-miterlimit="4" stroke-dasharray="none" stroke-opacity="1" /><path d="M 22.467 4.598 C 22.467 3.178 36.778 2 54.407 2 C 72.057 2 86.348 3.179 86.348 4.598 C 86.348 6.038 72.058 7.196 54.408 7.196 C 36.778 7.196 22.468 6.037 22.468 4.598" fill="none" stroke="#333" stroke-width=".79951543px" stroke-linecap="round" stroke-linejoin="round" stroke-miterlimit="4" stroke-dasharray="none" stroke-opacity="1" /><path d="M 86.348 388.545 L 86.348 4.718 C 86.348 6.038 72.018 7.336 54.188 7.336 C 38.098 7.336 24.606 6.037 22.867 5.158 C 25.046 9.935 31.582 21.668 34.62 27.744 L 34.62 388.545 C 34.62 388.545 34.62 388.545 34.62 388.545 C 34.62 390.285 46.353 392.003 60.264 392.003 C 74.616 392.003 86.348 390.284 86.348 388.545 M 34.62 28.064 L 34.78 10.314 M 90.186 406.235 L 90.346 413.75" fill="none" stroke="#333" stroke-width=".79951543px" stroke-linecap="round" stroke-linejoin="round" stroke-miterlimit="4" stroke-dasharray="none" stroke-opacity="1" /><path d="M 34.58 382.489 C 28.923 383.809 18.07 386.846 15.911 388.146 C 13.732 389.445 2 397.26 2 397.26 L 2 402.897 C 2 402.897 2 403.776 2.44 404.216 C 5.917 405.515 22.407 411.591 28.064 413.33 C 28.924 413.75 30.662 413.75 30.662 413.75 L 59.765 413.75 C 59.765 413.75 59.765 413.75 59.765 413.75 L 88.847 413.75 C 88.847 413.75 90.586 413.75 91.445 413.33 C 97.102 411.591 113.592 405.515 117.07 404.216 C 117.93 403.776 117.93 402.896 117.93 402.896 L 117.51 397.26 C 117.51 397.26 106.216 389.445 103.618 388.146 C 101.879 386.846 91.885 384.228 86.248 382.929" fill="none" stroke="#333" stroke-width=".79951543px" stroke-linecap="round" stroke-linejoin="round" stroke-miterlimit="4" stroke-dasharray="none" stroke-opacity="1" /><path d="M 2.4 397.2 C 2.4 397.2 11.973 397.2 15.871 398.939 C 19.789 400.658 25.865 402.797 29.343 406.235 C 32.381 404.515 53.668 403.236 59.765 403.236 C 59.765 403.236 59.765 403.236 59.765 403.236 C 65.841 403.236 87.128 404.516 90.166 406.235 C 93.644 402.797 99.72 400.658 103.638 398.939 C 107.556 397.2 117.53 397.2 117.53 397.2 M 29.423 406.235 L 29.583 413.75" fill="none" stroke="#333" stroke-width=".79951543px" stroke-linecap="round" stroke-linejoin="round" stroke-miterlimit="4" stroke-dasharray="none" stroke-opacity="1" /><path d="M 35.46 10.714 C 34.58 10.714 33.26 11.154 33.7 12.034 C 34.58 12.474 35.899 12.034 36.339 12.913 C 36.339 13.353 35.899 13.793 35.459 14.233 C 34.579 14.672 33.261 13.793 33.7 15.551 C 34.14 16.871 35.46 16.871 36.778 16.871" fill="none" stroke="#d9f1f7" stroke-width=".79951543px" stroke-linecap="butt" stroke-linejoin="miter" stroke-miterlimit="8" stroke-dasharray="none" stroke-opacity="1" /><path d="M 86.348 118.969 C 86.348 119.389 85.029 120.228 82.831 120.648 M 69.838 121.987 C 67.24 122.407 63.762 122.407 60.284 122.407 C 46.373 122.407 34.62 120.667 34.62 118.929 C 34.62 116.77 46.373 115.451 60.284 115.451 C 74.616 115.451 86.348 116.77 86.348 118.929 M 86.348 172.776 C 86.348 173.656 85.029 174.096 82.831 174.535 M 69.838 176.214 L 60.284 176.214 C 46.373 176.214 34.62 174.934 34.62 172.776 C 34.62 171.057 46.373 169.338 60.284 169.338 C 74.616 169.338 86.348 171.058 86.348 172.776 M 86.348 226.583 C 86.348 227.463 85.029 227.903 82.831 228.343" fill="none" stroke="#000" stroke-width=".79951543px" stroke-linecap="round" stroke-linejoin="round" stroke-miterlimit="10" stroke-dasharray="none" stroke-opacity="1" /><path d="M 69.838 230.101 L 60.284 230.101 C 46.373 230.101 34.62 228.802 34.62 226.623 C 34.62 224.884 46.373 223.146 60.284 223.146 C 74.616 223.146 86.348 224.884 86.348 226.623 M 86.348 280.79 C 86.348 281.25 85.029 281.71 82.831 282.15" fill="none" stroke="#000" stroke-width=".79951543px" stroke-linecap="round" stroke-linejoin="round" stroke-miterlimit="10" stroke-dasharray="none" stroke-opacity="1" /><path d="M 69.838 283.889 C 67.24 284.309 63.762 284.309 60.284 284.309 C 46.373 284.309 34.62 282.589 34.62 280.851 C 34.62 278.691 46.373 276.953 60.284 276.953 C 74.616 276.953 86.348 278.692 86.348 280.851 M 86.348 334.678 C 86.348 335.098 85.029 335.938 82.831 336.357 M 69.838 337.696 C 67.24 338.116 63.762 338.116 60.284 338.116 C 46.373 338.116 34.62 336.376 34.62 334.638 C 34.62 332.479 46.373 331.16 60.284 331.16 C 74.616 331.16 86.348 332.48 86.348 334.638" fill="none" stroke="#000" stroke-width=".79951543px" stroke-linecap="round" stroke-linejoin="round" stroke-miterlimit="10" stroke-dasharray="none" stroke-opacity="1" /><path d="M 60.284 127.603 C 46.373 127.603 34.62 126.324 34.62 124.165 M 60.284 133.2 C 46.373 133.2 34.62 131.481 34.62 129.762 M 60.284 138.397 C 46.373 138.397 34.62 137.117 34.62 134.959 M 60.284 143.993 C 46.373 143.993 34.62 142.275 34.62 140.556" fill="none" stroke="#000" stroke-width=".31980619px" stroke-linecap="round" stroke-linejoin="round" stroke-miterlimit="10" stroke-dasharray="none" stroke-opacity="1" /><path d="M 60.284 149.27 C 46.373 149.27 34.62 147.951 34.62 145.752" fill="none" stroke="#000" stroke-width=".79951543px" stroke-linecap="round" stroke-linejoin="round" stroke-miterlimit="10" stroke-dasharray="none" stroke-opacity="1" /><path d="M 60.284 154.867 C 46.373 154.867 34.62 153.108 34.62 151.349 M 60.284 160.064 C 46.373 160.064 34.62 158.304 34.62 156.546 M 60.284 165.82 C 46.373 165.82 34.62 164.021 34.62 161.743 M 60.284 171.017 C 46.373 171.017 34.62 169.298 34.62 167.579 M 60.284 181.81 C 46.373 181.81 34.62 180.092 34.62 178.373 M 60.284 187.087 C 46.373 187.087 34.62 185.328 34.62 183.569 M 60.284 192.684 C 46.373 192.684 34.62 190.945 34.62 188.766 M 60.284 197.88 C 46.373 197.88 34.62 196.122 34.62 194.363" fill="none" stroke="#000" stroke-width=".31980619px" stroke-linecap="round" stroke-linejoin="round" stroke-miterlimit="10" stroke-dasharray="none" stroke-opacity="1" /><path d="M 60.284 203.078 C 46.373 203.078 34.62 201.758 34.62 199.56" fill="none" stroke="#000" stroke-width=".79951543px" stroke-linecap="round" stroke-linejoin="round" stroke-miterlimit="10" stroke-dasharray="none" stroke-opacity="1" /><path d="M 60.284 208.674 C 46.373 208.674 34.62 206.915 34.62 205.156 M 60.284 213.871 C 46.373 213.871 34.62 212.591 34.62 210.433 M 60.284 219.628 C 46.373 219.628 34.62 217.908 34.62 216.19 M 60.284 224.904 C 46.373 224.904 34.62 223.585 34.62 221.387 M 60.284 235.698 C 46.373 235.698 34.62 233.939 34.62 232.18 M 60.284 240.895 C 46.373 240.895 34.62 239.575 34.62 237.377 M 60.284 246.491 C 46.373 246.491 34.62 244.732 34.62 242.973 M 60.284 251.688 C 46.373 251.688 34.62 250.409 34.62 248.25" fill="none" stroke="#000" stroke-width=".31980619px" stroke-linecap="round" stroke-linejoin="round" stroke-miterlimit="10" stroke-dasharray="none" stroke-opacity="1" /><path d="M 60.284 257.445 C 46.373 257.445 34.62 255.725 34.62 254.007" fill="none" stroke="#000" stroke-width=".79951543px" stroke-linecap="round" stroke-linejoin="round" stroke-miterlimit="10" stroke-dasharray="none" stroke-opacity="1" /><path d="M 60.284 262.722 C 46.373 262.722 34.62 260.962 34.62 259.204 M 60.284 268.318 C 46.373 268.318 34.62 266.579 34.62 264.401 M 60.284 273.515 C 46.373 273.515 34.62 271.756 34.62 269.997 M 60.284 278.712 C 46.373 278.712 34.62 277.392 34.62 275.194 M 60.284 289.505 C 46.373 289.505 34.62 288.226 34.62 286.067 M 60.284 295.102 C 46.373 295.102 34.62 293.402 34.62 291.264 M 60.284 300.299 C 46.373 300.299 34.62 298.579 34.62 296.861 M 60.284 305.496 C 46.373 305.496 34.62 304.216 34.62 302.058" fill="none" stroke="#000" stroke-width=".31980619px" stroke-linecap="round" stroke-linejoin="round" stroke-miterlimit="10" stroke-dasharray="none" stroke-opacity="1" /><path d="M 60.284 311.332 C 46.373 311.332 34.62 309.573 34.62 307.814" fill="none" stroke="#000" stroke-width=".79951543px" stroke-linecap="round" stroke-linejoin="round" stroke-miterlimit="10" stroke-dasharray="none" stroke-opacity="1" /><path d="M 60.284 316.529 C 46.373 316.529 34.62 315.209 34.62 313.011 M 60.284 322.126 C 46.373 322.126 34.62 320.366 34.62 318.608 M 60.284 327.322 C 46.373 327.322 34.62 326.043 34.62 323.884 M 60.284 332.919 C 46.373 332.919 34.62 331.2 34.62 329.481 M 60.284 343.313 C 46.373 343.313 34.62 342.033 34.62 339.875 M 60.284 348.91 C 46.373 348.91 34.62 347.19 34.62 345.471 M 60.284 354.186 C 46.373 354.186 34.62 352.866 34.62 350.668 M 60.284 359.943 C 46.373 359.943 34.62 358.183 34.62 356.425" fill="none" stroke="#000" stroke-width=".31980619px" stroke-linecap="round" stroke-linejoin="round" stroke-miterlimit="10" stroke-dasharray="none" stroke-opacity="1" /><path d="M 60.284 365.14 C 46.373 365.14 34.62 363.42 34.62 361.702" fill="none" stroke="#000" stroke-width=".79951543px" stroke-linecap="round" stroke-linejoin="round" stroke-miterlimit="10" stroke-dasharray="none" stroke-opacity="1" /><path d="M 60.284 370.736 C 46.373 370.736 34.62 369.037 34.62 366.898 M 60.284 375.933 C 46.373 375.933 34.62 374.214 34.62 372.495 M 60.284 381.13 C 46.373 381.13 34.62 379.85 34.62 377.692 M 60.284 386.726 C 46.373 386.726 34.62 385.007 34.62 383.288" fill="none" stroke="#000" stroke-width=".31980619px" stroke-linecap="round" stroke-linejoin="round" stroke-miterlimit="10" stroke-dasharray="none" stroke-opacity="1" /><path d="M 47.672 195.242 C 48.532 194.363 50.23 194.363 51.09 195.242 C 52.369 196.522 52.369 198.241 51.09 199.1 C 50.23 199.96 48.531 199.96 47.672 199.1 C 46.372 197.82 46.372 196.102 47.672 195.242 Z M 53.228 196.582 C 54.128 195.722 55.488 195.722 55.947 196.582 C 56.847 197.002 56.847 198.281 55.947 199.14 C 55.047 199.56 54.127 199.56 53.228 199.14 C 52.768 198.28 52.768 197.001 53.228 196.582 Z M 42.835 195.242 C 43.695 194.363 44.534 194.363 45.393 195.242 C 45.813 195.682 45.813 196.982 45.393 197.861 C 44.533 198.281 43.255 198.281 42.835 197.861 C 41.975 196.981 41.975 195.682 42.835 195.242 Z" fill="#fff" fill-rule="evenodd" fill-opacity="1" stroke="none" /><path d="M 40.696 39.477 C 40.696 33.401 39.816 28.623 39.816 28.623 L 39.816 376.253 C 39.816 382.329 41.136 383.648 46.772 385.367 C 41.136 375.833 41.136 97.202 40.696 39.477 Z M 82.31 304.316 C 81.871 253.946 81.871 187.067 82.31 136.258 C 82.75 106.296 82.75 64.162 83.63 53.728 L 83.63 382.488 C 82.75 374.254 82.31 345.591 82.31 304.316 Z" fill="#fff" fill-rule="evenodd" fill-opacity="1" stroke="none" /><rect id="anchor_liquid_bounds" x="6.24" y="6.24" width="107.921" height="403.594" fill="none" stroke="none" display="none" /></svg>