<svg xmlns="http://www.w3.org/2000/svg" xmlns:ns1="http://ns.adobe.com/AdobeIllustrator/10.0/" xmlns:xlink="http://www.w3.org/1999/xlink" version="1.1" id="x_7" viewBox="0 0 387.9 310.12" style="enable-background:new 0 0 400 400;" xml:space="preserve">
<style type="text/css">
	.st0{fill:#46507D;}
	.st1{fill:#707EA1;}
	.st2{fill:#CB5948;}
	.st3{fill:#A6AFC8;}
	.st4{fill:#ECECED;}
	.st5{fill:#CF6F6C;}
	.st6{fill:#819999;}
	.st7{fill:#ACC8CA;}
</style>
		<g>
			<g>
				<polygon class="st0" points="169.64,300.68 169.64,295.9 203.02,276.62 204.89,277.72 171.51,296.99 171.51,301.78" />
				<polygon class="st1" points="171.51,301.78 204.89,282.5 204.89,277.72 171.51,296.99" />
			</g>
			<g>
				<polygon class="st0" points="336.57,204.41 336.57,199.63 369.95,180.35 371.82,181.45 338.44,200.72 338.44,205.51" />
				<polygon class="st1" points="338.44,205.51 371.82,186.23 371.82,181.45 338.44,200.72" />
			</g>
			<g>
				<path class="st0" d="M 2 218.39 L 2 221.39 L 152.22 308.12 L 385.9 173.2 L 385.9 170.2 L 235.68 83.47 L 2 218.39 Z M 112.86 175.25 C 110.15 176.85 105.72 176.85 103.01 175.24 C 100.3 173.64 100.3 171.05 103 169.49 C 105.7 167.93 110.14 167.93 112.85 169.5 C 115.57 171.07 115.57 173.66 112.86 175.25 Z M 112.32 200.86 C 107.83 203.51 100.48 203.51 95.99 200.85 C 91.5 198.2 91.49 193.9 95.98 191.31 C 100.47 188.72 107.82 188.72 112.31 191.32 C 116.81 193.92 116.81 198.21 112.32 200.86 Z M 126.61 209.05 C 131.1 206.46 138.45 206.46 142.94 209.06 C 147.44 211.66 147.44 215.95 142.95 218.6 C 138.46 221.25 131.11 221.25 126.62 218.59 C 122.12 215.94 122.12 211.64 126.61 209.05 Z M 135.31 188.14 C 138.02 186.58 142.45 186.58 145.16 188.15 C 147.87 189.72 147.87 192.3 145.17 193.9 C 142.46 195.5 138.03 195.5 135.32 193.89 C 132.6 192.3 132.6 189.71 135.31 188.14 Z M 155.44 150.64 C 152.73 152.24 148.3 152.24 145.59 150.63 C 142.88 149.03 142.88 146.44 145.59 144.88 C 148.3 143.32 152.73 143.32 155.44 144.89 C 158.14 146.46 158.15 149.05 155.44 150.64 Z M 156.17 175.55 C 151.68 178.2 144.33 178.2 139.84 175.54 C 135.35 172.89 135.34 168.59 139.83 166 C 144.32 163.41 151.67 163.41 156.16 166.01 C 160.65 168.6 160.66 172.9 156.17 175.55 Z M 170.45 183.74 C 174.94 181.15 182.29 181.15 186.78 183.75 C 191.28 186.35 191.28 190.64 186.79 193.29 C 182.3 195.94 174.95 195.94 170.46 193.28 C 165.97 190.62 165.96 186.33 170.45 183.74 Z M 177.88 163.54 C 180.59 161.98 185.02 161.98 187.73 163.55 C 190.44 165.12 190.44 167.7 187.74 169.3 C 185.03 170.9 180.6 170.9 177.89 169.29 C 175.18 167.69 175.17 165.1 177.88 163.54 Z M 198.01 126.04 C 195.3 127.64 190.87 127.64 188.16 126.03 C 185.45 124.43 185.45 121.84 188.15 120.28 C 190.85 118.72 195.29 118.72 198 120.29 C 200.72 121.85 200.72 124.44 198.01 126.04 Z M 200.01 150.23 C 195.52 152.88 188.17 152.88 183.68 150.22 C 179.19 147.57 179.18 143.27 183.67 140.68 C 188.16 138.09 195.51 138.09 200 140.69 C 204.5 143.29 204.5 147.58 200.01 150.23 Z M 220.46 138.93 C 223.17 137.37 227.6 137.37 230.31 138.94 C 233.02 140.51 233.02 143.09 230.32 144.69 C 227.61 146.29 223.18 146.29 220.47 144.68 C 217.75 143.08 217.75 140.49 220.46 138.93 Z M 240.58 101.42 C 237.87 103.02 233.44 103.02 230.73 101.42 C 228.02 99.82 228.02 97.23 230.73 95.67 C 233.44 94.11 237.87 94.11 240.58 95.67 C 243.29 97.24 243.29 99.83 240.58 101.42 Z M 243.86 124.92 C 239.37 127.57 232.02 127.57 227.53 124.91 C 223.04 122.26 223.03 117.96 227.52 115.37 C 232.01 112.78 239.36 112.78 243.85 115.38 C 248.35 117.98 248.35 122.27 243.86 124.92 Z M 272.89 120.08 C 270.18 121.68 265.75 121.68 263.04 120.07 C 260.33 118.47 260.33 115.88 263.03 114.32 C 265.73 112.76 270.17 112.76 272.88 114.33 C 275.59 115.89 275.59 118.48 272.89 120.08 Z M 305.19 138.72 C 302.48 140.32 298.05 140.32 295.34 138.71 C 292.63 137.11 292.63 134.52 295.33 132.96 C 298.03 131.4 302.47 131.4 305.18 132.97 C 307.89 134.54 307.9 137.13 305.19 138.72 Z M 359.93 170.26 C 362.64 168.7 367.07 168.7 369.78 170.27 C 372.49 171.84 372.49 174.42 369.79 176.02 C 367.08 177.62 362.65 177.62 359.94 176.01 C 357.23 174.41 357.22 171.83 359.93 170.26 Z M 337.49 157.37 C 334.78 158.97 330.35 158.97 327.64 157.36 C 324.93 155.76 324.93 153.17 327.64 151.61 C 330.35 150.05 334.78 150.05 337.49 151.62 C 340.19 153.19 340.2 155.77 337.49 157.37 Z M 335.73 178.13 C 331.24 180.78 323.89 180.78 319.4 178.12 C 314.91 175.47 314.9 171.17 319.39 168.58 C 323.88 165.99 331.23 165.99 335.72 168.59 C 340.22 171.19 340.23 175.48 335.73 178.13 Z M 317.36 194.87 C 320.07 193.31 324.5 193.31 327.21 194.87 C 329.92 196.44 329.92 199.02 327.21 200.62 C 324.5 202.22 320.07 202.22 317.36 200.62 C 314.65 199.02 314.65 196.44 317.36 194.87 Z M 305.11 160.39 C 300.62 163.04 293.27 163.04 288.78 160.38 C 284.29 157.73 284.28 153.43 288.77 150.84 C 293.26 148.25 300.61 148.25 305.1 150.85 C 309.6 153.45 309.6 157.74 305.11 160.39 Z M 294.91 181.98 C 292.2 183.58 287.77 183.58 285.06 181.97 C 282.35 180.37 282.35 177.78 285.05 176.22 C 287.75 174.66 292.19 174.66 294.9 176.23 C 297.62 177.8 297.62 180.38 294.91 181.98 Z M 274.78 219.48 C 277.49 217.92 281.92 217.92 284.63 219.49 C 287.34 221.06 287.34 223.64 284.64 225.24 C 281.93 226.84 277.5 226.84 274.79 225.23 C 272.08 223.63 272.08 221.05 274.78 219.48 Z M 275.55 193.9 C 280.04 191.31 287.39 191.31 291.88 193.91 C 296.38 196.51 296.38 200.8 291.89 203.45 C 287.4 206.1 280.05 206.1 275.56 203.44 C 271.06 200.78 271.06 196.49 275.55 193.9 Z M 258.15 142.65 C 253.66 140 253.65 135.7 258.14 133.11 C 262.63 130.52 269.98 130.52 274.47 133.12 C 278.97 135.72 278.97 140.01 274.48 142.66 C 270 145.3 262.65 145.3 258.15 142.65 Z M 262.61 163.33 C 259.9 164.93 255.47 164.93 252.76 163.32 C 250.05 161.72 250.05 159.13 252.76 157.57 C 255.47 156.01 259.9 156.01 262.61 157.58 C 265.32 159.15 265.32 161.74 262.61 163.33 Z M 261.26 185.71 C 256.77 188.36 249.42 188.36 244.93 185.7 C 240.44 183.05 240.43 178.75 244.92 176.16 C 249.41 173.57 256.76 173.57 261.25 176.17 C 265.75 178.77 265.75 183.06 261.26 185.71 Z M 252.34 206.59 C 249.63 208.19 245.2 208.19 242.49 206.58 C 239.78 204.98 239.78 202.39 242.49 200.83 C 245.2 199.27 249.63 199.27 252.34 200.84 C 255.05 202.4 255.05 204.99 252.34 206.59 Z M 232.21 244.09 C 234.92 242.53 239.35 242.53 242.06 244.1 C 244.77 245.67 244.77 248.25 242.06 249.85 C 239.35 251.45 234.92 251.45 232.21 249.84 C 229.5 248.24 229.5 245.65 232.21 244.09 Z M 231.7 219.21 C 236.19 216.62 243.54 216.62 248.03 219.22 C 252.53 221.82 252.53 226.11 248.04 228.76 C 243.55 231.41 236.2 231.41 231.71 228.75 C 227.22 226.1 227.21 221.81 231.7 219.21 Z M 214.31 167.96 C 209.82 165.31 209.81 161.01 214.3 158.42 C 218.79 155.83 226.14 155.83 230.63 158.43 C 235.13 161.03 235.13 165.32 230.64 167.97 C 226.15 170.62 218.8 170.61 214.31 167.96 Z M 220.04 187.94 C 217.33 189.54 212.9 189.54 210.19 187.93 C 207.48 186.33 207.48 183.74 210.18 182.18 C 212.88 180.62 217.32 180.62 220.03 182.19 C 222.75 183.76 222.75 186.34 220.04 187.94 Z M 217.42 211.02 C 212.93 213.67 205.58 213.67 201.09 211.01 C 196.6 208.36 196.59 204.06 201.08 201.47 C 205.57 198.88 212.92 198.88 217.41 201.48 C 221.9 204.08 221.91 208.37 217.42 211.02 Z M 209.77 231.2 C 207.06 232.8 202.63 232.8 199.92 231.19 C 197.21 229.59 197.21 227 199.91 225.44 C 202.61 223.88 207.05 223.88 209.76 225.45 C 212.47 227.01 212.48 229.6 209.77 231.2 Z M 189.64 268.7 C 192.35 267.14 196.78 267.14 199.49 268.71 C 202.2 270.28 202.2 272.86 199.5 274.46 C 196.79 276.06 192.36 276.06 189.65 274.45 C 186.93 272.85 186.93 270.26 189.64 268.7 Z M 187.86 244.53 C 192.35 241.94 199.7 241.94 204.19 244.54 C 208.69 247.14 208.69 251.43 204.2 254.08 C 199.71 256.73 192.36 256.73 187.87 254.07 C 183.37 251.41 183.37 247.12 187.86 244.53 Z M 177.47 212.55 C 174.76 214.15 170.33 214.15 167.62 212.54 C 164.91 210.94 164.91 208.35 167.62 206.79 C 170.33 205.23 174.76 205.23 177.47 206.8 C 180.17 208.36 180.17 210.95 177.47 212.55 Z M 173.57 236.34 C 169.08 238.99 161.73 238.99 157.24 236.33 C 152.75 233.68 152.74 229.38 157.23 226.79 C 161.72 224.2 169.07 224.2 173.56 226.8 C 178.06 229.39 178.06 233.69 173.57 236.34 Z M 167.19 255.81 C 164.48 257.41 160.05 257.41 157.34 255.8 C 154.63 254.2 154.63 251.61 157.34 250.05 C 160.05 248.49 164.48 248.49 167.19 250.06 C 169.9 251.62 169.9 254.21 167.19 255.81 Z M 147.06 293.31 C 149.77 291.75 154.2 291.75 156.91 293.32 C 159.62 294.89 159.62 297.47 156.91 299.07 C 154.2 300.67 149.77 300.67 147.06 299.06 C 144.36 297.46 144.36 294.87 147.06 293.31 Z M 144.01 269.84 C 148.5 267.25 155.85 267.25 160.34 269.85 C 164.84 272.45 164.84 276.74 160.35 279.39 C 155.86 282.04 148.51 282.04 144.02 279.38 C 139.53 276.72 139.52 272.43 144.01 269.84 Z M 134.89 237.16 C 132.18 238.76 127.75 238.76 125.04 237.15 C 122.33 235.55 122.33 232.96 125.03 231.4 C 127.73 229.84 132.17 229.84 134.88 231.41 C 137.6 232.97 137.6 235.56 134.89 237.16 Z M 114.76 274.66 C 117.47 273.1 121.9 273.1 124.61 274.67 C 127.32 276.24 127.32 278.82 124.62 280.42 C 121.91 282.02 117.48 282.02 114.77 280.41 C 112.06 278.81 112.06 276.22 114.76 274.66 Z M 113.39 252.11 C 117.88 249.52 125.23 249.52 129.72 252.12 C 134.22 254.72 134.22 259.01 129.73 261.66 C 125.24 264.31 117.89 264.31 113.4 261.65 C 108.9 258.99 108.9 254.7 113.39 252.11 Z M 102.59 218.51 C 99.88 220.11 95.45 220.11 92.74 218.5 C 90.03 216.9 90.03 214.31 92.73 212.75 C 95.43 211.19 99.87 211.19 102.58 212.76 C 105.3 214.33 105.3 216.91 102.59 218.51 Z M 82.46 256.01 C 85.17 254.45 89.6 254.45 92.31 256.02 C 95.02 257.59 95.02 260.17 92.31 261.77 C 89.6 263.37 85.17 263.37 82.46 261.76 C 79.76 260.16 79.75 257.58 82.46 256.01 Z M 82.76 234.37 C 87.25 231.78 94.6 231.78 99.09 234.38 C 103.59 236.98 103.59 241.27 99.1 243.92 C 94.61 246.57 87.26 246.57 82.77 243.91 C 78.28 241.25 78.27 236.96 82.76 234.37 Z M 70.29 199.86 C 67.58 201.46 63.15 201.46 60.44 199.85 C 57.73 198.25 57.73 195.66 60.44 194.1 C 63.15 192.54 67.58 192.54 70.29 194.11 C 73 195.68 73 198.27 70.29 199.86 Z M 68.48 226.18 C 63.99 228.83 56.64 228.83 52.15 226.17 C 47.66 223.52 47.65 219.22 52.14 216.63 C 56.63 214.04 63.98 214.04 68.47 216.64 C 72.96 219.23 72.97 223.53 68.48 226.18 Z M 50.16 237.36 C 52.87 235.8 57.3 235.8 60.01 237.37 C 62.72 238.94 62.72 241.52 60.02 243.12 C 57.31 244.72 52.88 244.72 50.17 243.11 C 47.46 241.52 47.45 238.93 50.16 237.36 Z M 17.86 218.71 C 20.57 217.15 25 217.15 27.71 218.72 C 30.42 220.29 30.42 222.87 27.72 224.47 C 25.01 226.07 20.58 226.07 17.87 224.46 C 15.16 222.87 15.15 220.28 17.86 218.71 Z" />
				<path class="st1" d="M 2 218.39 L 152.22 305.12 L 385.9 170.2 L 235.68 83.47 L 2 218.39 Z M 112.86 172.25 C 110.15 173.85 105.72 173.85 103.01 172.24 C 100.3 170.64 100.3 168.05 103 166.49 C 105.7 164.93 110.14 164.93 112.85 166.5 C 115.57 168.07 115.57 170.66 112.86 172.25 Z M 112.32 197.86 C 107.83 200.51 100.48 200.51 95.99 197.85 C 91.5 195.2 91.49 190.9 95.98 188.31 C 100.47 185.72 107.82 185.72 112.31 188.32 C 116.81 190.92 116.81 195.21 112.32 197.86 Z M 126.61 206.05 C 131.1 203.46 138.45 203.46 142.94 206.06 C 147.44 208.66 147.44 212.95 142.95 215.6 C 138.46 218.25 131.11 218.25 126.62 215.59 C 122.12 212.94 122.12 208.64 126.61 206.05 Z M 135.31 185.14 C 138.02 183.58 142.45 183.58 145.16 185.15 C 147.87 186.72 147.87 189.3 145.17 190.9 C 142.46 192.5 138.03 192.5 135.32 190.89 C 132.6 189.3 132.6 186.71 135.31 185.14 Z M 155.44 147.64 C 152.73 149.24 148.3 149.24 145.59 147.63 C 142.88 146.03 142.88 143.44 145.59 141.88 C 148.3 140.32 152.73 140.32 155.44 141.89 C 158.14 143.46 158.15 146.05 155.44 147.64 Z M 156.17 172.55 C 151.68 175.2 144.33 175.2 139.84 172.54 C 135.35 169.89 135.34 165.59 139.83 163 C 144.32 160.41 151.67 160.41 156.16 163.01 C 160.65 165.6 160.66 169.9 156.17 172.55 Z M 170.45 180.74 C 174.94 178.15 182.29 178.15 186.78 180.75 C 191.28 183.35 191.28 187.64 186.79 190.29 C 182.3 192.94 174.95 192.94 170.46 190.28 C 165.97 187.62 165.96 183.33 170.45 180.74 Z M 177.88 160.54 C 180.59 158.98 185.02 158.98 187.73 160.55 C 190.44 162.12 190.44 164.7 187.74 166.3 C 185.03 167.9 180.6 167.9 177.89 166.29 C 175.18 164.69 175.17 162.1 177.88 160.54 Z M 198.01 123.04 C 195.3 124.64 190.87 124.64 188.16 123.03 C 185.45 121.43 185.45 118.84 188.15 117.28 C 190.85 115.72 195.29 115.72 198 117.29 C 200.72 118.85 200.72 121.44 198.01 123.04 Z M 200.01 147.23 C 195.52 149.88 188.17 149.88 183.68 147.22 C 179.19 144.57 179.18 140.27 183.67 137.68 C 188.16 135.09 195.51 135.09 200 137.69 C 204.5 140.29 204.5 144.58 200.01 147.23 Z M 220.46 135.93 C 223.17 134.37 227.6 134.37 230.31 135.94 C 233.02 137.51 233.02 140.09 230.32 141.69 C 227.61 143.29 223.18 143.29 220.47 141.68 C 217.75 140.08 217.75 137.49 220.46 135.93 Z M 240.58 98.42 C 237.87 100.02 233.44 100.02 230.73 98.42 C 228.02 96.82 228.02 94.23 230.73 92.67 C 233.44 91.11 237.87 91.11 240.58 92.67 C 243.29 94.24 243.29 96.83 240.58 98.42 Z M 243.86 121.92 C 239.37 124.57 232.02 124.57 227.53 121.91 C 223.04 119.26 223.03 114.96 227.52 112.37 C 232.01 109.78 239.36 109.78 243.85 112.38 C 248.35 114.98 248.35 119.27 243.86 121.92 Z M 272.89 117.08 C 270.18 118.68 265.75 118.68 263.04 117.07 C 260.33 115.47 260.33 112.88 263.03 111.32 C 265.73 109.76 270.17 109.76 272.88 111.33 C 275.59 112.89 275.59 115.48 272.89 117.08 Z M 305.19 135.72 C 302.48 137.32 298.05 137.32 295.34 135.71 C 292.63 134.11 292.63 131.52 295.33 129.96 C 298.03 128.4 302.47 128.4 305.18 129.97 C 307.89 131.54 307.9 134.13 305.19 135.72 Z M 359.93 167.26 C 362.64 165.7 367.07 165.7 369.78 167.27 C 372.49 168.84 372.49 171.42 369.79 173.02 C 367.08 174.62 362.65 174.62 359.94 173.01 C 357.23 171.41 357.22 168.83 359.93 167.26 Z M 337.49 154.37 C 334.78 155.97 330.35 155.97 327.64 154.36 C 324.93 152.76 324.93 150.17 327.64 148.61 C 330.35 147.05 334.78 147.05 337.49 148.62 C 340.19 150.19 340.2 152.77 337.49 154.37 Z M 335.73 175.13 C 331.24 177.78 323.89 177.78 319.4 175.12 C 314.91 172.47 314.9 168.17 319.39 165.58 C 323.88 162.99 331.23 162.99 335.72 165.59 C 340.22 168.19 340.23 172.48 335.73 175.13 Z M 317.36 191.87 C 320.07 190.31 324.5 190.31 327.21 191.87 C 329.92 193.44 329.92 196.02 327.21 197.62 C 324.5 199.22 320.07 199.22 317.36 197.62 C 314.65 196.02 314.65 193.44 317.36 191.87 Z M 305.11 157.39 C 300.62 160.04 293.27 160.04 288.78 157.38 C 284.29 154.73 284.28 150.43 288.77 147.84 C 293.26 145.25 300.61 145.25 305.1 147.85 C 309.6 150.45 309.6 154.74 305.11 157.39 Z M 294.91 178.98 C 292.2 180.58 287.77 180.58 285.06 178.97 C 282.35 177.37 282.35 174.78 285.05 173.22 C 287.75 171.66 292.19 171.66 294.9 173.23 C 297.62 174.8 297.62 177.38 294.91 178.98 Z M 274.78 216.48 C 277.49 214.92 281.92 214.92 284.63 216.49 C 287.34 218.06 287.34 220.64 284.64 222.24 C 281.93 223.84 277.5 223.84 274.79 222.23 C 272.08 220.63 272.08 218.05 274.78 216.48 Z M 275.55 190.9 C 280.04 188.31 287.39 188.31 291.88 190.91 C 296.38 193.51 296.38 197.8 291.89 200.45 C 287.4 203.1 280.05 203.1 275.56 200.44 C 271.06 197.78 271.06 193.49 275.55 190.9 Z M 258.15 139.65 C 253.66 137 253.65 132.7 258.14 130.11 C 262.63 127.52 269.98 127.52 274.47 130.12 C 278.97 132.72 278.97 137.01 274.48 139.66 C 270 142.3 262.65 142.3 258.15 139.65 Z M 262.61 160.33 C 259.9 161.93 255.47 161.93 252.76 160.32 C 250.05 158.72 250.05 156.13 252.76 154.57 C 255.47 153.01 259.9 153.01 262.61 154.58 C 265.32 156.15 265.32 158.74 262.61 160.33 Z M 261.26 182.71 C 256.77 185.36 249.42 185.36 244.93 182.7 C 240.44 180.05 240.43 175.75 244.92 173.16 C 249.41 170.57 256.76 170.57 261.25 173.17 C 265.75 175.77 265.75 180.06 261.26 182.71 Z M 252.34 203.59 C 249.63 205.19 245.2 205.19 242.49 203.58 C 239.78 201.98 239.78 199.39 242.49 197.83 C 245.2 196.27 249.63 196.27 252.34 197.84 C 255.05 199.4 255.05 201.99 252.34 203.59 Z M 232.21 241.09 C 234.92 239.53 239.35 239.53 242.06 241.1 C 244.77 242.67 244.77 245.25 242.06 246.85 C 239.35 248.45 234.92 248.45 232.21 246.84 C 229.5 245.24 229.5 242.65 232.21 241.09 Z M 231.7 216.21 C 236.19 213.62 243.54 213.62 248.03 216.22 C 252.53 218.82 252.53 223.11 248.04 225.76 C 243.55 228.41 236.2 228.41 231.71 225.75 C 227.22 223.1 227.21 218.81 231.7 216.21 Z M 214.31 164.96 C 209.82 162.31 209.81 158.01 214.3 155.42 C 218.79 152.83 226.14 152.83 230.63 155.43 C 235.13 158.03 235.13 162.32 230.64 164.97 C 226.15 167.62 218.8 167.61 214.31 164.96 Z M 220.04 184.94 C 217.33 186.54 212.9 186.54 210.19 184.93 C 207.48 183.33 207.48 180.74 210.18 179.18 C 212.88 177.62 217.32 177.62 220.03 179.19 C 222.75 180.76 222.75 183.34 220.04 184.94 Z M 217.42 208.02 C 212.93 210.67 205.58 210.67 201.09 208.01 C 196.6 205.36 196.59 201.06 201.08 198.47 C 205.57 195.88 212.92 195.88 217.41 198.48 C 221.9 201.08 221.91 205.37 217.42 208.02 Z M 209.77 228.2 C 207.06 229.8 202.63 229.8 199.92 228.19 C 197.21 226.59 197.21 224 199.91 222.44 C 202.61 220.88 207.05 220.88 209.76 222.45 C 212.47 224.01 212.48 226.6 209.77 228.2 Z M 189.64 265.7 C 192.35 264.14 196.78 264.14 199.49 265.71 C 202.2 267.28 202.2 269.86 199.5 271.46 C 196.79 273.06 192.36 273.06 189.65 271.45 C 186.93 269.85 186.93 267.26 189.64 265.7 Z M 187.86 241.53 C 192.35 238.94 199.7 238.94 204.19 241.54 C 208.69 244.14 208.69 248.43 204.2 251.08 C 199.71 253.73 192.36 253.73 187.87 251.07 C 183.37 248.41 183.37 244.12 187.86 241.53 Z M 177.47 209.55 C 174.76 211.15 170.33 211.15 167.62 209.54 C 164.91 207.94 164.91 205.35 167.62 203.79 C 170.33 202.23 174.76 202.23 177.47 203.8 C 180.17 205.36 180.17 207.95 177.47 209.55 Z M 173.57 233.34 C 169.08 235.99 161.73 235.99 157.24 233.33 C 152.75 230.68 152.74 226.38 157.23 223.79 C 161.72 221.2 169.07 221.2 173.56 223.8 C 178.06 226.39 178.06 230.69 173.57 233.34 Z M 167.19 252.81 C 164.48 254.41 160.05 254.41 157.34 252.8 C 154.63 251.2 154.63 248.61 157.34 247.05 C 160.05 245.49 164.48 245.49 167.19 247.06 C 169.9 248.62 169.9 251.21 167.19 252.81 Z M 147.06 290.31 C 149.77 288.75 154.2 288.75 156.91 290.32 C 159.62 291.89 159.62 294.47 156.91 296.07 C 154.2 297.67 149.77 297.67 147.06 296.06 C 144.36 294.46 144.36 291.87 147.06 290.31 Z M 144.01 266.84 C 148.5 264.25 155.85 264.25 160.34 266.85 C 164.84 269.45 164.84 273.74 160.35 276.39 C 155.86 279.04 148.51 279.04 144.02 276.38 C 139.53 273.72 139.52 269.43 144.01 266.84 Z M 134.89 234.16 C 132.18 235.76 127.75 235.76 125.04 234.15 C 122.33 232.55 122.33 229.96 125.03 228.4 C 127.73 226.84 132.17 226.84 134.88 228.41 C 137.6 229.97 137.6 232.56 134.89 234.16 Z M 114.76 271.66 C 117.47 270.1 121.9 270.1 124.61 271.67 C 127.32 273.24 127.32 275.82 124.62 277.42 C 121.91 279.02 117.48 279.02 114.77 277.41 C 112.06 275.81 112.06 273.22 114.76 271.66 Z M 113.39 249.11 C 117.88 246.52 125.23 246.52 129.72 249.12 C 134.22 251.72 134.22 256.01 129.73 258.66 C 125.24 261.31 117.89 261.31 113.4 258.65 C 108.9 255.99 108.9 251.7 113.39 249.11 Z M 102.59 215.51 C 99.88 217.11 95.45 217.11 92.74 215.5 C 90.03 213.9 90.03 211.31 92.73 209.75 C 95.43 208.19 99.87 208.19 102.58 209.76 C 105.3 211.33 105.3 213.91 102.59 215.51 Z M 82.46 253.01 C 85.17 251.45 89.6 251.45 92.31 253.02 C 95.02 254.59 95.02 257.17 92.31 258.77 C 89.6 260.37 85.17 260.37 82.46 258.76 C 79.76 257.16 79.75 254.58 82.46 253.01 Z M 82.76 231.37 C 87.25 228.78 94.6 228.78 99.09 231.38 C 103.59 233.98 103.59 238.27 99.1 240.92 C 94.61 243.57 87.26 243.57 82.77 240.91 C 78.28 238.25 78.27 233.96 82.76 231.37 Z M 70.29 196.86 C 67.58 198.46 63.15 198.46 60.44 196.85 C 57.73 195.25 57.73 192.66 60.44 191.1 C 63.15 189.54 67.58 189.54 70.29 191.11 C 73 192.68 73 195.27 70.29 196.86 Z M 68.48 223.18 C 63.99 225.83 56.64 225.83 52.15 223.17 C 47.66 220.52 47.65 216.22 52.14 213.63 C 56.63 211.04 63.98 211.04 68.47 213.64 C 72.96 216.23 72.97 220.53 68.48 223.18 Z M 50.16 234.36 C 52.87 232.8 57.3 232.8 60.01 234.37 C 62.72 235.94 62.72 238.52 60.02 240.12 C 57.31 241.72 52.88 241.72 50.17 240.11 C 47.46 238.52 47.45 235.93 50.16 234.36 Z M 17.86 215.71 C 20.57 214.15 25 214.15 27.71 215.72 C 30.42 217.29 30.42 219.87 27.72 221.47 C 25.01 223.07 20.58 223.07 17.87 221.46 C 15.16 219.87 15.15 217.28 17.86 215.71 Z" />
			</g>
			<g>
				<path class="st0" d="M 352.43 180.57 C 354.19 180.57 355.62 179.14 355.62 177.38 L 355.62 105.65 C 355.62 103.89 354.19 102.46 352.43 102.46 C 350.67 102.46 349.24 103.89 349.24 105.65 L 349.24 177.38 C 349.24 179.14 350.67 180.57 352.43 180.57 Z" />
				<path class="st0" d="M 185.39 279.09 C 187.15 279.09 188.58 277.66 188.58 275.9 L 188.58 204.17 C 188.58 202.41 187.15 200.98 185.39 200.98 C 183.63 200.98 182.2 202.41 182.2 204.17 L 182.2 275.9 C 182.21 277.66 183.63 279.09 185.39 279.09 Z" />
				<path class="st0" d="M 51.54 201.17 C 53.3 201.17 54.73 199.74 54.73 197.98 L 54.73 126.25 C 54.73 124.49 53.3 123.06 51.54 123.06 C 49.78 123.06 48.35 124.49 48.35 126.25 L 48.35 197.98 C 48.35 199.74 49.78 201.17 51.54 201.17 Z" />
				<path class="st0" d="M 213.14 110.76 C 214.9 110.76 216.33 109.33 216.33 107.57 L 216.33 35.85 C 216.33 34.09 214.9 32.66 213.14 32.66 C 211.38 32.66 209.95 34.09 209.95 35.85 L 209.95 107.58 C 209.95 109.33 211.38 110.76 213.14 110.76 Z" />
			</g>
			<path class="st2" d="M 42.83 141.54 C 42.95 144.07 44.65 146.58 47.93 148.52 C 54.74 152.54 65.88 152.55 72.69 148.53 C 76.22 146.45 77.92 143.7 77.79 140.98 L 77.8 199.74 C 77.81 210.69 73.52 216.49 70.43 220.97 C 69.92 221.71 69.21 222.8 68.07 223.56 C 66.07 224.89 63.24 225.65 60.32 225.65 C 57.39 225.65 54.57 224.89 52.56 223.56 C 51.44 222.82 50.73 221.76 50.22 221.04 C 47.09 216.57 42.82 210.72 42.81 199.73 L 42.83 141.54 Z" />
			<path class="st2" d="M 174.37 65.69 C 174.49 68.22 176.19 70.73 179.47 72.67 C 186.28 76.69 197.42 76.7 204.23 72.68 C 207.76 70.6 209.46 67.85 209.33 65.13 L 209.34 123.89 C 209.35 134.84 205.06 140.64 201.97 145.12 C 201.46 145.86 200.75 146.95 199.61 147.71 C 197.61 149.04 194.78 149.8 191.86 149.8 C 188.93 149.8 186.11 149.04 184.1 147.71 C 182.98 146.97 182.27 145.91 181.76 145.19 C 178.63 140.72 174.36 134.87 174.35 123.88 L 174.37 65.69 Z" />
			<path class="st2" d="M 130.52 90.81 C 130.64 93.34 132.34 95.85 135.62 97.79 C 142.43 101.81 153.57 101.82 160.38 97.8 C 163.91 95.72 165.61 92.97 165.48 90.25 L 165.49 149.01 C 165.5 159.96 161.21 165.76 158.12 170.24 C 157.61 170.98 156.9 172.07 155.76 172.83 C 153.76 174.16 150.93 174.92 148.01 174.92 C 145.08 174.92 142.26 174.16 140.25 172.83 C 139.13 172.09 138.42 171.03 137.91 170.31 C 134.78 165.84 130.51 159.99 130.5 149 L 130.52 90.81 Z" />
			<path class="st2" d="M 86.68 116.23 C 86.8 118.76 88.5 121.27 91.78 123.21 C 98.59 127.23 109.73 127.24 116.54 123.22 C 120.07 121.14 121.77 118.39 121.64 115.67 L 121.65 174.43 C 121.66 185.38 117.37 191.18 114.28 195.66 C 113.77 196.4 113.06 197.49 111.92 198.25 C 109.92 199.58 107.09 200.34 104.17 200.34 C 101.24 200.34 98.42 199.58 96.41 198.25 C 95.29 197.51 94.58 196.45 94.07 195.73 C 90.94 191.26 86.67 185.41 86.66 174.42 L 86.68 116.23 Z" />
			<g>
				<path class="st0" d="M 2 141.3 L 2 144.3 L 152.22 231.03 L 385.9 96.11 L 385.9 93.11 L 235.68 6.38 L 2 141.3 Z M 72.4 123.99 C 68.53 126.27 62.2 126.27 58.33 123.98 C 54.46 121.69 54.46 118 58.33 115.77 C 62.2 113.54 68.53 113.54 72.4 115.78 C 76.27 118.01 76.27 121.71 72.4 123.99 Z M 114.98 99.39 C 111.11 101.67 104.78 101.67 100.91 99.38 C 97.04 97.09 97.04 93.4 100.91 91.17 C 104.78 88.94 111.11 88.94 114.98 91.18 C 118.84 93.41 118.84 97.1 114.98 99.39 Z M 116.54 126.22 C 109.73 130.24 98.59 130.23 91.78 126.21 C 84.97 122.19 84.97 115.68 91.77 111.75 C 98.58 107.82 109.72 107.82 116.53 111.76 C 123.35 115.69 123.35 122.2 116.54 126.22 Z M 90.63 134.42 C 94.5 132.19 100.83 132.19 104.7 134.43 C 108.57 136.67 108.57 140.36 104.7 142.64 C 100.83 144.92 94.5 144.92 90.63 142.63 C 86.76 140.35 86.76 136.65 90.63 134.42 Z M 122.39 129.48 C 129.2 125.55 140.34 125.56 147.15 129.49 C 153.96 133.42 153.97 139.93 147.16 143.95 C 140.35 147.97 129.21 147.96 122.4 143.94 C 115.59 139.92 115.59 133.41 122.39 129.48 Z M 122.93 153.07 C 126.8 150.84 133.13 150.84 137 153.08 C 140.87 155.32 140.87 159.01 137 161.29 C 133.13 163.57 126.8 163.57 122.93 161.28 C 119.07 159 119.06 155.3 122.93 153.07 Z M 133.2 109.81 C 137.07 107.58 143.4 107.58 147.27 109.82 C 151.14 112.06 151.14 115.75 147.27 118.03 C 143.4 120.31 137.07 120.31 133.2 118.02 C 129.34 115.74 129.34 112.05 133.2 109.81 Z M 157.55 74.78 C 153.68 77.06 147.35 77.06 143.48 74.77 C 139.61 72.48 139.61 68.79 143.48 66.56 C 147.35 64.33 153.68 64.33 157.55 66.57 C 161.42 68.8 161.42 72.49 157.55 74.78 Z M 160.39 100.9 C 153.58 104.92 142.44 104.91 135.63 100.89 C 128.82 96.87 128.82 90.36 135.62 86.43 C 142.43 82.5 153.57 82.5 160.38 86.44 C 167.19 90.38 167.2 96.88 160.39 100.9 Z M 166.24 104.17 C 173.05 100.24 184.19 100.24 191 104.18 C 197.81 108.11 197.82 114.62 191.01 118.64 C 184.2 122.66 173.06 122.65 166.25 118.63 C 159.44 114.61 159.43 108.1 166.24 104.17 Z M 165.5 128.46 C 169.37 126.23 175.7 126.23 179.57 128.47 C 183.44 130.71 183.44 134.4 179.57 136.68 C 175.7 138.96 169.37 138.96 165.5 136.67 C 161.64 134.39 161.64 130.69 165.5 128.46 Z M 175.78 85.2 C 179.65 82.97 185.98 82.97 189.85 85.21 C 193.72 87.45 193.72 91.14 189.85 93.42 C 185.98 95.7 179.65 95.7 175.78 93.41 C 171.91 91.13 171.91 87.44 175.78 85.2 Z M 200.12 50.17 C 196.25 52.45 189.92 52.45 186.05 50.16 C 182.18 47.87 182.18 44.18 186.05 41.95 C 189.92 39.72 196.25 39.72 200.12 41.96 C 203.99 44.19 203.99 47.88 200.12 50.17 Z M 204.23 75.59 C 197.42 79.61 186.28 79.6 179.47 75.58 C 172.66 71.56 172.66 65.05 179.46 61.12 C 186.27 57.19 197.41 57.2 204.22 61.13 C 211.04 65.06 211.04 71.57 204.23 75.59 Z M 210.09 78.85 C 216.9 74.92 228.04 74.92 234.85 78.86 C 241.66 82.8 241.67 89.3 234.86 93.32 C 228.05 97.34 216.91 97.33 210.1 93.31 C 203.28 89.29 203.28 82.78 210.09 78.85 Z M 208.08 103.85 C 211.95 101.62 218.28 101.62 222.15 103.86 C 226.02 106.1 226.02 109.79 222.15 112.07 C 218.28 114.35 211.95 114.35 208.08 112.06 C 204.21 109.78 204.21 106.09 208.08 103.85 Z M 218.35 60.59 C 222.22 58.36 228.55 58.36 232.42 60.6 C 236.29 62.84 236.29 66.53 232.42 68.81 C 228.55 71.09 222.22 71.09 218.35 68.8 C 214.49 66.52 214.48 62.83 218.35 60.59 Z M 242.7 25.56 C 238.83 27.84 232.5 27.84 228.63 25.55 C 224.76 23.26 224.76 19.57 228.63 17.34 C 232.5 15.11 238.83 15.11 242.7 17.35 C 246.56 19.58 246.56 23.27 242.7 25.56 Z M 248.08 50.27 C 241.27 54.29 230.13 54.28 223.32 50.26 C 216.51 46.24 216.51 39.73 223.31 35.8 C 230.12 31.87 241.26 31.87 248.07 35.81 C 254.89 39.75 254.89 46.25 248.08 50.27 Z M 250.65 79.24 C 254.52 77.01 260.85 77.01 264.72 79.25 C 268.59 81.49 268.59 85.18 264.72 87.46 C 260.85 89.74 254.52 89.74 250.65 87.45 C 246.79 85.17 246.78 81.48 250.65 79.24 Z M 275 44.21 C 271.13 46.49 264.8 46.49 260.93 44.2 C 257.06 41.91 257.06 38.22 260.93 35.99 C 264.8 33.76 271.13 33.76 275 36 C 278.86 38.23 278.87 41.92 275 44.21 Z M 278.7 68.01 C 271.89 72.03 260.75 72.02 253.94 68 C 247.13 63.98 247.13 57.47 253.93 53.54 C 260.74 49.61 271.88 49.62 278.69 53.55 C 285.51 57.48 285.51 63.99 278.7 68.01 Z M 307.3 62.85 C 303.43 65.13 297.1 65.13 293.23 62.84 C 289.36 60.55 289.36 56.86 293.23 54.63 C 297.1 52.4 303.43 52.4 307.3 54.64 C 311.17 56.88 311.17 60.57 307.3 62.85 Z M 339.6 81.5 C 335.73 83.78 329.4 83.78 325.53 81.49 C 321.66 79.2 321.66 75.51 325.53 73.28 C 329.4 71.05 335.73 71.05 339.6 73.29 C 343.47 75.52 343.47 79.22 339.6 81.5 Z M 357.83 91.93 C 361.7 89.7 368.03 89.7 371.9 91.94 C 375.77 94.18 375.77 97.87 371.9 100.15 C 368.03 102.43 361.7 102.43 357.83 100.14 C 353.96 97.86 353.96 94.16 357.83 91.93 Z M 315.25 116.54 C 319.12 114.31 325.45 114.31 329.32 116.55 C 333.19 118.79 333.19 122.48 329.32 124.76 C 325.45 127.04 319.12 127.04 315.25 124.75 C 311.39 122.47 311.39 118.77 315.25 116.54 Z M 315.18 89.02 C 321.99 85.09 333.13 85.1 339.94 89.03 C 346.75 92.96 346.76 99.47 339.95 103.49 C 333.14 107.51 322 107.5 315.19 103.48 C 308.38 99.45 308.38 92.94 315.18 89.02 Z M 309.33 85.75 C 302.52 89.77 291.38 89.76 284.57 85.74 C 277.76 81.72 277.76 75.21 284.56 71.28 C 291.37 67.35 302.51 67.35 309.32 71.29 C 316.13 75.23 316.14 81.73 309.33 85.75 Z M 282.95 97.89 C 286.82 95.66 293.15 95.66 297.02 97.9 C 300.89 100.14 300.89 103.83 297.02 106.11 C 293.15 108.39 286.82 108.39 282.95 106.1 C 279.09 103.82 279.09 100.12 282.95 97.89 Z M 272.68 141.15 C 276.55 138.92 282.88 138.92 286.75 141.16 C 290.62 143.4 290.62 147.09 286.75 149.37 C 282.88 151.65 276.55 151.65 272.68 149.36 C 268.81 147.08 268.81 143.38 272.68 141.15 Z M 271.34 114.33 C 278.15 110.4 289.29 110.4 296.1 114.34 C 302.91 118.28 302.92 124.78 296.11 128.8 C 289.3 132.82 278.16 132.81 271.35 128.79 C 264.54 124.77 264.53 118.26 271.34 114.33 Z M 265.48 111.06 C 258.67 115.08 247.53 115.07 240.72 111.05 C 233.91 107.03 233.91 100.52 240.71 96.59 C 247.52 92.66 258.66 92.66 265.47 96.6 C 272.29 100.54 272.29 107.04 265.48 111.06 Z M 240.38 122.5 C 244.25 120.27 250.58 120.27 254.45 122.51 C 258.32 124.75 258.32 128.44 254.45 130.72 C 250.58 133 244.25 133 240.38 130.71 C 236.51 128.43 236.51 124.73 240.38 122.5 Z M 230.1 165.76 C 233.97 163.53 240.3 163.53 244.17 165.77 C 248.04 168.01 248.04 171.7 244.17 173.98 C 240.3 176.26 233.97 176.26 230.1 173.97 C 226.24 171.69 226.24 167.99 230.1 165.76 Z M 227.49 139.64 C 234.3 135.71 245.44 135.71 252.25 139.65 C 259.06 143.58 259.07 150.09 252.26 154.11 C 245.45 158.13 234.31 158.12 227.5 154.1 C 220.69 150.08 220.68 143.57 227.49 139.64 Z M 221.64 136.38 C 214.83 140.4 203.69 140.39 196.88 136.37 C 190.07 132.35 190.07 125.84 196.87 121.91 C 203.68 117.98 214.82 117.99 221.63 121.92 C 228.44 125.85 228.45 132.36 221.64 136.38 Z M 211.88 155.33 C 208.01 157.61 201.68 157.61 197.81 155.32 C 193.94 153.03 193.94 149.34 197.81 147.11 C 201.68 144.88 208.01 144.88 211.88 147.12 C 215.75 149.35 215.75 153.05 211.88 155.33 Z M 187.53 190.37 C 191.4 188.14 197.73 188.14 201.6 190.38 C 205.47 192.62 205.47 196.31 201.6 198.59 C 197.73 200.87 191.4 200.87 187.53 198.58 C 183.67 196.3 183.67 192.6 187.53 190.37 Z M 183.64 164.96 C 190.45 161.03 201.59 161.03 208.4 164.97 C 215.21 168.91 215.22 175.41 208.41 179.43 C 201.6 183.45 190.46 183.44 183.65 179.42 C 176.84 175.4 176.84 168.89 183.64 164.96 Z M 177.79 161.69 C 170.98 165.71 159.84 165.7 153.03 161.68 C 146.22 157.66 146.22 151.15 153.02 147.22 C 159.82 143.29 170.97 143.29 177.78 147.23 C 184.59 151.17 184.6 157.67 177.79 161.69 Z M 169.3 179.94 C 165.43 182.22 159.1 182.22 155.23 179.93 C 151.36 177.64 151.36 173.95 155.23 171.72 C 159.1 169.49 165.43 169.49 169.3 171.73 C 173.17 173.96 173.17 177.66 169.3 179.94 Z M 144.96 214.98 C 148.83 212.75 155.16 212.75 159.03 214.99 C 162.9 217.23 162.9 220.92 159.03 223.2 C 155.16 225.48 148.83 225.48 144.96 223.19 C 141.09 220.91 141.09 217.21 144.96 214.98 Z M 139.8 190.27 C 146.61 186.34 157.75 186.34 164.56 190.28 C 171.37 194.22 171.38 200.72 164.57 204.74 C 157.76 208.76 146.62 208.75 139.81 204.73 C 133 200.71 132.99 194.2 139.8 190.27 Z M 112.66 196.33 C 116.53 194.1 122.86 194.1 126.73 196.34 C 130.6 198.58 130.6 202.27 126.73 204.55 C 122.86 206.83 116.53 206.83 112.66 204.54 C 108.79 202.26 108.79 198.56 112.66 196.33 Z M 109.17 172.54 C 115.98 168.61 127.12 168.61 133.93 172.55 C 140.74 176.49 140.75 182.99 133.94 187.01 C 127.13 191.03 115.99 191.02 109.18 187 C 102.37 182.97 102.37 176.46 109.17 172.54 Z M 80.36 177.68 C 84.23 175.45 90.56 175.45 94.43 177.69 C 98.3 179.93 98.3 183.62 94.43 185.9 C 90.56 188.18 84.23 188.18 80.36 185.89 C 76.49 183.61 76.49 179.91 80.36 177.68 Z M 78.55 154.8 C 85.36 150.87 96.5 150.87 103.31 154.81 C 110.12 158.75 110.13 165.25 103.32 169.27 C 96.51 173.29 85.37 173.28 78.56 169.26 C 71.75 165.23 71.74 158.73 78.55 154.8 Z M 48.06 159.03 C 51.93 156.8 58.26 156.8 62.13 159.04 C 66 161.28 66 164.97 62.13 167.25 C 58.26 169.53 51.93 169.53 48.06 167.24 C 44.19 164.96 44.19 161.26 48.06 159.03 Z M 47.92 137.06 C 54.73 133.13 65.87 133.13 72.68 137.07 C 79.49 141.01 79.5 147.51 72.69 151.53 C 65.88 155.55 54.74 155.54 47.93 151.52 C 41.12 147.5 41.12 140.99 47.92 137.06 Z M 15.76 140.38 C 19.63 138.15 25.96 138.15 29.83 140.39 C 33.7 142.63 33.7 146.32 29.83 148.6 C 25.96 150.88 19.63 150.88 15.76 148.59 C 11.89 146.31 11.89 142.62 15.76 140.38 Z" />
				<path class="st3" d="M 2 141.3 L 152.22 228.03 L 385.9 93.11 L 235.68 6.38 L 2 141.3 Z M 72.4 120.99 C 68.53 123.27 62.2 123.27 58.33 120.98 C 54.46 118.69 54.46 115 58.33 112.77 C 62.2 110.54 68.53 110.54 72.4 112.78 C 76.27 115.01 76.27 118.71 72.4 120.99 Z M 114.98 96.39 C 111.11 98.67 104.78 98.67 100.91 96.38 C 97.04 94.09 97.04 90.4 100.91 88.17 C 104.78 85.94 111.11 85.94 114.98 88.18 C 118.84 90.41 118.84 94.1 114.98 96.39 Z M 116.54 123.22 C 109.73 127.24 98.59 127.23 91.78 123.21 C 84.97 119.19 84.97 112.68 91.77 108.75 C 98.58 104.82 109.72 104.82 116.53 108.76 C 123.35 112.69 123.35 119.2 116.54 123.22 Z M 90.63 131.42 C 94.5 129.19 100.83 129.19 104.7 131.43 C 108.57 133.67 108.57 137.36 104.7 139.64 C 100.83 141.92 94.5 141.92 90.63 139.63 C 86.76 137.35 86.76 133.65 90.63 131.42 Z M 122.39 126.48 C 129.2 122.55 140.34 122.56 147.15 126.49 C 153.96 130.42 153.97 136.93 147.16 140.95 C 140.35 144.97 129.21 144.96 122.4 140.94 C 115.59 136.92 115.59 130.41 122.39 126.48 Z M 122.93 150.07 C 126.8 147.84 133.13 147.84 137 150.08 C 140.87 152.32 140.87 156.01 137 158.29 C 133.13 160.57 126.8 160.57 122.93 158.28 C 119.07 156 119.06 152.3 122.93 150.07 Z M 133.2 106.81 C 137.07 104.58 143.4 104.58 147.27 106.82 C 151.14 109.06 151.14 112.75 147.27 115.03 C 143.4 117.31 137.07 117.31 133.2 115.02 C 129.34 112.74 129.34 109.05 133.2 106.81 Z M 157.55 71.78 C 153.68 74.06 147.35 74.06 143.48 71.77 C 139.61 69.48 139.61 65.79 143.48 63.56 C 147.35 61.33 153.68 61.33 157.55 63.57 C 161.42 65.8 161.42 69.49 157.55 71.78 Z M 160.39 97.9 C 153.58 101.92 142.44 101.91 135.63 97.89 C 128.82 93.87 128.82 87.36 135.62 83.43 C 142.43 79.5 153.57 79.5 160.38 83.44 C 167.19 87.38 167.2 93.88 160.39 97.9 Z M 166.24 101.17 C 173.05 97.24 184.19 97.24 191 101.18 C 197.81 105.11 197.82 111.62 191.01 115.64 C 184.2 119.66 173.06 119.65 166.25 115.63 C 159.44 111.61 159.43 105.1 166.24 101.17 Z M 165.5 125.46 C 169.37 123.23 175.7 123.23 179.57 125.47 C 183.44 127.71 183.44 131.4 179.57 133.68 C 175.7 135.96 169.37 135.96 165.5 133.67 C 161.64 131.39 161.64 127.69 165.5 125.46 Z M 175.78 82.2 C 179.65 79.97 185.98 79.97 189.85 82.21 C 193.72 84.45 193.72 88.14 189.85 90.42 C 185.98 92.7 179.65 92.7 175.78 90.41 C 171.91 88.13 171.91 84.44 175.78 82.2 Z M 200.12 47.17 C 196.25 49.45 189.92 49.45 186.05 47.16 C 182.18 44.87 182.18 41.18 186.05 38.95 C 189.92 36.72 196.25 36.72 200.12 38.96 C 203.99 41.19 203.99 44.88 200.12 47.17 Z M 204.23 72.59 C 197.42 76.61 186.28 76.6 179.47 72.58 C 172.66 68.56 172.66 62.05 179.46 58.12 C 186.27 54.19 197.41 54.2 204.22 58.13 C 211.04 62.06 211.04 68.57 204.23 72.59 Z M 210.09 75.85 C 216.9 71.92 228.04 71.92 234.85 75.86 C 241.66 79.8 241.67 86.3 234.86 90.32 C 228.05 94.34 216.91 94.33 210.1 90.31 C 203.28 86.29 203.28 79.78 210.09 75.85 Z M 208.08 100.85 C 211.95 98.62 218.28 98.62 222.15 100.86 C 226.02 103.1 226.02 106.79 222.15 109.07 C 218.28 111.35 211.95 111.35 208.08 109.06 C 204.21 106.78 204.21 103.09 208.08 100.85 Z M 218.35 57.59 C 222.22 55.36 228.55 55.36 232.42 57.6 C 236.29 59.84 236.29 63.53 232.42 65.81 C 228.55 68.09 222.22 68.09 218.35 65.8 C 214.49 63.52 214.48 59.83 218.35 57.59 Z M 242.7 22.56 C 238.83 24.84 232.5 24.84 228.63 22.55 C 224.76 20.26 224.76 16.57 228.63 14.34 C 232.5 12.11 238.83 12.11 242.7 14.35 C 246.56 16.58 246.56 20.27 242.7 22.56 Z M 248.08 47.27 C 241.27 51.29 230.13 51.28 223.32 47.26 C 216.51 43.24 216.51 36.73 223.31 32.8 C 230.12 28.87 241.26 28.87 248.07 32.81 C 254.89 36.75 254.89 43.25 248.08 47.27 Z M 250.65 76.24 C 254.52 74.01 260.85 74.01 264.72 76.25 C 268.59 78.49 268.59 82.18 264.72 84.46 C 260.85 86.74 254.52 86.74 250.65 84.45 C 246.79 82.17 246.78 78.48 250.65 76.24 Z M 275 41.21 C 271.13 43.49 264.8 43.49 260.93 41.2 C 257.06 38.91 257.06 35.22 260.93 32.99 C 264.8 30.76 271.13 30.76 275 33 C 278.86 35.23 278.87 38.92 275 41.21 Z M 278.7 65.01 C 271.89 69.03 260.75 69.02 253.94 65 C 247.13 60.98 247.13 54.47 253.93 50.54 C 260.74 46.61 271.88 46.62 278.69 50.55 C 285.51 54.48 285.51 60.99 278.7 65.01 Z M 307.3 59.85 C 303.43 62.13 297.1 62.13 293.23 59.84 C 289.36 57.55 289.36 53.86 293.23 51.63 C 297.1 49.4 303.43 49.4 307.3 51.64 C 311.17 53.88 311.17 57.57 307.3 59.85 Z M 339.6 78.5 C 335.73 80.78 329.4 80.78 325.53 78.49 C 321.66 76.2 321.66 72.51 325.53 70.28 C 329.4 68.05 335.73 68.05 339.6 70.29 C 343.47 72.52 343.47 76.22 339.6 78.5 Z M 357.83 88.93 C 361.7 86.7 368.03 86.7 371.9 88.94 C 375.77 91.18 375.77 94.87 371.9 97.15 C 368.03 99.43 361.7 99.43 357.83 97.14 C 353.96 94.86 353.96 91.16 357.83 88.93 Z M 315.25 113.54 C 319.12 111.31 325.45 111.31 329.32 113.55 C 333.19 115.79 333.19 119.48 329.32 121.76 C 325.45 124.04 319.12 124.04 315.25 121.75 C 311.39 119.47 311.39 115.77 315.25 113.54 Z M 315.18 86.02 C 321.99 82.09 333.13 82.1 339.94 86.03 C 346.75 89.96 346.76 96.47 339.95 100.49 C 333.14 104.51 322 104.5 315.19 100.48 C 308.38 96.45 308.38 89.94 315.18 86.02 Z M 309.33 82.75 C 302.52 86.77 291.38 86.76 284.57 82.74 C 277.76 78.72 277.76 72.21 284.56 68.28 C 291.37 64.35 302.51 64.35 309.32 68.29 C 316.13 72.23 316.14 78.73 309.33 82.75 Z M 282.95 94.89 C 286.82 92.66 293.15 92.66 297.02 94.9 C 300.89 97.14 300.89 100.83 297.02 103.11 C 293.15 105.39 286.82 105.39 282.95 103.1 C 279.09 100.82 279.09 97.12 282.95 94.89 Z M 272.68 138.15 C 276.55 135.92 282.88 135.92 286.75 138.16 C 290.62 140.4 290.62 144.09 286.75 146.37 C 282.88 148.65 276.55 148.65 272.68 146.36 C 268.81 144.08 268.81 140.38 272.68 138.15 Z M 271.34 111.33 C 278.15 107.4 289.29 107.4 296.1 111.34 C 302.91 115.28 302.92 121.78 296.11 125.8 C 289.3 129.82 278.16 129.81 271.35 125.79 C 264.54 121.77 264.53 115.26 271.34 111.33 Z M 265.48 108.06 C 258.67 112.08 247.53 112.07 240.72 108.05 C 233.91 104.03 233.91 97.52 240.71 93.59 C 247.52 89.66 258.66 89.66 265.47 93.6 C 272.29 97.54 272.29 104.04 265.48 108.06 Z M 240.38 119.5 C 244.25 117.27 250.58 117.27 254.45 119.51 C 258.32 121.75 258.32 125.44 254.45 127.72 C 250.58 130 244.25 130 240.38 127.71 C 236.51 125.43 236.51 121.73 240.38 119.5 Z M 230.1 162.76 C 233.97 160.53 240.3 160.53 244.17 162.77 C 248.04 165.01 248.04 168.7 244.17 170.98 C 240.3 173.26 233.97 173.26 230.1 170.97 C 226.24 168.69 226.24 164.99 230.1 162.76 Z M 227.49 136.64 C 234.3 132.71 245.44 132.71 252.25 136.65 C 259.06 140.58 259.07 147.09 252.26 151.11 C 245.45 155.13 234.31 155.12 227.5 151.1 C 220.69 147.08 220.68 140.57 227.49 136.64 Z M 221.64 133.38 C 214.83 137.4 203.69 137.39 196.88 133.37 C 190.07 129.35 190.07 122.84 196.87 118.91 C 203.68 114.98 214.82 114.99 221.63 118.92 C 228.44 122.85 228.45 129.36 221.64 133.38 Z M 211.88 152.33 C 208.01 154.61 201.68 154.61 197.81 152.32 C 193.94 150.03 193.94 146.34 197.81 144.11 C 201.68 141.88 208.01 141.88 211.88 144.12 C 215.75 146.35 215.75 150.05 211.88 152.33 Z M 187.53 187.37 C 191.4 185.14 197.73 185.14 201.6 187.38 C 205.47 189.62 205.47 193.31 201.6 195.59 C 197.73 197.87 191.4 197.87 187.53 195.58 C 183.67 193.3 183.67 189.6 187.53 187.37 Z M 183.64 161.96 C 190.45 158.03 201.59 158.03 208.4 161.97 C 215.21 165.91 215.22 172.41 208.41 176.43 C 201.6 180.45 190.46 180.44 183.65 176.42 C 176.84 172.4 176.84 165.89 183.64 161.96 Z M 177.79 158.69 C 170.98 162.71 159.84 162.7 153.03 158.68 C 146.22 154.66 146.22 148.15 153.02 144.22 C 159.82 140.29 170.97 140.29 177.78 144.23 C 184.59 148.17 184.6 154.67 177.79 158.69 Z M 169.3 176.94 C 165.43 179.22 159.1 179.22 155.23 176.93 C 151.36 174.64 151.36 170.95 155.23 168.72 C 159.1 166.49 165.43 166.49 169.3 168.73 C 173.17 170.96 173.17 174.66 169.3 176.94 Z M 144.96 211.98 C 148.83 209.75 155.16 209.75 159.03 211.99 C 162.9 214.23 162.9 217.92 159.03 220.2 C 155.16 222.48 148.83 222.48 144.96 220.19 C 141.09 217.91 141.09 214.21 144.96 211.98 Z M 139.8 187.27 C 146.61 183.34 157.75 183.34 164.56 187.28 C 171.37 191.22 171.38 197.72 164.57 201.74 C 157.76 205.76 146.62 205.75 139.81 201.73 C 133 197.71 132.99 191.2 139.8 187.27 Z M 112.66 193.33 C 116.53 191.1 122.86 191.1 126.73 193.34 C 130.6 195.58 130.6 199.27 126.73 201.55 C 122.86 203.83 116.53 203.83 112.66 201.54 C 108.79 199.26 108.79 195.56 112.66 193.33 Z M 109.17 169.54 C 115.98 165.61 127.12 165.61 133.93 169.55 C 140.74 173.49 140.75 179.99 133.94 184.01 C 127.13 188.03 115.99 188.02 109.18 184 C 102.37 179.97 102.37 173.46 109.17 169.54 Z M 80.36 174.68 C 84.23 172.45 90.56 172.45 94.43 174.69 C 98.3 176.93 98.3 180.62 94.43 182.9 C 90.56 185.18 84.23 185.18 80.36 182.89 C 76.49 180.61 76.49 176.91 80.36 174.68 Z M 78.55 151.8 C 85.36 147.87 96.5 147.87 103.31 151.81 C 110.12 155.75 110.13 162.25 103.32 166.27 C 96.51 170.29 85.37 170.28 78.56 166.26 C 71.75 162.23 71.74 155.73 78.55 151.8 Z M 48.06 156.03 C 51.93 153.8 58.26 153.8 62.13 156.04 C 66 158.28 66 161.97 62.13 164.25 C 58.26 166.53 51.93 166.53 48.06 164.24 C 44.19 161.96 44.19 158.26 48.06 156.03 Z M 47.92 134.06 C 54.73 130.13 65.87 130.13 72.68 134.07 C 79.49 138.01 79.5 144.51 72.69 148.53 C 65.88 152.55 54.74 152.54 47.93 148.52 C 41.12 144.5 41.12 137.99 47.92 134.06 Z M 15.76 137.38 C 19.63 135.15 25.96 135.15 29.83 137.39 C 33.7 139.63 33.7 143.32 29.83 145.6 C 25.96 147.88 19.63 147.88 15.76 145.59 C 11.89 143.31 11.89 139.62 15.76 137.38 Z" />
			</g>
			<g>
				<path class="st4" d="M 42.81 100.67 L 42.86 133.12 L 42.83 141.55 C 42.95 144.07 44.65 146.59 47.93 148.53 C 54.74 152.55 65.88 152.56 72.7 148.55 C 76.22 146.46 77.93 143.71 77.8 140.99 L 77.8 133.13 L 77.81 100.68 C 77.79 97.71 76.08 94.74 72.68 92.48 C 65.86 87.96 54.7 87.96 47.9 92.48 C 44.51 94.73 42.81 97.7 42.81 100.67 Z" />
				<path class="st2" d="M 42.86 133.4 L 42.83 141.83 C 42.95 144.35 44.65 146.87 47.93 148.8 C 54.74 152.82 65.88 152.83 72.7 148.82 C 76.22 146.74 77.93 143.98 77.8 141.26 L 77.8 133.4 C 77.58 130.61 75.88 127.88 72.69 125.75 C 65.87 121.24 54.71 121.24 47.91 125.75 C 44.72 127.88 43.07 130.61 42.86 133.4 Z" />
				<path class="st5" d="M 77.8 132.87 C 77.8 132.89 77.8 132.89 77.8 132.9 C 77.48 135.24 75.73 137.53 72.7 139.33 C 65.89 143.35 54.74 143.34 47.93 139.31 C 44.88 137.51 43.17 135.22 42.86 132.88 L 42.86 132.86 C 43.22 130.25 44.92 127.73 47.9 125.74 C 54.7 121.22 65.86 121.22 72.68 125.74 C 75.68 127.74 77.41 130.26 77.8 132.87 Z" />
				<path class="st6" d="M 39.65 103.85 C 39.65 106.95 41.66 110.05 45.68 112.43 C 53.72 117.18 66.88 117.18 74.93 112.44 C 78.92 110.09 80.93 107.01 80.96 103.94 L 80.96 91.09 C 80.99 87.97 78.98 84.86 74.92 82.51 C 66.87 77.86 53.71 77.86 45.67 82.5 C 41.65 84.82 39.64 87.9 39.64 91 L 39.64 103.85 Z" />
				<path class="st7" d="M 74.93 99.59 C 82.98 94.84 82.97 87.16 74.93 82.51 C 66.89 77.86 53.72 77.86 45.68 82.5 C 37.64 87.14 37.64 94.83 45.68 99.58 C 53.72 104.33 66.88 104.33 74.93 99.59 Z" />
			</g>
			<g>
				<path class="st4" d="M 174.35 24.82 L 174.37 57.27 L 174.37 65.7 C 174.49 68.22 176.19 70.74 179.47 72.68 C 186.28 76.7 197.42 76.71 204.24 72.7 C 207.76 70.61 209.47 67.86 209.34 65.14 L 209.34 57.28 L 209.35 24.83 C 209.33 21.86 207.62 18.89 204.22 16.63 C 197.4 12.11 186.24 12.11 179.44 16.63 C 176.05 18.88 174.35 21.85 174.35 24.82 Z" />
				<path class="st2" d="M 174.37 57.55 L 174.37 65.98 C 174.49 68.5 176.19 71.02 179.47 72.95 C 186.28 76.97 197.42 76.98 204.24 72.97 C 207.76 70.89 209.47 68.13 209.34 65.41 L 209.34 57.55 C 209.12 54.76 207.42 52.03 204.23 49.9 C 197.41 45.39 186.25 45.39 179.45 49.9 C 176.26 52.03 174.58 54.76 174.37 57.55 Z" />
				<path class="st6" d="M 171.19 28 C 171.19 31.1 173.2 34.2 177.22 36.58 C 185.26 41.33 198.42 41.33 206.47 36.59 C 210.46 34.24 212.47 31.16 212.5 28.09 L 212.5 15.23 C 212.53 12.11 210.52 9 206.46 6.65 C 198.41 2 185.25 2 177.21 6.64 C 173.19 8.96 171.18 12.04 171.18 15.14 L 171.18 28 Z" />
				<path class="st7" d="M 206.47 23.74 C 214.52 18.99 214.51 11.31 206.47 6.66 C 198.42 2.01 185.26 2.01 177.22 6.65 C 169.18 11.29 169.18 18.98 177.22 23.73 C 185.26 28.48 198.43 28.48 206.47 23.74 Z" />
				<path class="st5" d="M 209.34 56.83 C 209.34 56.85 209.34 56.85 209.34 56.86 C 209.02 59.2 207.26 61.49 204.23 63.29 C 197.42 67.31 186.27 67.3 179.46 63.27 C 176.41 61.47 174.68 59.18 174.37 56.84 L 174.37 56.82 C 174.73 54.21 176.45 51.69 179.43 49.7 C 186.23 45.18 197.39 45.18 204.21 49.7 C 207.21 51.7 208.95 54.22 209.34 56.83 Z" />
			</g>
			<g>
				<path class="st4" d="M 130.51 49.94 L 130.53 82.39 L 130.53 90.82 C 130.65 93.34 132.35 95.86 135.63 97.8 C 142.44 101.82 153.58 101.83 160.4 97.82 C 163.92 95.73 165.63 92.98 165.5 90.26 L 165.5 82.4 L 165.51 49.95 C 165.49 46.98 163.78 44.01 160.38 41.75 C 153.56 37.23 142.4 37.23 135.6 41.75 C 132.21 44 130.51 46.97 130.51 49.94 Z" />
				<path class="st2" d="M 130.53 82.67 L 130.53 91.1 C 130.65 93.62 132.35 96.14 135.63 98.07 C 142.44 102.09 153.58 102.1 160.4 98.09 C 163.92 96.01 165.63 93.25 165.5 90.53 L 165.5 82.67 C 165.28 79.88 163.58 77.15 160.39 75.02 C 153.57 70.51 142.41 70.51 135.61 75.02 C 132.42 77.15 130.74 79.88 130.53 82.67 Z" />
				<path class="st6" d="M 127.35 53.12 C 127.35 56.22 129.36 59.32 133.38 61.7 C 141.42 66.45 154.58 66.45 162.63 61.71 C 166.62 59.36 168.63 56.28 168.66 53.21 L 168.66 40.36 C 168.69 37.24 166.68 34.13 162.62 31.78 C 154.57 27.13 141.41 27.13 133.37 31.77 C 129.35 34.09 127.34 37.17 127.34 40.27 L 127.34 53.12 Z" />
				<path class="st7" d="M 162.63 48.86 C 170.68 44.11 170.67 36.43 162.63 31.78 C 154.58 27.13 141.42 27.13 133.38 31.77 C 125.34 36.41 125.34 44.1 133.38 48.85 C 141.42 53.6 154.58 53.61 162.63 48.86 Z" />
				<path class="st5" d="M 165.49 82.22 C 165.49 82.24 165.49 82.24 165.49 82.25 C 165.17 84.59 163.41 86.88 160.38 88.68 C 153.57 92.7 142.42 92.69 135.61 88.66 C 132.56 86.86 130.83 84.57 130.52 82.23 L 130.52 82.21 C 130.88 79.6 132.6 77.08 135.58 75.09 C 142.38 70.57 153.54 70.57 160.36 75.09 C 163.37 77.09 165.1 79.61 165.49 82.22 Z" />
			</g>
			<g>
				<path class="st4" d="M 86.66 75.36 L 86.68 107.81 L 86.68 116.24 C 86.8 118.76 88.5 121.28 91.78 123.22 C 98.59 127.24 109.73 127.25 116.55 123.24 C 120.07 121.15 121.78 118.4 121.65 115.68 L 121.65 107.82 L 121.66 75.37 C 121.64 72.4 119.93 69.43 116.53 67.17 C 109.71 62.65 98.55 62.65 91.75 67.17 C 88.36 69.42 86.66 72.39 86.66 75.36 Z" />
				<path class="st2" d="M 86.68 108.09 L 86.68 116.52 C 86.8 119.04 88.5 121.56 91.78 123.49 C 98.59 127.51 109.73 127.52 116.55 123.51 C 120.07 121.43 121.78 118.67 121.65 115.95 L 121.65 108.09 C 121.43 105.3 119.73 102.57 116.54 100.44 C 109.72 95.93 98.56 95.93 91.76 100.44 C 88.57 102.57 86.89 105.3 86.68 108.09 Z" />
				<path class="st6" d="M 83.5 78.54 C 83.5 81.64 85.51 84.74 89.53 87.12 C 97.57 91.87 110.73 91.87 118.78 87.13 C 122.77 84.78 124.78 81.7 124.81 78.63 L 124.81 65.78 C 124.84 62.66 122.83 59.55 118.77 57.2 C 110.72 52.55 97.56 52.55 89.52 57.19 C 85.5 59.51 83.49 62.59 83.49 65.69 L 83.49 78.54 Z" />
				<path class="st7" d="M 118.78 74.28 C 126.83 69.53 126.82 61.85 118.78 57.2 C 110.73 52.55 97.57 52.55 89.53 57.19 C 81.49 61.83 81.49 69.52 89.53 74.27 C 97.57 79.02 110.73 79.03 118.78 74.28 Z" />
				<path class="st5" d="M 121.65 107.02 C 121.65 107.04 121.65 107.04 121.65 107.05 C 121.33 109.39 119.57 111.68 116.54 113.48 C 109.73 117.5 98.58 117.49 91.77 113.46 C 88.72 111.66 86.99 109.37 86.68 107.03 L 86.68 107.01 C 87.04 104.4 88.76 101.88 91.74 99.89 C 98.54 95.37 109.7 95.37 116.52 99.89 C 119.52 101.89 121.26 104.41 121.65 107.02 Z" />
			</g>
		</g>
</svg>